<svg id="Layer_1" data-name="Layer 1" xmlns="http://www.w3.org/2000/svg" viewBox="0 0 1366 768"><defs><style>.cls-1{fill:#e3f3f5;}.cls-2{fill:#c7e7ec;}.cls-3{fill:#33313b;}.cls-4{fill:#aadae2;}.cls-5,.cls-7{fill:none;}.cls-6{fill:#72c2cf;}.cls-7{stroke:#33313b;stroke-miterlimit:10;stroke-width:3px;}</style></defs><title>how-it-works</title><rect class="cls-1" width="1366" height="768" rx="10"/><rect class="cls-2" x="49.42837" y="51" width="1042.08902" height="549.23471" rx="10"/><rect class="cls-2" x="49.42837" y="629.46944" width="1042.08902" height="88.53621" rx="10"/><path class="cls-3" d="M1053.82178,256.48962h-10a1.5,1.5,0,0,0,0,3h10a1.5,1.5,0,0,0,0-3Zm-18,0h-10a1.5,1.5,0,0,0,0,3h10a1.5,1.5,0,0,0,0-3Zm-18,0h-10a1.5,1.5,0,0,0,0,3h10a1.5,1.5,0,0,0,0-3Zm-18,0h-10a1.5,1.5,0,0,0,0,3h10a1.5,1.5,0,0,0,0-3Zm-18,0h-10a1.5,1.5,0,0,0,0,3h10a1.5,1.5,0,0,0,0-3Zm-18,0h-10a1.5,1.5,0,0,0,0,3h10a1.5,1.5,0,0,0,0-3Zm-18,0h-10a1.5,1.5,0,0,0,0,3h10a1.5,1.5,0,0,0,0-3Zm-18,0h-10a1.5,1.5,0,0,0,0,3h10a1.5,1.5,0,0,0,0-3Zm-18,0h-10a1.5,1.5,0,0,0,0,3h10a1.5,1.5,0,0,0,0-3Zm-18,0h-10a1.5,1.5,0,0,0,0,3h10a1.5,1.5,0,0,0,0-3Zm-18,0h-10a1.5,1.5,0,0,0,0,3h10a1.5,1.5,0,0,0,0-3Zm-18,0h-10a1.5,1.5,0,0,0,0,3h10a1.5,1.5,0,0,0,0-3Zm-18,0h-10a1.5,1.5,0,0,0,0,3h10a1.5,1.5,0,0,0,0-3Zm-18,0h-10a1.5,1.5,0,0,0,0,3h10a1.5,1.5,0,0,0,0-3Zm-18,0h-10a1.5,1.5,0,0,0,0,3h10a1.5,1.5,0,0,0,0-3Zm-18,0h-10a1.5,1.5,0,0,0,0,3h10a1.5,1.5,0,0,0,0-3Zm-18,0h-10a1.5,1.5,0,0,0,0,3h10a1.5,1.5,0,0,0,0-3Zm-18,0h-10a1.5,1.5,0,0,0,0,3h10a1.5,1.5,0,0,0,0-3Zm-18,0h-10a1.5,1.5,0,0,0,0,3h10a1.5,1.5,0,0,0,0-3Zm-18,0h-10a1.5,1.5,0,0,0,0,3h10a1.5,1.5,0,0,0,0-3Zm-18,0h-10a1.5,1.5,0,0,0,0,3h10a1.5,1.5,0,0,0,0-3Zm-18,0h-10a1.5,1.5,0,0,0,0,3h10a1.5,1.5,0,0,0,0-3Zm-18,0h-10a1.5,1.5,0,0,0,0,3h10a1.5,1.5,0,0,0,0-3Zm-18,0h-10a1.5,1.5,0,0,0,0,3h10a1.5,1.5,0,0,0,0-3Zm-18,0h-10a1.5,1.5,0,0,0,0,3h10a1.5,1.5,0,0,0,0-3Zm-18,0h-10a1.5,1.5,0,0,0,0,3h10a1.5,1.5,0,0,0,0-3Zm-18,0h-10a1.5,1.5,0,0,0,0,3h10a1.5,1.5,0,0,0,0-3Zm-18,0h-10a1.5,1.5,0,0,0,0,3h10a1.5,1.5,0,0,0,0-3Zm-18,0h-10a1.5,1.5,0,0,0,0,3h10a1.5,1.5,0,0,0,0-3Zm-18,0h-10a1.5,1.5,0,0,0,0,3h10a1.5,1.5,0,0,0,0-3Zm-18,0h-10a1.5,1.5,0,0,0,0,3h10a1.5,1.5,0,0,0,0-3Zm-18,0h-10a1.5,1.5,0,0,0,0,3h10a1.5,1.5,0,0,0,0-3Zm-18,0h-10a1.5,1.5,0,0,0,0,3h10a1.5,1.5,0,0,0,0-3Zm-18,0h-10a1.5,1.5,0,0,0,0,3h10a1.5,1.5,0,0,0,0-3Zm-18,0h-10a1.5,1.5,0,0,0,0,3h10a1.5,1.5,0,0,0,0-3Zm-18,0h-10a1.5,1.5,0,0,0,0,3h10a1.5,1.5,0,0,0,0-3Zm-18,0h-10a1.5,1.5,0,0,0,0,3h10a1.5,1.5,0,0,0,0-3Zm-18,0h-10a1.5,1.5,0,0,0,0,3h10a1.5,1.5,0,0,0,0-3Zm-18,0h-10a1.5,1.5,0,0,0,0,3h10a1.5,1.5,0,0,0,0-3Zm-18,0h-10a1.5,1.5,0,0,0,0,3h10a1.5,1.5,0,0,0,0-3Zm-18,0h-9.12134l-.0061,0-.00928.00007-.00586,0-.01.00009-.00513,0-.0105.00012-.00488.00006-.011.00015-.00416.00006-.01293.00025-.0022,0-.04761.00116h0l-.01587.00046-.00049,0-.01538.00052h-.00049a4.979,4.979,0,0,0-.58178.05474l-.00074.00013-.01391.00216-.002.00028-.01221.00195-.00391.00061-.00976.00159-.00537.00091-.00611.001-.07641.01325a1.5,1.5,0,1,0,.5354,2.95181,1.98685,1.98685,0,0,1,.35351-.0315h9.10645a1.5,1.5,0,0,0,0-3Zm-12.60645,4.54371a1.5,1.5,0,0,0-1.5,1.5v10a1.5,1.5,0,0,0,3,0v-10a1.5,1.5,0,0,0-1.5-1.5Zm0,18a1.5,1.5,0,0,0-1.5,1.5v10a1.5,1.5,0,0,0,3,0v-10a1.5,1.5,0,0,0-1.5-1.5Zm0,18a1.5,1.5,0,0,0-1.5,1.5v10a1.5,1.5,0,0,0,3,0v-10a1.5,1.5,0,0,0-1.5-1.5Zm0,18a1.5,1.5,0,0,0-1.5,1.5v10a1.5,1.5,0,0,0,3,0v-10a1.5,1.5,0,0,0-1.5-1.5Zm0,18a1.5,1.5,0,0,0-1.5,1.5v10a1.5,1.5,0,0,0,3,0v-10a1.5,1.5,0,0,0-1.5-1.5Zm0,18a1.5,1.5,0,0,0-1.5,1.5v10a1.5,1.5,0,0,0,3,0v-10a1.5,1.5,0,0,0-1.5-1.5Zm0,18a1.5,1.5,0,0,0-1.5,1.5v10a1.5,1.5,0,0,0,3,0v-10a1.5,1.5,0,0,0-1.5-1.5Zm0,18a1.5,1.5,0,0,0-1.5,1.5v8.44647h0v.02932l.00025.00513v.01434l.00024.01453v.00406l.00024.011v.00457l.00025.01108v.00348l.00024.015v.00027l.00049.01428v.004l.00025.01132.00024.00354.001.03021v.00156l.00048.01334v.00287l.00074.01385v.001l.00146.031v.00159l.00073.01373v.002a4.9496,4.9496,0,0,0,.23755,1.28259,1.5,1.5,0,0,0,2.85059-.93457,1.96588,1.96588,0,0,1-.09473-.6051v-8.44647a1.5,1.5,0,0,0-1.5-1.5ZM336.419,398.9798h-10a1.5,1.5,0,0,0,0,3h10a1.5,1.5,0,0,0,0-3Zm18,0h-10a1.5,1.5,0,0,0,0,3h10a1.5,1.5,0,0,0,0-3Zm18,0h-10a1.5,1.5,0,0,0,0,3h10a1.5,1.5,0,0,0,0-3Zm18,0h-10a1.5,1.5,0,0,0,0,3h10a1.5,1.5,0,0,0,0-3Zm18,0h-10a1.5,1.5,0,0,0,0,3h10a1.5,1.5,0,0,0,0-3Zm18,0h-10a1.5,1.5,0,0,0,0,3h10a1.5,1.5,0,0,0,0-3Zm18,0h-10a1.5,1.5,0,0,0,0,3h10a1.5,1.5,0,0,0,0-3Zm18,0h-10a1.5,1.5,0,0,0,0,3h10a1.5,1.5,0,0,0,0-3Zm18,0h-10a1.5,1.5,0,0,0,0,3h10a1.5,1.5,0,0,0,0-3Zm18,0h-10a1.5,1.5,0,0,0,0,3h10a1.5,1.5,0,0,0,0-3Zm18,0h-10a1.5,1.5,0,0,0,0,3h10a1.5,1.5,0,0,0,0-3Zm18,0h-10a1.5,1.5,0,0,0,0,3h10a1.5,1.5,0,0,0,0-3Zm18,0h-10a1.5,1.5,0,0,0,0,3h10a1.5,1.5,0,0,0,0-3Zm18,0h-10a1.5,1.5,0,0,0,0,3h10a1.5,1.5,0,0,0,0-3Zm18,0h-10a1.5,1.5,0,0,0,0,3h10a1.5,1.5,0,0,0,0-3Zm18,0h-10a1.5,1.5,0,0,0,0,3h10a1.5,1.5,0,0,0,0-3Zm18,0h-10a1.5,1.5,0,0,0,0,3h10a1.5,1.5,0,0,0,0-3Zm18,0h-10a1.5,1.5,0,0,0,0,3h10a1.5,1.5,0,0,0,0-3Zm18,0h-10a1.5,1.5,0,0,0,0,3h10a1.5,1.5,0,0,0,0-3Zm18,0h-10a1.5,1.5,0,0,0,0,3h10a1.5,1.5,0,0,0,0-3Zm18,0h-10a1.5,1.5,0,0,0,0,3h10a1.5,1.5,0,0,0,0-3Zm18,0h-10a1.5,1.5,0,0,0,0,3h10a1.5,1.5,0,0,0,0-3Zm18,0h-10a1.5,1.5,0,0,0,0,3h10a1.5,1.5,0,0,0,0-3Zm18,0h-10a1.5,1.5,0,0,0,0,3h10a1.5,1.5,0,0,0,0-3Zm18,0h-10a1.5,1.5,0,0,0,0,3h10a1.5,1.5,0,0,0,0-3Zm18,0h-10a1.5,1.5,0,0,0,0,3h10a1.5,1.5,0,0,0,0-3Zm18,0h-10a1.5,1.5,0,0,0,0,3h10a1.5,1.5,0,0,0,0-3Zm18,0h-10a1.5,1.5,0,0,0,0,3h10a1.5,1.5,0,0,0,0-3Zm18,0h-10a1.5,1.5,0,0,0,0,3h10a1.5,1.5,0,0,0,0-3Zm18,0h-10a1.5,1.5,0,0,0,0,3h10a1.5,1.5,0,0,0,0-3Zm18,0h-10a1.5,1.5,0,0,0,0,3h10a1.5,1.5,0,0,0,0-3Zm18,0h-10a1.5,1.5,0,0,0,0,3h10a1.5,1.5,0,0,0,0-3Zm18,0h-10a1.5,1.5,0,0,0,0,3h10a1.5,1.5,0,0,0,0-3Zm18,0h-10a1.5,1.5,0,0,0,0,3h10a1.5,1.5,0,0,0,0-3Zm18,0h-10a1.5,1.5,0,0,0,0,3h10a1.5,1.5,0,0,0,0-3Zm18,0h-10a1.5,1.5,0,0,0,0,3h10a1.5,1.5,0,0,0,0-3Zm18,0h-10a1.5,1.5,0,0,0,0,3h10a1.5,1.5,0,0,0,0-3Zm18,0h-10a1.5,1.5,0,0,0,0,3h10a1.5,1.5,0,0,0,0-3Zm18,0h-10a1.5,1.5,0,0,0,0,3h10a1.5,1.5,0,0,0,0-3Zm18,0h-10a1.5,1.5,0,0,0,0,3h10a1.5,1.5,0,0,0,0-3Zm17.13354-.46323a1.493,1.493,0,0,0-.74707.20035,1.94818,1.94818,0,0,1-.98364.26288H1046.419a1.5,1.5,0,0,0,0,3h7.40283l.019,0,.00562,0,.01391-.0001.00611,0,.01611-.00018.00293,0,.0188-.00027.00586-.0001.01367-.00027.0061-.00012.01465-.00034.00464-.00009.01855-.00052.00537-.00015.01343-.00043.00708-.00024.01343-.00049.00537-.00018.01856-.00074.00463-.00021.01416-.00061.00684-.00034.01294-.00061.0061-.0003.01831-.00095.00367-.00021.01513-.00086.00708-.00042.012-.0007.00708-.00046.01318-.00086.00879-.00058.0144-.001.00733-.00052.01147-.00086.00781-.00058.01221-.00094.00635-.00052.01733-.00141.00782-.00064.01074-.00094.008-.0007.01123-.001.00757-.0007.01685-.00159.00781-.00076.01074-.001.0083-.00086.0105-.00106.0083-.00086.01221-.00131.01318-.00143.009-.001.00976-.0011.0083-.00095.01026-.00119.00781-.00094.01758-.00214.00805-.001.01026-.00128.00806-.001.01-.00131.00684-.00088.02173-.00293.00464-.00064.011-.00153.00684-.00095.011-.00158.00659-.00092.03784-.00567.00586-.00092.01172-.0018.00513-.00082.03979-.00644.00439-.00071.01246-.00213.00415-.00067.01294-.00223.00073-.00012.02759-.00489.00317-.00054.01294-.00239.00342-.00061.01343-.0025.00073-.00012.0437-.00839.00268-.00052.01392-.00272.00122-.00027.04321-.00879.00245-.00052.01391-.00293.00147-.0003.05932-.01307.00025-.00006a4.943,4.943,0,0,0,.73266-.22629l.001-.00036.05517-.02225.00147-.00064.01318-.00543.001-.00043.03906-.01636.00342-.00143.01147-.00494.00367-.00153.03589-.01563.00512-.00213.00977-.0044.00586-.00262.00976-.00433.00635-.00284.01587-.00708.00781-.0036.0083-.00379.00806-.00363.00781-.00363.00977-.00449.00683-.00314.01465-.0069.00562-.00265.011-.00513.00562-.00275.01318-.00622.00293-.00141.01685-.00808.002-.001.01465-.00714.00342-.00168.0144-.007.00244-.00119.03443-.01721.00073-.00043q.12414-.06248.2439-.13156a1.50014,1.50014,0,0,0-.74976-2.80014Zm1.76929-15.784a1.50006,1.50006,0,0,0-1.5,1.5v10a1.5,1.5,0,1,0,3,0v-10a1.50006,1.50006,0,0,0-1.5-1.5Zm0-18a1.50006,1.50006,0,0,0-1.5,1.5v10a1.5,1.5,0,1,0,3,0v-10a1.50006,1.50006,0,0,0-1.5-1.5Zm0-18a1.50006,1.50006,0,0,0-1.5,1.5v10a1.5,1.5,0,1,0,3,0v-10a1.50006,1.50006,0,0,0-1.5-1.5Zm0-18a1.50006,1.50006,0,0,0-1.5,1.5v10a1.5,1.5,0,1,0,3,0v-10a1.50006,1.50006,0,0,0-1.5-1.5Zm0-18a1.50006,1.50006,0,0,0-1.5,1.5v10a1.5,1.5,0,1,0,3,0v-10a1.50006,1.50006,0,0,0-1.5-1.5Zm0-18a1.50006,1.50006,0,0,0-1.5,1.5v10a1.5,1.5,0,1,0,3,0v-10a1.50006,1.50006,0,0,0-1.5-1.5Zm0-18a1.50006,1.50006,0,0,0-1.5,1.5v10a1.5,1.5,0,1,0,3,0v-10a1.50006,1.50006,0,0,0-1.5-1.5Zm-.72095-16.86032a1.50012,1.50012,0,0,0-1.18994,2.412,1.96988,1.96988,0,0,1,.41089,1.20532v6.743a1.5,1.5,0,1,0,3,0v-6.77267l-.00025-.00574v-.01486l-.00024-.01062v-.00449l-.00025-.0148v-.00183l-.00024-.013v-.00473l-.00024-.01022-.00025-.00543v-.0094l-.00024-.0058-.00025-.01026-.00024-.00445-.00049-.01471v-.00327l-.00049-.01141v-.00543l-.00048-.00931-.00025-.00589-.00024-.01-.00025-.00448-.00049-.01279-.00024-.0022-.00049-.01465-.00024-.005-.00049-.00934-.00049-.00638-.00049-.00894-.00024-.00558-.00049-.00956-.00024-.00537-.00074-.01248-.00024-.00314-.001-.0134-.00024-.00519-.00049-.00952-.00049-.00555-.00073-.00931-.00024-.00574-.00074-.01-.00048-.00442-.001-.01435-.00025-.004-.001-.01084-.00025-.00509-.001-.0098-.00025-.005-.001-.01025-.00049-.00473-.00073-.01053-.00049-.0043-.00122-.01428-.00049-.00394-.001-.0105-.00049-.00616-.00073-.008-.00073-.007-.00073-.00738-.00074-.00729-.001-.00855-.00049-.0054-.00147-.01383-.00073-.00582-.001-.00867-.00074-.00659-.001-.00779-.00074-.0064-.001-.00928-.00049-.005-.00171-.01266-.00024-.00177-.00171-.014-.00049-.00555-.00122-.00885-.00073-.0065-.00122-.00779-.00074-.00647-.00122-.00824-.00073-.00634-.00171-.0123-.001-.00672-.001-.00836-.00122-.007-.001-.00757-.001-.00671-.00122-.00766-.00073-.00647-.00146-.0083-.00074-.00626-.00146-.00946-.00171-.01074-.00122-.00711-.001-.00687-.00122-.00732-.001-.00711-.00122-.00726-.00122-.00672-.00122-.008-.00122-.00708-.0022-.01276-.00073-.0051-.00146-.00854-.00122-.00708-.00122-.007-.00147-.00717-.001-.00656-.00146-.00763-.00122-.00693-.00244-.01321-.00122-.00644-.00147-.00791-.00122-.00625-.00146-.00742-.00122-.00638-.00147-.008-.001-.00556-.0017-.00815-.001-.00448-.00342-.01792-.00073-.00375-.002-.0094-.00074-.004-.002-.00937-.001-.00442-.002-.00888-.001-.00519-.002-.00842-.00024-.00226-.0044-.01947-.00073-.00421-.00195-.00882-.00122-.005-.00171-.00814-.00147-.00577-.00171-.00824-.00122-.00473-.00659-.02948-.00146-.00543-.00171-.00812-.00122-.00507-.0022-.00879-.001-.00424-.00244-.00955-.00024-.001-.0083-.03357-.001-.004-.0022-.009-.00122-.00454-.0022-.00855-.00122-.00482-.00854-.0332-.00025-.00058-.00244-.00946-.00122-.00434-.00244-.009-.001-.00369-.00268-.00965-.00073-.00317-.00928-.03305-.00049-.00153-.00269-.0101-.001-.00305-.00269-.00989-.001-.00314-.00293-.00974-.00074-.00271-.00952-.03263-.00073-.00225-.00293-.00956-.001-.00384-.00293-.00946-.00073-.00275-.01416-.04556-.00049-.00165-.00341-.01022-.00074-.00272-.00317-.01007-.001-.00253-.00317-.01023v-.00012l-.00757-.023-.00049-.00116-.00293-.00921-.00122-.004-.00293-.00864-.00146-.00445-.00318-.00885-.00073-.00281-.011-.03162-.00073-.00268-.00342-.00955-.00122-.00315-.00317-.00961-.001-.00266-.00366-.01028-.00024-.00064-.01221-.03421-.00049-.00122-.0039-.01053-.00074-.0018-.00366-.01041-.00073-.002-.01709-.045-.00049-.00129-.00391-.01065-.00073-.00155-.0039-.01056-.00074-.00144-.01782-.04559-.00024-.00052-.0044-.01117-.00024-.00073-.00464-.01123v-.00028l-.0188-.04562-.00049-.00119-.02905-.06848-.00049-.00095-.00464-.01074-.00049-.001-.02-.04528v-.00006l-.00488-.0109-.00049-.001q-.0282-.06266-.05835-.12445v0l-.00512-.01062-.00074-.00146-.02734-.055-.00024-.00039-.00562-.01084-.00024-.00048-.02808-.05457-.00073-.0014-.00537-.01007-.00049-.00095-.02295-.04321-.00024-.00046a5.04007,5.04007,0,0,0-.43262-.66864,1.4978,1.4978,0,0,0-1.19214-.58814Z"/><path class="cls-4" d="M104.42842,381.97961a5.0147,5.0147,0,0,1-5-5V281.49a5.0147,5.0147,0,0,1,5-5h189a6,6,0,0,1,6,6v94.4896a5.0147,5.0147,0,0,1-5,5Z"/><rect class="cls-5" x="339.71529" y="276.49001" width="200" height="105.4896"/><path class="cls-4" d="M594.71529,381.97961a5.0147,5.0147,0,0,1-5-5V281.49a5.0147,5.0147,0,0,1,5-5h189a6,6,0,0,1,6,6v94.4896a5.0147,5.0147,0,0,1-5,5Z"/><path class="cls-4" d="M844.71529,381.97961a5.0147,5.0147,0,0,1-5-5V281.49a5.0147,5.0147,0,0,1,5-5h189a6,6,0,0,1,6,6v94.4896a5.0147,5.0147,0,0,1-5,5Z"/><path class="cls-3" d="M392.36426,338.71875h-4.10449V321.87061h4.10449v7.39209l5.56738-7.39209h5.376l-6.93555,8.42431,6.93555,8.42383h-5.2793l-5.66406-7.43994Z"/><path class="cls-3" d="M416.50684,321.82275h4.10449v16.896h-4.10449l-6.86329-10.63184v10.63184h-4.10449v-16.896h4.10449l6.86329,10.63184Z"/><path class="cls-3" d="M434.915,338.71875l-.93555-2.832h-6.04883l-.93554,2.832H422.627l5.85645-16.896h4.99219l5.832,16.896Zm-5.95215-5.95215h3.98438l-1.99219-6Z"/><path class="cls-3" d="M440.17188,324.99072v-3.12011h13.29589v3.12011h-4.60839v13.728h-4.10352v-13.728Z"/><path class="cls-3" d="M455.915,338.71875V321.87061h4.10449v16.84814Z"/><path class="cls-3" d="M467.96289,338.71875l-5.97559-16.84814h4.36817l4.17578,12.84033,4.17578-12.84033h4.36817l-5.97559,16.84814Z"/><path class="cls-3" d="M491.24316,321.82275v3.12012h-6.0957v3.624h5.376v3.11963h-5.376v3.91211h6.0957v3.12012H481.043v-16.896Z"/><path class="cls-3" d="M163.26172,332.167v6.55176h-4.10449V321.87061h6.64843a6.45459,6.45459,0,0,1,4.55957,1.5122,4.79506,4.79506,0,0,1,1.63184,3.64795,5.24868,5.24868,0,0,1-.88769,2.856,4.845,4.845,0,0,1-2.9043,1.96826l4.12793,6.86377H167.5332l-3.792-6.55176Zm0-7.17627v4.05616h2.54394a1.88087,1.88087,0,0,0,2.01563-2.00391,2.04464,2.04464,0,0,0-.55176-1.47608,1.9339,1.9339,0,0,0-1.46387-.57617Z"/><path class="cls-3" d="M178.93359,323.81494a2.46284,2.46284,0,1,1,.69629-1.71631A2.318,2.318,0,0,1,178.93359,323.81494Zm-3.74414,14.90381V325.32666h4.1045v13.39209Z"/><path class="cls-3" d="M183.96191,336.99072a6.51181,6.51181,0,0,1-2.02832-4.99218,6.41576,6.41576,0,0,1,2.01661-4.95557,7.61133,7.61133,0,0,1,9.97168,0,6.43726,6.43726,0,0,1,2.0039,4.95557,6.57275,6.57275,0,0,1-1.99219,4.99218,6.92383,6.92383,0,0,1-4.96777,1.896A7.04791,7.04791,0,0,1,183.96191,336.99072Zm6.97168-2.47217a3.49927,3.49927,0,0,0,.81641-2.4956,3.3978,3.3978,0,0,0-.83984-2.48438,2.70767,2.70767,0,0,0-1.99219-.85205,2.66826,2.66826,0,0,0-1.98047.85205,4.10943,4.10943,0,0,0,.02441,4.98,2.72152,2.72152,0,0,0,2.00391.86426A2.60911,2.60911,0,0,0,190.93359,334.51855Z"/><path class="cls-3" d="M207.28906,336.42676a8.86844,8.86844,0,0,1,0-12.35987,8.46769,8.46769,0,0,1,6.13184-2.436,8.65793,8.65793,0,0,1,4.99219,1.48779,7.76315,7.76315,0,0,1,3.04785,4.12793h-4.89649a3.22264,3.22264,0,0,0-3.07129-1.84765,4.28838,4.28838,0,0,0-3.32421,1.31982,5.74133,5.74133,0,0,0,0,7.05615,4.28835,4.28835,0,0,0,3.32421,1.31983,3.22229,3.22229,0,0,0,3.07129-1.84815h4.89649a7.75943,7.75943,0,0,1-3.04785,4.12793,8.65107,8.65107,0,0,1-4.99219,1.48828A8.46769,8.46769,0,0,1,207.28906,336.42676Z"/><path class="cls-3" d="M224.10059,321.87061h4.10449v13.728h5.11133v3.12012h-9.21582Z"/><path class="cls-3" d="M235.59668,338.71875V321.87061h4.10449v16.84814Z"/><path class="cls-3" d="M625.73145,338.71875l-.93555-2.832h-6.04883l-.93555,2.832h-4.36816l5.85644-16.896H624.292l5.832,16.896Zm-5.95215-5.95215h3.98437l-1.99219-6Z"/><path class="cls-3" d="M641.23633,325.32666h4.10351v13.39209h-4.10351V336.751a4.38349,4.38349,0,0,1-4.05664,2.11181,4.85534,4.85534,0,0,1-3.73145-1.53613,5.889,5.889,0,0,1-1.42871-4.17578v-7.82422h4.08008v7.272a2.76561,2.76561,0,0,0,.68457,2.00391,2.86009,2.86009,0,0,0,3.76758,0,2.76565,2.76565,0,0,0,.68457-2.00391Z"/><path class="cls-3" d="M654.62793,335.23877h1.46387v3.48h-2.08789a5.4352,5.4352,0,0,1-3.49219-.99609,4.15886,4.15886,0,0,1-1.23633-3.41993v-5.56787h-1.24805v-3.4082h1.24805V322.063h4.10449v3.26367h2.6875v3.4082h-2.6875v5.56787Q653.37988,335.23878,654.62793,335.23877Z"/><path class="cls-3" d="M659.96777,336.99072a6.51178,6.51178,0,0,1-2.02832-4.99218,6.41579,6.41579,0,0,1,2.0166-4.95557,7.61133,7.61133,0,0,1,9.97168,0,6.43723,6.43723,0,0,1,2.00391,4.95557,6.57275,6.57275,0,0,1-1.99219,4.99218,6.92383,6.92383,0,0,1-4.96777,1.896A7.04789,7.04789,0,0,1,659.96777,336.99072Zm6.97168-2.47217a3.49927,3.49927,0,0,0,.81641-2.4956,3.3978,3.3978,0,0,0-.83984-2.48438,2.70767,2.70767,0,0,0-1.99219-.85205,2.66826,2.66826,0,0,0-1.98047.85205,4.10939,4.10939,0,0,0,.02441,4.98,2.72151,2.72151,0,0,0,2.00391.86426A2.60911,2.60911,0,0,0,666.93945,334.51855Z"/><path class="cls-3" d="M673.65918,329.35889a3.66091,3.66091,0,0,1,1.5127-2.97608,6.40372,6.40372,0,0,1,4.09179-1.20019,6.81972,6.81972,0,0,1,4.16406,1.17627,4.04591,4.04591,0,0,1,1.67969,3.21582h-4.20019a1.17792,1.17792,0,0,0-.4795-.94776,2.3728,2.3728,0,0,0-1.22461-.25244q-1.60692,0-1.60742.98438,0,.88769,1.96778,1.22363a16.03272,16.03272,0,0,1,3.624,1.03223,3.1399,3.1399,0,0,1,1.96777,3.02392,3.64814,3.64814,0,0,1-1.60742,3.06006,6.64542,6.64542,0,0,1-4.05664,1.188,7.06391,7.06391,0,0,1-4.08008-1.11621,4.08758,4.08758,0,0,1-1.77539-3.29981h4.2002q.167,1.22388,1.72754,1.22412a1.98746,1.98746,0,0,0,1.18847-.33593,1.0235,1.0235,0,0,0,.46778-.86426q0-.52734-.78028-.83984a10.59523,10.59523,0,0,0-1.88379-.52784q-1.10448-.21606-2.21972-.54a4.23722,4.23722,0,0,1-1.89649-1.12793A2.88741,2.88741,0,0,1,673.65918,329.35889Z"/><path class="cls-3" d="M688.76758,337.01465a7.61433,7.61433,0,0,1,0-9.97168,6.51283,6.51283,0,0,1,4.8125-1.86035,6.978,6.978,0,0,1,4.15137,1.21191,5.77131,5.77131,0,0,1,2.25683,3.46826h-4.44043a1.95067,1.95067,0,0,0-1.88379-1.20019,2.2,2.2,0,0,0-1.94433.92431,4.985,4.985,0,0,0,0,4.87207,2.11543,2.11543,0,0,0,1.86035.92383,2.30047,2.30047,0,0,0,1.20019-.26416,2.22678,2.22678,0,0,0,.76758-.936h4.44043a5.96232,5.96232,0,0,1-2.28027,3.43213,6.7712,6.7712,0,0,1-4.12793,1.272A6.48893,6.48893,0,0,1,688.76758,337.01465Z"/><path class="cls-3" d="M703.083,336.9668a7.7216,7.7216,0,0,1,0-9.852,5.66347,5.66347,0,0,1,4.332-1.93213,4.54543,4.54543,0,0,1,3.92383,1.896v-1.752h4.10449v13.39209h-4.10449V336.7749a4.63838,4.63838,0,0,1-3.9834,2.11182A5.61381,5.61381,0,0,1,703.083,336.9668Zm7.36816-2.4961a3.2596,3.2596,0,0,0,.8877-2.44775,3.21841,3.21841,0,0,0-.8877-2.436,2.85451,2.85451,0,0,0-4.08008.01172,3.26007,3.26007,0,0,0-.88769,2.44825,3.21914,3.21914,0,0,0,.88769,2.436,2.85394,2.85394,0,0,0,4.08008-.01221Z"/><path class="cls-3" d="M719.043,338.71875V320.959h4.10449v17.75977Z"/><path class="cls-3" d="M730.49121,323.81494a2.46284,2.46284,0,1,1,.69629-1.71631A2.318,2.318,0,0,1,730.49121,323.81494Zm-3.74414,14.90381V325.32666h4.10449v13.39209Z"/><path class="cls-3" d="M738.55566,325.32666v1.96826a4.38125,4.38125,0,0,1,4.05567-2.1123,4.86058,4.86058,0,0,1,3.73242,1.53613,5.89457,5.89457,0,0,1,1.42773,4.17578v7.82422h-4.08007v-7.272a2.77022,2.77022,0,0,0-.6836-2.00391,2.86138,2.86138,0,0,0-3.76855,0,2.766,2.766,0,0,0-.6836,2.00391v7.272h-4.10449V325.32666Z"/><path class="cls-3" d="M752.043,336.9668a7.7216,7.7216,0,0,1,0-9.852,5.66347,5.66347,0,0,1,4.332-1.93213,4.54543,4.54543,0,0,1,3.92383,1.896v-1.752h4.10449V338.647a7.13763,7.13763,0,0,1-1.53613,4.67969,4.97108,4.97108,0,0,1-2.09961,1.48828,9.78957,9.78957,0,0,1-7.95606-.72021,4.922,4.922,0,0,1-2.04-3.81592h4.03125q.57716,1.51171,2.88086,1.51172a2.51726,2.51726,0,0,0,1.8711-.75586,3.2969,3.2969,0,0,0,.74414-2.3877V336.7749a4.63838,4.63838,0,0,1-3.9834,2.11182A5.61381,5.61381,0,0,1,752.043,336.9668Zm7.36816-2.4961a3.2596,3.2596,0,0,0,.8877-2.44775,3.21841,3.21841,0,0,0-.8877-2.436,2.85451,2.85451,0,0,0-4.08008.01172,3.26007,3.26007,0,0,0-.88769,2.44825,3.21914,3.21914,0,0,0,.88769,2.436,2.85394,2.85394,0,0,0,4.08008-.01221Z"/><path class="cls-3" d="M908.94727,321.87061h7.32031a6.26671,6.26671,0,0,1,4.0918,1.248,3.92172,3.92172,0,0,1,1.52441,3.168q0,2.85645-3.33594,3.86426a4.20588,4.20588,0,0,1,2.71192,1.416,4.10771,4.10771,0,0,1,1.00781,2.75977,3.89716,3.89716,0,0,1-1.47656,3.2041,6.3972,6.3972,0,0,1-4.11524,1.188h-7.72851Zm4.10449,3.12011v3.64795h2.6875a2.13664,2.13664,0,0,0,1.42773-.45605,1.67338,1.67338,0,0,0,.54-1.356,1.70937,1.70937,0,0,0-.54-1.36768,2.10191,2.10191,0,0,0-1.42773-.46826Zm0,10.60791h3.0957a1.98575,1.98575,0,0,0,1.3916-.5039,1.78991,1.78991,0,0,0,.55274-1.39209,1.91592,1.91592,0,0,0-.52832-1.416,1.85445,1.85445,0,0,0-1.36817-.52783h-3.14355Z"/><path class="cls-3" d="M934.21973,325.32666h4.10351v13.39209h-4.10351V336.751a4.3835,4.3835,0,0,1-4.05664,2.11181,4.85534,4.85534,0,0,1-3.73145-1.53613,5.889,5.889,0,0,1-1.42871-4.17578v-7.82422H929.083v7.272a2.76561,2.76561,0,0,0,.68457,2.00391,2.86009,2.86009,0,0,0,3.76758,0,2.76565,2.76565,0,0,0,.68457-2.00391Z"/><path class="cls-3" d="M945.667,323.81494a2.46284,2.46284,0,1,1,.69629-1.71631A2.318,2.318,0,0,1,945.667,323.81494Zm-3.74414,14.90381V325.32666h4.10449v13.39209Z"/><path class="cls-3" d="M949.627,338.71875V320.959h4.1045v17.75977Z"/><path class="cls-3" d="M958.12305,336.9668a7.7216,7.7216,0,0,1,0-9.852,5.66347,5.66347,0,0,1,4.332-1.93213,4.54543,4.54543,0,0,1,3.92383,1.896V320.959h4.10449v17.75977h-4.10449V336.7749a4.63838,4.63838,0,0,1-3.9834,2.11182A5.61381,5.61381,0,0,1,958.12305,336.9668Zm7.36816-2.4961a3.2596,3.2596,0,0,0,.8877-2.44775,3.21841,3.21841,0,0,0-.8877-2.436,2.85451,2.85451,0,0,0-4.08008.01172,3.26007,3.26007,0,0,0-.88769,2.44825,3.21914,3.21914,0,0,0,.88769,2.436,2.85394,2.85394,0,0,0,4.08008-.01221Z"/><path class="cls-4" d="M594.71529,555.46945a5.0147,5.0147,0,0,1-5-5v-95.4896a5.0147,5.0147,0,0,1,5-5h189a6,6,0,0,1,6,6v94.4896a5.0147,5.0147,0,0,1-5,5Z"/><path class="cls-4" d="M844.71529,555.46945a5.0147,5.0147,0,0,1-5-5v-95.4896a5.0147,5.0147,0,0,1,5-5h189a6,6,0,0,1,6,6v94.4896a5.0147,5.0147,0,0,1-5,5Z"/><path class="cls-3" d="M612.01562,512.209V495.36035h4.1045V512.209Z"/><path class="cls-3" d="M618.80762,502.84863a3.66,3.66,0,0,1,1.51269-2.97558,6.40369,6.40369,0,0,1,4.0918-1.2002,6.82286,6.82286,0,0,1,4.16406,1.17578,4.04665,4.04665,0,0,1,1.67969,3.21582h-4.2002a1.17689,1.17689,0,0,0-.47949-.94726,2.37228,2.37228,0,0,0-1.22461-.25293q-1.60693,0-1.60742.98437,0,.8877,1.96777,1.22364a16.03265,16.03265,0,0,1,3.624,1.03222,3.14,3.14,0,0,1,1.96777,3.02442,3.64732,3.64732,0,0,1-1.60742,3.05957,6.64565,6.64565,0,0,1-4.05664,1.18847,7.06389,7.06389,0,0,1-4.08008-1.11621,4.08827,4.08827,0,0,1-1.77539-3.2998h4.2002q.167,1.22314,1.72753,1.22363a1.98411,1.98411,0,0,0,1.18848-.33594,1.02229,1.02229,0,0,0,.46777-.86425q0-.52735-.78027-.83985a10.59749,10.59749,0,0,0-1.88379-.52734q-1.1045-.21679-2.21972-.54a4.24176,4.24176,0,0,1-1.89649-1.12793A2.88778,2.88778,0,0,1,618.80762,502.84863Z"/><path class="cls-3" d="M638.72852,508.72852h1.46386V512.209h-2.08789a5.43522,5.43522,0,0,1-3.49219-.99609A4.15952,4.15952,0,0,1,633.376,507.793v-5.56836h-1.24805v-3.4082H633.376v-3.26368h4.10449v3.26368h2.6875v3.4082h-2.6875V507.793Q637.48047,508.729,638.72852,508.72852Z"/><path class="cls-3" d="M646.74414,497.30469a2.46223,2.46223,0,1,1,.69629-1.71582A2.31845,2.31845,0,0,1,646.74414,497.30469ZM643,512.209V498.81641h4.10449V512.209Z"/><path class="cls-3" d="M651.77246,510.48047a6.5118,6.5118,0,0,1-2.02832-4.99219,6.41473,6.41473,0,0,1,2.0166-4.95508,7.61133,7.61133,0,0,1,9.97168,0,6.43617,6.43617,0,0,1,2.00391,4.95508,6.57277,6.57277,0,0,1-1.99219,4.99219,6.92214,6.92214,0,0,1-4.96777,1.89648A7.04614,7.04614,0,0,1,651.77246,510.48047Zm6.97168-2.47168a3.50137,3.50137,0,0,0,.81641-2.49609,3.39779,3.39779,0,0,0-.83985-2.48438,2.70716,2.70716,0,0,0-1.99218-.85156,2.66778,2.66778,0,0,0-1.98047.85156,4.11012,4.11012,0,0,0,.02441,4.98047,2.72153,2.72153,0,0,0,2.00391.86426A2.60914,2.60914,0,0,0,658.74414,508.00879Z"/><path class="cls-3" d="M664.81641,516.69629l6.43164-27.28711h3.96l-6.43164,27.28711Z"/><path class="cls-3" d="M677.24805,495.36035h4.10449v13.72852h5.11133V512.209h-9.21582Z"/><path class="cls-3" d="M692.48828,497.30469a2.46223,2.46223,0,1,1,.69629-1.71582A2.31845,2.31845,0,0,1,692.48828,497.30469ZM688.74414,512.209V498.81641h4.10449V512.209Z"/><path class="cls-3" d="M700.55273,498.81641v1.96875a4.3803,4.3803,0,0,1,4.05567-2.11231,4.85891,4.85891,0,0,1,3.73242,1.53613,5.89376,5.89376,0,0,1,1.42773,4.17579V512.209h-4.08007v-7.27246a2.771,2.771,0,0,0-.6836-2.0039,2.86138,2.86138,0,0,0-3.76855,0,2.76678,2.76678,0,0,0-.6836,2.0039V512.209h-4.10449V498.81641Z"/><path class="cls-3" d="M717.35254,512.209h-4.10449V494.44922h4.10449v9.96l4.15137-5.59277h5.5205l-5.73632,6.84082,5.73632,6.55175h-5.44824l-4.22363-5.35253Z"/><path class="cls-3" d="M734.6084,512.377a6.47478,6.47478,0,0,1-4.79981-1.88379,6.78786,6.78786,0,0,1-1.87207-5.00488,6.68936,6.68936,0,0,1,1.85938-4.96777,6.53649,6.53649,0,0,1,4.8125-1.84766,6.8743,6.8743,0,0,1,4.89551,1.82422,6.60482,6.60482,0,0,1,1.94433,5.06348,8.26448,8.26448,0,0,1-.0957,1.2959h-9.2168a2.33955,2.33955,0,0,0,2.24414,2.0166,3.26124,3.26124,0,0,0,1.16407-.15625,2.05725,2.05725,0,0,0,.56445-.3125,4.11139,4.11139,0,0,0,.46777-.51563h4.44043a5.88832,5.88832,0,0,1-2.30469,3.252A6.864,6.864,0,0,1,734.6084,512.377Zm1.752-9.6123a2.6151,2.6151,0,0,0-1.7041-.58789A2.42789,2.42789,0,0,0,733,502.76465a2.55781,2.55781,0,0,0-.83984,1.52441h5.01562A2.18223,2.18223,0,0,0,736.36035,502.76465Z"/><path class="cls-3" d="M748.19238,498.81641v2.49609q1.43994-2.63966,3.83985-2.63965v4.17578h-1.00782a2.98359,2.98359,0,0,0-2.124.67188,3.16554,3.16554,0,0,0-.708,2.35254V512.209h-4.10449V498.81641Z"/><path class="cls-3" d="M755.05566,510.457a7.72228,7.72228,0,0,1,0-9.85254,5.66468,5.66468,0,0,1,4.332-1.93164,4.545,4.545,0,0,1,3.92382,1.89551v-6.11914h4.1045V512.209h-4.1045v-1.94433a4.63883,4.63883,0,0,1-3.9834,2.1123A5.61382,5.61382,0,0,1,755.05566,510.457Zm7.36817-2.49609a3.26081,3.26081,0,0,0,.88769-2.44824,3.21725,3.21725,0,0,0-.88769-2.43555,2.85337,2.85337,0,0,0-4.08008.01172,3.25928,3.25928,0,0,0-.8877,2.44824,3.21724,3.21724,0,0,0,.8877,2.43555,2.85337,2.85337,0,0,0,4.08008-.01172Z"/><path class="cls-3" d="M877.15918,500.52051a5.3103,5.3103,0,0,1-1.22363,3.28808,4.57781,4.57781,0,0,1-1.93164,1.332,8.10778,8.10778,0,0,1-3.03614.51661h-2.54394V512.209h-4.10449V495.36035h6.64843a6.45254,6.45254,0,0,1,4.55957,1.5127A4.794,4.794,0,0,1,877.15918,500.52051Zm-8.73535,2.0166h2.54394a1.88151,1.88151,0,0,0,2.01563-2.00391,2.04506,2.04506,0,0,0-.55176-1.47656,1.93566,1.93566,0,0,0-1.46387-.57617h-2.54394Z"/><path class="cls-3" d="M883.73535,498.81641v2.49609q1.43994-2.63966,3.83985-2.63965v4.17578h-1.00782a2.98359,2.98359,0,0,0-2.124.67188,3.16554,3.16554,0,0,0-.708,2.35254V512.209h-4.10449V498.81641Z"/><path class="cls-3" d="M890.875,510.48047a6.5118,6.5118,0,0,1-2.02832-4.99219,6.4147,6.4147,0,0,1,2.0166-4.95508,7.61133,7.61133,0,0,1,9.97168,0,6.43617,6.43617,0,0,1,2.00391,4.95508,6.5728,6.5728,0,0,1-1.99219,4.99219,6.92218,6.92218,0,0,1-4.96777,1.89648A7.04614,7.04614,0,0,1,890.875,510.48047Zm6.97168-2.47168a3.50141,3.50141,0,0,0,.81641-2.49609,3.39779,3.39779,0,0,0-.83985-2.48438,2.70717,2.70717,0,0,0-1.99219-.85156,2.66778,2.66778,0,0,0-1.98046.85156,4.11012,4.11012,0,0,0,.02441,4.98047,2.72153,2.72153,0,0,0,2.00391.86426A2.60917,2.60917,0,0,0,897.84668,508.00879Z"/><path class="cls-3" d="M909.583,498.81641v1.96875a4.38028,4.38028,0,0,1,4.05566-2.11231,5.21622,5.21622,0,0,1,2.65235.67188,4.61942,4.61942,0,0,1,1.81152,1.91992,5.73175,5.73175,0,0,1,1.93262-1.88379,5.57907,5.57907,0,0,1,6.54.80371,5.84368,5.84368,0,0,1,1.43945,4.2002V512.209h-4.08008v-7.27246a2.76682,2.76682,0,0,0-.68359-2.0039,2.86139,2.86139,0,0,0-3.76856,0,2.76682,2.76682,0,0,0-.68359,2.0039V512.209h-4.08008v-7.27246a2.771,2.771,0,0,0-.68359-2.0039,2.86139,2.86139,0,0,0-3.76856,0,2.76682,2.76682,0,0,0-.68359,2.0039V512.209h-4.10449V498.81641Z"/><path class="cls-3" d="M937.18262,512.377a6.47478,6.47478,0,0,1-4.79981-1.88379,6.78786,6.78786,0,0,1-1.87207-5.00488,6.68936,6.68936,0,0,1,1.85938-4.96777,6.53649,6.53649,0,0,1,4.8125-1.84766,6.87426,6.87426,0,0,1,4.8955,1.82422,6.60479,6.60479,0,0,1,1.94434,5.06348,8.26568,8.26568,0,0,1-.0957,1.2959H934.71a2.33955,2.33955,0,0,0,2.24414,2.0166,3.26117,3.26117,0,0,0,1.16406-.15625,2.05718,2.05718,0,0,0,.56446-.3125,4.11218,4.11218,0,0,0,.46777-.51563h4.44043a5.88837,5.88837,0,0,1-2.30469,3.252A6.864,6.864,0,0,1,937.18262,512.377Zm1.75195-9.6123a2.6151,2.6151,0,0,0-1.7041-.58789,2.42789,2.42789,0,0,0-1.65625.58789,2.55781,2.55781,0,0,0-.83984,1.52441H939.75A2.18223,2.18223,0,0,0,938.93457,502.76465Z"/><path class="cls-3" d="M952.35059,508.72852h1.46386V512.209h-2.08789a5.43517,5.43517,0,0,1-3.49218-.99609,4.15949,4.15949,0,0,1-1.23633-3.41992v-5.56836H945.75v-3.4082h1.24805v-3.26368h4.10449v3.26368H953.79v3.4082h-2.6875V507.793Q951.10254,508.729,952.35059,508.72852Z"/><path class="cls-3" d="M960.72656,494.44922v6.33594a4.3803,4.3803,0,0,1,4.05567-2.11231,4.85891,4.85891,0,0,1,3.73242,1.53613,5.89376,5.89376,0,0,1,1.42773,4.17579V512.209H965.8623v-7.27246a2.771,2.771,0,0,0-.68359-2.0039,2.86138,2.86138,0,0,0-3.76855,0,2.76678,2.76678,0,0,0-.6836,2.0039V512.209h-4.10449V494.44922Z"/><path class="cls-3" d="M979.11035,512.377a6.47476,6.47476,0,0,1-4.7998-1.88379,6.78783,6.78783,0,0,1-1.87207-5.00488,6.68939,6.68939,0,0,1,1.85937-4.96777,6.5365,6.5365,0,0,1,4.8125-1.84766,6.8743,6.8743,0,0,1,4.89551,1.82422,6.60479,6.60479,0,0,1,1.94434,5.06348,8.26443,8.26443,0,0,1-.09571,1.2959H976.6377a2.33955,2.33955,0,0,0,2.24414,2.0166,3.26117,3.26117,0,0,0,1.16406-.15625,2.0571,2.0571,0,0,0,.56445-.3125,4.11139,4.11139,0,0,0,.46777-.51563h4.44043a5.88835,5.88835,0,0,1-2.30468,3.252A6.864,6.864,0,0,1,979.11035,512.377Zm1.75195-9.6123a2.61506,2.61506,0,0,0-1.7041-.58789,2.42791,2.42791,0,0,0-1.65625.58789,2.55786,2.55786,0,0,0-.83984,1.52441h5.01562A2.18216,2.18216,0,0,0,980.8623,502.76465Z"/><path class="cls-3" d="M997.68652,498.81641H1001.79V512.209h-4.10352v-1.96777a4.384,4.384,0,0,1-4.05664,2.11133,4.85533,4.85533,0,0,1-3.73144-1.53613,5.88818,5.88818,0,0,1-1.42871-4.17579v-7.82421h4.08007v7.27246a2.7656,2.7656,0,0,0,.68458,2.0039,2.86008,2.86008,0,0,0,3.76757,0,2.7656,2.7656,0,0,0,.68457-2.0039Z"/><path class="cls-3" d="M1004.47754,502.84863a3.66,3.66,0,0,1,1.51269-2.97558,6.40371,6.40371,0,0,1,4.0918-1.2002,6.82286,6.82286,0,0,1,4.16406,1.17578,4.04665,4.04665,0,0,1,1.67969,3.21582h-4.20019a1.17692,1.17692,0,0,0-.4795-.94726,2.37228,2.37228,0,0,0-1.22461-.25293q-1.60692,0-1.60742.98437,0,.8877,1.96778,1.22364a16.03271,16.03271,0,0,1,3.624,1.03222,3.13994,3.13994,0,0,1,1.96777,3.02442,3.64732,3.64732,0,0,1-1.60742,3.05957,6.64561,6.64561,0,0,1-4.05664,1.18847,7.06389,7.06389,0,0,1-4.08008-1.11621,4.08827,4.08827,0,0,1-1.77539-3.2998h4.2002q.167,1.22314,1.72754,1.22363a1.9841,1.9841,0,0,0,1.18847-.33594,1.02227,1.02227,0,0,0,.46778-.86425q0-.52735-.78028-.83985a10.59725,10.59725,0,0,0-1.88379-.52734q-1.10448-.21679-2.21972-.54a4.24182,4.24182,0,0,1-1.89649-1.12793A2.88778,2.88778,0,0,1,1004.47754,502.84863Z"/><path class="cls-3" d="M472.32422,682.22168h-4.10449V665.37305h4.10449v7.39257l5.56738-7.39257h5.376l-6.93555,8.4248,6.93555,8.42383h-5.2793l-5.66406-7.44043Z"/><path class="cls-3" d="M494.5957,668.8291h4.10352v13.39258H494.5957v-1.96777a4.38406,4.38406,0,0,1-4.05664,2.11132,4.85529,4.85529,0,0,1-3.73144-1.53613,5.88817,5.88817,0,0,1-1.42871-4.17578V668.8291H489.459v7.27246a2.76565,2.76565,0,0,0,.68457,2.00391,2.86009,2.86009,0,0,0,3.76758,0,2.76561,2.76561,0,0,0,.68457-2.00391Z"/><path class="cls-3" d="M506.40332,670.58105a4.54505,4.54505,0,0,1,3.92383-1.8955,5.66613,5.66613,0,0,1,4.332,1.93164,7.72228,7.72228,0,0,1,0,9.85254,5.64007,5.64007,0,0,1-4.2959,1.91992,4.54156,4.54156,0,0,1-3.96-2.11231v1.94434h-4.10449V664.46191h4.10449Zm4.96777,7.4043a3.21721,3.21721,0,0,0,.8877-2.43555,3.25928,3.25928,0,0,0-.8877-2.44824,2.85335,2.85335,0,0,0-4.08007-.01172,3.21724,3.21724,0,0,0-.8877,2.43555,3.26077,3.26077,0,0,0,.8877,2.44824,2.85335,2.85335,0,0,0,4.08007.01172Z"/><path class="cls-3" d="M524.73926,682.38965a6.47478,6.47478,0,0,1-4.79981-1.88379,6.78788,6.78788,0,0,1-1.87207-5.00488,6.68938,6.68938,0,0,1,1.85938-4.96778,6.53652,6.53652,0,0,1,4.8125-1.84765,6.8743,6.8743,0,0,1,4.89551,1.82422,6.60481,6.60481,0,0,1,1.94433,5.06347,8.26429,8.26429,0,0,1-.0957,1.2959h-9.2168a2.33953,2.33953,0,0,0,2.24414,2.0166,3.26114,3.26114,0,0,0,1.16406-.15625,2.05691,2.05691,0,0,0,.56446-.3125,4.11115,4.11115,0,0,0,.46777-.51562h4.44043a5.88835,5.88835,0,0,1-2.30469,3.25195A6.864,6.864,0,0,1,524.73926,682.38965Zm1.752-9.61231a2.6151,2.6151,0,0,0-1.7041-.58789,2.42789,2.42789,0,0,0-1.65625.58789,2.5578,2.5578,0,0,0-.83984,1.52442h5.01562A2.18223,2.18223,0,0,0,526.49121,672.77734Z"/><path class="cls-3" d="M538.32324,668.8291v2.4961q1.43994-2.63965,3.83985-2.63965v4.17578h-1.00782a2.98364,2.98364,0,0,0-2.124.67187,3.16555,3.16555,0,0,0-.708,2.35254v6.33594h-4.10449V668.8291Z"/><path class="cls-3" d="M548.499,668.8291v1.96875a4.38031,4.38031,0,0,1,4.05567-2.1123,4.85891,4.85891,0,0,1,3.73242,1.53613,5.89375,5.89375,0,0,1,1.42773,4.17578v7.82422h-4.08007v-7.27246a2.771,2.771,0,0,0-.6836-2.00391,2.86138,2.86138,0,0,0-3.76855,0,2.7668,2.7668,0,0,0-.6836,2.00391v7.27246h-4.10449V668.8291Z"/><path class="cls-3" d="M566.88281,682.38965a6.47476,6.47476,0,0,1-4.7998-1.88379,6.78784,6.78784,0,0,1-1.87207-5.00488,6.68942,6.68942,0,0,1,1.85937-4.96778,6.53653,6.53653,0,0,1,4.8125-1.84765,6.87429,6.87429,0,0,1,4.89551,1.82422,6.60478,6.60478,0,0,1,1.94434,5.06347,8.26425,8.26425,0,0,1-.09571,1.2959h-9.21679a2.33953,2.33953,0,0,0,2.24414,2.0166,3.26117,3.26117,0,0,0,1.16406-.15625,2.05668,2.05668,0,0,0,.56445-.3125,4.11184,4.11184,0,0,0,.46778-.51562H573.291a5.88845,5.88845,0,0,1-2.30469,3.25195A6.864,6.864,0,0,1,566.88281,682.38965Zm1.752-9.61231a2.61511,2.61511,0,0,0-1.70411-.58789,2.42791,2.42791,0,0,0-1.65625.58789,2.55785,2.55785,0,0,0-.83984,1.52442h5.01563A2.18223,2.18223,0,0,0,568.63477,672.77734Z"/><path class="cls-3" d="M582.05078,678.74121h1.46387v3.48047h-2.08789a5.4352,5.4352,0,0,1-3.49219-.99609,4.15951,4.15951,0,0,1-1.23633-3.41993V672.2373h-1.248v-3.4082h1.248v-3.26367h4.10449v3.26367h2.6875v3.4082h-2.6875v5.56836Q580.80273,678.74171,582.05078,678.74121Z"/><path class="cls-3" d="M592.01074,682.38965a6.47476,6.47476,0,0,1-4.7998-1.88379,6.78784,6.78784,0,0,1-1.87207-5.00488,6.68942,6.68942,0,0,1,1.85937-4.96778,6.53653,6.53653,0,0,1,4.8125-1.84765,6.87429,6.87429,0,0,1,4.89551,1.82422,6.60478,6.60478,0,0,1,1.94434,5.06347,8.26425,8.26425,0,0,1-.09571,1.2959h-9.21679a2.33953,2.33953,0,0,0,2.24414,2.0166,3.26117,3.26117,0,0,0,1.16406-.15625,2.05683,2.05683,0,0,0,.56445-.3125,4.11184,4.11184,0,0,0,.46778-.51562H598.419a5.88845,5.88845,0,0,1-2.30469,3.25195A6.864,6.864,0,0,1,592.01074,682.38965Zm1.752-9.61231a2.61511,2.61511,0,0,0-1.70411-.58789,2.42791,2.42791,0,0,0-1.65625.58789,2.55785,2.55785,0,0,0-.83984,1.52442h5.01562A2.18218,2.18218,0,0,0,593.7627,672.77734Z"/><path class="cls-3" d="M600.57812,672.86133a3.66,3.66,0,0,1,1.5127-2.97559,6.40373,6.40373,0,0,1,4.0918-1.20019,6.82281,6.82281,0,0,1,4.16406,1.17578,4.04669,4.04669,0,0,1,1.67969,3.21582h-4.2002a1.17692,1.17692,0,0,0-.47949-.94727,2.37228,2.37228,0,0,0-1.22461-.25293q-1.60693,0-1.60742.98438,0,.88769,1.96777,1.22363a16.0328,16.0328,0,0,1,3.624,1.03223,3.14,3.14,0,0,1,1.96777,3.02441,3.6473,3.6473,0,0,1-1.60742,3.05957,6.64566,6.64566,0,0,1-4.05664,1.18848,7.06389,7.06389,0,0,1-4.08008-1.11621,4.08827,4.08827,0,0,1-1.77539-3.29981h4.20019q.167,1.22314,1.72754,1.22364a1.98411,1.98411,0,0,0,1.18848-.33594,1.02229,1.02229,0,0,0,.46777-.86426q0-.52734-.78027-.83984a10.59828,10.59828,0,0,0-1.88379-.52735q-1.10449-.21679-2.21973-.54a4.2416,4.2416,0,0,1-1.89648-1.12793A2.88777,2.88777,0,0,1,600.57812,672.86133Z"/><path class="cls-4" d="M344.71529,206.48961a5.0147,5.0147,0,0,1-5-5V106a5.0147,5.0147,0,0,1,5-5h189a6,6,0,0,1,6,6v94.48961a5.0147,5.0147,0,0,1-5,5Z"/><path class="cls-4" d="M594.71529,206.48961a5.0147,5.0147,0,0,1-5-5V106a5.0147,5.0147,0,0,1,5-5h189a6,6,0,0,1,6,6v94.48961a5.0147,5.0147,0,0,1-5,5Z"/><path class="cls-4" d="M844.71529,206.48961a5.0147,5.0147,0,0,1-5-5V106a5.0147,5.0147,0,0,1,5-5h189a6,6,0,0,1,6,6v94.48961a5.0147,5.0147,0,0,1-5,5Z"/><path class="cls-3" d="M397.10352,145.38086a9.50667,9.50667,0,0,1,6.624,2.34033,8.42016,8.42016,0,0,1,0,12.15576,9.47592,9.47592,0,0,1-6.624,2.35205h-5.92774V145.38086Zm-1.82325,13.728h1.82325a4.80961,4.80961,0,0,0,3.69628-1.43994,6.22745,6.22745,0,0,0,0-7.728,4.80961,4.80961,0,0,0-3.69628-1.43994h-1.82325Z"/><path class="cls-3" d="M409.98047,160.501a6.51181,6.51181,0,0,1-2.02832-4.99219,6.41577,6.41577,0,0,1,2.0166-4.95557,7.61133,7.61133,0,0,1,9.97168,0,6.43725,6.43725,0,0,1,2.00391,4.95557,6.57282,6.57282,0,0,1-1.99219,4.99219,6.92386,6.92386,0,0,1-4.96777,1.896A7.04787,7.04787,0,0,1,409.98047,160.501Zm6.97168-2.47217a3.49936,3.49936,0,0,0,.8164-2.49561,3.39778,3.39778,0,0,0-.83984-2.48437,2.70767,2.70767,0,0,0-1.99219-.85205,2.66829,2.66829,0,0,0-1.98047.85205,4.10941,4.10941,0,0,0,.02442,4.98,2.72153,2.72153,0,0,0,2.00391.86426A2.60917,2.60917,0,0,0,416.95215,158.02881Z"/><path class="cls-3" d="M428.68848,148.83691v1.96827a4.38122,4.38122,0,0,1,4.05566-2.11231,5.21163,5.21163,0,0,1,2.65234.67236,4.6165,4.6165,0,0,1,1.81153,1.91993,5.73316,5.73316,0,0,1,1.93261-1.88428,5.57829,5.57829,0,0,1,6.54.8042,5.84324,5.84324,0,0,1,1.43946,4.19971V162.229H443.04v-7.272a2.76605,2.76605,0,0,0-.68359-2.00391,2.86142,2.86142,0,0,0-3.76856,0,2.76605,2.76605,0,0,0-.68359,2.00391v7.272h-4.08008v-7.272a2.77022,2.77022,0,0,0-.6836-2.00391,2.86141,2.86141,0,0,0-3.76855,0,2.76605,2.76605,0,0,0-.68359,2.00391v7.272H424.584V148.83691Z"/><path class="cls-3" d="M451.3916,160.47705a7.7216,7.7216,0,0,1,0-9.852,5.66348,5.66348,0,0,1,4.332-1.93213,4.54544,4.54544,0,0,1,3.92383,1.896v-1.752H463.752V162.229h-4.10449v-1.94384a4.6384,4.6384,0,0,1-3.9834,2.11181A5.61382,5.61382,0,0,1,451.3916,160.47705Zm7.36817-2.49609a3.25964,3.25964,0,0,0,.88769-2.44776,3.2184,3.2184,0,0,0-.88769-2.436,2.85451,2.85451,0,0,0-4.08008.01172,3.26,3.26,0,0,0-.8877,2.44824,3.21911,3.21911,0,0,0,.8877,2.436,2.85395,2.85395,0,0,0,4.08008-.0122Z"/><path class="cls-3" d="M471.0957,147.3252a2.46284,2.46284,0,1,1,.69629-1.71631A2.318,2.318,0,0,1,471.0957,147.3252Zm-3.74414,14.9038V148.83691h4.10449V162.229Z"/><path class="cls-3" d="M479.16016,148.83691v1.96827a4.38122,4.38122,0,0,1,4.05566-2.11231,4.86061,4.86061,0,0,1,3.73242,1.53613,5.89458,5.89458,0,0,1,1.42774,4.17579V162.229H484.2959v-7.272a2.77022,2.77022,0,0,0-.6836-2.00391,2.86141,2.86141,0,0,0-3.76855,0,2.76605,2.76605,0,0,0-.68359,2.00391v7.272h-4.1045V148.83691Z"/><path class="cls-3" d="M658.80371,155.67725V162.229h-4.10449V145.38086h6.64844a6.45462,6.45462,0,0,1,4.55957,1.51221,4.79505,4.79505,0,0,1,1.63183,3.648,5.24864,5.24864,0,0,1-.88769,2.856,4.84488,4.84488,0,0,1-2.9043,1.96826L667.875,162.229h-4.7998l-3.792-6.55175Zm0-7.17627v4.05615h2.54395a1.88086,1.88086,0,0,0,2.01562-2.00391,2.04461,2.04461,0,0,0-.55176-1.47607,1.93386,1.93386,0,0,0-1.46386-.57617Z"/><path class="cls-3" d="M671.7998,160.501a6.51185,6.51185,0,0,1-2.02832-4.99219,6.41577,6.41577,0,0,1,2.01661-4.95557,7.61133,7.61133,0,0,1,9.97168,0,6.43727,6.43727,0,0,1,2.0039,4.95557,6.57278,6.57278,0,0,1-1.99219,4.99219,6.92382,6.92382,0,0,1-4.96777,1.896A7.0479,7.0479,0,0,1,671.7998,160.501Zm6.97168-2.47217a3.49932,3.49932,0,0,0,.81641-2.49561,3.39778,3.39778,0,0,0-.83984-2.48437,2.70767,2.70767,0,0,0-1.99219-.85205,2.66826,2.66826,0,0,0-1.98047.85205,4.10943,4.10943,0,0,0,.02441,4.98,2.72156,2.72156,0,0,0,2.00391.86426A2.60914,2.60914,0,0,0,678.77148,158.02881Z"/><path class="cls-3" d="M695.5,148.83691h4.10352V162.229H695.5v-1.96777a4.38348,4.38348,0,0,1-4.05664,2.11182,4.85534,4.85534,0,0,1-3.73145-1.53614,5.889,5.889,0,0,1-1.42871-4.17578v-7.82422h4.08008v7.272a2.76564,2.76564,0,0,0,.68457,2.0039,2.86009,2.86009,0,0,0,3.76758,0,2.76564,2.76564,0,0,0,.68457-2.0039Z"/><path class="cls-3" d="M708.8916,158.749h1.46387v3.48h-2.08789a5.4352,5.4352,0,0,1-3.49219-.99609,4.15884,4.15884,0,0,1-1.23633-3.41992v-5.56787h-1.248v-3.40821h1.248v-3.26367h4.10449v3.26367h2.6875v3.40821h-2.6875V157.813Q707.64355,158.749,708.8916,158.749Z"/><path class="cls-3" d="M718.85156,162.397a6.47476,6.47476,0,0,1-4.7998-1.88379,6.78743,6.78743,0,0,1-1.87207-5.00439,6.68863,6.68863,0,0,1,1.85937-4.96777,6.53491,6.53491,0,0,1,4.8125-1.84815,6.87429,6.87429,0,0,1,4.89551,1.82422,6.6059,6.6059,0,0,1,1.94434,5.064,8.27331,8.27331,0,0,1-.09571,1.2959h-9.21679a2.33848,2.33848,0,0,0,2.24414,2.01612,3.26117,3.26117,0,0,0,1.16406-.15625,2.0575,2.0575,0,0,0,.56445-.312,4.14712,4.14712,0,0,0,.46778-.51562h4.44043a5.88845,5.88845,0,0,1-2.30469,3.252A6.86367,6.86367,0,0,1,718.85156,162.397Zm1.752-9.61181a2.61285,2.61285,0,0,0-1.70411-.58838,2.42589,2.42589,0,0,0-1.65625.58838,2.55519,2.55519,0,0,0-.83984,1.52392H721.419A2.18021,2.18021,0,0,0,720.60352,152.78516Z"/><path class="cls-3" d="M909.55957,159.937a8.86842,8.86842,0,0,1,0-12.35986,8.46766,8.46766,0,0,1,6.13184-2.436,8.65788,8.65788,0,0,1,4.99218,1.4878,7.76309,7.76309,0,0,1,3.04786,4.12793H918.835a3.22263,3.22263,0,0,0-3.07129-1.84766,4.28842,4.28842,0,0,0-3.32422,1.31982,5.74138,5.74138,0,0,0,0,7.05616,4.28842,4.28842,0,0,0,3.32422,1.31982,3.22228,3.22228,0,0,0,3.07129-1.84814h4.89649a7.75948,7.75948,0,0,1-3.04786,4.12793,8.65109,8.65109,0,0,1-4.99218,1.48828A8.46766,8.46766,0,0,1,909.55957,159.937Z"/><path class="cls-3" d="M932.05957,162.397a6.47476,6.47476,0,0,1-4.7998-1.88379,6.78743,6.78743,0,0,1-1.87207-5.00439,6.68863,6.68863,0,0,1,1.85937-4.96777,6.53489,6.53489,0,0,1,4.8125-1.84815,6.8743,6.8743,0,0,1,4.89551,1.82422,6.60589,6.60589,0,0,1,1.94433,5.064,8.27335,8.27335,0,0,1-.0957,1.2959h-9.2168a2.3385,2.3385,0,0,0,2.24414,2.01612,3.2612,3.2612,0,0,0,1.16407-.15625,2.05765,2.05765,0,0,0,.56445-.312,4.14642,4.14642,0,0,0,.46777-.51562h4.44043a5.88839,5.88839,0,0,1-2.30468,3.252A6.86369,6.86369,0,0,1,932.05957,162.397Zm1.75195-9.61181a2.61282,2.61282,0,0,0-1.7041-.58838,2.42588,2.42588,0,0,0-1.65625.58838,2.55519,2.55519,0,0,0-.83984,1.52392H934.627A2.18013,2.18013,0,0,0,933.81152,152.78516Z"/><path class="cls-3" d="M945.64355,148.83691v2.4961q1.44-2.63966,3.83985-2.64014v4.17627h-1.00781a2.98136,2.98136,0,0,0-2.124.67188,3.165,3.165,0,0,0-.708,2.352V162.229h-4.10449V148.83691Z"/><path class="cls-3" d="M957.40332,158.749h1.46387v3.48H956.7793a5.4352,5.4352,0,0,1-3.49219-.99609,4.15884,4.15884,0,0,1-1.23633-3.41992v-5.56787h-1.24805v-3.40821h1.24805v-3.26367h4.10449v3.26367h2.6875v3.40821h-2.6875V157.813Q956.15527,158.749,957.40332,158.749Z"/><path class="cls-3" d="M960.7627,152.86914a3.66088,3.66088,0,0,1,1.51269-2.97607,6.40368,6.40368,0,0,1,4.0918-1.2002,6.81974,6.81974,0,0,1,4.16406,1.17627,4.046,4.046,0,0,1,1.67969,3.21582h-4.2002a1.17792,1.17792,0,0,0-.47949-.94775,2.3728,2.3728,0,0,0-1.22461-.25244q-1.60694,0-1.60742.98437,0,.8877,1.96777,1.22363a16.0328,16.0328,0,0,1,3.624,1.03223,3.13994,3.13994,0,0,1,1.96777,3.02393,3.64814,3.64814,0,0,1-1.60742,3.06,6.6454,6.6454,0,0,1-4.05664,1.188,7.06389,7.06389,0,0,1-4.08008-1.11621,4.08755,4.08755,0,0,1-1.77539-3.2998h4.20019q.167,1.22388,1.72754,1.22412a1.98749,1.98749,0,0,0,1.18848-.33594,1.02351,1.02351,0,0,0,.46777-.86426q0-.52734-.78027-.83984a10.59492,10.59492,0,0,0-1.88379-.52783q-1.10449-.21608-2.21973-.54a4.23736,4.23736,0,0,1-1.89648-1.12793A2.88739,2.88739,0,0,1,960.7627,152.86914Z"/><path class="cls-3" d="M1148.7373,336.42676a8.86844,8.86844,0,0,1,0-12.35987,8.46769,8.46769,0,0,1,6.13184-2.436,8.65793,8.65793,0,0,1,4.99219,1.48779,7.7631,7.7631,0,0,1,3.04785,4.12793h-4.89648a3.22265,3.22265,0,0,0-3.07129-1.84765,4.28839,4.28839,0,0,0-3.32422,1.31982,5.74133,5.74133,0,0,0,0,7.05615,4.19912,4.19912,0,0,0,3.252,1.31983,3.72835,3.72835,0,0,0,2.3877-.73194,3.52634,3.52634,0,0,0,1.23632-1.95605h-4.752v-3.12012h9.168v3.12012a8.20256,8.20256,0,0,1-2.52051,4.2959,7.591,7.591,0,0,1-2.43555,1.56006,7.991,7.991,0,0,1-3.084.60009A8.46769,8.46769,0,0,1,1148.7373,336.42676Z"/><path class="cls-3" d="M1169.293,323.81494a2.46284,2.46284,0,1,1,.69629-1.71631A2.318,2.318,0,0,1,1169.293,323.81494Zm-3.74414,14.90381V325.32666h4.10449v13.39209Z"/><path class="cls-3" d="M1178.94141,335.23877h1.46386v3.48h-2.08789a5.43517,5.43517,0,0,1-3.49218-.99609,4.15886,4.15886,0,0,1-1.23633-3.41993v-5.56787h-1.24805v-3.4082h1.24805V322.063h4.10449v3.26367h2.6875v3.4082h-2.6875v5.56787Q1177.69336,335.23878,1178.94141,335.23877Z"/><path class="cls-3" d="M1193.82129,321.87061h4.10351v16.84814h-4.10351v-6.98389h-6.50391v6.98389h-4.10449V321.87061h4.10449v6.74414h6.50391Z"/><path class="cls-3" d="M1210.62109,325.32666h4.10352v13.39209h-4.10352V336.751a4.38348,4.38348,0,0,1-4.05664,2.11181,4.85533,4.85533,0,0,1-3.73144-1.53613,5.889,5.889,0,0,1-1.42871-4.17578v-7.82422h4.08008v7.272a2.76561,2.76561,0,0,0,.68457,2.00391,2.86008,2.86008,0,0,0,3.76757,0,2.76561,2.76561,0,0,0,.68457-2.00391Z"/><path class="cls-3" d="M1222.42871,327.07861a4.54543,4.54543,0,0,1,3.92383-1.896,5.66494,5.66494,0,0,1,4.332,1.93213,7.7216,7.7216,0,0,1,0,9.852,5.64007,5.64007,0,0,1-4.2959,1.91992,4.54112,4.54112,0,0,1-3.96-2.11182v1.94385h-4.10449V320.959h4.10449Zm4.96777,7.4043a3.21911,3.21911,0,0,0,.8877-2.436,3.26,3.26,0,0,0-.8877-2.44825,2.85449,2.85449,0,0,0-4.08007-.01172,3.21841,3.21841,0,0,0-.8877,2.436,3.2596,3.2596,0,0,0,.8877,2.44775,2.85393,2.85393,0,0,0,4.08007.01221Z"/><path class="cls-3" d="M1146.21289,145.38086h4.10449v13.728h5.11133V162.229h-9.21582Z"/><path class="cls-3" d="M1163.39746,162.397a6.47476,6.47476,0,0,1-4.7998-1.88379,6.78743,6.78743,0,0,1-1.87207-5.00439,6.68863,6.68863,0,0,1,1.85937-4.96777,6.53491,6.53491,0,0,1,4.8125-1.84815,6.8743,6.8743,0,0,1,4.89551,1.82422,6.60589,6.60589,0,0,1,1.94433,5.064,8.27335,8.27335,0,0,1-.0957,1.2959h-9.2168a2.3385,2.3385,0,0,0,2.24415,2.01612,3.26117,3.26117,0,0,0,1.16406-.15625,2.05765,2.05765,0,0,0,.56445-.312,4.14642,4.14642,0,0,0,.46777-.51562h4.44043a5.88839,5.88839,0,0,1-2.30468,3.252A6.86367,6.86367,0,0,1,1163.39746,162.397Zm1.752-9.61181a2.6128,2.6128,0,0,0-1.7041-.58838,2.42588,2.42588,0,0,0-1.65625.58838,2.55519,2.55519,0,0,0-.83984,1.52392h5.01562A2.18013,2.18013,0,0,0,1165.14941,152.78516Z"/><path class="cls-3" d="M1178.56543,158.749h1.46387v3.48h-2.08789a5.4352,5.4352,0,0,1-3.49219-.99609,4.15884,4.15884,0,0,1-1.23633-3.41992v-5.56787h-1.248v-3.40821h1.248v-3.26367h4.10449v3.26367h2.6875v3.40821h-2.6875V157.813Q1177.31738,158.749,1178.56543,158.749Z"/><path class="cls-3" d="M1181.99707,142.06885h3.14355a9.34362,9.34362,0,0,1,.48047,2.97607,3.71328,3.71328,0,0,1-.85156,2.52,3.13788,3.13788,0,0,1-2.50879.98389v-1.56006q1.248,0,1.24805-1.584V145.021h-1.51172Z"/><path class="cls-3" d="M1187.46875,152.86914a3.66089,3.66089,0,0,1,1.5127-2.97607,6.40366,6.40366,0,0,1,4.09179-1.2002,6.81972,6.81972,0,0,1,4.16406,1.17627,4.04592,4.04592,0,0,1,1.67969,3.21582h-4.20019a1.1779,1.1779,0,0,0-.4795-.94775,2.37278,2.37278,0,0,0-1.2246-.25244q-1.60694,0-1.60743.98437,0,.8877,1.96778,1.22363a16.03272,16.03272,0,0,1,3.624,1.03223,3.1399,3.1399,0,0,1,1.96777,3.02393,3.64814,3.64814,0,0,1-1.60742,3.06,6.64536,6.64536,0,0,1-4.05664,1.188,7.06391,7.06391,0,0,1-4.08008-1.11621,4.08758,4.08758,0,0,1-1.77539-3.2998h4.2002q.167,1.22388,1.72754,1.22412a1.98746,1.98746,0,0,0,1.18847-.33594,1.0235,1.0235,0,0,0,.46778-.86426q0-.52734-.78028-.83984a10.59444,10.59444,0,0,0-1.88379-.52783q-1.10448-.21608-2.21972-.54a4.2374,4.2374,0,0,1-1.89649-1.12793A2.88743,2.88743,0,0,1,1187.46875,152.86914Z"/><path class="cls-3" d="M1219.09961,145.333v3.12011h-6.0957v3.624h5.376v3.11963h-5.376v3.91211h6.0957V162.229h-10.2002V145.333Z"/><path class="cls-3" d="M1226.73145,148.83691v1.96827a4.38121,4.38121,0,0,1,4.05566-2.11231,4.86061,4.86061,0,0,1,3.73242,1.53613,5.89458,5.89458,0,0,1,1.42774,4.17579V162.229h-4.08008v-7.272a2.77022,2.77022,0,0,0-.6836-2.00391,2.86141,2.86141,0,0,0-3.76855,0,2.766,2.766,0,0,0-.68359,2.00391v7.272h-4.1045V148.83691Z"/><path class="cls-3" d="M1240.30273,160.5249a7.61436,7.61436,0,0,1,0-9.97168,6.51289,6.51289,0,0,1,4.8125-1.86035,6.97792,6.97792,0,0,1,4.15137,1.21192,5.77126,5.77126,0,0,1,2.25684,3.46826H1247.083a1.95066,1.95066,0,0,0-1.88379-1.2002,2.2,2.2,0,0,0-1.94434.92432,4.98508,4.98508,0,0,0,0,4.87207,2.11547,2.11547,0,0,0,1.86035.92383,2.30054,2.30054,0,0,0,1.2002-.26416,2.22688,2.22688,0,0,0,.76758-.936h4.44043a5.96233,5.96233,0,0,1-2.28028,3.43213,6.77118,6.77118,0,0,1-4.12793,1.272A6.489,6.489,0,0,1,1240.30273,160.5249Z"/><path class="cls-3" d="M1257.93066,148.83691v2.4961q1.43994-2.63966,3.83985-2.64014v4.17627h-1.00781a2.98136,2.98136,0,0,0-2.124.67188,3.165,3.165,0,0,0-.708,2.352V162.229h-4.10449V148.83691Z"/><path class="cls-3" d="M1267.50586,161.96484l-5.208-13.12793h4.65625l2.97559,8.76026,3.26465-8.76026h4.29589l-8.54394,19.77588h-4.2959Z"/><path class="cls-3" d="M1283.49023,150.58887a4.54544,4.54544,0,0,1,3.92383-1.896,5.66494,5.66494,0,0,1,4.332,1.93213,7.7216,7.7216,0,0,1,0,9.852,5.64006,5.64006,0,0,1-4.29589,1.91992,4.54115,4.54115,0,0,1-3.96-2.11181v8.32763h-4.10449V148.83691h4.10449Zm4.96778,7.40429a3.21914,3.21914,0,0,0,.88769-2.436,3.26006,3.26006,0,0,0-.88769-2.44824,2.85451,2.85451,0,0,0-4.08008-.01172,3.21837,3.21837,0,0,0-.8877,2.436,3.25961,3.25961,0,0,0,.8877,2.44776,2.85395,2.85395,0,0,0,4.08008.0122Z"/><path class="cls-3" d="M1301.82617,158.749H1303.29v3.48h-2.08789a5.4352,5.4352,0,0,1-3.49219-.99609,4.15884,4.15884,0,0,1-1.23633-3.41992v-5.56787h-1.248v-3.40821h1.248v-3.26367h4.10449v3.26367h2.6875v3.40821h-2.6875V157.813Q1300.57812,158.749,1301.82617,158.749Z"/><path class="cls-6" d="M1039.82218,345.02586a15.791,15.791,0,1,1,15.79052-15.79107A15.79286,15.79286,0,0,1,1039.82218,345.02586Z"/><path class="cls-6" d="M1038.82218,171.53584a15.791,15.791,0,1,1,15.79052-15.79105A15.79284,15.79284,0,0,1,1038.82218,171.53584Z"/><path class="cls-6" d="M678.209,554.10989A15.791,15.791,0,1,1,694,569.90079,15.79273,15.79273,0,0,1,678.209,554.10989Z"/><path class="cls-6" d="M183.63745,382.87524a15.791,15.791,0,1,1,15.791,15.7909A15.79241,15.79241,0,0,1,183.63745,382.87524Z"/><line class="cls-7" x1="1039.42716" y1="329.2348" x2="1125.82535" y2="329.2348"/><path class="cls-3" d="M1039.82193,337.13034a7.89553,7.89553,0,1,1,7.89527-7.89554A7.89643,7.89643,0,0,1,1039.82193,337.13034Z"/><polygon class="cls-3" points="1124.075 335.218 1134.437 329.235 1124.075 323.251 1124.075 335.218"/><line class="cls-7" x1="1038.42716" y1="155.7448" x2="1124.82535" y2="155.7448"/><path class="cls-3" d="M1038.82193,163.64032a7.89552,7.89552,0,1,1,7.89527-7.89552A7.89642,7.89642,0,0,1,1038.82193,163.64032Z"/><polygon class="cls-3" points="1123.075 161.728 1133.437 155.745 1123.075 149.761 1123.075 161.728"/><path class="cls-6" d="M932.60254,554.10989a15.791,15.791,0,1,1,15.791,15.7909A15.79272,15.79272,0,0,1,932.60254,554.10989Z"/><line class="cls-7" x1="948.39355" y1="553.71503" x2="948.39355" y2="651.85809"/><path class="cls-3" d="M940.49805,554.1098a7.89551,7.89551,0,1,1,7.8955,7.89545A7.89638,7.89638,0,0,1,940.49805,554.1098Z"/><polygon class="cls-3" points="942.41 650.107 948.394 660.47 954.377 650.107 942.41 650.107"/><line class="cls-7" x1="694" y1="553.71503" x2="694" y2="651.85809"/><path class="cls-3" d="M686.10449,554.1098A7.89551,7.89551,0,1,1,694,562.00525,7.89639,7.89639,0,0,1,686.10449,554.1098Z"/><polygon class="cls-3" points="688.017 650.107 694 660.47 699.984 650.107 688.017 650.107"/><line class="cls-7" x1="199.42847" y1="382.48041" x2="199.42847" y2="651.85809"/><path class="cls-3" d="M191.533,382.87518a7.89551,7.89551,0,1,1,7.89551,7.89545A7.89621,7.89621,0,0,1,191.533,382.87518Z"/><polygon class="cls-3" points="193.445 650.107 199.428 660.47 205.412 650.107 193.445 650.107"/></svg>