<svg id="Layer_1" data-name="Layer 1" xmlns="http://www.w3.org/2000/svg" viewBox="0 0 1366 768"><defs><style>.cls-1{fill:#eae1e7;}.cls-2{fill:#dfd3db;}.cls-3{fill:#bfa7b7;}.cls-4{fill:#5f224a;}.cls-5{fill:#33313b;}.cls-6{fill:#fff;}.cls-7,.cls-8{fill:none;}.cls-7{stroke:#33313b;stroke-miterlimit:10;stroke-width:3px;}.cls-8{stroke:#5f224a;stroke-linecap:round;stroke-linejoin:round;stroke-width:4px;}</style></defs><title>how-it-works</title><rect class="cls-1" width="1366" height="768" rx="10"/><rect class="cls-2" x="707.99981" y="538.95929" width="608" height="179.04071" rx="6"/><rect class="cls-3" x="1121.66655" y="553.95898" width="179" height="149.04102" rx="6"/><rect class="cls-4" x="1221.41655" y="618.47949" width="74.25" height="79.52051" rx="4.40109" transform="translate(2517.08311 1316.47949) rotate(180)"/><rect class="cls-4" x="1124.0313" y="621.11475" width="79.52051" height="74.25" rx="4.36954" transform="translate(1822.0313 -505.55181) rotate(90)"/><path class="cls-5" d="M1179.85039,578.56445h4.10449V595.46h-4.10449l-6.86328-10.63184V595.46h-4.10449V578.56445h4.10449l6.86328,10.63184Z"/><path class="cls-5" d="M1188.62285,593.73242a6.51178,6.51178,0,0,1-2.02832-4.99219,6.41685,6.41685,0,0,1,2.0166-4.95605,7.61133,7.61133,0,0,1,9.97168,0,6.4383,6.4383,0,0,1,2.00391,4.95605,6.57275,6.57275,0,0,1-1.99219,4.99219,6.92551,6.92551,0,0,1-4.96777,1.89551A7.04961,7.04961,0,0,1,1188.62285,593.73242Zm6.97168-2.47265a3.49722,3.49722,0,0,0,.81641-2.49512,3.39781,3.39781,0,0,0-.83985-2.48438,2.70812,2.70812,0,0,0-1.99218-.85254,2.66874,2.66874,0,0,0-1.98047.85254,4.10868,4.10868,0,0,0,.02441,4.9795,2.72154,2.72154,0,0,0,2.00391.86425A2.60913,2.60913,0,0,0,1195.59453,591.25977Z"/><path class="cls-5" d="M1204.01836,593.708a7.72092,7.72092,0,0,1,0-9.85156,5.66228,5.66228,0,0,1,4.332-1.93262,4.54581,4.54581,0,0,1,3.92383,1.89648V577.7002h4.10449V595.46h-4.10449V593.5166a4.638,4.638,0,0,1-3.9834,2.11133A5.61381,5.61381,0,0,1,1204.01836,593.708Zm7.36816-2.4961a3.25843,3.25843,0,0,0,.8877-2.44726,3.21955,3.21955,0,0,0-.8877-2.43653,2.85563,2.85563,0,0,0-4.08007.01172,3.2608,3.2608,0,0,0-.8877,2.44825,3.221,3.221,0,0,0,.8877,2.43652,2.8545,2.8545,0,0,0,4.08007-.0127Z"/><path class="cls-5" d="M1225.6668,595.62793a6.47478,6.47478,0,0,1-4.79981-1.88379,6.7871,6.7871,0,0,1-1.87207-5.00391,6.68785,6.68785,0,0,1,1.85938-4.96777,6.53334,6.53334,0,0,1,4.8125-1.84863,6.8743,6.8743,0,0,1,4.89551,1.82422,6.607,6.607,0,0,1,1.94433,5.06445,8.28364,8.28364,0,0,1-.0957,1.2959h-9.2168a2.3374,2.3374,0,0,0,2.24414,2.01562,3.26091,3.26091,0,0,0,1.16406-.15625,2.0586,2.0586,0,0,0,.56446-.31152,4.18485,4.18485,0,0,0,.46777-.51563h4.44043a5.88834,5.88834,0,0,1-2.30469,3.252A6.86333,6.86333,0,0,1,1225.6668,595.62793Zm1.752-9.61133a2.61059,2.61059,0,0,0-1.7041-.58887,2.42387,2.42387,0,0,0-1.65625.58887,2.5525,2.5525,0,0,0-.83984,1.52344h5.01562A2.1782,2.1782,0,0,0,1227.41875,586.0166Z"/><path class="cls-5" d="M1241.48223,595.21973v-3.04785q.64891-.57568,1.82422-1.584,1.17627-1.0078,1.82421-1.57129.64747-.564,1.51172-1.416a12.15847,12.15847,0,0,0,1.2959-1.45215,4.8985,4.8985,0,0,0,1.12793-2.71192q0-2.04052-1.7998-2.04a1.68172,1.68172,0,0,0-1.36817.61133,2.7126,2.7126,0,0,0-.5039,1.76465h-3.96a5.51136,5.51136,0,0,1,1.668-4.35644,6.36882,6.36882,0,0,1,4.37989-1.47559,5.63276,5.63276,0,0,1,4.22461,1.54785,5.14888,5.14888,0,0,1,1.51172,3.73145,5.71267,5.71267,0,0,1-.71973,2.90429q-.43214.72071-.74414,1.22461a7.97231,7.97231,0,0,1-1.03223,1.24805q-.71924.74414-1.05566,1.0791-.33691.33691-1.23633,1.15234-.89942.81592-1.13965,1.05567h6.24024v3.33594Z"/><path class="cls-6" d="M1141.659,660.25781v6.55176h-4.1045V649.96191h6.64844a6.45668,6.45668,0,0,1,4.55957,1.51172,4.79609,4.79609,0,0,1,1.63184,3.64844,5.24827,5.24827,0,0,1-.8877,2.85547,4.84552,4.84552,0,0,1-2.9043,1.96875l4.12793,6.86328h-4.7998l-3.792-6.55176Zm0-7.17578v4.05567h2.54394a1.96726,1.96726,0,0,0,1.47559-.55176,1.98726,1.98726,0,0,0,.54-1.45215,2.0443,2.0443,0,0,0-.55176-1.47559,1.93214,1.93214,0,0,0-1.46387-.57617Z"/><path class="cls-6" d="M1164.29082,666.80957l-.93555-2.832h-6.04882l-.93555,2.832h-4.36816l5.85644-16.89551h4.99219l5.832,16.89551Zm-5.95215-5.95215h3.98438l-1.99219-6Z"/><path class="cls-6" d="M1189.7791,649.96191v16.84766h-4.10351v-9.50391l-3.91211,9.50391h-3.04785l-3.91211-9.50391v9.50391h-4.1045V649.96191h4.70411l4.84765,11.61621,4.82422-11.61621Z"/><path class="cls-6" d="M1236.14531,664.51758a8.86783,8.86783,0,0,1,0-12.35938,8.46811,8.46811,0,0,1,6.13184-2.43652,8.65469,8.65469,0,0,1,4.99219,1.48828,7.76312,7.76312,0,0,1,3.04785,4.12793h-4.89649a3.22186,3.22186,0,0,0-3.07129-1.84766,4.28807,4.28807,0,0,0-3.32421,1.31934,5.742,5.742,0,0,0,0,7.05664,4.28807,4.28807,0,0,0,3.32421,1.31934,3.22186,3.22186,0,0,0,3.07129-1.84766h4.89649a7.76312,7.76312,0,0,1-3.04785,4.12793,8.65469,8.65469,0,0,1-4.99219,1.48828A8.46811,8.46811,0,0,1,1236.14531,664.51758Z"/><path class="cls-6" d="M1265.79668,655.12207a5.31447,5.31447,0,0,1-1.22363,3.28809,4.58669,4.58669,0,0,1-1.93164,1.332,8.12811,8.12811,0,0,1-3.03614.51562h-2.54394v6.55176h-4.10449V649.96191h6.64843a6.45666,6.45666,0,0,1,4.55957,1.51172A4.79606,4.79606,0,0,1,1265.79668,655.12207Zm-8.73535,2.01563h2.54394a1.96723,1.96723,0,0,0,1.47559-.55176,1.98726,1.98726,0,0,0,.54-1.45215,2.04426,2.04426,0,0,0-.55176-1.47559,1.93211,1.93211,0,0,0-1.46387-.57617h-2.54394Z"/><path class="cls-6" d="M1268.19609,660.01758V649.96191h4.1045v10.05567a3.33536,3.33536,0,0,0,.74414,2.32812,2.80537,2.80537,0,0,0,2.18359.81641,2.88617,2.88617,0,0,0,2.208-.81641,3.27034,3.27034,0,0,0,.76855-2.32812V649.96191h4.10352v10.05567a6.95453,6.95453,0,0,1-1.04395,3.85254,6.27074,6.27074,0,0,1-2.63964,2.36328,8.108,8.108,0,0,1-3.46778.74414,7.09949,7.09949,0,0,1-4.94433-1.82324A6.5744,6.5744,0,0,1,1268.19609,660.01758Z"/><rect class="cls-2" x="553.99981" y="-273.5" width="258" height="1266" rx="5" transform="translate(1042.49981 -323.49981) rotate(90)"/><rect class="cls-4" x="708.26201" y="400" width="164.4209" height="73.5" rx="6"/><rect class="cls-4" x="493.8416" y="400" width="164.42041" height="73.5" rx="6"/><rect class="cls-4" x="279.4207" y="400" width="164.4209" height="73.5" rx="6"/><rect class="cls-4" x="1137.10381" y="400" width="163.89648" height="73.5" rx="6"/><rect class="cls-4" x="64.99981" y="400" width="164.4209" height="73.5" rx="6"/><rect class="cls-4" x="922.68291" y="400" width="164.4209" height="73.5" rx="6"/><rect class="cls-3" x="488.6668" y="50" width="388.6665" height="129.5" rx="6"/><rect class="cls-3" x="927.3333" y="50" width="388.6665" height="129.5" rx="6"/><rect class="cls-3" x="49.99981" y="50" width="388.66699" height="129.5" rx="6"/><rect class="cls-3" x="64.99981" y="245.5" width="373.66699" height="75" rx="7.10403"/><rect class="cls-3" x="488.66668" y="245.5" width="388.66663" height="75" rx="7.10403"/><rect class="cls-3" x="927.3333" y="245.5" width="373.66689" height="75" rx="7.10403"/><path class="cls-6" d="M105.85918,438.1582V444.71h-4.10449V427.86133h6.64844a6.45255,6.45255,0,0,1,4.55957,1.51269,4.79407,4.79407,0,0,1,1.63183,3.64746,5.249,5.249,0,0,1-.88769,2.85645,4.8444,4.8444,0,0,1-2.9043,1.96777l4.12793,6.86426h-4.79981l-3.792-6.55176Zm0-7.17675v4.05664h2.544a1.88152,1.88152,0,0,0,2.01562-2.00391,2.045,2.045,0,0,0-.55176-1.47656,1.93566,1.93566,0,0,0-1.46386-.57617Z"/><path class="cls-6" d="M123.47539,444.87793a6.47476,6.47476,0,0,1-4.7998-1.88379,6.78784,6.78784,0,0,1-1.87207-5.00488,6.68943,6.68943,0,0,1,1.85937-4.96778,6.53653,6.53653,0,0,1,4.8125-1.84765,6.8743,6.8743,0,0,1,4.89551,1.82422,6.60478,6.60478,0,0,1,1.94434,5.06347,8.26425,8.26425,0,0,1-.09571,1.2959h-9.21679a2.33953,2.33953,0,0,0,2.24414,2.0166,3.26095,3.26095,0,0,0,1.16406-.15625,2.05657,2.05657,0,0,0,.56445-.3125,4.11115,4.11115,0,0,0,.46777-.51562h4.44043a5.88839,5.88839,0,0,1-2.30468,3.25195A6.864,6.864,0,0,1,123.47539,444.87793Zm1.75195-9.61231a2.61506,2.61506,0,0,0-1.7041-.58789,2.42791,2.42791,0,0,0-1.65625.58789,2.55788,2.55788,0,0,0-.83984,1.52442h5.01562A2.18218,2.18218,0,0,0,125.22734,435.26562Z"/><path class="cls-6" d="M137.05938,433.06934a4.545,4.545,0,0,1,3.92382-1.89551,5.66615,5.66615,0,0,1,4.332,1.93164,7.72228,7.72228,0,0,1,0,9.85254,5.6401,5.6401,0,0,1-4.2959,1.91992,4.54155,4.54155,0,0,1-3.96-2.11231v8.32813h-4.1045V431.31738h4.1045Zm4.96777,7.40429a3.2172,3.2172,0,0,0,.88769-2.43554,3.25931,3.25931,0,0,0-.88769-2.44825,2.85339,2.85339,0,0,0-4.08008-.01172,3.21724,3.21724,0,0,0-.88769,2.43555,3.26075,3.26075,0,0,0,.88769,2.44824,2.85337,2.85337,0,0,0,4.08008.01172Z"/><path class="cls-6" d="M149.70684,444.71V426.9502h4.10449V444.71Z"/><path class="cls-6" d="M161.15508,429.80566a2.46223,2.46223,0,1,1,.69629-1.71582A2.31841,2.31841,0,0,1,161.15508,429.80566ZM157.41094,444.71V431.31738h4.10449V444.71Z"/><path class="cls-6" d="M165.991,443.00586a7.61433,7.61433,0,0,1,0-9.97168,6.511,6.511,0,0,1,4.8125-1.86035,6.97791,6.97791,0,0,1,4.15136,1.21191,5.76868,5.76868,0,0,1,2.25684,3.46778h-4.44043a1.95066,1.95066,0,0,0-1.88379-1.2002,2.19921,2.19921,0,0,0-1.94434.9248,4.9851,4.9851,0,0,0,0,4.87208,2.11658,2.11658,0,0,0,1.86036.92382,2.29552,2.29552,0,0,0,1.20019-.26464,2.22508,2.22508,0,0,0,.76758-.93555h4.44043a5.96276,5.96276,0,0,1-2.28027,3.43164,6.76834,6.76834,0,0,1-4.12793,1.27246A6.48893,6.48893,0,0,1,165.991,443.00586Z"/><path class="cls-6" d="M180.30645,442.958a7.72228,7.72228,0,0,1,0-9.85254,5.66466,5.66466,0,0,1,4.332-1.93164,4.545,4.545,0,0,1,3.92383,1.89551v-1.752h4.10449V444.71h-4.10449v-1.94434a4.63884,4.63884,0,0,1-3.9834,2.11231A5.61379,5.61379,0,0,1,180.30645,442.958Zm7.36816-2.4961a3.26076,3.26076,0,0,0,.8877-2.44824,3.21724,3.21724,0,0,0-.8877-2.43555,2.85339,2.85339,0,0,0-4.08008.01172,3.25935,3.25935,0,0,0-.88769,2.44825,3.21724,3.21724,0,0,0,.88769,2.43554,2.85337,2.85337,0,0,0,4.08008-.01172Z"/><path class="cls-6" d="M320.28008,438.1582V444.71h-4.10352V427.86133H322.825a6.45,6.45,0,0,1,4.55859,1.51269,4.795,4.795,0,0,1,1.63282,3.64746,5.25032,5.25032,0,0,1-.88867,2.85645,4.84149,4.84149,0,0,1-2.9043,1.96777l4.1289,6.86426h-4.80078l-3.791-6.55176Zm0-7.17675v4.05664H322.825a1.88285,1.88285,0,0,0,2.01563-2.00391,2.04163,2.04163,0,0,0-.55274-1.47656,1.932,1.932,0,0,0-1.46289-.57617Z"/><path class="cls-6" d="M337.89727,444.87793a6.477,6.477,0,0,1-4.80078-1.88379,6.78724,6.78724,0,0,1-1.8711-5.00488,6.6894,6.6894,0,0,1,1.85938-4.96778,6.53652,6.53652,0,0,1,4.8125-1.84765,6.87192,6.87192,0,0,1,4.89453,1.82422,6.60186,6.60186,0,0,1,1.94531,5.06347,8.38418,8.38418,0,0,1-.0957,1.2959h-9.2168a2.33748,2.33748,0,0,0,2.24414,2.0166,3.26095,3.26095,0,0,0,1.16406-.15625,2.07179,2.07179,0,0,0,.56446-.3125,4.11987,4.11987,0,0,0,.46679-.51562h4.44141a5.8884,5.8884,0,0,1-2.30469,3.25195A6.866,6.866,0,0,1,337.89727,444.87793Zm1.752-9.61231a2.61588,2.61588,0,0,0-1.70508-.58789,2.42963,2.42963,0,0,0-1.65625.58789,2.563,2.563,0,0,0-.83984,1.52442h5.01562A2.18111,2.18111,0,0,0,339.64922,435.26562Z"/><path class="cls-6" d="M351.48125,433.06934a4.54386,4.54386,0,0,1,3.92383-1.89551,5.66907,5.66907,0,0,1,4.332,1.93164,7.72228,7.72228,0,0,1,0,9.85254,5.64357,5.64357,0,0,1-4.29687,1.91992,4.54,4.54,0,0,1-3.959-2.11231v8.32813h-4.10547V431.31738h4.10547Zm4.9668,7.40429a3.2177,3.2177,0,0,0,.88867-2.43554,3.25982,3.25982,0,0,0-.88867-2.44825,2.85338,2.85338,0,0,0-4.08008-.01172,3.21678,3.21678,0,0,0-.88672,2.43555,3.26029,3.26029,0,0,0,.88672,2.44824,2.85337,2.85337,0,0,0,4.08008.01172Z"/><path class="cls-6" d="M364.12774,444.71V426.9502h4.10546V444.71Z"/><path class="cls-6" d="M375.577,429.80566a2.4647,2.4647,0,1,1,.69532-1.71582A2.32215,2.32215,0,0,1,375.577,429.80566ZM371.83281,444.71V431.31738h4.10352V444.71Z"/><path class="cls-6" d="M380.41289,443.00586a7.61436,7.61436,0,0,1,0-9.97168,6.511,6.511,0,0,1,4.8125-1.86035,6.97484,6.97484,0,0,1,4.15039,1.21191,5.7657,5.7657,0,0,1,2.25781,3.46778h-4.4414a1.94935,1.94935,0,0,0-1.88281-1.2002,2.19984,2.19984,0,0,0-1.94532.9248,4.99182,4.99182,0,0,0,0,4.87208,2.11828,2.11828,0,0,0,1.86133.92382,2.28934,2.28934,0,0,0,1.19922-.26464,2.22508,2.22508,0,0,0,.76758-.93555h4.4414a5.95952,5.95952,0,0,1-2.28125,3.43164,6.76538,6.76538,0,0,1-4.127,1.27246A6.489,6.489,0,0,1,380.41289,443.00586Z"/><path class="cls-6" d="M394.72734,442.958a7.72228,7.72228,0,0,1,0-9.85254,5.66615,5.66615,0,0,1,4.332-1.93164,4.54385,4.54385,0,0,1,3.92382,1.89551v-1.752h4.10547V444.71H402.9832v-1.94434a4.63717,4.63717,0,0,1-3.98242,2.11231A5.61584,5.61584,0,0,1,394.72734,442.958Zm7.36915-2.4961a3.26032,3.26032,0,0,0,.88671-2.44824,3.21681,3.21681,0,0,0-.88671-2.43555,2.85338,2.85338,0,0,0-4.08008.01172,3.25978,3.25978,0,0,0-.88867,2.44825,3.21766,3.21766,0,0,0,.88867,2.43554,2.85337,2.85337,0,0,0,4.08008-.01172Z"/><path class="cls-6" d="M534.701,438.1582V444.71h-4.10449V427.86133h6.64843a6.45255,6.45255,0,0,1,4.55957,1.51269,4.79408,4.79408,0,0,1,1.63184,3.64746,5.24891,5.24891,0,0,1-.8877,2.85645,4.84438,4.84438,0,0,1-2.90429,1.96777l4.12793,6.86426h-4.79981l-3.792-6.55176Zm0-7.17675v4.05664h2.54394a1.88152,1.88152,0,0,0,2.01563-2.00391,2.045,2.045,0,0,0-.55176-1.47656,1.93568,1.93568,0,0,0-1.46387-.57617Z"/><path class="cls-6" d="M552.31719,444.87793a6.47478,6.47478,0,0,1-4.79981-1.88379,6.78788,6.78788,0,0,1-1.87207-5.00488,6.6894,6.6894,0,0,1,1.85938-4.96778,6.53652,6.53652,0,0,1,4.8125-1.84765,6.8743,6.8743,0,0,1,4.89551,1.82422,6.60481,6.60481,0,0,1,1.94433,5.06347,8.26429,8.26429,0,0,1-.0957,1.2959h-9.2168a2.33953,2.33953,0,0,0,2.24414,2.0166,3.261,3.261,0,0,0,1.16407-.15625,2.05672,2.05672,0,0,0,.56445-.3125,4.11115,4.11115,0,0,0,.46777-.51562h4.44043a5.88835,5.88835,0,0,1-2.30469,3.25195A6.864,6.864,0,0,1,552.31719,444.87793Zm1.75195-9.61231a2.6151,2.6151,0,0,0-1.7041-.58789,2.42789,2.42789,0,0,0-1.65625.58789A2.55783,2.55783,0,0,0,549.869,436.79h5.01562A2.18225,2.18225,0,0,0,554.06914,435.26562Z"/><path class="cls-6" d="M565.90117,433.06934a4.545,4.545,0,0,1,3.92383-1.89551,5.66613,5.66613,0,0,1,4.332,1.93164,7.72228,7.72228,0,0,1,0,9.85254,5.64007,5.64007,0,0,1-4.2959,1.91992,4.54156,4.54156,0,0,1-3.96-2.11231v8.32813h-4.10449V431.31738h4.10449Zm4.96778,7.40429a3.21724,3.21724,0,0,0,.88769-2.43554,3.25935,3.25935,0,0,0-.88769-2.44825,2.85339,2.85339,0,0,0-4.08008-.01172,3.21724,3.21724,0,0,0-.8877,2.43555,3.26076,3.26076,0,0,0,.8877,2.44824,2.85337,2.85337,0,0,0,4.08008.01172Z"/><path class="cls-6" d="M578.54863,444.71V426.9502h4.1045V444.71Z"/><path class="cls-6" d="M589.99688,429.80566a2.46226,2.46226,0,1,1,.69628-1.71582A2.31842,2.31842,0,0,1,589.99688,429.80566ZM586.25274,444.71V431.31738h4.10449V444.71Z"/><path class="cls-6" d="M594.83281,443.00586a7.61436,7.61436,0,0,1,0-9.97168,6.511,6.511,0,0,1,4.8125-1.86035,6.97792,6.97792,0,0,1,4.15137,1.21191,5.76872,5.76872,0,0,1,2.25684,3.46778h-4.44043a1.95066,1.95066,0,0,0-1.88379-1.2002,2.19921,2.19921,0,0,0-1.94434.9248,4.9851,4.9851,0,0,0,0,4.87208,2.11657,2.11657,0,0,0,1.86035.92382,2.29558,2.29558,0,0,0,1.2002-.26464,2.22508,2.22508,0,0,0,.76758-.93555h4.44043a5.96273,5.96273,0,0,1-2.28028,3.43164,6.76832,6.76832,0,0,1-4.12793,1.27246A6.489,6.489,0,0,1,594.83281,443.00586Z"/><path class="cls-6" d="M609.14824,442.958a7.72228,7.72228,0,0,1,0-9.85254,5.66467,5.66467,0,0,1,4.332-1.93164,4.545,4.545,0,0,1,3.92383,1.89551v-1.752h4.10449V444.71H617.4041v-1.94434a4.63883,4.63883,0,0,1-3.9834,2.11231A5.61382,5.61382,0,0,1,609.14824,442.958Zm7.36817-2.4961a3.26079,3.26079,0,0,0,.88769-2.44824,3.21728,3.21728,0,0,0-.88769-2.43555,2.85339,2.85339,0,0,0-4.08008.01172,3.25932,3.25932,0,0,0-.8877,2.44825,3.2172,3.2172,0,0,0,.8877,2.43554,2.85337,2.85337,0,0,0,4.08008-.01172Z"/><path class="cls-6" d="M749.12188,438.1582V444.71h-4.1045V427.86133h6.64844a6.45255,6.45255,0,0,1,4.55957,1.51269,4.79408,4.79408,0,0,1,1.63184,3.64746,5.24891,5.24891,0,0,1-.8877,2.85645,4.84438,4.84438,0,0,1-2.90429,1.96777l4.12792,6.86426h-4.7998l-3.792-6.55176Zm0-7.17675v4.05664h2.54394a1.88152,1.88152,0,0,0,2.01563-2.00391,2.045,2.045,0,0,0-.55176-1.47656,1.93569,1.93569,0,0,0-1.46387-.57617Z"/><path class="cls-6" d="M766.73809,444.87793a6.47478,6.47478,0,0,1-4.79981-1.88379,6.78788,6.78788,0,0,1-1.87207-5.00488,6.6894,6.6894,0,0,1,1.85938-4.96778,6.53652,6.53652,0,0,1,4.8125-1.84765,6.87426,6.87426,0,0,1,4.8955,1.82422,6.60478,6.60478,0,0,1,1.94434,5.06347,8.2655,8.2655,0,0,1-.0957,1.2959h-9.2168a2.33953,2.33953,0,0,0,2.24414,2.0166,3.26095,3.26095,0,0,0,1.16406-.15625,2.05665,2.05665,0,0,0,.56446-.3125,4.11193,4.11193,0,0,0,.46777-.51562h4.44043a5.8884,5.8884,0,0,1-2.30469,3.25195A6.864,6.864,0,0,1,766.73809,444.87793Zm1.75195-9.61231a2.6151,2.6151,0,0,0-1.7041-.58789,2.42789,2.42789,0,0,0-1.65625.58789,2.55789,2.55789,0,0,0-.83985,1.52442h5.01563A2.18225,2.18225,0,0,0,768.49,435.26562Z"/><path class="cls-6" d="M780.32207,433.06934a4.545,4.545,0,0,1,3.92383-1.89551,5.66613,5.66613,0,0,1,4.332,1.93164,7.72228,7.72228,0,0,1,0,9.85254,5.64007,5.64007,0,0,1-4.2959,1.91992,4.54156,4.54156,0,0,1-3.96-2.11231v8.32813h-4.10449V431.31738h4.10449Zm4.96777,7.40429a3.2172,3.2172,0,0,0,.8877-2.43554,3.25932,3.25932,0,0,0-.8877-2.44825,2.85338,2.85338,0,0,0-4.08007-.01172,3.21724,3.21724,0,0,0-.8877,2.43555,3.26076,3.26076,0,0,0,.8877,2.44824,2.85335,2.85335,0,0,0,4.08007.01172Z"/><path class="cls-6" d="M792.96953,444.71V426.9502H797.074V444.71Z"/><path class="cls-6" d="M804.41777,429.80566a2.46223,2.46223,0,1,1,.69629-1.71582A2.31838,2.31838,0,0,1,804.41777,429.80566ZM800.67363,444.71V431.31738h4.1045V444.71Z"/><path class="cls-6" d="M809.25371,443.00586a7.61436,7.61436,0,0,1,0-9.97168,6.511,6.511,0,0,1,4.8125-1.86035,6.97792,6.97792,0,0,1,4.15137,1.21191,5.76871,5.76871,0,0,1,2.25683,3.46778H816.034a1.95066,1.95066,0,0,0-1.88379-1.2002,2.19921,2.19921,0,0,0-1.94434.9248,4.9851,4.9851,0,0,0,0,4.87208,2.11657,2.11657,0,0,0,1.86035.92382,2.29558,2.29558,0,0,0,1.2002-.26464,2.22508,2.22508,0,0,0,.76758-.93555h4.44042a5.96271,5.96271,0,0,1-2.28027,3.43164,6.76832,6.76832,0,0,1-4.12793,1.27246A6.489,6.489,0,0,1,809.25371,443.00586Z"/><path class="cls-6" d="M823.56914,442.958a7.72228,7.72228,0,0,1,0-9.85254,5.66467,5.66467,0,0,1,4.332-1.93164,4.545,4.545,0,0,1,3.92383,1.89551v-1.752h4.10449V444.71H831.825v-1.94434a4.63884,4.63884,0,0,1-3.9834,2.11231A5.61382,5.61382,0,0,1,823.56914,442.958Zm7.36817-2.4961a3.26079,3.26079,0,0,0,.88769-2.44824,3.21728,3.21728,0,0,0-.88769-2.43555,2.85339,2.85339,0,0,0-4.08008.01172,3.25932,3.25932,0,0,0-.8877,2.44825,3.2172,3.2172,0,0,0,.8877,2.43554,2.85337,2.85337,0,0,0,4.08008-.01172Z"/><path class="cls-6" d="M963.60625,438.1582V444.71h-4.10547V427.86133h6.64844a6.45512,6.45512,0,0,1,4.56055,1.51269,4.79311,4.79311,0,0,1,1.63086,3.64746,5.24766,5.24766,0,0,1-.88672,2.85645,4.84735,4.84735,0,0,1-2.9043,1.96777l4.12695,6.86426h-4.79882l-3.793-6.55176Zm0-7.17675v4.05664h2.543a1.8802,1.8802,0,0,0,2.01562-2.00391,2.04843,2.04843,0,0,0-.55078-1.47656,1.93936,1.93936,0,0,0-1.46484-.57617Z"/><path class="cls-6" d="M981.22149,444.87793a6.47251,6.47251,0,0,1-4.79883-1.88379,6.78845,6.78845,0,0,1-1.873-5.00488,6.6894,6.6894,0,0,1,1.85938-4.96778,6.53652,6.53652,0,0,1,4.8125-1.84765,6.87666,6.87666,0,0,1,4.89648,1.82422,6.60774,6.60774,0,0,1,1.94336,5.06347,8.149,8.149,0,0,1-.0957,1.2959h-9.2168a2.34161,2.34161,0,0,0,2.24414,2.0166,3.26095,3.26095,0,0,0,1.16406-.15625,2.04187,2.04187,0,0,0,.56446-.3125,4.10333,4.10333,0,0,0,.46875-.51562h4.43945a5.88845,5.88845,0,0,1-2.30469,3.25195A6.86189,6.86189,0,0,1,981.22149,444.87793Zm1.75195-9.61231a2.61433,2.61433,0,0,0-1.70313-.58789,2.42617,2.42617,0,0,0-1.65625.58789,2.55283,2.55283,0,0,0-.83984,1.52442h5.01562A2.18331,2.18331,0,0,0,982.97344,435.26562Z"/><path class="cls-6" d="M994.80547,433.06934a4.5462,4.5462,0,0,1,3.92383-1.89551,5.66319,5.66319,0,0,1,4.332,1.93164,7.72228,7.72228,0,0,1,0,9.85254,5.63658,5.63658,0,0,1-4.29492,1.91992,4.54319,4.54319,0,0,1-3.96094-2.11231v8.32813H990.702V431.31738h4.10352Zm4.96875,7.40429a3.21674,3.21674,0,0,0,.88672-2.43554,3.25885,3.25885,0,0,0-.88672-2.44825,2.85339,2.85339,0,0,0-4.08008-.01172,3.2177,3.2177,0,0,0-.88867,2.43555,3.26122,3.26122,0,0,0,.88867,2.44824,2.85336,2.85336,0,0,0,4.08008.01172Z"/><path class="cls-6" d="M1007.45391,444.71V426.9502h4.10351V444.71Z"/><path class="cls-6" d="M1018.90117,429.80566a2.45975,2.45975,0,1,1,.69727-1.71582A2.31465,2.31465,0,0,1,1018.90117,429.80566ZM1015.157,444.71V431.31738h4.10547V444.71Z"/><path class="cls-6" d="M1023.73711,443.00586a7.61436,7.61436,0,0,1,0-9.97168,6.511,6.511,0,0,1,4.8125-1.86035,6.981,6.981,0,0,1,4.15234,1.21191,5.7717,5.7717,0,0,1,2.25586,3.46778h-4.43945a1.952,1.952,0,0,0-1.88477-1.2002,2.19856,2.19856,0,0,0-1.94335.9248,4.97841,4.97841,0,0,0,0,4.87208,2.11484,2.11484,0,0,0,1.85937.92382,2.30177,2.30177,0,0,0,1.20117-.26464,2.22508,2.22508,0,0,0,.76758-.93555h4.43945a5.96591,5.96591,0,0,1-2.27929,3.43164,6.77128,6.77128,0,0,1-4.12891,1.27246A6.48893,6.48893,0,0,1,1023.73711,443.00586Z"/><path class="cls-6" d="M1038.05352,442.958a7.72228,7.72228,0,0,1,0-9.85254,5.66319,5.66319,0,0,1,4.332-1.93164,4.54622,4.54622,0,0,1,3.92383,1.89551v-1.752h4.10351V444.71h-4.10351v-1.94434a4.64049,4.64049,0,0,1-3.98438,2.11231A5.61179,5.61179,0,0,1,1038.05352,442.958Zm7.36718-2.4961a3.26123,3.26123,0,0,0,.88868-2.44824,3.21771,3.21771,0,0,0-.88868-2.43555,2.85338,2.85338,0,0,0-4.08007.01172,3.25885,3.25885,0,0,0-.88672,2.44825,3.21674,3.21674,0,0,0,.88672,2.43554,2.85335,2.85335,0,0,0,4.08007-.01172Z"/><path class="cls-6" d="M1178.02617,438.1582V444.71h-4.10351V427.86133h6.64843a6.45,6.45,0,0,1,4.5586,1.51269,4.795,4.795,0,0,1,1.63281,3.64746,5.25024,5.25024,0,0,1-.88867,2.85645,4.84146,4.84146,0,0,1-2.9043,1.96777l4.12891,6.86426h-4.80078l-3.791-6.55176Zm0-7.17675v4.05664h2.54492a1.88285,1.88285,0,0,0,2.01563-2.00391,2.04162,2.04162,0,0,0-.55273-1.47656,1.932,1.932,0,0,0-1.4629-.57617Z"/><path class="cls-6" d="M1195.64336,444.87793a6.477,6.477,0,0,1-4.80078-1.88379,6.78723,6.78723,0,0,1-1.87109-5.00488,6.68943,6.68943,0,0,1,1.85937-4.96778,6.53652,6.53652,0,0,1,4.8125-1.84765,6.8719,6.8719,0,0,1,4.89453,1.82422,6.60183,6.60183,0,0,1,1.94531,5.06347,8.38418,8.38418,0,0,1-.0957,1.2959h-9.2168a2.33748,2.33748,0,0,0,2.24414,2.0166,3.261,3.261,0,0,0,1.16407-.15625,2.07155,2.07155,0,0,0,.56445-.3125,4.12057,4.12057,0,0,0,.4668-.51562h4.4414a5.88839,5.88839,0,0,1-2.30468,3.25195A6.86608,6.86608,0,0,1,1195.64336,444.87793Zm1.752-9.61231a2.61585,2.61585,0,0,0-1.70507-.58789,2.42961,2.42961,0,0,0-1.65625.58789,2.56291,2.56291,0,0,0-.83985,1.52442h5.01563A2.18112,2.18112,0,0,0,1197.39531,435.26562Z"/><path class="cls-6" d="M1209.22734,433.06934a4.54386,4.54386,0,0,1,3.92383-1.89551,5.669,5.669,0,0,1,4.332,1.93164,7.72228,7.72228,0,0,1,0,9.85254,5.64354,5.64354,0,0,1-4.29687,1.91992,4.54,4.54,0,0,1-3.959-2.11231v8.32813h-4.10546V431.31738h4.10546Zm4.9668,7.40429a3.21766,3.21766,0,0,0,.88867-2.43554,3.25978,3.25978,0,0,0-.88867-2.44825,2.85338,2.85338,0,0,0-4.08008-.01172,3.21682,3.21682,0,0,0-.88672,2.43555,3.26033,3.26033,0,0,0,.88672,2.44824,2.85337,2.85337,0,0,0,4.08008.01172Z"/><path class="cls-6" d="M1221.87383,444.71V426.9502h4.10547V444.71Z"/><path class="cls-6" d="M1233.32305,429.80566a2.46472,2.46472,0,1,1,.69531-1.71582A2.32218,2.32218,0,0,1,1233.32305,429.80566Zm-3.74414,14.9043V431.31738h4.10351V444.71Z"/><path class="cls-6" d="M1238.159,443.00586a7.61433,7.61433,0,0,1,0-9.97168,6.511,6.511,0,0,1,4.8125-1.86035,6.97489,6.97489,0,0,1,4.15039,1.21191,5.76574,5.76574,0,0,1,2.25781,3.46778h-4.44141a1.94935,1.94935,0,0,0-1.88281-1.2002,2.19982,2.19982,0,0,0-1.94531.9248,4.99175,4.99175,0,0,0,0,4.87208,2.11827,2.11827,0,0,0,1.86133.92382,2.28933,2.28933,0,0,0,1.19921-.26464,2.22508,2.22508,0,0,0,.76758-.93555h4.44141a5.95957,5.95957,0,0,1-2.28125,3.43164,6.76542,6.76542,0,0,1-4.127,1.27246A6.48893,6.48893,0,0,1,1238.159,443.00586Z"/><path class="cls-6" d="M1252.47344,442.958a7.72228,7.72228,0,0,1,0-9.85254,5.66611,5.66611,0,0,1,4.332-1.93164,4.54386,4.54386,0,0,1,3.92383,1.89551v-1.752h4.10547V444.71h-4.10547v-1.94434a4.63719,4.63719,0,0,1-3.98242,2.11231A5.61581,5.61581,0,0,1,1252.47344,442.958Zm7.36914-2.4961a3.26029,3.26029,0,0,0,.88672-2.44824,3.21678,3.21678,0,0,0-.88672-2.43555,2.85338,2.85338,0,0,0-4.08008.01172,3.25978,3.25978,0,0,0-.88867,2.44825,3.21766,3.21766,0,0,0,.88867,2.43554,2.85337,2.85337,0,0,0,4.08008-.01172Z"/><path class="cls-5" d="M222.56524,273.31348v3.12011h-5.66895v3.624h4.999v3.11963h-4.999v3.91211h5.66895v3.12011h-9.48536v-16.896Z"/><path class="cls-5" d="M229.66191,276.81738v1.96826a4.00826,4.00826,0,0,1,3.77149-2.1123,4.36936,4.36936,0,0,1,3.4707,1.53613,6.17216,6.17216,0,0,1,1.32813,4.17578v7.82422h-3.79395v-7.272a2.89745,2.89745,0,0,0-.63672-2.00391,2.52161,2.52161,0,0,0-3.5039,0,2.89718,2.89718,0,0,0-.63575,2.00391v7.272h-3.8164V276.81738Z"/><path class="cls-5" d="M242.20391,288.45752a8.17282,8.17282,0,0,1,0-9.852,5.11156,5.11156,0,0,1,4.02832-1.93213,4.13255,4.13255,0,0,1,3.64941,1.896v-1.752h3.81641V290.1377a7.49147,7.49147,0,0,1-1.42871,4.67968,4.6434,4.6434,0,0,1-1.95313,1.48828,7.26585,7.26585,0,0,1-2.86719.52784,7.41994,7.41994,0,0,1-4.53125-1.24805,5.03221,5.03221,0,0,1-1.89648-3.81592h3.749q.53614,1.51172,2.67871,1.51172a2.25814,2.25814,0,0,0,1.74024-.75586,3.46263,3.46263,0,0,0,.69238-2.38769v-1.87208a4.24086,4.24086,0,0,1-3.70508,2.11182A5.06608,5.06608,0,0,1,242.20391,288.45752Zm6.85156-2.49609a3.4016,3.4016,0,0,0,.82617-2.44776,3.35745,3.35745,0,0,0-.82617-2.436,2.52624,2.52624,0,0,0-3.794.01172,3.402,3.402,0,0,0-.82617,2.44824,3.35823,3.35823,0,0,0,.82617,2.436,2.52577,2.52577,0,0,0,3.794-.0122Z"/><path class="cls-5" d="M260.52715,275.30566a2.152,2.152,0,0,1-3.16895,0,2.5979,2.5979,0,0,1,0-3.43212,2.151,2.151,0,0,1,3.16895,0,2.5979,2.5979,0,0,1,0,3.43212Zm-3.48145,14.90381V276.81738h3.81641v13.39209Z"/><path class="cls-5" d="M268.02617,276.81738v1.96826a4.00826,4.00826,0,0,1,3.77149-2.1123,4.36936,4.36936,0,0,1,3.4707,1.53613,6.17216,6.17216,0,0,1,1.32813,4.17578v7.82422h-3.79395v-7.272a2.89745,2.89745,0,0,0-.63672-2.00391,2.52162,2.52162,0,0,0-3.50391,0,2.89722,2.89722,0,0,0-.63574,2.00391v7.272h-3.8164V276.81738Z"/><path class="cls-5" d="M285.1209,290.37744a5.80344,5.80344,0,0,1-4.46289-1.88379,7.07916,7.07916,0,0,1-1.74121-5.00439,6.97746,6.97746,0,0,1,1.72949-4.96778,5.85146,5.85146,0,0,1,4.47461-1.84814,6.14441,6.14441,0,0,1,4.55273,1.82422,6.87968,6.87968,0,0,1,1.80762,5.064,8.81107,8.81107,0,0,1-.08887,1.2959h-8.57031a2.26581,2.26581,0,0,0,.73731,1.45215,1.97925,1.97925,0,0,0,1.34961.564,2.84028,2.84028,0,0,0,1.083-.15625,1.89623,1.89623,0,0,0,.52442-.312,4.07335,4.07335,0,0,0,.43457-.51562h4.1289a5.897,5.897,0,0,1-2.14257,3.25195A6.07409,6.07409,0,0,1,285.1209,290.37744Zm1.62988-9.61182a2.32652,2.32652,0,0,0-1.585-.58837,2.16073,2.16073,0,0,0-1.54.58837,2.61657,2.61657,0,0,0-.78125,1.52393h4.665A2.23671,2.23671,0,0,0,286.75078,280.76562Z"/><path class="cls-5" d="M227.45391,98.27148a5.31235,5.31235,0,0,1-1.22364,3.28809,4.58225,4.58225,0,0,1-1.93164,1.332,8.11784,8.11784,0,0,1-3.03613.51611h-2.54394v6.55176h-4.1045V93.11133h6.64844a6.45457,6.45457,0,0,1,4.55957,1.51221A4.79506,4.79506,0,0,1,227.45391,98.27148Zm-8.73535,2.01612h2.54394a1.88087,1.88087,0,0,0,2.01563-2.00391,2.04466,2.04466,0,0,0-.55176-1.47607,1.93389,1.93389,0,0,0-1.46387-.57617h-2.54394Z"/><path class="cls-5" d="M230.994,108.23145a6.51181,6.51181,0,0,1-2.02832-4.99219,6.41577,6.41577,0,0,1,2.0166-4.95557,7.61133,7.61133,0,0,1,9.97168,0,6.43727,6.43727,0,0,1,2.0039,4.95557,6.57281,6.57281,0,0,1-1.99218,4.99219,6.92386,6.92386,0,0,1-4.96778,1.896A7.04786,7.04786,0,0,1,230.994,108.23145Zm6.97168-2.47217a3.49936,3.49936,0,0,0,.8164-2.49561,3.39778,3.39778,0,0,0-.83984-2.48437,2.70763,2.70763,0,0,0-1.99219-.85205,2.66825,2.66825,0,0,0-1.98047.85205,4.10941,4.10941,0,0,0,.02442,4.98,2.72152,2.72152,0,0,0,2.0039.86426A2.60918,2.60918,0,0,0,237.96563,105.75928Z"/><path class="cls-5" d="M246.38945,108.20752a7.7216,7.7216,0,0,1,0-9.85205,5.66349,5.66349,0,0,1,4.332-1.93213,4.5454,4.5454,0,0,1,3.92382,1.896V92.19971h4.1045v17.75976h-4.1045v-1.94385a4.63836,4.63836,0,0,1-3.9834,2.11182A5.61382,5.61382,0,0,1,246.38945,108.20752Zm7.36817-2.49609a3.25966,3.25966,0,0,0,.88769-2.44776,3.2184,3.2184,0,0,0-.88769-2.436,2.85451,2.85451,0,0,0-4.08008.01172,3.26,3.26,0,0,0-.8877,2.44824,3.21911,3.21911,0,0,0,.8877,2.436,2.85395,2.85395,0,0,0,4.08008-.0122Z"/><path class="cls-5" d="M271.326,109.95947V96.73535h-2.9043V92.91943H275.574v17.04Z"/><path class="cls-5" d="M207.7625,140.50977l-6.50391-16.56006h1.7754l5.5205,14.66406,5.56739-14.66406h1.77636l-6.5039,16.56006Z"/><path class="cls-5" d="M223.90215,140.75a6.01289,6.01289,0,0,1-4.584-1.87207,6.86548,6.86548,0,0,1-1.76367-4.9082,6.67792,6.67792,0,0,1,1.87207-4.91993,6.75448,6.75448,0,0,1,9.36035,0,6.64715,6.64715,0,0,1,1.87208,4.896,6.51043,6.51043,0,0,1-1.96875,4.9082A6.6457,6.6457,0,0,1,223.90215,140.75Zm-.01172-1.34424a4.86191,4.86191,0,0,0,3.52832-1.46387,5.35332,5.35332,0,0,0,1.48731-3.99609,5.465,5.465,0,0,0-1.415-3.98389,4.64425,4.64425,0,0,0-3.45606-1.45214,4.50824,4.50824,0,0,0-3.4082,1.43994,5.58591,5.58591,0,0,0-1.36817,4.0083,5.77676,5.77676,0,0,0,1.2959,4.00781A4.28361,4.28361,0,0,0,223.89043,139.40576Z"/><path class="cls-5" d="M233.41777,140.50977V122.75h1.68067v17.75977Z"/><path class="cls-5" d="M248.033,127.40576h1.68066v13.104H248.033v-2.13623a4.58118,4.58118,0,0,1-4.34375,2.37646,5.01826,5.01826,0,0,1-3.64844-1.42822,5.49177,5.49177,0,0,1-1.46387-4.11621v-7.79981h1.65625v7.48779a4.67334,4.67334,0,0,0,1.04395,3.28809,4.17965,4.17965,0,0,0,5.71191,0,4.67334,4.67334,0,0,0,1.04395-3.28809Z"/><path class="cls-5" d="M254.994,127.40576V129.542a4.58008,4.58008,0,0,1,4.34375-2.37646,5.31879,5.31879,0,0,1,2.79589.74414,4.4712,4.4712,0,0,1,1.83594,2.18408,5.02025,5.02025,0,0,1,1.93164-2.16016,5.44688,5.44688,0,0,1,2.89258-.76806,5.018,5.018,0,0,1,3.64746,1.42822,5.49323,5.49323,0,0,1,1.46387,4.11621v7.79981h-1.65527V133.022a4.67792,4.67792,0,0,0-1.044-3.28808,4.17965,4.17965,0,0,0-5.71191,0A4.67354,4.67354,0,0,0,264.449,133.022v7.4878h-1.65527V133.022a4.67791,4.67791,0,0,0-1.04394-3.28808,4.17966,4.17966,0,0,0-5.71192,0A4.67331,4.67331,0,0,0,254.994,133.022v7.4878h-1.68067v-13.104Z"/><path class="cls-5" d="M282.8582,140.75a5.96,5.96,0,0,1-4.56054-1.87207,6.92654,6.92654,0,0,1-1.752-4.93213,6.79985,6.79985,0,0,1,1.78809-4.91992,6.13863,6.13863,0,0,1,4.63184-1.86035,5.88123,5.88123,0,0,1,6.2041,6.09619,8.269,8.269,0,0,1-.09571,1.2959h-10.7998a5.18336,5.18336,0,0,0,1.36719,3.55224,4.31869,4.31869,0,0,0,3.21679,1.2959,4.62048,4.62048,0,0,0,2.57911-.6958,3.6068,3.6068,0,0,0,1.47656-1.82422h1.7998a6.15866,6.15866,0,0,1-2.1123,2.772A6.089,6.089,0,0,1,282.8582,140.75Zm4.584-7.51221a4.60638,4.60638,0,0,0-1.3086-3.44384,4.73218,4.73218,0,0,0-6.45605-.02442,5.04187,5.04187,0,0,0-1.40332,3.46826Z"/><path class="cls-5" d="M663.32012,98.27148a5.3124,5.3124,0,0,1-1.22363,3.28809,4.58235,4.58235,0,0,1-1.93165,1.332,8.11784,8.11784,0,0,1-3.03613.51611h-2.54394v6.55176h-4.1045V93.11133h6.64844a6.45457,6.45457,0,0,1,4.55957,1.51221A4.79506,4.79506,0,0,1,663.32012,98.27148Zm-8.73535,2.01612h2.54394a1.88087,1.88087,0,0,0,2.01563-2.00391,2.04466,2.04466,0,0,0-.55176-1.47607,1.93389,1.93389,0,0,0-1.46387-.57617h-2.54394Z"/><path class="cls-5" d="M666.86016,108.23145a6.51181,6.51181,0,0,1-2.02832-4.99219,6.41577,6.41577,0,0,1,2.0166-4.95557,7.61133,7.61133,0,0,1,9.97168,0,6.43724,6.43724,0,0,1,2.0039,4.95557,6.57281,6.57281,0,0,1-1.99218,4.99219,6.92386,6.92386,0,0,1-4.96778,1.896A7.04786,7.04786,0,0,1,666.86016,108.23145Zm6.97168-2.47217a3.49936,3.49936,0,0,0,.8164-2.49561,3.39778,3.39778,0,0,0-.83984-2.48437,2.70763,2.70763,0,0,0-1.99219-.85205,2.66825,2.66825,0,0,0-1.98047.85205,4.10941,4.10941,0,0,0,.02442,4.98,2.72152,2.72152,0,0,0,2.0039.86426A2.60918,2.60918,0,0,0,673.83184,105.75928Z"/><path class="cls-5" d="M682.25566,108.20752a7.7216,7.7216,0,0,1,0-9.85205,5.66349,5.66349,0,0,1,4.332-1.93213,4.5454,4.5454,0,0,1,3.92382,1.896V92.19971h4.1045v17.75976h-4.1045v-1.94385a4.63835,4.63835,0,0,1-3.98339,2.11182A5.61383,5.61383,0,0,1,682.25566,108.20752Zm7.36817-2.49609a3.25962,3.25962,0,0,0,.88769-2.44776,3.21836,3.21836,0,0,0-.88769-2.436,2.85451,2.85451,0,0,0-4.08008.01172,3.26,3.26,0,0,0-.88769,2.44824,3.2191,3.2191,0,0,0,.88769,2.436,2.85395,2.85395,0,0,0,4.08008-.0122Z"/><path class="cls-5" d="M704.55156,109.71924v-3.04785q.64893-.57569,1.82422-1.584,1.17627-1.0078,1.82422-1.57178.64746-.564,1.51172-1.416a12.08438,12.08438,0,0,0,1.2959-1.45215,4.89724,4.89724,0,0,0,1.12793-2.71191q0-2.03981-1.79981-2.04a1.68063,1.68063,0,0,0-1.36816.61181,2.712,2.712,0,0,0-.50391,1.76416h-3.96a5.50958,5.50958,0,0,1,1.668-4.35595,6.36669,6.36669,0,0,1,4.37988-1.47608,5.63466,5.63466,0,0,1,4.22461,1.54785,5.14916,5.14916,0,0,1,1.51172,3.73194,5.7139,5.7139,0,0,1-.71973,2.9043q-.43212.72-.74414,1.22412a7.972,7.972,0,0,1-1.03222,1.248q-.71923.74415-1.05567,1.07959-.33691.33691-1.23632,1.15235-.89941.81591-1.13965,1.05566h6.24023v3.33594Z"/><path class="cls-5" d="M1101.57793,98.27148a5.3124,5.3124,0,0,1-1.22363,3.28809,4.58225,4.58225,0,0,1-1.93164,1.332,8.11793,8.11793,0,0,1-3.03614.51611h-2.54394v6.55176h-4.10449V93.11133h6.64843a6.45455,6.45455,0,0,1,4.55957,1.51221A4.795,4.795,0,0,1,1101.57793,98.27148Zm-8.73535,2.01612h2.54394a1.88087,1.88087,0,0,0,2.01563-2.00391,2.04461,2.04461,0,0,0-.55176-1.47607,1.93386,1.93386,0,0,0-1.46387-.57617h-2.54394Z"/><path class="cls-5" d="M1105.118,108.23145a6.51181,6.51181,0,0,1-2.02832-4.99219,6.41577,6.41577,0,0,1,2.0166-4.95557,7.61133,7.61133,0,0,1,9.97168,0,6.43725,6.43725,0,0,1,2.00391,4.95557,6.57282,6.57282,0,0,1-1.99219,4.99219,6.92386,6.92386,0,0,1-4.96777,1.896A7.04787,7.04787,0,0,1,1105.118,108.23145Zm6.97168-2.47217a3.49936,3.49936,0,0,0,.81641-2.49561,3.39778,3.39778,0,0,0-.83985-2.48437,2.70763,2.70763,0,0,0-1.99219-.85205,2.66822,2.66822,0,0,0-1.98046.85205,4.10939,4.10939,0,0,0,.02441,4.98,2.72153,2.72153,0,0,0,2.00391.86426A2.60917,2.60917,0,0,0,1112.08965,105.75928Z"/><path class="cls-5" d="M1120.51348,108.20752a7.7216,7.7216,0,0,1,0-9.85205,5.66347,5.66347,0,0,1,4.332-1.93213,4.54542,4.54542,0,0,1,3.92383,1.896V92.19971h4.10449v17.75976h-4.10449v-1.94385a4.63838,4.63838,0,0,1-3.9834,2.11182A5.61381,5.61381,0,0,1,1120.51348,108.20752Zm7.36816-2.49609a3.25963,3.25963,0,0,0,.8877-2.44776,3.21837,3.21837,0,0,0-.8877-2.436,2.85451,2.85451,0,0,0-4.08008.01172,3.26006,3.26006,0,0,0-.88769,2.44824,3.21914,3.21914,0,0,0,.88769,2.436,2.85395,2.85395,0,0,0,4.08008-.0122Z"/><path class="cls-5" d="M1148.97734,95.60742a1.68974,1.68974,0,0,0-1.82324,1.77588h-3.98437a4.84372,4.84372,0,0,1,1.62011-3.8999,6.41783,6.41783,0,0,1,4.30762-1.37988,6.08694,6.08694,0,0,1,4.17676,1.31982,4.29653,4.29653,0,0,1,1.4873,3.36035,4.15556,4.15556,0,0,1-.77929,2.61572,4.09046,4.09046,0,0,1-1.59668,1.34424v.09571a4.02962,4.02962,0,0,1,2.68847,4.15234,4.64163,4.64163,0,0,1-1.57226,3.708,6.43618,6.43618,0,0,1-4.34375,1.356,6.97107,6.97107,0,0,1-4.52442-1.416,5.10888,5.10888,0,0,1-1.75195-4.22412h3.98438a2.41955,2.41955,0,0,0,.59961,1.668,2.08485,2.08485,0,0,0,1.59668.61181,2.00056,2.00056,0,0,0,1.53515-.55176,2.21291,2.21291,0,0,0,.5166-1.57226,1.73539,1.73539,0,0,0-.7207-1.52393,4.20532,4.20532,0,0,0-2.35156-.5039h-.76758V99.20752h.76758q2.73633,0,2.73633-1.91992a1.58823,1.58823,0,0,0-.49219-1.22412A1.85086,1.85086,0,0,0,1148.97734,95.60742Z"/><path class="cls-5" d="M645.42852,140.50977l-6.50391-16.56006H640.7l5.52051,14.66406,5.56738-14.66406h1.77637l-6.50391,16.56006Z"/><path class="cls-5" d="M661.56816,140.75a6.01287,6.01287,0,0,1-4.584-1.87207,6.86548,6.86548,0,0,1-1.76367-4.9082,6.67788,6.67788,0,0,1,1.87207-4.91993,6.75448,6.75448,0,0,1,9.36035,0,6.64715,6.64715,0,0,1,1.87207,4.896,6.51043,6.51043,0,0,1-1.96875,4.9082A6.64566,6.64566,0,0,1,661.56816,140.75Zm-.01171-1.34424a4.86193,4.86193,0,0,0,3.52832-1.46387,5.35332,5.35332,0,0,0,1.4873-3.99609,5.465,5.465,0,0,0-1.415-3.98389,4.64422,4.64422,0,0,0-3.45605-1.45214,4.50827,4.50827,0,0,0-3.40821,1.43994,5.5859,5.5859,0,0,0-1.36816,4.0083,5.77671,5.77671,0,0,0,1.2959,4.00781A4.28359,4.28359,0,0,0,661.55645,139.40576Z"/><path class="cls-5" d="M671.08379,140.50977V122.75h1.68066v17.75977Z"/><path class="cls-5" d="M685.699,127.40576h1.68067v13.104H685.699v-2.13623a4.58117,4.58117,0,0,1-4.34375,2.37646,5.01825,5.01825,0,0,1-3.64843-1.42822,5.49173,5.49173,0,0,1-1.46387-4.11621v-7.79981h1.65625v7.48779a4.67339,4.67339,0,0,0,1.04394,3.28809,4.17966,4.17966,0,0,0,5.71192,0,4.67334,4.67334,0,0,0,1.04394-3.28809Z"/><path class="cls-5" d="M692.66,127.40576V129.542a4.5801,4.5801,0,0,1,4.34375-2.37646,5.31885,5.31885,0,0,1,2.7959.74414,4.4712,4.4712,0,0,1,1.83594,2.18408,5.02013,5.02013,0,0,1,1.93164-2.16016,5.44686,5.44686,0,0,1,2.89258-.76806,5.018,5.018,0,0,1,3.64746,1.42822,5.49326,5.49326,0,0,1,1.46386,4.11621v7.79981h-1.65527V133.022a4.67791,4.67791,0,0,0-1.04394-3.28808,4.17966,4.17966,0,0,0-5.71192,0A4.67354,4.67354,0,0,0,702.115,133.022v7.4878h-1.65527V133.022a4.67792,4.67792,0,0,0-1.04395-3.28808,4.17965,4.17965,0,0,0-5.71191,0A4.67332,4.67332,0,0,0,692.66,133.022v7.4878H690.9793v-13.104Z"/><path class="cls-5" d="M720.52324,140.75a5.96,5.96,0,0,1-4.56054-1.87207,6.92654,6.92654,0,0,1-1.752-4.93213,6.79985,6.79985,0,0,1,1.78809-4.91992,6.13863,6.13863,0,0,1,4.63183-1.86035,5.88123,5.88123,0,0,1,6.20411,6.09619,8.269,8.269,0,0,1-.09571,1.2959h-10.7998a5.18336,5.18336,0,0,0,1.36719,3.55224,4.31869,4.31869,0,0,0,3.21679,1.2959,4.62043,4.62043,0,0,0,2.5791-.6958,3.60677,3.60677,0,0,0,1.47657-1.82422h1.7998a6.15866,6.15866,0,0,1-2.1123,2.772A6.089,6.089,0,0,1,720.52324,140.75Zm4.584-7.51221a4.60638,4.60638,0,0,0-1.3086-3.44384,4.73218,4.73218,0,0,0-6.45605-.02442,5.04187,5.04187,0,0,0-1.40332,3.46826Z"/><path class="cls-5" d="M1084.09551,140.50977l-6.50391-16.56006h1.77539l5.52051,14.66406,5.56738-14.66406h1.77637l-6.50391,16.56006Z"/><path class="cls-5" d="M1100.23516,140.75a6.01287,6.01287,0,0,1-4.584-1.87207,6.86548,6.86548,0,0,1-1.76367-4.9082,6.67788,6.67788,0,0,1,1.87207-4.91993,6.75448,6.75448,0,0,1,9.36035,0,6.64715,6.64715,0,0,1,1.87207,4.896,6.51043,6.51043,0,0,1-1.96875,4.9082A6.64566,6.64566,0,0,1,1100.23516,140.75Zm-.01172-1.34424a4.86193,4.86193,0,0,0,3.52832-1.46387,5.35332,5.35332,0,0,0,1.4873-3.99609,5.465,5.465,0,0,0-1.415-3.98389,4.64422,4.64422,0,0,0-3.45605-1.45214,4.50824,4.50824,0,0,0-3.4082,1.43994,5.58591,5.58591,0,0,0-1.36817,4.0083,5.77671,5.77671,0,0,0,1.2959,4.00781A4.28361,4.28361,0,0,0,1100.22344,139.40576Z"/><path class="cls-5" d="M1109.75078,140.50977V122.75h1.68067v17.75977Z"/><path class="cls-5" d="M1124.366,127.40576h1.68066v13.104H1124.366v-2.13623a4.58119,4.58119,0,0,1-4.34375,2.37646,5.01826,5.01826,0,0,1-3.64844-1.42822,5.49173,5.49173,0,0,1-1.46387-4.11621v-7.79981h1.65625v7.48779a4.67334,4.67334,0,0,0,1.04395,3.28809,4.17965,4.17965,0,0,0,5.71191,0,4.67334,4.67334,0,0,0,1.04395-3.28809Z"/><path class="cls-5" d="M1131.32695,127.40576V129.542a4.5801,4.5801,0,0,1,4.34375-2.37646,5.31885,5.31885,0,0,1,2.7959.74414,4.4712,4.4712,0,0,1,1.83594,2.18408,5.02025,5.02025,0,0,1,1.93164-2.16016,5.44686,5.44686,0,0,1,2.89258-.76806,5.018,5.018,0,0,1,3.64746,1.42822,5.49323,5.49323,0,0,1,1.46387,4.11621v7.79981h-1.65528V133.022a4.67791,4.67791,0,0,0-1.04394-3.28808,4.17966,4.17966,0,0,0-5.71192,0,4.67354,4.67354,0,0,0-1.04492,3.28808v7.4878h-1.65527V133.022a4.67787,4.67787,0,0,0-1.04395-3.28808,4.17965,4.17965,0,0,0-5.71191,0,4.67332,4.67332,0,0,0-1.04395,3.28808v7.4878h-1.68066v-13.104Z"/><path class="cls-5" d="M1159.19121,140.75a5.96,5.96,0,0,1-4.56055-1.87207,6.92658,6.92658,0,0,1-1.752-4.93213,6.79981,6.79981,0,0,1,1.78809-4.91992,6.13861,6.13861,0,0,1,4.63183-1.86035,5.88123,5.88123,0,0,1,6.20411,6.09619,8.269,8.269,0,0,1-.09571,1.2959h-10.7998a5.18335,5.18335,0,0,0,1.36718,3.55224,4.31873,4.31873,0,0,0,3.2168,1.2959,4.62045,4.62045,0,0,0,2.5791-.6958,3.60682,3.60682,0,0,0,1.47657-1.82422h1.7998a6.15866,6.15866,0,0,1-2.1123,2.772A6.089,6.089,0,0,1,1159.19121,140.75Zm4.584-7.51221a4.60638,4.60638,0,0,0-1.3086-3.44384,4.73218,4.73218,0,0,0-6.45605-.02442,5.04187,5.04187,0,0,0-1.40332,3.46826Z"/><path class="cls-5" d="M652.55547,273.31348v3.12011H646.66v3.624h5.19922v3.11963H646.66v3.91211h5.89551v3.12011h-9.86523v-16.896Z"/><path class="cls-5" d="M659.93828,276.81738v1.96826a4.20246,4.20246,0,0,1,3.92285-2.1123,4.62558,4.62558,0,0,1,3.60938,1.53613,6.01455,6.01455,0,0,1,1.38183,4.17578v7.82422h-3.94628v-7.272a2.82274,2.82274,0,0,0-.66211-2.00391,2.6991,2.6991,0,0,0-3.64454,0,2.8224,2.8224,0,0,0-.66113,2.00391v7.272h-3.96972V276.81738Z"/><path class="cls-5" d="M672.9832,288.45752a7.922,7.922,0,0,1,0-9.852,5.40156,5.40156,0,0,1,4.19043-1.93213,4.34687,4.34687,0,0,1,3.79493,1.896v-1.752h3.96972V290.1377a7.29412,7.29412,0,0,1-1.48535,4.67968,4.81944,4.81944,0,0,1-2.03125,1.48828,7.83336,7.83336,0,0,1-2.9834.52784,7.94251,7.94251,0,0,1-4.71191-1.24805,4.971,4.971,0,0,1-1.97363-3.81592h3.90039q.55664,1.51172,2.78515,1.51172a2.39371,2.39371,0,0,0,1.81055-.75586,3.37144,3.37144,0,0,0,.71973-2.38769v-1.87208a4.44826,4.44826,0,0,1-3.85352,2.11182A5.35343,5.35343,0,0,1,672.9832,288.45752Zm7.127-2.49609a3.32388,3.32388,0,0,0,.8584-2.44776,3.28129,3.28129,0,0,0-.8584-2.436,2.698,2.698,0,0,0-3.94629.01172,3.32071,3.32071,0,0,0-.85938,2.44824,3.27855,3.27855,0,0,0,.85938,2.436,2.69753,2.69753,0,0,0,3.94629-.0122Z"/><path class="cls-5" d="M692.0418,275.30566a2.29942,2.29942,0,0,1-3.2959,0,2.52208,2.52208,0,0,1,0-3.43212,2.29829,2.29829,0,0,1,3.2959,0,2.52477,2.52477,0,0,1,0,3.43212Zm-3.6211,14.90381V276.81738h3.96973v13.39209Z"/><path class="cls-5" d="M699.8416,276.81738v1.96826a4.20246,4.20246,0,0,1,3.92285-2.1123,4.62558,4.62558,0,0,1,3.60938,1.53613,6.01455,6.01455,0,0,1,1.38183,4.17578v7.82422h-3.94628v-7.272a2.82274,2.82274,0,0,0-.66211-2.00391,2.69909,2.69909,0,0,0-3.64453,0,2.82236,2.82236,0,0,0-.66114,2.00391v7.272h-3.96972V276.81738Z"/><path class="cls-5" d="M717.62188,290.37744a6.1572,6.1572,0,0,1-4.64258-1.88379,6.91816,6.91816,0,0,1-1.81055-5.00439,6.81832,6.81832,0,0,1,1.79883-4.96778,6.209,6.209,0,0,1,4.6543-1.84814,6.5283,6.5283,0,0,1,4.73632,1.82422,6.72869,6.72869,0,0,1,1.87989,5.064,8.53036,8.53036,0,0,1-.09278,1.2959h-8.91406a2.23734,2.23734,0,0,0,.7666,1.45215,2.101,2.101,0,0,0,1.4043.564,3.06347,3.06347,0,0,0,1.126-.15625,1.97157,1.97157,0,0,0,.54492-.312,4.12752,4.12752,0,0,0,.45312-.51562h4.29395a5.88349,5.88349,0,0,1-2.22852,3.25195A6.48972,6.48972,0,0,1,717.62188,290.37744Zm1.69531-9.61182a2.4746,2.4746,0,0,0-1.64844-.58837,2.29773,2.29773,0,0,0-1.60156.58837,2.58312,2.58312,0,0,0-.8125,1.52393h4.85156A2.20656,2.20656,0,0,0,719.31719,280.76562Z"/><path class="cls-5" d="M1084.89824,273.31348v3.12011h-5.66894v3.624h4.999v3.11963h-4.999v3.91211h5.66894v3.12011h-9.48535v-16.896Z"/><path class="cls-5" d="M1091.99492,276.81738v1.96826a4.00826,4.00826,0,0,1,3.77149-2.1123,4.36936,4.36936,0,0,1,3.4707,1.53613,6.17216,6.17216,0,0,1,1.32813,4.17578v7.82422h-3.79395v-7.272a2.89745,2.89745,0,0,0-.63672-2.00391,2.52162,2.52162,0,0,0-3.50391,0,2.89722,2.89722,0,0,0-.63574,2.00391v7.272h-3.8164V276.81738Z"/><path class="cls-5" d="M1104.53691,288.45752a8.17286,8.17286,0,0,1,0-9.852,5.11159,5.11159,0,0,1,4.02833-1.93213,4.13255,4.13255,0,0,1,3.64941,1.896v-1.752h3.81641V290.1377a7.49148,7.49148,0,0,1-1.42872,4.67968,4.64331,4.64331,0,0,1-1.95312,1.48828,7.26589,7.26589,0,0,1-2.86719.52784,7.41992,7.41992,0,0,1-4.53125-1.24805,5.03221,5.03221,0,0,1-1.89648-3.81592h3.749q.53613,1.51172,2.67871,1.51172a2.25814,2.25814,0,0,0,1.74024-.75586,3.46268,3.46268,0,0,0,.69238-2.38769v-1.87208a4.24086,4.24086,0,0,1-3.70508,2.11182A5.06611,5.06611,0,0,1,1104.53691,288.45752Zm6.85157-2.49609a3.4016,3.4016,0,0,0,.82617-2.44776,3.35745,3.35745,0,0,0-.82617-2.436,2.52624,2.52624,0,0,0-3.79395.01172,3.402,3.402,0,0,0-.82617,2.44824,3.35823,3.35823,0,0,0,.82617,2.436,2.52577,2.52577,0,0,0,3.79395-.0122Z"/><path class="cls-5" d="M1122.86016,275.30566a2.152,2.152,0,0,1-3.16895,0,2.5979,2.5979,0,0,1,0-3.43212,2.151,2.151,0,0,1,3.16895,0,2.5979,2.5979,0,0,1,0,3.43212Zm-3.48145,14.90381V276.81738h3.81641v13.39209Z"/><path class="cls-5" d="M1130.35918,276.81738v1.96826a4.00825,4.00825,0,0,1,3.77148-2.1123,4.36937,4.36937,0,0,1,3.47071,1.53613,6.1722,6.1722,0,0,1,1.32812,4.17578v7.82422h-3.79394v-7.272a2.89745,2.89745,0,0,0-.63672-2.00391,2.52162,2.52162,0,0,0-3.50391,0,2.89718,2.89718,0,0,0-.63574,2.00391v7.272h-3.81641V276.81738Z"/><path class="cls-5" d="M1147.45391,290.37744a5.80344,5.80344,0,0,1-4.46289-1.88379,7.07911,7.07911,0,0,1-1.74121-5.00439,6.97746,6.97746,0,0,1,1.72949-4.96778,5.85146,5.85146,0,0,1,4.47461-1.84814,6.14442,6.14442,0,0,1,4.55273,1.82422,6.87968,6.87968,0,0,1,1.80762,5.064,8.81107,8.81107,0,0,1-.08887,1.2959h-8.57031a2.26585,2.26585,0,0,0,.7373,1.45215,1.97927,1.97927,0,0,0,1.34961.564,2.8403,2.8403,0,0,0,1.083-.15625,1.896,1.896,0,0,0,.52441-.312,4.07409,4.07409,0,0,0,.43458-.51562h4.1289a5.897,5.897,0,0,1-2.14258,3.25195A6.07406,6.07406,0,0,1,1147.45391,290.37744Zm1.62988-9.61182a2.32656,2.32656,0,0,0-1.585-.58837,2.16073,2.16073,0,0,0-1.54.58837,2.61657,2.61657,0,0,0-.78125,1.52393h4.665A2.23671,2.23671,0,0,0,1149.08379,280.76562Z"/><path class="cls-6" d="M228.54229,177.71573a15.791,15.791,0,1,1,15.791,15.7909A15.79273,15.79273,0,0,1,228.54229,177.71573Z"/><line class="cls-7" x1="244.33349" y1="177.3209" x2="244.33349" y2="250.46393"/><path class="cls-5" d="M236.438,177.71567a7.89551,7.89551,0,1,1,7.89551,7.89545A7.89621,7.89621,0,0,1,236.438,177.71567Z"/><polygon class="cls-5" points="238.35 248.713 244.333 259.075 250.317 248.713 238.35 248.713"/><path class="cls-6" d="M228.54229,319.36582a15.791,15.791,0,1,1,15.791,15.79089A15.79273,15.79273,0,0,1,228.54229,319.36582Z"/><path class="cls-6" d="M667.209,177.71573a15.791,15.791,0,1,1,15.791,15.7909A15.79274,15.79274,0,0,1,667.209,177.71573Z"/><line class="cls-7" x1="683.00023" y1="177.3209" x2="683.00023" y2="250.46393"/><path class="cls-5" d="M675.10473,177.71567a7.89551,7.89551,0,1,1,7.8955,7.89545A7.89621,7.89621,0,0,1,675.10473,177.71567Z"/><polygon class="cls-5" points="677.017 248.713 683 259.075 688.984 248.713 677.017 248.713"/><path class="cls-6" d="M1105.87578,177.71573a15.791,15.791,0,1,1,15.791,15.7909A15.79274,15.79274,0,0,1,1105.87578,177.71573Z"/><line class="cls-7" x1="1121.66698" y1="177.3209" x2="1121.66698" y2="250.46393"/><path class="cls-5" d="M1113.77147,177.71567a7.89551,7.89551,0,1,1,7.89551,7.89545A7.89621,7.89621,0,0,1,1113.77147,177.71567Z"/><polygon class="cls-5" points="1115.683 248.713 1121.667 259.075 1127.65 248.713 1115.683 248.713"/><rect class="cls-2" x="49.99981" y="538.95929" width="608" height="179.04071" rx="6"/><path class="cls-7" d="M146.66631,381.61252v-3.86331a36.87467,36.87467,0,0,1,36.875-36.87461h26.91748a36.88528,36.88528,0,0,0,33.96094-22.48382"/><polygon class="cls-5" points="154.146 379.424 146.666 392.377 139.187 379.424 154.146 379.424"/><path class="cls-5" d="M252.11065,319.24115a7.89566,7.89566,0,1,0-8.35254,7.41034A7.89682,7.89682,0,0,0,252.11065,319.24115Z"/><path class="cls-7" d="M1004.89336,387.61252v-9.86331a36.87457,36.87457,0,0,0-36.87451-36.87461H276.54131a36.87514,36.87514,0,0,1-32.98438-20.37036"/><polygon class="cls-5" points="1012.373 385.424 1004.893 398.377 997.414 385.424 1012.373 385.424"/><path class="cls-6" d="M1138.71034,320.05008a15.791,15.791,0,1,0-15.791,15.79089A15.79274,15.79274,0,0,0,1138.71034,320.05008Z"/><path class="cls-6" d="M698.79107,320.05008a15.791,15.791,0,1,0-15.791,15.79089A15.79274,15.79274,0,0,0,698.79107,320.05008Z"/><path class="cls-7" d="M587.8499,391.36133a36.75944,36.75944,0,0,1,26.07666-10.80246h471.78516a36.87457,36.87457,0,0,0,36.87451-36.8746V320.54782"/><polygon class="cls-5" points="595.288 394.382 581.426 399.998 583.491 385.184 595.288 394.382"/><path class="cls-5" d="M1130.48174,320.94553a7.89551,7.89551,0,1,0-7.89551,7.89544A7.89637,7.89637,0,0,0,1130.48174,320.94553Z"/><path class="cls-7" d="M364.22783,389.32407a36.88867,36.88867,0,0,1,35.98-28.7652H646.12529a36.87467,36.87467,0,0,0,36.875-36.8746v-4.20945"/><polygon class="cls-5" points="372.159 387.986 363.333 400.061 357.287 386.38 372.159 387.986"/><path class="cls-5" d="M690.8958,319.87018a7.89551,7.89551,0,1,0-7.89551,7.89541A7.89637,7.89637,0,0,0,690.8958,319.87018Z"/><path class="cls-7" d="M780.77227,389.32407a36.88867,36.88867,0,0,0-35.98-28.7652H719.87481a36.87457,36.87457,0,0,1-36.87452-36.8746"/><polygon class="cls-5" points="787.713 386.38 781.667 400.061 772.841 387.986 787.713 386.38"/><path class="cls-7" d="M1209.78789,391.36136a36.75831,36.75831,0,0,0-26.07617-10.80249h-23.918a36.87457,36.87457,0,0,1-36.87451-36.8746V320.54782"/><polygon class="cls-5" points="1214.147 385.184 1216.212 399.998 1202.349 394.382 1214.147 385.184"/><path class="cls-5" d="M1130.81475,320.94553a7.89551,7.89551,0,1,0-7.89551,7.89544A7.89637,7.89637,0,0,0,1130.81475,320.94553Z"/><rect class="cls-3" x="263.99981" y="553.95898" width="80" height="149.04102" rx="6"/><rect class="cls-3" x="363.99981" y="553.95898" width="80" height="149.04102" rx="6"/><rect class="cls-3" x="463.99981" y="553.95898" width="179" height="149.04102" rx="6"/><rect class="cls-3" x="163.99981" y="553.95898" width="80" height="149.04102" rx="6"/><rect class="cls-4" x="563.74981" y="618.47949" width="74.25" height="79.52051" rx="4.40109" transform="translate(1201.74961 1316.47949) rotate(180)"/><rect class="cls-3" x="64.99981" y="553.95898" width="79" height="149.04102" rx="6"/><rect class="cls-4" x="466.36455" y="621.11475" width="79.52051" height="74.25" rx="4.36954" transform="translate(1164.36455 152.11494) rotate(90)"/><rect class="cls-3" x="921.99981" y="553.95898" width="80" height="149.04102" rx="6"/><rect class="cls-3" x="1021.99981" y="553.95898" width="80" height="149.04102" rx="6"/><rect class="cls-3" x="821.99981" y="553.95898" width="80" height="149.04102" rx="6"/><rect class="cls-3" x="722.99981" y="553.95898" width="79" height="149.04102" rx="6"/><path class="cls-5" d="M87.616,644.96191a1.911,1.911,0,0,0-1.25977.40821,1.44117,1.44117,0,0,0-.49219,1.17578,1.69561,1.69561,0,0,0,.45606,1.23633,2.97051,2.97051,0,0,0,1.18847.71972q.731.252,1.63184.48047a18.63875,18.63875,0,0,1,1.78809.55176,7.88141,7.88141,0,0,1,1.62011.80371,3.52925,3.52925,0,0,1,1.1875,1.35645,4.49951,4.49951,0,0,1,.45606,2.09961A4.70216,4.70216,0,0,1,92.452,657.4541a6.70216,6.70216,0,0,1-4.584,1.52442,7.20621,7.20621,0,0,1-4.584-1.36817,4.65657,4.65657,0,0,1-1.73926-3.88769h4.36718a1.90117,1.90117,0,0,0,2.06446,2.01562,1.96788,1.96788,0,0,0,1.3916-.46777,1.55186,1.55186,0,0,0,.50391-1.18848,1.58877,1.58877,0,0,0-.45606-1.17578,3.16513,3.16513,0,0,0-1.1875-.71973q-.73242-.26367-1.63183-.49218a16.39159,16.39159,0,0,1-1.78809-.56446,8.69849,8.69849,0,0,1-1.62012-.80371,3.41908,3.41908,0,0,1-1.1875-1.34375,4.43016,4.43016,0,0,1-.45605-2.07617,4.59819,4.59819,0,0,1,1.75195-3.76758,6.88805,6.88805,0,0,1,4.47559-1.416,7.26135,7.26135,0,0,1,4.40429,1.23535,4.69071,4.69071,0,0,1,1.752,3.90039H89.46465a2.25713,2.25713,0,0,0-.58789-1.4043A1.71187,1.71187,0,0,0,87.616,644.96191Z"/><path class="cls-5" d="M103.14336,644.96191a1.911,1.911,0,0,0-1.25977.40821,1.44116,1.44116,0,0,0-.49218,1.17578,1.69561,1.69561,0,0,0,.45605,1.23633,2.97055,2.97055,0,0,0,1.18848.71972q.731.252,1.63183.48047a18.63788,18.63788,0,0,1,1.78809.55176,7.88125,7.88125,0,0,1,1.62012.80371,3.52933,3.52933,0,0,1,1.1875,1.35645,4.49951,4.49951,0,0,1,.45605,2.09961,4.70218,4.70218,0,0,1-1.74023,3.66015,6.70219,6.70219,0,0,1-4.584,1.52442,7.20625,7.20625,0,0,1-4.584-1.36817,4.65657,4.65657,0,0,1-1.73926-3.88769h4.36719a1.90116,1.90116,0,0,0,2.06445,2.01562,1.96784,1.96784,0,0,0,1.3916-.46777,1.55186,1.55186,0,0,0,.50391-1.18848,1.58877,1.58877,0,0,0-.45606-1.17578,3.16505,3.16505,0,0,0-1.1875-.71973q-.73242-.26367-1.63183-.49218a16.39159,16.39159,0,0,1-1.78809-.56446,8.69871,8.69871,0,0,1-1.62011-.80371,3.419,3.419,0,0,1-1.1875-1.34375,4.43016,4.43016,0,0,1-.45606-2.07617,4.59819,4.59819,0,0,1,1.752-3.76758,6.88807,6.88807,0,0,1,4.47559-1.416,7.2614,7.2614,0,0,1,4.4043,1.23535,4.69067,4.69067,0,0,1,1.752,3.90039H104.992a2.25713,2.25713,0,0,0-.58789-1.4043A1.71185,1.71185,0,0,0,103.14336,644.96191Z"/><path class="cls-5" d="M118.88652,641.96191a9.50477,9.50477,0,0,1,6.624,2.34082,8.41959,8.41959,0,0,1,0,12.15528,9.47624,9.47624,0,0,1-6.624,2.35254h-5.92773V641.96191Zm-1.82324,13.72852h1.82324a4.80993,4.80993,0,0,0,3.69629-1.44043,6.22675,6.22675,0,0,0,0-7.72754,4.80993,4.80993,0,0,0-3.69629-1.44043h-1.82324Z"/><path class="cls-5" d="M187.116,644.96191a1.911,1.911,0,0,0-1.25977.40821,1.44117,1.44117,0,0,0-.49219,1.17578,1.69561,1.69561,0,0,0,.45606,1.23633,2.97051,2.97051,0,0,0,1.18847.71972q.731.252,1.63184.48047a18.63875,18.63875,0,0,1,1.78809.55176,7.88141,7.88141,0,0,1,1.62011.80371,3.52925,3.52925,0,0,1,1.1875,1.35645,4.49951,4.49951,0,0,1,.45606,2.09961,4.70216,4.70216,0,0,1-1.74024,3.66015,6.70216,6.70216,0,0,1-4.584,1.52442,7.20621,7.20621,0,0,1-4.584-1.36817,4.65657,4.65657,0,0,1-1.73926-3.88769h4.36718a1.90117,1.90117,0,0,0,2.06446,2.01562,1.96788,1.96788,0,0,0,1.3916-.46777,1.55186,1.55186,0,0,0,.50391-1.18848,1.58877,1.58877,0,0,0-.45606-1.17578,3.16513,3.16513,0,0,0-1.1875-.71973q-.73242-.26367-1.63183-.49218a16.39159,16.39159,0,0,1-1.78809-.56446,8.69849,8.69849,0,0,1-1.62012-.80371,3.41908,3.41908,0,0,1-1.1875-1.34375,4.43016,4.43016,0,0,1-.45605-2.07617,4.59819,4.59819,0,0,1,1.752-3.76758,6.88805,6.88805,0,0,1,4.47559-1.416,7.26135,7.26135,0,0,1,4.40429,1.23535,4.69071,4.69071,0,0,1,1.752,3.90039h-4.46387a2.25713,2.25713,0,0,0-.58789-1.4043A1.71187,1.71187,0,0,0,187.116,644.96191Z"/><path class="cls-5" d="M202.64336,644.96191a1.911,1.911,0,0,0-1.25977.40821,1.44116,1.44116,0,0,0-.49218,1.17578,1.69561,1.69561,0,0,0,.45605,1.23633,2.97055,2.97055,0,0,0,1.18848.71972q.73095.252,1.63183.48047a18.63788,18.63788,0,0,1,1.78809.55176,7.88125,7.88125,0,0,1,1.62012.80371,3.52933,3.52933,0,0,1,1.1875,1.35645,4.49951,4.49951,0,0,1,.45605,2.09961,4.70218,4.70218,0,0,1-1.74023,3.66015,6.70219,6.70219,0,0,1-4.584,1.52442,7.20625,7.20625,0,0,1-4.584-1.36817,4.65657,4.65657,0,0,1-1.73926-3.88769h4.36719a1.90116,1.90116,0,0,0,2.06445,2.01562,1.96784,1.96784,0,0,0,1.3916-.46777,1.55186,1.55186,0,0,0,.50391-1.18848,1.58877,1.58877,0,0,0-.45606-1.17578,3.16505,3.16505,0,0,0-1.1875-.71973q-.73242-.26367-1.63183-.49218a16.39159,16.39159,0,0,1-1.78809-.56446,8.69871,8.69871,0,0,1-1.62011-.80371,3.419,3.419,0,0,1-1.1875-1.34375,4.43016,4.43016,0,0,1-.45606-2.07617,4.59819,4.59819,0,0,1,1.75195-3.76758,6.88807,6.88807,0,0,1,4.47559-1.416,7.2614,7.2614,0,0,1,4.4043,1.23535,4.69067,4.69067,0,0,1,1.75195,3.90039H204.492a2.25713,2.25713,0,0,0-.58789-1.4043A1.71185,1.71185,0,0,0,202.64336,644.96191Z"/><path class="cls-5" d="M218.38652,641.96191a9.50477,9.50477,0,0,1,6.624,2.34082,8.41959,8.41959,0,0,1,0,12.15528,9.47624,9.47624,0,0,1-6.624,2.35254h-5.92773V641.96191Zm-1.82324,13.72852h1.82324a4.80993,4.80993,0,0,0,3.69629-1.44043,6.22675,6.22675,0,0,0,0-7.72754,4.80993,4.80993,0,0,0-3.69629-1.44043h-1.82324Z"/><path class="cls-5" d="M287.366,644.96191a1.911,1.911,0,0,0-1.25977.40821,1.44117,1.44117,0,0,0-.49219,1.17578,1.69224,1.69224,0,0,0,.457,1.23633,2.95991,2.95991,0,0,0,1.1875.71972c.48829.168,1.03125.32813,1.63282.48047a18.53533,18.53533,0,0,1,1.78711.55176,7.88968,7.88968,0,0,1,1.62109.80371,3.54534,3.54534,0,0,1,1.1875,1.35645,4.51163,4.51163,0,0,1,.45508,2.09961,4.70216,4.70216,0,0,1-1.74024,3.66015,6.70216,6.70216,0,0,1-4.584,1.52442,7.2081,7.2081,0,0,1-4.584-1.36817,4.65588,4.65588,0,0,1-1.73829-3.88769h4.36719a1.90023,1.90023,0,0,0,2.06445,2.01562,1.96534,1.96534,0,0,0,1.39063-.46777,1.55186,1.55186,0,0,0,.50391-1.18848,1.58806,1.58806,0,0,0-.45508-1.17578,3.17294,3.17294,0,0,0-1.1875-.71973q-.73242-.26367-1.63281-.49218a16.44271,16.44271,0,0,1-1.78711-.56446,8.7078,8.7078,0,0,1-1.6211-.80371,3.42664,3.42664,0,0,1-1.1875-1.34375,4.4301,4.4301,0,0,1-.45508-2.07617,4.59546,4.59546,0,0,1,1.752-3.76758,6.88342,6.88342,0,0,1,4.47461-1.416,7.25737,7.25737,0,0,1,4.40429,1.23535,4.688,4.688,0,0,1,1.752,3.90039h-4.46289a2.26262,2.26262,0,0,0-.58789-1.4043A1.71414,1.71414,0,0,0,287.366,644.96191Z"/><path class="cls-5" d="M302.89336,644.96191a1.911,1.911,0,0,0-1.25977.40821,1.44116,1.44116,0,0,0-.49218,1.17578,1.6922,1.6922,0,0,0,.457,1.23633,2.95984,2.95984,0,0,0,1.1875.71972c.48828.168,1.03125.32813,1.63281.48047a18.53533,18.53533,0,0,1,1.78711.55176,7.88942,7.88942,0,0,1,1.62109.80371,3.54526,3.54526,0,0,1,1.1875,1.35645,4.51151,4.51151,0,0,1,.45508,2.09961,4.70218,4.70218,0,0,1-1.74023,3.66015,6.70219,6.70219,0,0,1-4.584,1.52442,7.20812,7.20812,0,0,1-4.584-1.36817,4.65587,4.65587,0,0,1-1.73828-3.88769h4.36719a1.90022,1.90022,0,0,0,2.06445,2.01562,1.9653,1.9653,0,0,0,1.39062-.46777,1.55186,1.55186,0,0,0,.50391-1.18848,1.58806,1.58806,0,0,0-.45508-1.17578,3.17294,3.17294,0,0,0-1.1875-.71973q-.73242-.26367-1.63281-.49218a16.4434,16.4434,0,0,1-1.78711-.56446,8.70771,8.70771,0,0,1-1.62109-.80371,3.42649,3.42649,0,0,1-1.1875-1.34375,4.4301,4.4301,0,0,1-.45508-2.07617,4.59545,4.59545,0,0,1,1.75195-3.76758,6.88344,6.88344,0,0,1,4.47461-1.416,7.25738,7.25738,0,0,1,4.4043,1.23535,4.688,4.688,0,0,1,1.75195,3.90039H304.743a2.26256,2.26256,0,0,0-.58789-1.4043A1.71414,1.71414,0,0,0,302.89336,644.96191Z"/><path class="cls-5" d="M318.6375,641.96191a9.50228,9.50228,0,0,1,6.62305,2.34082,8.41739,8.41739,0,0,1,0,12.15528,9.47376,9.47376,0,0,1-6.62305,2.35254h-5.92773V641.96191Zm-1.82422,13.72852h1.82422a4.80772,4.80772,0,0,0,3.69531-1.44043,6.22675,6.22675,0,0,0,0-7.72754,4.80772,4.80772,0,0,0-3.69531-1.44043h-1.82422Z"/><path class="cls-5" d="M386.866,644.96191a1.911,1.911,0,0,0-1.25977.40821,1.44117,1.44117,0,0,0-.49219,1.17578,1.69224,1.69224,0,0,0,.457,1.23633,2.95991,2.95991,0,0,0,1.1875.71972c.48829.168,1.03125.32813,1.63282.48047a18.53533,18.53533,0,0,1,1.78711.55176,7.88968,7.88968,0,0,1,1.62109.80371,3.54534,3.54534,0,0,1,1.1875,1.35645,4.51163,4.51163,0,0,1,.45508,2.09961,4.70216,4.70216,0,0,1-1.74024,3.66015,6.70216,6.70216,0,0,1-4.584,1.52442,7.2081,7.2081,0,0,1-4.584-1.36817,4.65588,4.65588,0,0,1-1.73829-3.88769h4.36719a1.90023,1.90023,0,0,0,2.06445,2.01562,1.96534,1.96534,0,0,0,1.39063-.46777,1.55186,1.55186,0,0,0,.50391-1.18848,1.58806,1.58806,0,0,0-.45508-1.17578,3.17294,3.17294,0,0,0-1.1875-.71973q-.73242-.26367-1.63281-.49218a16.44271,16.44271,0,0,1-1.78711-.56446,8.7078,8.7078,0,0,1-1.6211-.80371,3.42664,3.42664,0,0,1-1.1875-1.34375,4.4301,4.4301,0,0,1-.45508-2.07617,4.59546,4.59546,0,0,1,1.752-3.76758,6.88342,6.88342,0,0,1,4.47461-1.416,7.25737,7.25737,0,0,1,4.40429,1.23535,4.688,4.688,0,0,1,1.752,3.90039h-4.46289a2.26262,2.26262,0,0,0-.58789-1.4043A1.71414,1.71414,0,0,0,386.866,644.96191Z"/><path class="cls-5" d="M402.39336,644.96191a1.911,1.911,0,0,0-1.25977.40821,1.44116,1.44116,0,0,0-.49218,1.17578,1.6922,1.6922,0,0,0,.457,1.23633,2.95984,2.95984,0,0,0,1.1875.71972c.48828.168,1.03125.32813,1.63281.48047a18.53533,18.53533,0,0,1,1.78711.55176,7.88942,7.88942,0,0,1,1.62109.80371,3.54526,3.54526,0,0,1,1.1875,1.35645,4.51151,4.51151,0,0,1,.45508,2.09961,4.70218,4.70218,0,0,1-1.74023,3.66015,6.70219,6.70219,0,0,1-4.584,1.52442,7.20812,7.20812,0,0,1-4.584-1.36817,4.65587,4.65587,0,0,1-1.73828-3.88769h4.36719a1.90022,1.90022,0,0,0,2.06445,2.01562,1.9653,1.9653,0,0,0,1.39062-.46777,1.55186,1.55186,0,0,0,.50391-1.18848,1.58806,1.58806,0,0,0-.45508-1.17578,3.17294,3.17294,0,0,0-1.1875-.71973q-.73242-.26367-1.63281-.49218a16.4434,16.4434,0,0,1-1.78711-.56446,8.70771,8.70771,0,0,1-1.62109-.80371,3.42649,3.42649,0,0,1-1.1875-1.34375,4.4301,4.4301,0,0,1-.45508-2.07617,4.59545,4.59545,0,0,1,1.75195-3.76758,6.88344,6.88344,0,0,1,4.47461-1.416,7.25738,7.25738,0,0,1,4.4043,1.23535,4.688,4.688,0,0,1,1.75195,3.90039H404.243a2.26256,2.26256,0,0,0-.58789-1.4043A1.71414,1.71414,0,0,0,402.39336,644.96191Z"/><path class="cls-5" d="M418.1375,641.96191a9.50228,9.50228,0,0,1,6.62305,2.34082,8.41739,8.41739,0,0,1,0,12.15528,9.47376,9.47376,0,0,1-6.62305,2.35254h-5.92773V641.96191Zm-1.82422,13.72852h1.82422a4.80772,4.80772,0,0,0,3.69531-1.44043,6.22675,6.22675,0,0,0,0-7.72754,4.80772,4.80772,0,0,0-3.69531-1.44043h-1.82422Z"/><path class="cls-5" d="M524.48418,578.56445h4.10449V595.46h-4.10449l-6.86328-10.63184V595.46h-4.10449V578.56445h4.10449l6.86328,10.63184Z"/><path class="cls-5" d="M533.25664,593.73242a6.51178,6.51178,0,0,1-2.02832-4.99219,6.41685,6.41685,0,0,1,2.0166-4.95605,7.61133,7.61133,0,0,1,9.97168,0,6.4383,6.4383,0,0,1,2.00391,4.95605,6.57275,6.57275,0,0,1-1.99219,4.99219,6.92551,6.92551,0,0,1-4.96777,1.89551A7.04961,7.04961,0,0,1,533.25664,593.73242Zm6.97168-2.47265a3.49722,3.49722,0,0,0,.81641-2.49512,3.39781,3.39781,0,0,0-.83985-2.48438,2.70814,2.70814,0,0,0-1.99218-.85254,2.66874,2.66874,0,0,0-1.98047.85254,4.10868,4.10868,0,0,0,.02441,4.9795,2.72152,2.72152,0,0,0,2.00391.86425A2.60913,2.60913,0,0,0,540.22832,591.25977Z"/><path class="cls-5" d="M548.65215,593.708a7.72092,7.72092,0,0,1,0-9.85156,5.66228,5.66228,0,0,1,4.332-1.93262,4.54581,4.54581,0,0,1,3.92383,1.89648V577.7002h4.10449V595.46H556.908V593.5166a4.638,4.638,0,0,1-3.9834,2.11133A5.61381,5.61381,0,0,1,548.65215,593.708Zm7.36816-2.4961a3.25843,3.25843,0,0,0,.8877-2.44726,3.21955,3.21955,0,0,0-.8877-2.43653,2.85563,2.85563,0,0,0-4.08007.01172,3.2608,3.2608,0,0,0-.8877,2.44825,3.221,3.221,0,0,0,.8877,2.43652,2.8545,2.8545,0,0,0,4.08007-.0127Z"/><path class="cls-5" d="M570.30059,595.62793a6.47478,6.47478,0,0,1-4.79981-1.88379,6.7871,6.7871,0,0,1-1.87207-5.00391,6.68785,6.68785,0,0,1,1.85938-4.96777,6.53334,6.53334,0,0,1,4.8125-1.84863,6.87426,6.87426,0,0,1,4.8955,1.82422,6.607,6.607,0,0,1,1.94434,5.06445,8.28364,8.28364,0,0,1-.0957,1.2959h-9.2168a2.3374,2.3374,0,0,0,2.24414,2.01562,3.26095,3.26095,0,0,0,1.16406-.15625,2.0586,2.0586,0,0,0,.56446-.31152,4.18485,4.18485,0,0,0,.46777-.51563h4.44043a5.88839,5.88839,0,0,1-2.30469,3.252A6.86333,6.86333,0,0,1,570.30059,595.62793Zm1.75195-9.61133a2.61059,2.61059,0,0,0-1.7041-.58887,2.42387,2.42387,0,0,0-1.65625.58887,2.55257,2.55257,0,0,0-.83985,1.52344H572.868A2.1782,2.1782,0,0,0,572.05254,586.0166Z"/><path class="cls-5" d="M588.75664,595.46V582.23633h-2.9043v-3.81641h7.15235v17.04Z"/><path class="cls-6" d="M483.993,660.25781v6.55176H479.8875V649.96191h6.64844a6.45927,6.45927,0,0,1,4.56055,1.51172,4.79511,4.79511,0,0,1,1.63085,3.64844,5.247,5.247,0,0,1-.88671,2.85547,4.84847,4.84847,0,0,1-2.9043,1.96875l4.127,6.86328h-4.79883l-3.793-6.55176Zm0-7.17578v4.05567h2.543a1.968,1.968,0,0,0,1.47656-.55176,1.9906,1.9906,0,0,0,.53906-1.45215,2.04768,2.04768,0,0,0-.55078-1.47559,1.93579,1.93579,0,0,0-1.46484-.57617Z"/><path class="cls-6" d="M506.62383,666.80957l-.93555-2.832h-6.04883l-.93554,2.832h-4.36719l5.85547-16.89551h4.99219l5.832,16.89551Zm-5.95117-5.95215H504.657l-1.99219-6Z"/><path class="cls-6" d="M532.11211,649.96191v16.84766h-4.10352v-9.50391l-3.9121,9.50391h-3.04688l-3.91211-9.50391v9.50391H513.032V649.96191h4.70508l4.84766,11.61621,4.82422-11.61621Z"/><path class="cls-6" d="M578.4793,664.51758a8.86783,8.86783,0,0,1,0-12.35938,8.46583,8.46583,0,0,1,6.13086-2.43652,8.65026,8.65026,0,0,1,4.99218,1.48828,7.76469,7.76469,0,0,1,3.04883,4.12793h-4.89648a3.22326,3.22326,0,0,0-3.07227-1.84766,4.28954,4.28954,0,0,0-3.32422,1.31934,5.74575,5.74575,0,0,0,0,7.05664,4.28954,4.28954,0,0,0,3.32422,1.31934,3.22326,3.22326,0,0,0,3.07227-1.84766h4.89648a7.76469,7.76469,0,0,1-3.04883,4.12793,8.65026,8.65026,0,0,1-4.99218,1.48828A8.46583,8.46583,0,0,1,578.4793,664.51758Z"/><path class="cls-6" d="M608.12969,655.12207a5.31309,5.31309,0,0,1-1.22266,3.28809,4.58669,4.58669,0,0,1-1.93164,1.332,8.13694,8.13694,0,0,1-3.03711.51562h-2.543v6.55176h-4.10547V649.96191h6.64844a6.45925,6.45925,0,0,1,4.56055,1.51172A4.79512,4.79512,0,0,1,608.12969,655.12207Zm-8.73438,2.01563h2.543a1.968,1.968,0,0,0,1.47656-.55176,1.9906,1.9906,0,0,0,.53907-1.45215,2.04773,2.04773,0,0,0-.55078-1.47559,1.93581,1.93581,0,0,0-1.46485-.57617h-2.543Z"/><path class="cls-6" d="M610.53008,660.01758V649.96191h4.10351v10.05567a3.33537,3.33537,0,0,0,.74415,2.32812,2.80819,2.80819,0,0,0,2.18359.81641,2.887,2.887,0,0,0,2.209-.81641,3.27,3.27,0,0,0,.76758-2.32812V649.96191h4.10352v10.05567a6.96214,6.96214,0,0,1-1.043,3.85254,6.27306,6.27306,0,0,1-2.64063,2.36328,8.10671,8.10671,0,0,1-3.46679.74414,7.10193,7.10193,0,0,1-4.94532-1.82324A6.57382,6.57382,0,0,1,610.53008,660.01758Z"/><path class="cls-5" d="M745.616,644.96191a1.911,1.911,0,0,0-1.25977.40821,1.44117,1.44117,0,0,0-.49219,1.17578,1.69224,1.69224,0,0,0,.457,1.23633,2.95991,2.95991,0,0,0,1.1875.71972c.48829.168,1.03125.32813,1.63282.48047a18.53533,18.53533,0,0,1,1.78711.55176,7.88968,7.88968,0,0,1,1.62109.80371,3.54534,3.54534,0,0,1,1.1875,1.35645,4.51163,4.51163,0,0,1,.45508,2.09961,4.70216,4.70216,0,0,1-1.74024,3.66015,6.70216,6.70216,0,0,1-4.584,1.52442,7.2081,7.2081,0,0,1-4.584-1.36817,4.65588,4.65588,0,0,1-1.73829-3.88769h4.36719a1.90023,1.90023,0,0,0,2.06445,2.01562,1.96534,1.96534,0,0,0,1.39063-.46777,1.55186,1.55186,0,0,0,.50391-1.18848,1.58806,1.58806,0,0,0-.45508-1.17578,3.17294,3.17294,0,0,0-1.1875-.71973q-.73242-.26367-1.63281-.49218a16.44271,16.44271,0,0,1-1.78711-.56446,8.7078,8.7078,0,0,1-1.6211-.80371,3.42664,3.42664,0,0,1-1.1875-1.34375,4.4301,4.4301,0,0,1-.45508-2.07617,4.59546,4.59546,0,0,1,1.752-3.76758,6.88342,6.88342,0,0,1,4.47461-1.416,7.25737,7.25737,0,0,1,4.40429,1.23535,4.688,4.688,0,0,1,1.752,3.90039h-4.46289a2.26262,2.26262,0,0,0-.58789-1.4043A1.71414,1.71414,0,0,0,745.616,644.96191Z"/><path class="cls-5" d="M761.14336,644.96191a1.911,1.911,0,0,0-1.25977.40821,1.44116,1.44116,0,0,0-.49218,1.17578,1.6922,1.6922,0,0,0,.457,1.23633,2.95984,2.95984,0,0,0,1.1875.71972c.48828.168,1.03125.32813,1.63281.48047a18.53533,18.53533,0,0,1,1.78711.55176,7.88942,7.88942,0,0,1,1.62109.80371,3.54526,3.54526,0,0,1,1.1875,1.35645,4.51151,4.51151,0,0,1,.45508,2.09961,4.70218,4.70218,0,0,1-1.74023,3.66015,6.70219,6.70219,0,0,1-4.584,1.52442,7.20812,7.20812,0,0,1-4.584-1.36817,4.65587,4.65587,0,0,1-1.73828-3.88769h4.36719a1.90022,1.90022,0,0,0,2.06445,2.01562,1.9653,1.9653,0,0,0,1.39062-.46777,1.55186,1.55186,0,0,0,.50391-1.18848,1.58806,1.58806,0,0,0-.45508-1.17578,3.17294,3.17294,0,0,0-1.1875-.71973q-.73242-.26367-1.63281-.49218a16.4434,16.4434,0,0,1-1.78711-.56446,8.70771,8.70771,0,0,1-1.62109-.80371,3.42649,3.42649,0,0,1-1.1875-1.34375,4.4301,4.4301,0,0,1-.45508-2.07617,4.59545,4.59545,0,0,1,1.752-3.76758,6.88344,6.88344,0,0,1,4.47461-1.416,7.25738,7.25738,0,0,1,4.4043,1.23535,4.688,4.688,0,0,1,1.752,3.90039H762.993a2.26256,2.26256,0,0,0-.58789-1.4043A1.71414,1.71414,0,0,0,761.14336,644.96191Z"/><path class="cls-5" d="M776.8875,641.96191a9.50228,9.50228,0,0,1,6.623,2.34082,8.41739,8.41739,0,0,1,0,12.15528,9.47376,9.47376,0,0,1-6.623,2.35254h-5.92773V641.96191Zm-1.82422,13.72852h1.82422a4.80772,4.80772,0,0,0,3.69531-1.44043,6.22675,6.22675,0,0,0,0-7.72754,4.80772,4.80772,0,0,0-3.69531-1.44043h-1.82422Z"/><path class="cls-5" d="M845.116,644.96191a1.911,1.911,0,0,0-1.25977.40821,1.44117,1.44117,0,0,0-.49219,1.17578,1.69224,1.69224,0,0,0,.457,1.23633,2.95991,2.95991,0,0,0,1.1875.71972c.48829.168,1.03125.32813,1.63282.48047a18.53533,18.53533,0,0,1,1.78711.55176,7.88968,7.88968,0,0,1,1.62109.80371,3.54534,3.54534,0,0,1,1.1875,1.35645,4.51163,4.51163,0,0,1,.45508,2.09961,4.70216,4.70216,0,0,1-1.74024,3.66015,6.70216,6.70216,0,0,1-4.584,1.52442,7.2081,7.2081,0,0,1-4.584-1.36817,4.65588,4.65588,0,0,1-1.73829-3.88769h4.36719a1.90023,1.90023,0,0,0,2.06445,2.01562,1.96534,1.96534,0,0,0,1.39063-.46777,1.55186,1.55186,0,0,0,.50391-1.18848,1.58806,1.58806,0,0,0-.45508-1.17578,3.17294,3.17294,0,0,0-1.1875-.71973q-.73242-.26367-1.63281-.49218a16.44271,16.44271,0,0,1-1.78711-.56446,8.7078,8.7078,0,0,1-1.6211-.80371,3.42664,3.42664,0,0,1-1.1875-1.34375,4.4301,4.4301,0,0,1-.45508-2.07617,4.59546,4.59546,0,0,1,1.752-3.76758,6.88342,6.88342,0,0,1,4.47461-1.416,7.25737,7.25737,0,0,1,4.40429,1.23535,4.688,4.688,0,0,1,1.752,3.90039h-4.46289a2.26262,2.26262,0,0,0-.58789-1.4043A1.71414,1.71414,0,0,0,845.116,644.96191Z"/><path class="cls-5" d="M860.64336,644.96191a1.911,1.911,0,0,0-1.25977.40821,1.44116,1.44116,0,0,0-.49218,1.17578,1.6922,1.6922,0,0,0,.457,1.23633,2.95984,2.95984,0,0,0,1.1875.71972c.48828.168,1.03125.32813,1.63281.48047a18.53533,18.53533,0,0,1,1.78711.55176,7.88942,7.88942,0,0,1,1.62109.80371,3.54526,3.54526,0,0,1,1.1875,1.35645,4.51151,4.51151,0,0,1,.45508,2.09961,4.70218,4.70218,0,0,1-1.74023,3.66015,6.70219,6.70219,0,0,1-4.584,1.52442,7.20812,7.20812,0,0,1-4.584-1.36817,4.65587,4.65587,0,0,1-1.73828-3.88769h4.36719a1.90022,1.90022,0,0,0,2.06445,2.01562,1.9653,1.9653,0,0,0,1.39062-.46777,1.55186,1.55186,0,0,0,.50391-1.18848,1.58806,1.58806,0,0,0-.45508-1.17578,3.17294,3.17294,0,0,0-1.1875-.71973q-.73242-.26367-1.63281-.49218a16.4434,16.4434,0,0,1-1.78711-.56446,8.70771,8.70771,0,0,1-1.62109-.80371,3.42649,3.42649,0,0,1-1.1875-1.34375,4.4301,4.4301,0,0,1-.45508-2.07617,4.59545,4.59545,0,0,1,1.752-3.76758,6.88344,6.88344,0,0,1,4.47461-1.416,7.25738,7.25738,0,0,1,4.4043,1.23535,4.688,4.688,0,0,1,1.752,3.90039H862.493a2.26256,2.26256,0,0,0-.58789-1.4043A1.71414,1.71414,0,0,0,860.64336,644.96191Z"/><path class="cls-5" d="M876.3875,641.96191a9.50228,9.50228,0,0,1,6.623,2.34082,8.41739,8.41739,0,0,1,0,12.15528,9.47376,9.47376,0,0,1-6.623,2.35254h-5.92773V641.96191Zm-1.82422,13.72852h1.82422a4.80772,4.80772,0,0,0,3.69531-1.44043,6.22675,6.22675,0,0,0,0-7.72754,4.80772,4.80772,0,0,0-3.69531-1.44043h-1.82422Z"/><path class="cls-5" d="M945.366,644.96191a1.911,1.911,0,0,0-1.25977.40821,1.44117,1.44117,0,0,0-.49219,1.17578,1.69224,1.69224,0,0,0,.457,1.23633,2.95991,2.95991,0,0,0,1.1875.71972c.48829.168,1.03125.32813,1.63282.48047a18.53533,18.53533,0,0,1,1.78711.55176,7.88968,7.88968,0,0,1,1.62109.80371,3.54534,3.54534,0,0,1,1.1875,1.35645,4.51163,4.51163,0,0,1,.45508,2.09961,4.70216,4.70216,0,0,1-1.74024,3.66015,6.70216,6.70216,0,0,1-4.584,1.52442,7.2081,7.2081,0,0,1-4.584-1.36817,4.65588,4.65588,0,0,1-1.73829-3.88769h4.36719a1.90023,1.90023,0,0,0,2.06445,2.01562,1.96534,1.96534,0,0,0,1.39063-.46777,1.55186,1.55186,0,0,0,.50391-1.18848,1.58806,1.58806,0,0,0-.45508-1.17578,3.17294,3.17294,0,0,0-1.1875-.71973q-.73242-.26367-1.63281-.49218a16.44271,16.44271,0,0,1-1.78711-.56446,8.7078,8.7078,0,0,1-1.6211-.80371,3.42664,3.42664,0,0,1-1.1875-1.34375,4.4301,4.4301,0,0,1-.45508-2.07617,4.59546,4.59546,0,0,1,1.752-3.76758,6.88342,6.88342,0,0,1,4.47461-1.416,7.25737,7.25737,0,0,1,4.40429,1.23535,4.688,4.688,0,0,1,1.752,3.90039h-4.46289a2.26262,2.26262,0,0,0-.58789-1.4043A1.71414,1.71414,0,0,0,945.366,644.96191Z"/><path class="cls-5" d="M960.89336,644.96191a1.911,1.911,0,0,0-1.25977.40821,1.44116,1.44116,0,0,0-.49218,1.17578,1.6922,1.6922,0,0,0,.457,1.23633,2.95984,2.95984,0,0,0,1.1875.71972c.48828.168,1.03125.32813,1.63281.48047a18.53533,18.53533,0,0,1,1.78711.55176,7.88942,7.88942,0,0,1,1.62109.80371,3.54526,3.54526,0,0,1,1.1875,1.35645,4.51151,4.51151,0,0,1,.45508,2.09961,4.70218,4.70218,0,0,1-1.74023,3.66015,6.70219,6.70219,0,0,1-4.584,1.52442,7.20812,7.20812,0,0,1-4.584-1.36817,4.65587,4.65587,0,0,1-1.73828-3.88769h4.36719a1.90022,1.90022,0,0,0,2.06445,2.01562,1.9653,1.9653,0,0,0,1.39062-.46777,1.55186,1.55186,0,0,0,.50391-1.18848,1.58806,1.58806,0,0,0-.45508-1.17578,3.17294,3.17294,0,0,0-1.1875-.71973q-.73242-.26367-1.63281-.49218a16.4434,16.4434,0,0,1-1.78711-.56446,8.70771,8.70771,0,0,1-1.62109-.80371,3.42649,3.42649,0,0,1-1.1875-1.34375,4.4301,4.4301,0,0,1-.45508-2.07617,4.59545,4.59545,0,0,1,1.752-3.76758,6.88344,6.88344,0,0,1,4.47461-1.416,7.25738,7.25738,0,0,1,4.4043,1.23535,4.688,4.688,0,0,1,1.752,3.90039H962.743a2.26256,2.26256,0,0,0-.58789-1.4043A1.71414,1.71414,0,0,0,960.89336,644.96191Z"/><path class="cls-5" d="M976.6375,641.96191a9.50228,9.50228,0,0,1,6.623,2.34082,8.41739,8.41739,0,0,1,0,12.15528,9.47376,9.47376,0,0,1-6.623,2.35254h-5.92773V641.96191Zm-1.82422,13.72852h1.82422a4.80772,4.80772,0,0,0,3.69531-1.44043,6.22675,6.22675,0,0,0,0-7.72754,4.80772,4.80772,0,0,0-3.69531-1.44043h-1.82422Z"/><path class="cls-5" d="M1044.866,644.96191a1.911,1.911,0,0,0-1.25977.40821,1.44117,1.44117,0,0,0-.49219,1.17578,1.69224,1.69224,0,0,0,.457,1.23633,2.95991,2.95991,0,0,0,1.1875.71972c.48829.168,1.03125.32813,1.63282.48047a18.53533,18.53533,0,0,1,1.78711.55176,7.88968,7.88968,0,0,1,1.62109.80371,3.54534,3.54534,0,0,1,1.1875,1.35645,4.51163,4.51163,0,0,1,.45508,2.09961,4.70216,4.70216,0,0,1-1.74024,3.66015,6.70216,6.70216,0,0,1-4.584,1.52442,7.2081,7.2081,0,0,1-4.584-1.36817,4.65588,4.65588,0,0,1-1.73829-3.88769h4.36719a1.90023,1.90023,0,0,0,2.06445,2.01562,1.96534,1.96534,0,0,0,1.39063-.46777,1.55186,1.55186,0,0,0,.50391-1.18848,1.58806,1.58806,0,0,0-.45508-1.17578,3.17294,3.17294,0,0,0-1.1875-.71973q-.73242-.26367-1.63281-.49218a16.44271,16.44271,0,0,1-1.78711-.56446,8.7078,8.7078,0,0,1-1.6211-.80371,3.42664,3.42664,0,0,1-1.1875-1.34375,4.4301,4.4301,0,0,1-.45508-2.07617,4.59546,4.59546,0,0,1,1.752-3.76758,6.88342,6.88342,0,0,1,4.47461-1.416,7.25737,7.25737,0,0,1,4.40429,1.23535,4.688,4.688,0,0,1,1.752,3.90039h-4.46289a2.26262,2.26262,0,0,0-.58789-1.4043A1.71414,1.71414,0,0,0,1044.866,644.96191Z"/><path class="cls-5" d="M1060.39336,644.96191a1.911,1.911,0,0,0-1.25977.40821,1.44116,1.44116,0,0,0-.49218,1.17578,1.6922,1.6922,0,0,0,.457,1.23633,2.95984,2.95984,0,0,0,1.1875.71972c.48828.168,1.03125.32813,1.63281.48047a18.53533,18.53533,0,0,1,1.78711.55176,7.88942,7.88942,0,0,1,1.62109.80371,3.54526,3.54526,0,0,1,1.1875,1.35645,4.51151,4.51151,0,0,1,.45508,2.09961,4.70218,4.70218,0,0,1-1.74023,3.66015,6.70219,6.70219,0,0,1-4.584,1.52442,7.20812,7.20812,0,0,1-4.584-1.36817,4.65587,4.65587,0,0,1-1.73828-3.88769h4.36719a1.90022,1.90022,0,0,0,2.06445,2.01562,1.9653,1.9653,0,0,0,1.39062-.46777,1.55186,1.55186,0,0,0,.50391-1.18848,1.58806,1.58806,0,0,0-.45508-1.17578,3.17294,3.17294,0,0,0-1.1875-.71973q-.73242-.26367-1.63281-.49218a16.4434,16.4434,0,0,1-1.78711-.56446,8.70771,8.70771,0,0,1-1.62109-.80371,3.42649,3.42649,0,0,1-1.1875-1.34375,4.4301,4.4301,0,0,1-.45508-2.07617,4.59545,4.59545,0,0,1,1.752-3.76758,6.88344,6.88344,0,0,1,4.47461-1.416,7.25738,7.25738,0,0,1,4.4043,1.23535,4.688,4.688,0,0,1,1.752,3.90039H1062.243a2.26256,2.26256,0,0,0-.58789-1.4043A1.71414,1.71414,0,0,0,1060.39336,644.96191Z"/><path class="cls-5" d="M1076.1375,641.96191a9.50228,9.50228,0,0,1,6.623,2.34082,8.41739,8.41739,0,0,1,0,12.15528,9.47376,9.47376,0,0,1-6.623,2.35254h-5.92773V641.96191Zm-1.82422,13.72852h1.82422a4.80772,4.80772,0,0,0,3.69531-1.44043,6.22675,6.22675,0,0,0,0-7.72754,4.80772,4.80772,0,0,0-3.69531-1.44043h-1.82422Z"/><polyline class="cls-8" points="115.341 597.007 115.341 613.247 97.811 613.247 97.811 589.807 108.141 589.807"/><polygon class="cls-8" points="115.341 597.007 108.141 597.007 108.141 589.807 115.341 597.007"/><polyline class="cls-8" points="212.765 597.007 212.765 613.247 195.235 613.247 195.235 589.807 205.564 589.807"/><polygon class="cls-8" points="212.765 597.007 205.564 597.007 205.564 589.807 212.765 597.007"/><polyline class="cls-8" points="310.189 597.007 310.189 613.247 292.658 613.247 292.658 589.807 302.988 589.807"/><polygon class="cls-8" points="310.189 597.007 302.988 597.007 302.988 589.807 310.189 597.007"/><polyline class="cls-8" points="1047.669 597.007 1047.669 613.247 1030.138 613.247 1030.138 589.807 1040.468 589.807"/><polygon class="cls-8" points="1047.669 597.007 1040.468 597.007 1040.468 589.807 1047.669 597.007"/><polyline class="cls-8" points="1095.869 597.007 1095.869 613.247 1078.339 613.247 1078.339 589.807 1088.668 589.807"/><polygon class="cls-8" points="1095.869 597.007 1088.668 597.007 1088.668 589.807 1095.869 597.007"/><polyline class="cls-8" points="971.015 597.007 971.015 613.247 953.485 613.247 953.485 589.807 963.814 589.807"/><polygon class="cls-8" points="971.015 597.007 963.814 597.007 963.814 589.807 971.015 597.007"/><path class="cls-6" d="M772.20879,472.64391a15.791,15.791,0,1,1,15.791,15.79089A15.79274,15.79274,0,0,1,772.20879,472.64391Z"/><path class="cls-7" d="M787.68535,472.80371a40.87938,40.87938,0,0,0,40.85156,39.384h94.36524a40.89341,40.89341,0,0,1,39.979,32.31012"/><path class="cls-5" d="M778.73369,473.35083a9.02348,9.02348,0,1,1,9.1211,8.92468A9.02446,9.02446,0,0,1,778.73369,473.35083Z"/><polygon class="cls-5" points="956.547 543.534 963.781 553.066 968.42 542.036 956.547 543.534"/><path class="cls-6" d="M989.31391,472.64391a15.791,15.791,0,1,1,15.791,15.79089A15.79274,15.79274,0,0,1,989.31391,472.64391Z"/><path class="cls-7" d="M1004.79033,472.80371a40.87938,40.87938,0,0,0,40.85157,39.384h4.36572a40.89286,40.89286,0,0,1,39.97851,32.31012"/><path class="cls-5" d="M995.83867,473.35083a9.02348,9.02348,0,1,1,9.1211,8.92468A9.02446,9.02446,0,0,1,995.83867,473.35083Z"/><polygon class="cls-5" points="1083.652 543.534 1090.886 553.066 1095.525 542.036 1083.652 543.534"/><path class="cls-6" d="M1234.49623,472.64391a15.791,15.791,0,1,0-15.791,15.79089A15.79274,15.79274,0,0,0,1234.49623,472.64391Z"/><path class="cls-7" d="M1219.01982,472.80371a40.87938,40.87938,0,0,1-40.85156,39.384h-96.36572A40.89287,40.89287,0,0,0,1041.824,544.4978"/><path class="cls-5" d="M1209.92559,473.15457a9.02348,9.02348,0,1,1,8.9248,9.12094A9.02418,9.02418,0,0,1,1209.92559,473.15457Z"/><polygon class="cls-5" points="1036.285 542.036 1040.925 553.066 1048.158 543.534 1036.285 542.036"/></svg>