<svg id="Layer_1" data-name="Layer 1" xmlns="http://www.w3.org/2000/svg" viewBox="0 0 1366 768"><defs><style>.cls-1{fill:#fff4d2;}.cls-2,.cls-3,.cls-7,.cls-8{fill:none;stroke:#33313b;stroke-width:3px;}.cls-2{stroke-miterlimit:10;}.cls-3,.cls-7,.cls-8{stroke-linecap:round;stroke-linejoin:round;}.cls-3{stroke-dasharray:10 8;}.cls-4{fill:#ffe8a4;}.cls-5{fill:#33313b;}.cls-6{fill:#ffc61c;}.cls-8{stroke-dasharray:9.88752 7.91002;}</style></defs><title>how-it-works</title><rect class="cls-1" width="1366" height="768" rx="10"/><rect class="cls-2" x="50" y="51.51714" width="613" height="453.91821"/><rect class="cls-3" x="65" y="166.51709" width="583" height="323.91846"/><rect class="cls-4" x="79.99994" y="211.51714" width="173.35423" height="91.43535" rx="6"/><path class="cls-5" d="M138.99023,253.45361a1.65293,1.65293,0,0,0-1.09179.35352,1.24991,1.24991,0,0,0-.42676,1.01953,1.469,1.469,0,0,0,.39551,1.07129,2.57742,2.57742,0,0,0,1.03027.624q.63428.21826,1.41406.416a15.81227,15.81227,0,0,1,1.54981.47851,6.79921,6.79921,0,0,1,1.40429.69678,3.05746,3.05746,0,0,1,1.0293,1.17529,3.89512,3.89512,0,0,1,.39551,1.82032,4.078,4.078,0,0,1-1.50781,3.17236,5.8124,5.8124,0,0,1-3.97364,1.3208,6.2469,6.2469,0,0,1-3.97363-1.18555,4.03876,4.03876,0,0,1-1.50781-3.37011h3.78613a1.64772,1.64772,0,0,0,1.78906,1.74756,1.70337,1.70337,0,0,0,1.20606-.40577,1.34228,1.34228,0,0,0,.4375-1.02978,1.378,1.378,0,0,0-.39551-1.019,2.7514,2.7514,0,0,0-1.0293-.62452q-.63573-.22851-1.415-.42627a14.28431,14.28431,0,0,1-1.54981-.48877,7.62049,7.62049,0,0,1-1.4043-.69677,2.96544,2.96544,0,0,1-1.02929-1.165,3.8467,3.8467,0,0,1-.39551-1.79932,3.98666,3.98666,0,0,1,1.51855-3.26611A5.97558,5.97558,0,0,1,139.126,250.645a6.28983,6.28983,0,0,1,3.81738,1.07129,4.066,4.066,0,0,1,1.51855,3.38037h-3.86914a1.95267,1.95267,0,0,0-.50976-1.2168A1.47952,1.47952,0,0,0,138.99023,253.45361Z"/><path class="cls-5" d="M154.13477,265.60205a7.32075,7.32075,0,0,1-5.31543-2.12158,7.69945,7.69945,0,0,1,0-10.72363,7.35366,7.35366,0,0,1,5.32617-2.11182,7.27968,7.27968,0,0,1,5.30371,2.11182,7.18333,7.18333,0,0,1,2.15332,5.35644,7.62108,7.62108,0,0,1-.73828,3.35938,7.17607,7.17607,0,0,1-2.02832,2.54834l2.97461,3.82763h-4.30567l-1.76855-2.41308A8.17554,8.17554,0,0,1,154.13477,265.60205Zm-2.81836-10.54687a4.97538,4.97538,0,0,0,0,6.11621,4.01834,4.01834,0,0,0,5.61621,0,4.97542,4.97542,0,0,0,0-6.11621,4.01831,4.01831,0,0,0-5.61621,0Z"/><path class="cls-5" d="M164.01562,250.853h3.55665v11.89941h4.43164v2.7041h-7.98829Z"/><path class="cls-5" d="M177.22461,252.53809a2.1369,2.1369,0,1,1,.60254-1.48731A2.00893,2.00893,0,0,1,177.22461,252.53809Zm-3.24512,12.91845V253.84863h3.55664v11.60791Z"/><path class="cls-5" d="M185.58691,262.43994h1.26954v3.0166H185.0459a4.70744,4.70744,0,0,1-3.02637-.86328,3.60351,3.60351,0,0,1-1.07129-2.96435v-4.82618h-1.082v-2.9541h1.082v-2.8291h3.55664v2.8291H186.835v2.9541h-2.33008v4.82618Q184.50488,262.44043,185.58691,262.43994Z"/><path class="cls-5" d="M194.21973,265.60205a5.61017,5.61017,0,0,1-4.16016-1.63281,5.88252,5.88252,0,0,1-1.62305-4.3374,5.79756,5.79756,0,0,1,1.61231-4.30616,5.66368,5.66368,0,0,1,4.1709-1.60156,5.96119,5.96119,0,0,1,4.24414,1.58057,5.7279,5.7279,0,0,1,1.68457,4.38965,7.08942,7.08942,0,0,1-.083,1.123h-7.98828a2.02685,2.02685,0,0,0,1.94531,1.74756,2.83183,2.83183,0,0,0,1.00879-.13525,1.80057,1.80057,0,0,0,.48926-.27051,3.66694,3.66694,0,0,0,.40527-.44727h3.84863a5.10164,5.10164,0,0,1-1.99707,2.81885A5.95413,5.95413,0,0,1,194.21973,265.60205Zm1.51855-8.33105a2.26162,2.26162,0,0,0-1.47656-.50977,2.10005,2.10005,0,0,0-1.43555.50977,2.22,2.22,0,0,0-.72851,1.3208h4.34765A1.88677,1.88677,0,0,0,195.73828,257.271Z"/><rect class="cls-4" x="269.95318" y="211.51714" width="173.35423" height="91.43535" rx="6"/><path class="cls-5" d="M350.07715,253.45557l-.81153-2.45459h-5.24218l-.81055,2.45459h-3.78613l5.07519-14.645h4.32715l5.05469,14.645Zm-5.15918-5.15918h3.45312l-1.72656-5.20069Z"/><path class="cls-5" d="M366.76074,243.32471a4.60846,4.60846,0,0,1-1.06054,2.85009,3.97428,3.97428,0,0,1-1.67481,1.1543,7.03649,7.03649,0,0,1-2.63184.44727h-2.20507v5.6792h-3.55664V238.85205h5.76171a5.598,5.598,0,0,1,3.95313,1.31055A4.15853,4.15853,0,0,1,366.76074,243.32471Zm-7.57226,1.74756h2.20507a1.6311,1.6311,0,0,0,1.748-1.73731,1.77608,1.77608,0,0,0-.47851-1.2793,1.67867,1.67867,0,0,0-1.26954-.499h-2.20507Z"/><path class="cls-5" d="M368.90332,253.45557V238.85205H372.46v14.60352Z"/><path class="cls-5" d="M327.93359,266.41553a1.65291,1.65291,0,0,0-1.09179.35351,1.24992,1.24992,0,0,0-.42676,1.01953,1.46894,1.46894,0,0,0,.39551,1.07129,2.57743,2.57743,0,0,0,1.03027.624q.63428.21825,1.41406.416a15.81506,15.81506,0,0,1,1.54981.47852,6.79821,6.79821,0,0,1,1.40429.69678,3.05746,3.05746,0,0,1,1.0293,1.17529,3.89508,3.89508,0,0,1,.39551,1.82031,4.078,4.078,0,0,1-1.50781,3.17236,5.8124,5.8124,0,0,1-3.97364,1.3208,6.2469,6.2469,0,0,1-3.97363-1.18554,4.03878,4.03878,0,0,1-1.50781-3.37012H326.457a1.64772,1.64772,0,0,0,1.78906,1.74756,1.70336,1.70336,0,0,0,1.20606-.40576,1.3423,1.3423,0,0,0,.4375-1.02979,1.378,1.378,0,0,0-.39551-1.019,2.75139,2.75139,0,0,0-1.0293-.62451q-.63573-.22853-1.415-.42627a14.28926,14.28926,0,0,1-1.5498-.48877,7.62052,7.62052,0,0,1-1.4043-.69678,2.96544,2.96544,0,0,1-1.02929-1.165,3.84653,3.84653,0,0,1-.39551-1.79931,3.98667,3.98667,0,0,1,1.51855-3.26612,5.97558,5.97558,0,0,1,3.87989-1.22754,6.28992,6.28992,0,0,1,3.81738,1.07129,4.06605,4.06605,0,0,1,1.51855,3.38037h-3.86914a1.95264,1.95264,0,0,0-.50976-1.21679A1.47952,1.47952,0,0,0,327.93359,266.41553Z"/><path class="cls-5" d="M341.37207,278.564a5.6102,5.6102,0,0,1-4.16016-1.63281,5.8825,5.8825,0,0,1-1.623-4.3374,5.79758,5.79758,0,0,1,1.6123-4.30615,5.66371,5.66371,0,0,1,4.1709-1.60156,5.96117,5.96117,0,0,1,4.24414,1.58056,5.72786,5.72786,0,0,1,1.68457,4.38965,7.08837,7.08837,0,0,1-.083,1.123h-7.98828a2.02687,2.02687,0,0,0,1.94531,1.74756,2.83179,2.83179,0,0,0,1.00879-.13526,1.8,1.8,0,0,0,.48926-.27051,3.66586,3.66586,0,0,0,.40527-.44726h3.84864a5.10174,5.10174,0,0,1-1.99707,2.81885A5.95422,5.95422,0,0,1,341.37207,278.564Zm1.51855-8.33105a2.26167,2.26167,0,0,0-1.47656-.50977,2.10007,2.10007,0,0,0-1.43554.50977,2.22,2.22,0,0,0-.72852,1.3208h4.34766A1.8868,1.8868,0,0,0,342.89062,270.23291Z"/><path class="cls-5" d="M353.14551,266.81055v2.16357a3.73868,3.73868,0,0,1,3.3291-2.28808v3.61962h-.874a2.58246,2.58246,0,0,0-1.84082.58252,2.74423,2.74423,0,0,0-.61426,2.03858v5.4917h-3.55664V266.81055Z"/><path class="cls-5" d="M356.93164,266.81055h3.78613l2.64161,8.6333,2.64257-8.6333h3.78614L365.669,278.41846h-4.61817Z"/><path class="cls-5" d="M376.36133,278.564a5.6102,5.6102,0,0,1-4.16016-1.63281,5.8825,5.8825,0,0,1-1.623-4.3374,5.79755,5.79755,0,0,1,1.61231-4.30615,5.66368,5.66368,0,0,1,4.1709-1.60156,5.96117,5.96117,0,0,1,4.24414,1.58056,5.72786,5.72786,0,0,1,1.68457,4.38965,7.08837,7.08837,0,0,1-.083,1.123h-7.98828a2.02685,2.02685,0,0,0,1.94531,1.74756,2.83179,2.83179,0,0,0,1.00879-.13526,1.8,1.8,0,0,0,.48926-.27051,3.66669,3.66669,0,0,0,.40527-.44726H381.916a5.10174,5.10174,0,0,1-1.99707,2.81885A5.95422,5.95422,0,0,1,376.36133,278.564Zm1.51855-8.33105a2.26167,2.26167,0,0,0-1.47656-.50977,2.1001,2.1001,0,0,0-1.43555.50977,2.22,2.22,0,0,0-.72851,1.3208h4.34765A1.88675,1.88675,0,0,0,377.87988,270.23291Z"/><path class="cls-5" d="M388.13477,266.81055v2.16357a3.73868,3.73868,0,0,1,3.3291-2.28808v3.61962h-.874a2.58248,2.58248,0,0,0-1.84082.58252,2.74423,2.74423,0,0,0-.61425,2.03858v5.4917h-3.55665V266.81055Z"/><rect class="cls-4" x="174.54132" y="383.99999" width="173.35423" height="91.43535" rx="6"/><path class="cls-5" d="M212.042,425.93652a1.65029,1.65029,0,0,0-1.09179.35352,1.2486,1.2486,0,0,0-.42676,1.01953,1.46969,1.46969,0,0,0,.39551,1.07129,2.57731,2.57731,0,0,0,1.03027.624q.63428.21827,1.41406.416a15.81227,15.81227,0,0,1,1.54981.47851,6.77353,6.77353,0,0,1,1.40429.69629,3.05918,3.05918,0,0,1,1.0293,1.17578,3.89234,3.89234,0,0,1,.39551,1.82032,4.07634,4.07634,0,0,1-1.50781,3.17187,5.81264,5.81264,0,0,1-3.97364,1.32129,6.24983,6.24983,0,0,1-3.97363-1.18555,4.03939,4.03939,0,0,1-1.50781-3.37011h3.78613a1.64734,1.64734,0,0,0,1.78906,1.74707,1.70317,1.70317,0,0,0,1.20606-.40528,1.34331,1.34331,0,0,0,.4375-1.03027,1.376,1.376,0,0,0-.39551-1.01855,2.7584,2.7584,0,0,0-1.0293-.625q-.63575-.22852-1.415-.42579a14.28969,14.28969,0,0,1-1.5498-.48925,7.6503,7.6503,0,0,1-1.4043-.69629,2.96894,2.96894,0,0,1-1.0293-1.165,3.85015,3.85015,0,0,1-.3955-1.79981,3.98572,3.98572,0,0,1,1.51855-3.26562,5.97557,5.97557,0,0,1,3.87988-1.22754,6.28988,6.28988,0,0,1,3.81739,1.07129,4.06505,4.06505,0,0,1,1.51855,3.37988h-3.86914a1.9551,1.9551,0,0,0-.50976-1.2168A1.47916,1.47916,0,0,0,212.042,425.93652Z"/><path class="cls-5" d="M221.30957,436.46191a6.59841,6.59841,0,0,1,0-8.64355,5.64564,5.64564,0,0,1,4.1709-1.61133,6.04636,6.04636,0,0,1,3.59863,1.04981,4.99917,4.99917,0,0,1,1.95606,3.00586h-3.84864a1.69073,1.69073,0,0,0-1.63281-1.04,1.908,1.908,0,0,0-1.68555.80078,4.324,4.324,0,0,0,0,4.22363,1.83271,1.83271,0,0,0,1.61231.80078,1.98631,1.98631,0,0,0,1.04-.22949,1.92236,1.92236,0,0,0,.666-.81055h3.84864a5.16168,5.16168,0,0,1-1.97657,2.97461,5.86613,5.86613,0,0,1-3.57812,1.10254A5.6236,5.6236,0,0,1,221.30957,436.46191Z"/><path class="cls-5" d="M236.58887,422.54492v5.49219a3.79964,3.79964,0,0,1,3.51562-1.83008,4.21149,4.21149,0,0,1,3.23535,1.33106,5.10954,5.10954,0,0,1,1.23731,3.61914v6.78222H241.041v-6.30371a2.3994,2.3994,0,0,0-.59278-1.73633,2.47861,2.47861,0,0,0-3.2666,0,2.39939,2.39939,0,0,0-.59277,1.73633v6.30371h-3.55664V422.54492Z"/><path class="cls-5" d="M252.52344,438.085a5.61019,5.61019,0,0,1-4.16016-1.63281,5.88291,5.88291,0,0,1-1.62305-4.33789,5.7964,5.7964,0,0,1,1.61231-4.30567,5.66174,5.66174,0,0,1,4.1709-1.60156,5.96084,5.96084,0,0,1,4.24414,1.58008,5.72863,5.72863,0,0,1,1.68457,4.38965,7.085,7.085,0,0,1-.083,1.123h-7.98828a2.02792,2.02792,0,0,0,1.94531,1.748,2.81869,2.81869,0,0,0,1.00879-.13574,1.78721,1.78721,0,0,0,.48926-.27051,3.66746,3.66746,0,0,0,.40527-.44726h3.84863a5.10276,5.10276,0,0,1-1.99707,2.81933A5.95748,5.95748,0,0,1,252.52344,438.085Zm1.51855-8.33105a2.26162,2.26162,0,0,0-1.47656-.50977,2.10005,2.10005,0,0,0-1.43555.50977,2.21874,2.21874,0,0,0-.72851,1.32031H254.749A1.88568,1.88568,0,0,0,254.042,429.75391Z"/><path class="cls-5" d="M261.42676,436.4209a6.68969,6.68969,0,0,1,0-8.54,4.90608,4.90608,0,0,1,3.75488-1.67383,3.93936,3.93936,0,0,1,3.40039,1.64258v-5.30469h3.55762v15.39453H268.582v-1.68554a4.02065,4.02065,0,0,1-3.45312,1.83105A4.86387,4.86387,0,0,1,261.42676,436.4209Zm6.38574-2.16406a2.82446,2.82446,0,0,0,.76953-2.1211,2.79311,2.79311,0,0,0-.76953-2.1123,2.47368,2.47368,0,0,0-3.53613.01074,2.823,2.823,0,0,0-.76953,2.12207,2.78714,2.78714,0,0,0,.76953,2.11133,2.47368,2.47368,0,0,0,3.53613-.01074Z"/><path class="cls-5" d="M283.14453,426.33105h3.55762v11.6084h-3.55762V436.2334a3.79851,3.79851,0,0,1-3.51562,1.83105,4.21012,4.21012,0,0,1-3.23438-1.332,5.09961,5.09961,0,0,1-1.23828-3.61914v-6.78223h3.53613v6.30372a2.394,2.394,0,0,0,.59375,1.73632,2.47729,2.47729,0,0,0,3.26563,0,2.39359,2.39359,0,0,0,.59277-1.73632Z"/><path class="cls-5" d="M289.82227,437.93945V422.54492h3.55664v15.39453Z"/><path class="cls-5" d="M301.42969,438.085a5.61019,5.61019,0,0,1-4.16016-1.63281,5.88291,5.88291,0,0,1-1.623-4.33789,5.7964,5.7964,0,0,1,1.61231-4.30567,5.66174,5.66174,0,0,1,4.1709-1.60156,5.96084,5.96084,0,0,1,4.24414,1.58008,5.72859,5.72859,0,0,1,1.68457,4.38965,7.085,7.085,0,0,1-.083,1.123h-7.98828a2.02792,2.02792,0,0,0,1.94531,1.748,2.81869,2.81869,0,0,0,1.00879-.13574,1.78721,1.78721,0,0,0,.48926-.27051,3.66746,3.66746,0,0,0,.40527-.44726h3.84864a5.10282,5.10282,0,0,1-1.99708,2.81933A5.95748,5.95748,0,0,1,301.42969,438.085Zm1.51855-8.33105a2.26162,2.26162,0,0,0-1.47656-.50977,2.10005,2.10005,0,0,0-1.43555.50977,2.21874,2.21874,0,0,0-.72851,1.32031h4.34765A1.88568,1.88568,0,0,0,302.94824,429.75391Z"/><path class="cls-5" d="M313.20312,426.33105v2.16407a3.73871,3.73871,0,0,1,3.32911-2.28809v3.61914h-.874a2.58033,2.58033,0,0,0-1.84082.583,2.74216,2.74216,0,0,0-.61426,2.03809v5.49218h-3.55664v-11.6084Z"/><rect class="cls-4" x="365.63031" y="383.99999" width="173.35423" height="91.43535" rx="6"/><path class="cls-5" d="M399.98926,424.01367a7.68621,7.68621,0,0,1,0-10.71289,7.34153,7.34153,0,0,1,5.31543-2.11133,7.502,7.502,0,0,1,4.32715,1.29,6.71822,6.71822,0,0,1,2.6416,3.57813H408.0293a2.79357,2.79357,0,0,0-2.66211-1.60254,3.71487,3.71487,0,0,0-2.88086,1.14453,4.97542,4.97542,0,0,0,0,6.11621,3.71425,3.71425,0,0,0,2.88086,1.14356,2.79276,2.79276,0,0,0,2.66211-1.60157h4.24414a6.72554,6.72554,0,0,1-2.6416,3.57813,7.502,7.502,0,0,1-4.32715,1.29A7.3384,7.3384,0,0,1,399.98926,424.01367Z"/><path class="cls-5" d="M415.4873,424.50293a5.64348,5.64348,0,0,1-1.75781-4.32715,5.56425,5.56425,0,0,1,1.74707-4.2959,6.60142,6.60142,0,0,1,8.64356,0,5.58379,5.58379,0,0,1,1.73633,4.2959,5.69752,5.69752,0,0,1-1.72657,4.32715,5.99879,5.99879,0,0,1-4.30566,1.64355A6.10786,6.10786,0,0,1,415.4873,424.50293Zm6.043-2.14258a3.03728,3.03728,0,0,0,.707-2.16308,2.94236,2.94236,0,0,0-.72851-2.15332,2.34277,2.34277,0,0,0-1.72656-.73829,2.31019,2.31019,0,0,0-1.71582.73829,3.5631,3.5631,0,0,0,.0205,4.3164,2.362,2.362,0,0,0,1.73731.749A2.263,2.263,0,0,0,421.53027,422.36035Z"/><path class="cls-5" d="M431.70215,414.39258v1.70605a3.79967,3.79967,0,0,1,3.51562-1.83008,4.21149,4.21149,0,0,1,3.23535,1.33106,5.10954,5.10954,0,0,1,1.23731,3.61914V426.001H436.1543v-6.30371a2.39938,2.39938,0,0,0-.59278-1.73633,2.47858,2.47858,0,0,0-3.2666,0,2.39938,2.39938,0,0,0-.59277,1.73633V426.001h-3.55664v-11.6084Z"/><path class="cls-5" d="M447.63672,422.98438h1.26953v3.0166H447.0957a4.71034,4.71034,0,0,1-3.02636-.86328,3.604,3.604,0,0,1-1.07129-2.96485v-4.82617h-1.082v-2.9541h1.082v-2.8291h3.55664v2.8291h2.33008v2.9541h-2.33008v4.82617Q446.55469,422.98438,447.63672,422.98438Z"/><path class="cls-5" d="M454.89648,414.39258v2.16406a3.73871,3.73871,0,0,1,3.32911-2.28809v3.61915h-.874a2.58033,2.58033,0,0,0-1.84082.583,2.74217,2.74217,0,0,0-.61426,2.03809V426.001h-3.55664v-11.6084Z"/><path class="cls-5" d="M461.08594,424.50293a5.64349,5.64349,0,0,1-1.75782-4.32715,5.56425,5.56425,0,0,1,1.74708-4.2959,6.60141,6.60141,0,0,1,8.64355,0,5.58375,5.58375,0,0,1,1.73633,4.2959,5.69755,5.69755,0,0,1-1.72656,4.32715,5.99883,5.99883,0,0,1-4.30567,1.64355A6.10783,6.10783,0,0,1,461.08594,424.50293Zm6.043-2.14258a3.03732,3.03732,0,0,0,.707-2.16308,2.94237,2.94237,0,0,0-.72852-2.15332,2.34275,2.34275,0,0,0-1.72656-.73829,2.31019,2.31019,0,0,0-1.71582.73829,3.56312,3.56312,0,0,0,.02051,4.3164,2.362,2.362,0,0,0,1.7373.749A2.263,2.263,0,0,0,467.12891,422.36035Z"/><path class="cls-5" d="M473.74414,426.001V410.60645h3.55664V426.001Z"/><path class="cls-5" d="M480.42188,426.001V410.60645h3.55664V426.001Z"/><path class="cls-5" d="M492.0293,426.14648a5.61019,5.61019,0,0,1-4.16016-1.63281,5.88291,5.88291,0,0,1-1.62305-4.33789,5.79639,5.79639,0,0,1,1.61231-4.30566,5.66175,5.66175,0,0,1,4.1709-1.60157,5.96084,5.96084,0,0,1,4.24414,1.58008,5.72863,5.72863,0,0,1,1.68457,4.38965,7.0852,7.0852,0,0,1-.083,1.12305h-7.98828a2.02792,2.02792,0,0,0,1.94531,1.748,2.81865,2.81865,0,0,0,1.00879-.13575,1.78694,1.78694,0,0,0,.48926-.27051,3.66669,3.66669,0,0,0,.40527-.44726H497.584a5.10278,5.10278,0,0,1-1.99707,2.81934A5.95754,5.95754,0,0,1,492.0293,426.14648Zm1.51855-8.33105a2.26167,2.26167,0,0,0-1.47656-.50977,2.1001,2.1001,0,0,0-1.43555.50977,2.21877,2.21877,0,0,0-.72851,1.32031h4.34765A1.8857,1.8857,0,0,0,493.54785,417.81543Z"/><path class="cls-5" d="M503.80273,414.39258v2.16406a3.73871,3.73871,0,0,1,3.32911-2.28809v3.61915h-.874a2.58033,2.58033,0,0,0-1.84082.583,2.74217,2.74217,0,0,0-.61426,2.03809V426.001h-3.55664v-11.6084Z"/><path class="cls-5" d="M420.53223,436.36035v14.60352h-3.55762v-8.23828l-3.39063,8.23828h-2.64257l-3.39063-8.23828v8.23828h-3.55664V436.36035h4.07715l4.20215,10.06836,4.18066-10.06836Z"/><path class="cls-5" d="M424.33887,449.44531a6.68969,6.68969,0,0,1,0-8.54,4.90607,4.90607,0,0,1,3.75488-1.67382,3.93937,3.93937,0,0,1,3.40039,1.64257v-1.51855h3.55762v11.6084h-3.55762v-1.68555a4.02066,4.02066,0,0,1-3.45312,1.83106A4.86385,4.86385,0,0,1,424.33887,449.44531Zm6.38574-2.16406a2.82446,2.82446,0,0,0,.76953-2.12109,2.79317,2.79317,0,0,0-.76953-2.11231,2.47368,2.47368,0,0,0-3.53613.01074,2.823,2.823,0,0,0-.76953,2.12207,2.7871,2.7871,0,0,0,.76953,2.11133,2.47368,2.47368,0,0,0,3.53613-.01074Z"/><path class="cls-5" d="M441.72949,439.35547v1.706a3.79967,3.79967,0,0,1,3.51563-1.83007,4.2115,4.2115,0,0,1,3.23535,1.33105,5.10955,5.10955,0,0,1,1.2373,3.61914v6.78223h-3.53613v-6.30371a2.39938,2.39938,0,0,0-.59277-1.73633,2.47858,2.47858,0,0,0-3.2666,0,2.39934,2.39934,0,0,0-.59278,1.73633v6.30371h-3.55664v-11.6084Z"/><path class="cls-5" d="M453.4209,449.44531a6.68969,6.68969,0,0,1,0-8.54,4.90607,4.90607,0,0,1,3.75488-1.67382,3.93937,3.93937,0,0,1,3.40039,1.64257v-1.51855h3.55762v11.6084h-3.55762v-1.68555a4.02066,4.02066,0,0,1-3.45312,1.83106A4.86385,4.86385,0,0,1,453.4209,449.44531Zm6.38574-2.16406a2.82442,2.82442,0,0,0,.76953-2.12109,2.79314,2.79314,0,0,0-.76953-2.11231,2.47368,2.47368,0,0,0-3.53613.01074,2.823,2.823,0,0,0-.76953,2.12207,2.78714,2.78714,0,0,0,.76953,2.11133,2.47368,2.47368,0,0,0,3.53613-.01074Z"/><path class="cls-5" d="M467.94141,449.44531a6.68969,6.68969,0,0,1,0-8.54,4.90607,4.90607,0,0,1,3.75488-1.67382,3.93937,3.93937,0,0,1,3.40039,1.64257v-1.51855h3.55762v11.5459a6.19035,6.19035,0,0,1-1.33106,4.05664,4.29775,4.29775,0,0,1-1.82031,1.28906,7.20923,7.20923,0,0,1-2.67285.458,7.29521,7.29521,0,0,1-4.22363-1.082,4.26411,4.26411,0,0,1-1.76758-3.30762H470.333q.49952,1.311,2.49707,1.31055a2.1786,2.1786,0,0,0,1.62207-.65528,2.8588,2.8588,0,0,0,.64453-2.06933v-1.623a4.02068,4.02068,0,0,1-3.45313,1.83106A4.86384,4.86384,0,0,1,467.94141,449.44531Zm6.38574-2.16406a2.82446,2.82446,0,0,0,.76953-2.12109,2.79317,2.79317,0,0,0-.76953-2.11231,2.47368,2.47368,0,0,0-3.53613.01074,2.823,2.823,0,0,0-.76954,2.12207,2.78711,2.78711,0,0,0,.76954,2.11133,2.47368,2.47368,0,0,0,3.53613-.01074Z"/><path class="cls-5" d="M486.70508,451.10938a5.61021,5.61021,0,0,1-4.16016-1.63282,5.88289,5.88289,0,0,1-1.623-4.33789,5.79639,5.79639,0,0,1,1.6123-4.30566,5.66176,5.66176,0,0,1,4.1709-1.60156,5.96081,5.96081,0,0,1,4.24414,1.58007,5.72859,5.72859,0,0,1,1.68457,4.38965,7.08384,7.08384,0,0,1-.083,1.12305H484.5625a2.02792,2.02792,0,0,0,1.94531,1.748,2.81865,2.81865,0,0,0,1.00879-.13575,1.78723,1.78723,0,0,0,.48926-.2705,3.66689,3.66689,0,0,0,.40527-.44727h3.84864a5.10288,5.10288,0,0,1-1.99707,2.81934A5.9576,5.9576,0,0,1,486.70508,451.10938Zm1.51855-8.33106a2.26167,2.26167,0,0,0-1.47656-.50977,2.1001,2.1001,0,0,0-1.43555.50977,2.21877,2.21877,0,0,0-.72851,1.32031h4.34765A1.8857,1.8857,0,0,0,488.22363,442.77832Z"/><path class="cls-5" d="M498.47852,439.35547v2.16406a3.73868,3.73868,0,0,1,3.3291-2.28808v3.61914h-.874a2.58033,2.58033,0,0,0-1.84082.583,2.74217,2.74217,0,0,0-.61425,2.03809v5.49219h-3.55664v-11.6084Z"/><rect class="cls-4" x="459.64569" y="211.51714" width="173.35423" height="91.43535" rx="6"/><path class="cls-5" d="M508.80566,239.55664v-2.70459h11.52442v2.70459h-3.99414v11.89893H512.7793V239.55664Z"/><path class="cls-5" d="M530.33594,239.84766h3.55761v11.60791h-3.55761V249.75a3.7991,3.7991,0,0,1-3.51563,1.83057,4.20975,4.20975,0,0,1-3.23437-1.33155,5.10085,5.10085,0,0,1-1.23828-3.61963v-6.78173h3.53613v6.30322a2.396,2.396,0,0,0,.59375,1.73682,2.47879,2.47879,0,0,0,3.26562,0,2.39567,2.39567,0,0,0,.59278-1.73682Z"/><path class="cls-5" d="M540.57031,239.84766v1.70605a3.7991,3.7991,0,0,1,3.51563-1.83057,4.21321,4.21321,0,0,1,3.23535,1.33106,5.1108,5.1108,0,0,1,1.2373,3.61963v6.78174h-3.53613v-6.30323a2.40061,2.40061,0,0,0-.59277-1.73681,2.48007,2.48007,0,0,0-3.2666,0,2.40057,2.40057,0,0,0-.59278,1.73681v6.30323h-3.55664V239.84766Z"/><path class="cls-5" d="M555.13184,239.84766v1.70605a3.79908,3.79908,0,0,1,3.51562-1.83057,4.2132,4.2132,0,0,1,3.23535,1.33106,5.1108,5.1108,0,0,1,1.23731,3.61963v6.78174H559.584v-6.30323a2.40061,2.40061,0,0,0-.59277-1.73681,2.48007,2.48007,0,0,0-3.2666,0,2.40061,2.40061,0,0,0-.59277,1.73681v6.30323H551.5752V239.84766Z"/><path class="cls-5" d="M571.06641,251.60107a5.61017,5.61017,0,0,1-4.16016-1.63281,5.88252,5.88252,0,0,1-1.62305-4.3374,5.79754,5.79754,0,0,1,1.61231-4.30615,5.66369,5.66369,0,0,1,4.1709-1.60157,5.96119,5.96119,0,0,1,4.24414,1.58057,5.7279,5.7279,0,0,1,1.68457,4.38965,7.08964,7.08964,0,0,1-.083,1.123h-7.98828a2.02683,2.02683,0,0,0,1.94531,1.74755,2.83183,2.83183,0,0,0,1.00879-.13525,1.8,1.8,0,0,0,.48926-.27051,3.66669,3.66669,0,0,0,.40527-.44726h3.84863a5.10164,5.10164,0,0,1-1.99707,2.81885A5.95419,5.95419,0,0,1,571.06641,251.60107ZM572.585,243.27a2.26167,2.26167,0,0,0-1.47656-.50977,2.1001,2.1001,0,0,0-1.43555.50977,2.22,2.22,0,0,0-.72851,1.3208H573.292A1.88677,1.88677,0,0,0,572.585,243.27Z"/><path class="cls-5" d="M579.2832,251.45557v-15.394h3.55664v15.394Z"/><path class="cls-5" d="M528.79688,266.2876a4.60852,4.60852,0,0,1-1.06055,2.8501,3.97426,3.97426,0,0,1-1.67481,1.15429,7.03644,7.03644,0,0,1-2.63183.44727h-2.20508v5.6792H517.668V261.81494h5.76172a5.598,5.598,0,0,1,3.95312,1.31055A4.1585,4.1585,0,0,1,528.79688,266.2876Zm-7.57227,1.74756h2.20508a1.6311,1.6311,0,0,0,1.748-1.73731,1.77608,1.77608,0,0,0-.47851-1.2793,1.6787,1.6787,0,0,0-1.26953-.499h-2.20508Z"/><path class="cls-5" d="M534.49609,264.81055v2.16357a3.73869,3.73869,0,0,1,3.32911-2.28808v3.61962h-.874a2.58246,2.58246,0,0,0-1.84082.58252,2.74423,2.74423,0,0,0-.61426,2.03858v5.4917h-3.55664V264.81055Z"/><path class="cls-5" d="M540.68555,274.9209a5.64349,5.64349,0,0,1-1.75782-4.32715,5.56428,5.56428,0,0,1,1.74707-4.2959,6.59994,6.59994,0,0,1,8.64356,0,5.58375,5.58375,0,0,1,1.73633,4.2959,5.69752,5.69752,0,0,1-1.72657,4.32715,5.99841,5.99841,0,0,1-4.30566,1.64306A6.10745,6.10745,0,0,1,540.68555,274.9209Zm6.043-2.14307a3.03652,3.03652,0,0,0,.707-2.16308,2.94314,2.94314,0,0,0-.72852-2.15332,2.34277,2.34277,0,0,0-1.72656-.73829,2.31019,2.31019,0,0,0-1.71582.73829,3.56312,3.56312,0,0,0,.02051,4.3164,2.36014,2.36014,0,0,0,1.7373.749A2.26128,2.26128,0,0,0,546.72852,272.77783Z"/><path class="cls-5" d="M563.1416,264.81055l-3.74512,5.6167,3.74512,5.99121h-3.99414l-1.89355-3.0166-1.87207,3.0166h-3.51563l3.76563-5.6167-3.76563-5.99121h3.99414l1.89356,3.0166,1.87207-3.0166Z"/><path class="cls-5" d="M567.80176,276.18945l-4.51465-11.3789h4.03613l2.5791,7.59326,2.82911-7.59326h3.72363l-7.40528,17.1416h-3.72363Z"/><path class="cls-6" d="M460.91162,241.44378a15.791,15.791,0,1,1-15.79053,15.791A15.79283,15.79283,0,0,1,460.91162,241.44378Z"/><path class="cls-6" d="M449.19308,368.209A15.791,15.791,0,1,1,433.40255,384,15.79284,15.79284,0,0,1,449.19308,368.209Z"/><line class="cls-2" x1="461.30676" y1="257.2348" x2="421.90833" y2="257.2348"/><path class="cls-5" d="M460.912,249.33929a7.89553,7.89553,0,1,1-7.89539,7.89551A7.89639,7.89639,0,0,1,460.912,249.33929Z"/><polygon class="cls-5" points="423.659 251.251 413.297 257.235 423.659 263.218 423.659 251.251"/><path class="cls-6" d="M270.16173,241.44378a15.791,15.791,0,1,1-15.79052,15.791A15.79284,15.79284,0,0,1,270.16173,241.44378Z"/><line class="cls-2" x1="270.55688" y1="257.2348" x2="231.15845" y2="257.2348"/><circle class="cls-5" cx="270.16211" cy="257.23481" r="7.89552"/><polygon class="cls-5" points="232.909 251.251 222.547 257.235 232.909 263.218 232.909 251.251"/><path class="cls-2" d="M376.29651,290.69559V314.251a20.95349,20.95349,0,0,0,20.89209,20.89215h31.11279a20.95359,20.95359,0,0,1,20.89221,20.89215v28.54144"/><polygon class="cls-5" points="370.313 292.446 376.297 282.084 382.28 292.446 370.313 292.446"/><path class="cls-5" d="M441.2981,384.182a7.89551,7.89551,0,1,0,7.8955-7.89545A7.89629,7.89629,0,0,0,441.2981,384.182Z"/><path class="cls-6" d="M265.22179,369.05685a15.791,15.791,0,1,0,15.79052,15.791A15.79284,15.79284,0,0,0,265.22179,369.05685Z"/><path class="cls-2" d="M338.11841,291.54346v23.55545A20.95356,20.95356,0,0,1,317.22632,335.991H286.1134a20.95359,20.95359,0,0,0-20.89209,20.89215v28.54147"/><polygon class="cls-5" points="332.135 293.294 338.118 282.932 344.102 293.294 332.135 293.294"/><path class="cls-5" d="M257.32581,385.02985a7.89551,7.89551,0,1,0,7.8955-7.89542A7.8963,7.8963,0,0,0,257.32581,385.02985Z"/><rect class="cls-2" x="703.11796" y="51.51714" width="613" height="606.91821"/><rect class="cls-3" x="718.11816" y="166.51709" width="583" height="326.04228"/><rect class="cls-4" x="733.11774" y="211.51714" width="173.35423" height="91.43535" rx="6"/><rect class="cls-4" x="923.07135" y="211.51714" width="173.35423" height="91.43535" rx="6"/><path class="cls-5" d="M986.2627,253.45557h-3.55665V238.85205h3.55665v6.40723l4.82617-6.40723H995.749l-6.01172,7.30176,6.01172,7.30176h-4.57714l-4.90918-6.44873Z"/><path class="cls-5" d="M1005.56738,241.84766h3.55762v11.60791h-3.55762V251.75a3.79908,3.79908,0,0,1-3.51562,1.83057,4.20975,4.20975,0,0,1-3.23438-1.33155,5.10085,5.10085,0,0,1-1.23828-3.61963v-6.78173h3.53613v6.30322a2.39609,2.39609,0,0,0,.59375,1.73682,2.47881,2.47881,0,0,0,3.26563,0,2.39566,2.39566,0,0,0,.59277-1.73682Z"/><path class="cls-5" d="M1015.80176,243.36621a3.9415,3.9415,0,0,1,3.40136-1.64307,4.908,4.908,0,0,1,3.75489,1.67432,6.69229,6.69229,0,0,1,0,8.53955,4.88735,4.88735,0,0,1-3.72363,1.66406,3.93713,3.93713,0,0,1-3.43262-1.83056v1.68506h-3.55664v-15.394h3.55664Zm4.30664,6.41748a2.78937,2.78937,0,0,0,.76953-2.11133,2.82563,2.82563,0,0,0-.76953-2.12158,2.47485,2.47485,0,0,0-3.53711-.01074,2.792,2.792,0,0,0-.76953,2.11182,2.82562,2.82562,0,0,0,.76953,2.12158,2.47427,2.47427,0,0,0,3.53711.01025Z"/><path class="cls-5" d="M1031.69531,253.60107a5.61017,5.61017,0,0,1-4.16015-1.63281,5.88248,5.88248,0,0,1-1.623-4.3374,5.79757,5.79757,0,0,1,1.6123-4.30615,5.66372,5.66372,0,0,1,4.1709-1.60157,5.96116,5.96116,0,0,1,4.24414,1.58057,5.72786,5.72786,0,0,1,1.68457,4.38965,7.08968,7.08968,0,0,1-.083,1.123h-7.98829a2.02685,2.02685,0,0,0,1.94532,1.74755,2.83187,2.83187,0,0,0,1.00879-.13525,1.79994,1.79994,0,0,0,.48925-.27051,3.66576,3.66576,0,0,0,.40528-.44726H1037.25a5.10169,5.10169,0,0,1-1.99707,2.81885A5.9542,5.9542,0,0,1,1031.69531,253.60107Zm1.51856-8.33105a2.26172,2.26172,0,0,0-1.47657-.50977,2.10007,2.10007,0,0,0-1.43554.50977,2.22006,2.22006,0,0,0-.72852,1.3208h4.34766A1.8868,1.8868,0,0,0,1033.21387,245.27Z"/><path class="cls-5" d="M992.22266,268.2876a4.60852,4.60852,0,0,1-1.06055,2.8501,3.9742,3.9742,0,0,1-1.67481,1.15429,7.03644,7.03644,0,0,1-2.63183.44727h-2.20508v5.6792h-3.55664V263.81494h5.76172a5.598,5.598,0,0,1,3.95312,1.31055A4.1585,4.1585,0,0,1,992.22266,268.2876Zm-7.57227,1.74756h2.20508a1.6311,1.6311,0,0,0,1.74805-1.73731,1.77609,1.77609,0,0,0-.47852-1.2793,1.6787,1.6787,0,0,0-1.26953-.499h-2.20508Z"/><path class="cls-5" d="M997.92188,266.81055v2.16357a3.73868,3.73868,0,0,1,3.3291-2.28808v3.61962h-.874a2.58248,2.58248,0,0,0-1.84082.58252,2.74423,2.74423,0,0,0-.61425,2.03858v5.4917h-3.55665V266.81055Z"/><path class="cls-5" d="M1004.11133,276.9209a5.64348,5.64348,0,0,1-1.75781-4.32715,5.56425,5.56425,0,0,1,1.74707-4.2959,6.59992,6.59992,0,0,1,8.64355,0,5.58375,5.58375,0,0,1,1.73633,4.2959,5.69755,5.69755,0,0,1-1.72656,4.32715,5.99843,5.99843,0,0,1-4.30567,1.64306A6.10746,6.10746,0,0,1,1004.11133,276.9209Zm6.043-2.14307a3.03652,3.03652,0,0,0,.707-2.16308,2.94314,2.94314,0,0,0-.72852-2.15332,2.34275,2.34275,0,0,0-1.72656-.73829,2.31021,2.31021,0,0,0-1.71582.73829,3.56312,3.56312,0,0,0,.02051,4.3164,2.36014,2.36014,0,0,0,1.7373.749A2.26128,2.26128,0,0,0,1010.1543,274.77783Z"/><path class="cls-5" d="M1026.56738,266.81055l-3.74511,5.6167,3.74511,5.99121h-3.99414l-1.89355-3.0166-1.87207,3.0166H1015.292l3.76563-5.6167-3.76563-5.99121h3.99414l1.89356,3.0166,1.87207-3.0166Z"/><path class="cls-5" d="M1031.22754,278.18945l-4.51465-11.3789h4.03613l2.5791,7.59326,2.82911-7.59326h3.72363l-7.40527,17.1416H1028.752Z"/><rect class="cls-1" x="269.95324" y="138.01034" width="173.35423" height="53.69019" rx="5"/><path class="cls-5" d="M327.12207,161.60742a4.6085,4.6085,0,0,1-1.06055,2.8501,3.97433,3.97433,0,0,1-1.6748,1.1543,7.0365,7.0365,0,0,1-2.63184.44726H319.5498v5.6792h-3.55664V157.13477h5.76172a5.598,5.598,0,0,1,3.95313,1.31054A4.15856,4.15856,0,0,1,327.12207,161.60742ZM319.5498,163.355h2.20508a1.6311,1.6311,0,0,0,1.748-1.7373,1.77609,1.77609,0,0,0-.47852-1.2793,1.67863,1.67863,0,0,0-1.26953-.499H319.5498Z"/><path class="cls-5" d="M332.82129,160.13037V162.294a3.73868,3.73868,0,0,1,3.3291-2.28809v3.61963h-.874a2.58241,2.58241,0,0,0-1.84082.58252,2.7442,2.7442,0,0,0-.61426,2.03857v5.4917h-3.55664V160.13037Z"/><path class="cls-5" d="M339.01074,170.24072a5.64346,5.64346,0,0,1-1.75781-4.32715A5.56421,5.56421,0,0,1,339,161.61768a6.59989,6.59989,0,0,1,8.64355,0,5.58372,5.58372,0,0,1,1.73633,4.29589,5.69749,5.69749,0,0,1-1.72656,4.32715,5.99839,5.99839,0,0,1-4.30566,1.64307A6.10743,6.10743,0,0,1,339.01074,170.24072Zm6.043-2.14306a3.03656,3.03656,0,0,0,.707-2.16309,2.94316,2.94316,0,0,0-.72851-2.15332,2.34277,2.34277,0,0,0-1.72657-.73828,2.3102,2.3102,0,0,0-1.71582.73828,3.56313,3.56313,0,0,0,.02051,4.31641,2.36015,2.36015,0,0,0,1.73731.749A2.26127,2.26127,0,0,0,345.05371,168.09766Z"/><path class="cls-5" d="M352.42773,170.26123a6.59841,6.59841,0,0,1,0-8.64355,5.646,5.646,0,0,1,4.1709-1.61182,6.04673,6.04673,0,0,1,3.59864,1.05029,4.99636,4.99636,0,0,1,1.95605,3.00586h-3.84863a1.69074,1.69074,0,0,0-1.63281-1.04,1.9069,1.9069,0,0,0-1.68555.80078,4.32306,4.32306,0,0,0,0,4.22315,1.8327,1.8327,0,0,0,1.6123.80078,1.99134,1.99134,0,0,0,1.04-.229,1.92126,1.92126,0,0,0,.666-.811h3.84863a5.16016,5.16016,0,0,1-1.97656,2.97461,5.86618,5.86618,0,0,1-3.57813,1.10254A5.62331,5.62331,0,0,1,352.42773,170.26123Z"/><path class="cls-5" d="M369.08008,171.88379a5.61024,5.61024,0,0,1-4.16016-1.63281,5.88252,5.88252,0,0,1-1.623-4.33741,5.79755,5.79755,0,0,1,1.6123-4.30615,5.66369,5.66369,0,0,1,4.1709-1.60156,5.96113,5.96113,0,0,1,4.24414,1.58057,5.72783,5.72783,0,0,1,1.68457,4.38964,7.08827,7.08827,0,0,1-.083,1.12305H366.9375a2.02685,2.02685,0,0,0,1.94531,1.74756,2.83183,2.83183,0,0,0,1.00879-.13525,1.80057,1.80057,0,0,0,.48926-.27051,3.66689,3.66689,0,0,0,.40527-.44727h3.84864a5.10174,5.10174,0,0,1-1.99707,2.81885A5.95418,5.95418,0,0,1,369.08008,171.88379Zm1.51855-8.33106a2.26166,2.26166,0,0,0-1.47656-.50976,2.10009,2.10009,0,0,0-1.43555.50976,2.22005,2.22005,0,0,0-.72851,1.32081h4.34765A1.88677,1.88677,0,0,0,370.59863,163.55273Z"/><path class="cls-5" d="M376.50586,163.62549a3.17574,3.17574,0,0,1,1.31055-2.57959,5.55187,5.55187,0,0,1,3.54687-1.04,5.909,5.909,0,0,1,3.60938,1.019,3.50677,3.50677,0,0,1,1.45605,2.7876h-3.64062a1.018,1.018,0,0,0-.416-.82178,2.05427,2.05427,0,0,0-1.06055-.21826q-1.39452,0-1.39355.853,0,.76977,1.70508,1.06055a13.896,13.896,0,0,1,3.1416.89453,2.72369,2.72369,0,0,1,1.70605,2.62109,3.16025,3.16025,0,0,1-1.39453,2.65234,5.75534,5.75534,0,0,1-3.51562,1.02979,6.12307,6.12307,0,0,1-3.53614-.96729,3.543,3.543,0,0,1-1.53906-2.86035H380.126q.145,1.06128,1.49707,1.061a1.72271,1.72271,0,0,0,1.03027-.291.88569.88569,0,0,0,.40527-.749q0-.45777-.67578-.728a9.23264,9.23264,0,0,0-1.63281-.458q-.958-.18676-1.9248-.46777a3.67851,3.67851,0,0,1-1.64356-.978A2.5049,2.5049,0,0,1,376.50586,163.62549Z"/><path class="cls-5" d="M388.05078,163.62549a3.17574,3.17574,0,0,1,1.31055-2.57959,5.55187,5.55187,0,0,1,3.54687-1.04,5.909,5.909,0,0,1,3.60938,1.019,3.50677,3.50677,0,0,1,1.45605,2.7876H394.333a1.018,1.018,0,0,0-.416-.82178,2.05425,2.05425,0,0,0-1.06054-.21826q-1.39454,0-1.39356.853,0,.76977,1.70508,1.06055a13.89588,13.89588,0,0,1,3.1416.89453,2.72369,2.72369,0,0,1,1.70605,2.62109,3.16025,3.16025,0,0,1-1.39453,2.65234,5.75534,5.75534,0,0,1-3.51562,1.02979,6.12305,6.12305,0,0,1-3.53613-.96729,3.543,3.543,0,0,1-1.53907-2.86035h3.64063q.145,1.06128,1.49707,1.061a1.72271,1.72271,0,0,0,1.03027-.291.8857.8857,0,0,0,.40528-.749q0-.45777-.67579-.728a9.23264,9.23264,0,0,0-1.63281-.458q-.958-.18676-1.9248-.46777a3.67856,3.67856,0,0,1-1.64356-.978A2.5049,2.5049,0,0,1,388.05078,163.62549Z"/><rect class="cls-4" x="922.94098" y="383.99999" width="173.35423" height="91.43535" rx="6"/><path class="cls-5" d="M971.90332,437.93945h-3.55664V423.33594h3.55664v6.40722l4.82617-6.40722h4.66016l-6.01172,7.30176,6.01172,7.30175H976.8125l-4.90918-6.44922Z"/><path class="cls-5" d="M991.208,426.33105h3.55761v11.6084H991.208V436.2334a3.79851,3.79851,0,0,1-3.51563,1.83105,4.21011,4.21011,0,0,1-3.23437-1.332,5.09961,5.09961,0,0,1-1.23828-3.61914v-6.78223h3.53613v6.30372a2.394,2.394,0,0,0,.59375,1.73632,2.47728,2.47728,0,0,0,3.26562,0,2.3936,2.3936,0,0,0,.59278-1.73632Z"/><path class="cls-5" d="M1001.44238,427.84961a3.94231,3.94231,0,0,1,3.40137-1.64258,4.90753,4.90753,0,0,1,3.75488,1.67383,6.69293,6.69293,0,0,1,0,8.54,4.889,4.889,0,0,1-3.72363,1.66406,3.93758,3.93758,0,0,1-3.43262-1.83105v1.68554h-3.55664V422.54492h3.55664Zm4.30664,6.418a2.79081,2.79081,0,0,0,.76953-2.11133,2.82676,2.82676,0,0,0-.76953-2.12207,2.47485,2.47485,0,0,0-3.53711-.01074,2.79315,2.79315,0,0,0-.76953,2.1123,2.8245,2.8245,0,0,0,.76953,2.1211,2.47485,2.47485,0,0,0,3.53711.01074Z"/><path class="cls-5" d="M1017.33594,438.085a5.61019,5.61019,0,0,1-4.16016-1.63281,5.88291,5.88291,0,0,1-1.62305-4.33789,5.7964,5.7964,0,0,1,1.61231-4.30567,5.66174,5.66174,0,0,1,4.1709-1.60156,5.96084,5.96084,0,0,1,4.24414,1.58008,5.72863,5.72863,0,0,1,1.68457,4.38965,7.085,7.085,0,0,1-.083,1.123h-7.98828a2.02792,2.02792,0,0,0,1.94531,1.748,2.81869,2.81869,0,0,0,1.00879-.13574,1.78721,1.78721,0,0,0,.48926-.27051,3.66746,3.66746,0,0,0,.40527-.44726h3.84863a5.10276,5.10276,0,0,1-1.99707,2.81933A5.95748,5.95748,0,0,1,1017.33594,438.085Zm1.51855-8.33105a2.26162,2.26162,0,0,0-1.47656-.50977,2.10005,2.10005,0,0,0-1.43555.50977,2.21874,2.21874,0,0,0-.72851,1.32031h4.34765A1.88568,1.88568,0,0,0,1018.85449,429.75391Z"/><path class="cls-5" d="M1025.55273,437.93945V422.54492h3.55665v15.39453Z"/><path class="cls-5" d="M1037.16016,438.085A5.61017,5.61017,0,0,1,1033,436.45215a5.88291,5.88291,0,0,1-1.623-4.33789,5.7964,5.7964,0,0,1,1.61231-4.30567,5.66174,5.66174,0,0,1,4.1709-1.60156,5.96084,5.96084,0,0,1,4.24414,1.58008,5.72863,5.72863,0,0,1,1.68457,4.38965,7.085,7.085,0,0,1-.083,1.123h-7.98828a2.02792,2.02792,0,0,0,1.94531,1.748,2.81869,2.81869,0,0,0,1.00879-.13574,1.78721,1.78721,0,0,0,.48926-.27051,3.66746,3.66746,0,0,0,.40527-.44726h3.84863a5.10276,5.10276,0,0,1-1.99707,2.81933A5.95748,5.95748,0,0,1,1037.16016,438.085Zm1.51855-8.33105a2.26162,2.26162,0,0,0-1.47656-.50977,2.10005,2.10005,0,0,0-1.43555.50977,2.21874,2.21874,0,0,0-.72851,1.32031h4.34765A1.88572,1.88572,0,0,0,1038.67871,429.75391Z"/><path class="cls-5" d="M1050.30664,434.92285h1.26953v3.0166h-1.81055a4.71029,4.71029,0,0,1-3.02636-.86328,3.60393,3.60393,0,0,1-1.07129-2.96484v-4.82617h-1.082v-2.95411h1.082V423.502h3.55664v2.8291h2.33008v2.95411h-2.33008v4.82617Q1049.22461,434.92284,1050.30664,434.92285Z"/><rect class="cls-4" x="922.94098" y="507.43554" width="173.35423" height="91.43535" rx="6"/><path class="cls-5" d="M951.18457,559.89746a6.59841,6.59841,0,0,1,0-8.64355,5.64564,5.64564,0,0,1,4.1709-1.61133,6.04643,6.04643,0,0,1,3.59863,1.0498,4.9992,4.9992,0,0,1,1.95606,3.00586h-3.84864a1.69073,1.69073,0,0,0-1.63281-1.04,1.908,1.908,0,0,0-1.68555.80078,4.324,4.324,0,0,0,0,4.22364,1.83271,1.83271,0,0,0,1.61231.80078,1.98631,1.98631,0,0,0,1.04-.22949,1.92249,1.92249,0,0,0,.666-.81055h3.84864a5.16168,5.16168,0,0,1-1.97657,2.97461,5.86613,5.86613,0,0,1-3.57812,1.10254A5.62364,5.62364,0,0,1,951.18457,559.89746Z"/><path class="cls-5" d="M963.833,559.877a5.64346,5.64346,0,0,1-1.75781-4.32715,5.56421,5.56421,0,0,1,1.74707-4.29589,6.60141,6.60141,0,0,1,8.64355,0,5.58372,5.58372,0,0,1,1.73633,4.29589,5.69753,5.69753,0,0,1-1.72656,4.32715,5.99878,5.99878,0,0,1-4.30567,1.64356A6.10781,6.10781,0,0,1,963.833,559.877Zm6.043-2.14257a3.03737,3.03737,0,0,0,.707-2.16309,2.94238,2.94238,0,0,0-.72852-2.15332,2.34274,2.34274,0,0,0-1.72656-.73828,2.31018,2.31018,0,0,0-1.71582.73828,3.56313,3.56313,0,0,0,.02051,4.31641,2.362,2.362,0,0,0,1.7373.749A2.263,2.263,0,0,0,969.876,557.73438Z"/><path class="cls-5" d="M980.04785,549.7666v1.70606a3.79966,3.79966,0,0,1,3.51563-1.83008,4.21153,4.21153,0,0,1,3.23535,1.33105,5.10955,5.10955,0,0,1,1.2373,3.61914V561.375H984.5v-6.30371a2.39939,2.39939,0,0,0-.59277-1.73633,2.47859,2.47859,0,0,0-3.26661,0,2.39939,2.39939,0,0,0-.59277,1.73633V561.375h-3.55664V549.7666Z"/><path class="cls-5" d="M995.98242,558.3584H997.252v3.0166h-1.81054a4.71039,4.71039,0,0,1-3.02637-.86328,3.604,3.604,0,0,1-1.07129-2.96484V552.7207h-1.082v-2.9541h1.082v-2.8291h3.55664v2.8291h2.33008v2.9541h-2.33008v4.82618Q994.90039,558.3584,995.98242,558.3584Z"/><path class="cls-5" d="M1000.37207,559.85645a6.68969,6.68969,0,0,1,0-8.54,4.90608,4.90608,0,0,1,3.75488-1.67383,3.93935,3.93935,0,0,1,3.40039,1.64258V549.7666h3.55762V561.375h-3.55762v-1.68555a4.02064,4.02064,0,0,1-3.45312,1.83106A4.86389,4.86389,0,0,1,1000.37207,559.85645Zm6.38574-2.16407a2.82442,2.82442,0,0,0,.76953-2.12109,2.79314,2.79314,0,0,0-.76953-2.11231,2.47367,2.47367,0,0,0-3.53613.01075,2.823,2.823,0,0,0-.76953,2.12207,2.7871,2.7871,0,0,0,.76953,2.11132,2.47366,2.47366,0,0,0,3.53613-.01074Z"/><path class="cls-5" d="M1017.45117,548.45605a2.13688,2.13688,0,1,1,.60254-1.4873A2.00891,2.00891,0,0,1,1017.45117,548.45605Zm-3.24512,12.91895V549.7666h3.55665V561.375Z"/><path class="cls-5" d="M1024.44043,549.7666v1.70606a3.79965,3.79965,0,0,1,3.51562-1.83008,4.21154,4.21154,0,0,1,3.23536,1.33105,5.1096,5.1096,0,0,1,1.2373,3.61914V561.375h-3.53613v-6.30371a2.39936,2.39936,0,0,0-.59278-1.73633,2.47858,2.47858,0,0,0-3.2666,0,2.39939,2.39939,0,0,0-.59277,1.73633V561.375h-3.55664V549.7666Z"/><path class="cls-5" d="M1040.375,561.52051a5.61024,5.61024,0,0,1-4.16016-1.63281,5.88291,5.88291,0,0,1-1.623-4.3379,5.79643,5.79643,0,0,1,1.6123-4.30566,5.66177,5.66177,0,0,1,4.1709-1.60156,5.96082,5.96082,0,0,1,4.24414,1.58008,5.72855,5.72855,0,0,1,1.68457,4.38964,7.08384,7.08384,0,0,1-.083,1.12305h-7.98828a2.02794,2.02794,0,0,0,1.94531,1.748,2.81869,2.81869,0,0,0,1.00879-.13574,1.78747,1.78747,0,0,0,.48926-.27051,3.66689,3.66689,0,0,0,.40527-.44727h3.84864a5.10288,5.10288,0,0,1-1.99707,2.81934A5.95751,5.95751,0,0,1,1040.375,561.52051Zm1.51855-8.33106a2.26166,2.26166,0,0,0-1.47656-.50976,2.10007,2.10007,0,0,0-1.43554.50976,2.21881,2.21881,0,0,0-.72852,1.32032h4.34766A1.88577,1.88577,0,0,0,1041.89355,553.18945Z"/><path class="cls-5" d="M1052.14844,549.7666v2.16406a3.73868,3.73868,0,0,1,3.3291-2.28808v3.61914h-.874a2.58027,2.58027,0,0,0-1.84082.583,2.74213,2.74213,0,0,0-.61426,2.03808V561.375h-3.55664V549.7666Z"/><path class="cls-5" d="M1058.09863,559.85645a6.68969,6.68969,0,0,1,0-8.54,4.9061,4.9061,0,0,1,3.75489-1.67383,3.93936,3.93936,0,0,1,3.40039,1.64258v-5.30469h3.55761V561.375h-3.55761v-1.68555a4.02067,4.02067,0,0,1-3.45313,1.83106A4.86389,4.86389,0,0,1,1058.09863,559.85645Zm6.38575-2.16407a2.82446,2.82446,0,0,0,.76953-2.12109,2.79317,2.79317,0,0,0-.76953-2.11231,2.47368,2.47368,0,0,0-3.53614.01075,2.823,2.823,0,0,0-.76953,2.12207,2.7871,2.7871,0,0,0,.76953,2.11132,2.47367,2.47367,0,0,0,3.53614-.01074Z"/><rect class="cls-4" x="1112.76373" y="211.51714" width="173.35423" height="91.43535" rx="6"/><path class="cls-5" d="M1159.94824,266.45557V251.85205h9.50684v2.70459h-5.9502v3.14111h4.45215v2.70411h-4.45215v6.05371Z"/><path class="cls-5" d="M1171.90918,266.45557V251.06152h3.55664v15.39405Z"/><path class="cls-5" d="M1179.27344,264.937a6.689,6.689,0,0,1,0-8.53955,4.90655,4.90655,0,0,1,3.75488-1.67432,3.93858,3.93858,0,0,1,3.40039,1.64307v-1.51855h3.55762v11.60791h-3.55762v-1.68506a4.02019,4.02019,0,0,1-3.45312,1.83056A4.86216,4.86216,0,0,1,1179.27344,264.937Zm6.38574-2.16357a2.82562,2.82562,0,0,0,.76953-2.12158,2.792,2.792,0,0,0-.76953-2.11182,2.47368,2.47368,0,0,0-3.53613.01074,2.82185,2.82185,0,0,0-.76953,2.12158,2.78567,2.78567,0,0,0,.76953,2.11133,2.47311,2.47311,0,0,0,3.53613-.01025Z"/><path class="cls-5" d="M1196.66406,254.84766v1.70605a3.7991,3.7991,0,0,1,3.51563-1.83057,4.21321,4.21321,0,0,1,3.23535,1.33106,5.1108,5.1108,0,0,1,1.2373,3.61963v6.78174h-3.53613v-6.30323a2.40061,2.40061,0,0,0-.59277-1.73681,2.48007,2.48007,0,0,0-3.2666,0,2.40057,2.40057,0,0,0-.59278,1.73681v6.30323h-3.55664V254.84766Z"/><path class="cls-5" d="M1211.22559,254.84766v1.70605a3.79908,3.79908,0,0,1,3.51562-1.83057,4.2132,4.2132,0,0,1,3.23535,1.33106,5.1108,5.1108,0,0,1,1.23731,3.61963v6.78174h-3.53614v-6.30323a2.40061,2.40061,0,0,0-.59277-1.73681,2.48007,2.48007,0,0,0-3.2666,0,2.40061,2.40061,0,0,0-.59277,1.73681v6.30323H1207.669V254.84766Z"/><path class="cls-5" d="M1227.16016,266.60107A5.61017,5.61017,0,0,1,1223,264.96826a5.88252,5.88252,0,0,1-1.623-4.3374,5.79754,5.79754,0,0,1,1.61231-4.30615,5.66369,5.66369,0,0,1,4.1709-1.60157,5.96119,5.96119,0,0,1,4.24414,1.58057,5.7279,5.7279,0,0,1,1.68457,4.38965,7.08964,7.08964,0,0,1-.083,1.12305h-7.98828a2.02683,2.02683,0,0,0,1.94531,1.74755,2.83183,2.83183,0,0,0,1.00879-.13525,1.8,1.8,0,0,0,.48926-.27051,3.66669,3.66669,0,0,0,.40527-.44726h3.84863a5.10164,5.10164,0,0,1-1.99707,2.81885A5.95419,5.95419,0,0,1,1227.16016,266.60107Zm1.51855-8.33105a2.26167,2.26167,0,0,0-1.47656-.50977,2.1001,2.1001,0,0,0-1.43555.50977,2.22,2.22,0,0,0-.72851,1.3208h4.34765A1.88677,1.88677,0,0,0,1228.67871,258.27Z"/><path class="cls-5" d="M1235.377,266.45557V251.06152h3.55664v15.39405Z"/><path class="cls-5" d="M782.48242,239.55664v-2.70459h11.52442v2.70459H790.0127v11.89893h-3.55665V239.55664Z"/><path class="cls-5" d="M804.0127,239.84766h3.55761v11.60791H804.0127V249.75a3.79911,3.79911,0,0,1-3.51563,1.83057,4.20973,4.20973,0,0,1-3.23437-1.33155,5.10081,5.10081,0,0,1-1.23829-3.61963v-6.78173h3.53614v6.30322a2.396,2.396,0,0,0,.59375,1.73682,2.47879,2.47879,0,0,0,3.26562,0,2.39567,2.39567,0,0,0,.59278-1.73682Z"/><path class="cls-5" d="M814.24707,239.84766v1.70605a3.7991,3.7991,0,0,1,3.51563-1.83057,4.21321,4.21321,0,0,1,3.23535,1.33106,5.1108,5.1108,0,0,1,1.2373,3.61963v6.78174h-3.53613v-6.30323a2.40061,2.40061,0,0,0-.59277-1.73681,2.48008,2.48008,0,0,0-3.26661,0,2.40061,2.40061,0,0,0-.59277,1.73681v6.30323h-3.55664V239.84766Z"/><path class="cls-5" d="M828.80859,239.84766v1.70605a3.79911,3.79911,0,0,1,3.51563-1.83057,4.2132,4.2132,0,0,1,3.23535,1.33106,5.1108,5.1108,0,0,1,1.23731,3.61963v6.78174h-3.53614v-6.30323a2.40061,2.40061,0,0,0-.59277-1.73681,2.48007,2.48007,0,0,0-3.2666,0,2.40062,2.40062,0,0,0-.59278,1.73681v6.30323H825.252V239.84766Z"/><path class="cls-5" d="M844.74316,251.60107a5.61017,5.61017,0,0,1-4.16015-1.63281,5.88252,5.88252,0,0,1-1.623-4.3374,5.79754,5.79754,0,0,1,1.61231-4.30615,5.66368,5.66368,0,0,1,4.17089-1.60157,5.96116,5.96116,0,0,1,4.24414,1.58057,5.72787,5.72787,0,0,1,1.68458,4.38965,7.08964,7.08964,0,0,1-.083,1.123h-7.98828a2.02683,2.02683,0,0,0,1.94531,1.74755,2.83187,2.83187,0,0,0,1.00879-.13525,1.80018,1.80018,0,0,0,.48926-.27051,3.66669,3.66669,0,0,0,.40527-.44726h3.84863a5.10169,5.10169,0,0,1-1.99707,2.81885A5.9542,5.9542,0,0,1,844.74316,251.60107Zm1.51856-8.33105a2.26169,2.26169,0,0,0-1.47656-.50977,2.10008,2.10008,0,0,0-1.43555.50977,2.22006,2.22006,0,0,0-.72852,1.3208h4.34766A1.8868,1.8868,0,0,0,846.26172,243.27Z"/><path class="cls-5" d="M852.96,251.45557v-15.394h3.55664v15.394Z"/><path class="cls-5" d="M802.47363,266.2876a4.60851,4.60851,0,0,1-1.06054,2.8501,3.97426,3.97426,0,0,1-1.67481,1.15429,7.03647,7.03647,0,0,1-2.63183.44727h-2.20508v5.6792h-3.55664V261.81494h5.76172a5.598,5.598,0,0,1,3.95312,1.31055A4.15853,4.15853,0,0,1,802.47363,266.2876Zm-7.57226,1.74756h2.20508a1.6311,1.6311,0,0,0,1.748-1.73731,1.77608,1.77608,0,0,0-.47851-1.2793,1.6787,1.6787,0,0,0-1.26953-.499h-2.20508Z"/><path class="cls-5" d="M808.17285,264.81055v2.16357a3.73869,3.73869,0,0,1,3.3291-2.28808v3.61962h-.874a2.58246,2.58246,0,0,0-1.84082.58252,2.74423,2.74423,0,0,0-.61426,2.03858v5.4917h-3.55664V264.81055Z"/><path class="cls-5" d="M814.3623,274.9209a5.64348,5.64348,0,0,1-1.75781-4.32715,5.56425,5.56425,0,0,1,1.74707-4.2959,6.59994,6.59994,0,0,1,8.64356,0,5.58379,5.58379,0,0,1,1.73633,4.2959,5.69752,5.69752,0,0,1-1.72657,4.32715,5.99841,5.99841,0,0,1-4.30566,1.64306A6.10747,6.10747,0,0,1,814.3623,274.9209Zm6.043-2.14307a3.03647,3.03647,0,0,0,.707-2.16308,2.94314,2.94314,0,0,0-.72851-2.15332,2.34277,2.34277,0,0,0-1.72656-.73829,2.31019,2.31019,0,0,0-1.71582.73829,3.5631,3.5631,0,0,0,.0205,4.3164,2.36016,2.36016,0,0,0,1.73731.749A2.26128,2.26128,0,0,0,820.40527,272.77783Z"/><path class="cls-5" d="M836.81836,264.81055l-3.74512,5.6167,3.74512,5.99121h-3.99414l-1.89356-3.0166-1.87207,3.0166H825.543l3.76562-5.6167-3.76562-5.99121h3.99414l1.89355,3.0166,1.87207-3.0166Z"/><path class="cls-5" d="M841.47852,276.18945l-4.51465-11.3789H841l2.5791,7.59326,2.8291-7.59326h3.72364l-7.40528,17.1416h-3.72363Z"/><path class="cls-6" d="M1114.02958,241.44378a15.791,15.791,0,1,1-15.79052,15.791A15.79284,15.79284,0,0,1,1114.02958,241.44378Z"/><path class="cls-6" d="M1111.7286,429.19148a15.791,15.791,0,1,1-15.791-15.79053A15.79284,15.79284,0,0,1,1111.7286,429.19148Z"/><line class="cls-2" x1="1114.4248" y1="257.2348" x2="1075.02637" y2="257.2348"/><circle class="cls-5" cx="1114.03003" cy="257.23481" r="7.89552"/><polygon class="cls-5" points="1076.777 251.251 1066.415 257.235 1076.777 263.218 1076.777 251.251"/><path class="cls-6" d="M923.2797,241.44378a15.791,15.791,0,1,1-15.79053,15.791A15.79284,15.79284,0,0,1,923.2797,241.44378Z"/><line class="cls-2" x1="923.6748" y1="257.2348" x2="884.27637" y2="257.2348"/><circle class="cls-5" cx="923.28003" cy="257.23481" r="7.89552"/><polygon class="cls-5" points="886.027 251.251 875.665 257.235 886.027 263.218 886.027 251.251"/><path class="cls-6" d="M735.91162,241.44378a15.791,15.791,0,1,1-15.79053,15.791A15.79283,15.79283,0,0,1,735.91162,241.44378Z"/><line class="cls-7" x1="736.30664" y1="257.2348" x2="731.30664" y2="257.2348"/><line class="cls-8" x1="723.39673" y1="257.2348" x2="620.56641" y2="257.2348"/><line class="cls-7" x1="616.61157" y1="257.2348" x2="611.61157" y2="257.2348"/><path class="cls-5" d="M735.91187,249.33929a7.89553,7.89553,0,1,1-7.89527,7.89551A7.89642,7.89642,0,0,1,735.91187,249.33929Z"/><polygon class="cls-5" points="613.362 251.251 603 257.235 613.362 263.218 613.362 251.251"/><path class="cls-2" d="M1194.79443,289.79846V408.29984a20.95348,20.95348,0,0,1-20.89209,20.89212h-78.5415"/><polygon class="cls-5" points="1188.811 291.549 1194.794 281.187 1200.778 291.549 1188.811 291.549"/><circle class="cls-5" cx="1095.75562" cy="429.19196" r="7.89552"/><path class="cls-6" d="M908.89226,551.55325a15.791,15.791,0,1,1,15.79105,15.79052A15.79284,15.79284,0,0,1,908.89226,551.55325Z"/><path class="cls-6" d="M908.06582,429.19148a15.791,15.791,0,1,0,15.791-15.79053A15.79283,15.79283,0,0,0,908.06582,429.19148Z"/><path class="cls-2" d="M825,289.79846V408.29984A20.95348,20.95348,0,0,0,845.89209,429.192h78.5415"/><polygon class="cls-5" points="819.016 291.549 825 281.187 830.984 291.549 819.016 291.549"/><circle class="cls-5" cx="924.03882" cy="429.19196" r="7.89551"/><polyline class="cls-2" points="723.118 668.435 723.118 687.884 1296.118 687.884 1296.118 668.435"/><polyline class="cls-2" points="743.118 697.884 743.118 715.9 1276.118 715.9 1276.118 697.884"/><rect class="cls-3" x="269.95324" y="138.01034" width="173.35423" height="53.69019" rx="5"/><rect class="cls-1" x="922.94085" y="138.01034" width="173.35423" height="53.69019" rx="5"/><path class="cls-5" d="M980.10938,161.60742a4.6085,4.6085,0,0,1-1.06055,2.8501,3.97437,3.97437,0,0,1-1.67481,1.1543,7.03645,7.03645,0,0,1-2.63183.44726h-2.20508v5.6792h-3.55664V157.13477h5.76172a5.598,5.598,0,0,1,3.95312,1.31054A4.15853,4.15853,0,0,1,980.10938,161.60742Zm-7.57227,1.74756h2.20508a1.6311,1.6311,0,0,0,1.748-1.7373,1.77608,1.77608,0,0,0-.47851-1.2793,1.67866,1.67866,0,0,0-1.26953-.499h-2.20508Z"/><path class="cls-5" d="M985.80859,160.13037V162.294a3.73869,3.73869,0,0,1,3.32911-2.28809v3.61963h-.874a2.58241,2.58241,0,0,0-1.84082.58252,2.7442,2.7442,0,0,0-.61426,2.03857v5.4917H982.252V160.13037Z"/><path class="cls-5" d="M991.99805,170.24072a5.64347,5.64347,0,0,1-1.75782-4.32715,5.56424,5.56424,0,0,1,1.74707-4.29589,6.59991,6.59991,0,0,1,8.64356,0,5.58372,5.58372,0,0,1,1.73633,4.29589,5.6975,5.6975,0,0,1-1.72657,4.32715,5.99837,5.99837,0,0,1-4.30566,1.64307A6.10741,6.10741,0,0,1,991.99805,170.24072Zm6.043-2.14306a3.03656,3.03656,0,0,0,.707-2.16309,2.94316,2.94316,0,0,0-.72852-2.15332,2.34276,2.34276,0,0,0-1.72656-.73828,2.31018,2.31018,0,0,0-1.71582.73828,3.56313,3.56313,0,0,0,.02051,4.31641,2.36013,2.36013,0,0,0,1.7373.749A2.26127,2.26127,0,0,0,998.041,168.09766Z"/><path class="cls-5" d="M1005.415,170.26123a6.59838,6.59838,0,0,1,0-8.64355,5.646,5.646,0,0,1,4.1709-1.61182,6.04667,6.04667,0,0,1,3.59863,1.05029,4.99632,4.99632,0,0,1,1.95605,3.00586H1011.292a1.69074,1.69074,0,0,0-1.63281-1.04,1.9069,1.9069,0,0,0-1.68555.80078,4.32306,4.32306,0,0,0,0,4.22315,1.83271,1.83271,0,0,0,1.61231.80078,1.99136,1.99136,0,0,0,1.04-.229,1.92118,1.92118,0,0,0,.666-.811h3.84863a5.16006,5.16006,0,0,1-1.97656,2.97461,5.86613,5.86613,0,0,1-3.57812,1.10254A5.62327,5.62327,0,0,1,1005.415,170.26123Z"/><path class="cls-5" d="M1022.06738,171.88379a5.6102,5.6102,0,0,1-4.16015-1.63281,5.88253,5.88253,0,0,1-1.62305-4.33741,5.79758,5.79758,0,0,1,1.6123-4.30615,5.66371,5.66371,0,0,1,4.1709-1.60156,5.96112,5.96112,0,0,1,4.24414,1.58057,5.72783,5.72783,0,0,1,1.68457,4.38964,7.0895,7.0895,0,0,1-.083,1.12305h-7.98829a2.02687,2.02687,0,0,0,1.94532,1.74756,2.83187,2.83187,0,0,0,1.00879-.13525,1.80048,1.80048,0,0,0,.48925-.27051,3.66679,3.66679,0,0,0,.40528-.44727h3.84863a5.10169,5.10169,0,0,1-1.99707,2.81885A5.95414,5.95414,0,0,1,1022.06738,171.88379Zm1.51856-8.33106a2.2617,2.2617,0,0,0-1.47656-.50976,2.10007,2.10007,0,0,0-1.43555.50976,2.22012,2.22012,0,0,0-.72852,1.32081h4.34766A1.88684,1.88684,0,0,0,1023.58594,163.55273Z"/><path class="cls-5" d="M1029.49316,163.62549a3.17574,3.17574,0,0,1,1.31055-2.57959,5.5519,5.5519,0,0,1,3.54688-1.04,5.90892,5.90892,0,0,1,3.60937,1.019,3.50681,3.50681,0,0,1,1.45606,2.7876h-3.64063a1.018,1.018,0,0,0-.416-.82178,2.05432,2.05432,0,0,0-1.06055-.21826q-1.39453,0-1.39356.853,0,.76977,1.70508,1.06055a13.89588,13.89588,0,0,1,3.1416.89453,2.72372,2.72372,0,0,1,1.70606,2.62109,3.16028,3.16028,0,0,1-1.39453,2.65234,5.75537,5.75537,0,0,1-3.51563,1.02979,6.12305,6.12305,0,0,1-3.53613-.96729,3.543,3.543,0,0,1-1.53906-2.86035h3.64062q.145,1.06128,1.49707,1.061a1.72266,1.72266,0,0,0,1.03027-.291.8857.8857,0,0,0,.40528-.749q0-.45777-.67578-.728a9.23277,9.23277,0,0,0-1.63282-.458q-.958-.18676-1.9248-.46777a3.67853,3.67853,0,0,1-1.64355-.978A2.50486,2.50486,0,0,1,1029.49316,163.62549Z"/><path class="cls-5" d="M1041.03809,163.62549a3.17576,3.17576,0,0,1,1.31054-2.57959,5.55192,5.55192,0,0,1,3.54688-1.04,5.90892,5.90892,0,0,1,3.60937,1.019,3.50681,3.50681,0,0,1,1.45606,2.7876h-3.64063a1.018,1.018,0,0,0-.416-.82178,2.05429,2.05429,0,0,0-1.06055-.21826q-1.39453,0-1.39355.853,0,.76977,1.70507,1.06055a13.896,13.896,0,0,1,3.14161.89453,2.72373,2.72373,0,0,1,1.70605,2.62109,3.16025,3.16025,0,0,1-1.39453,2.65234,5.75537,5.75537,0,0,1-3.51563,1.02979,6.12305,6.12305,0,0,1-3.53613-.96729,3.543,3.543,0,0,1-1.53906-2.86035h3.64062q.145,1.06128,1.49707,1.061a1.72272,1.72272,0,0,0,1.03028-.291.88572.88572,0,0,0,.40527-.749q0-.45777-.67578-.728a9.23288,9.23288,0,0,0-1.63281-.458q-.958-.18676-1.92481-.46777a3.67853,3.67853,0,0,1-1.64355-.978A2.50486,2.50486,0,0,1,1041.03809,163.62549Z"/><path class="cls-5" d="M304.5625,94.58643h-3.55664v-15.394h3.55664v8.6333l3.59863-4.84716h4.78516l-4.97168,5.92871,4.97168,5.6792h-4.72266l-3.66113-4.63916Z"/><path class="cls-5" d="M319.18652,82.14648a1.46544,1.46544,0,0,0-1.581,1.53956h-3.45313a4.199,4.199,0,0,1,1.4043-3.38038,5.56446,5.56446,0,0,1,3.73438-1.19628,5.27032,5.27032,0,0,1,3.61914,1.144,3.721,3.721,0,0,1,1.29,2.9126,3.60129,3.60129,0,0,1-.67579,2.26709,3.53847,3.53847,0,0,1-1.38379,1.165v.0835a3.49231,3.49231,0,0,1,2.33008,3.59863,4.02194,4.02194,0,0,1-1.3623,3.21387,5.58035,5.58035,0,0,1-3.76563,1.17529,6.03884,6.03884,0,0,1-3.92089-1.22705,4.42725,4.42725,0,0,1-1.51856-3.66113h3.45313a2.09641,2.09641,0,0,0,.51953,1.4458,1.80848,1.80848,0,0,0,1.38379.53027,1.7346,1.7346,0,0,0,1.33105-.47851,1.92158,1.92158,0,0,0,.44727-1.36231,1.5056,1.5056,0,0,0-.624-1.32129,3.64821,3.64821,0,0,0-2.03808-.43652h-.666v-2.8916h.666q2.3701,0,2.37109-1.66455a1.37664,1.37664,0,0,0-.42676-1.06055A1.60058,1.60058,0,0,0,319.18652,82.14648Z"/><path class="cls-5" d="M326.38379,86.47363a3.17575,3.17575,0,0,1,1.31055-2.57959,5.55187,5.55187,0,0,1,3.54687-1.04,5.909,5.909,0,0,1,3.60938,1.01905,3.50677,3.50677,0,0,1,1.45605,2.78759H332.666a1.018,1.018,0,0,0-.416-.82177,2.05427,2.05427,0,0,0-1.06055-.21826q-1.39452,0-1.39355.853,0,.76978,1.70508,1.06055a13.89706,13.89706,0,0,1,3.1416.89453,2.72371,2.72371,0,0,1,1.70605,2.62109,3.16027,3.16027,0,0,1-1.39453,2.65235,5.7554,5.7554,0,0,1-3.51562,1.02978,6.12306,6.12306,0,0,1-3.53614-.96728,3.543,3.543,0,0,1-1.53906-2.86035h3.64063q.145,1.06128,1.49707,1.061a1.72277,1.72277,0,0,0,1.03027-.291.88571.88571,0,0,0,.40527-.749q0-.45776-.67578-.728a9.232,9.232,0,0,0-1.63281-.458q-.958-.18677-1.92481-.46778a3.6786,3.6786,0,0,1-1.64355-.978A2.50492,2.50492,0,0,1,326.38379,86.47363Z"/><path class="cls-5" d="M349.91016,82.5835a1.65294,1.65294,0,0,0-1.0918.35351,1.24992,1.24992,0,0,0-.42676,1.01953,1.469,1.469,0,0,0,.39551,1.07129,2.57743,2.57743,0,0,0,1.03027.624q.63427.21825,1.41407.416a15.81572,15.81572,0,0,1,1.5498.47852,6.79852,6.79852,0,0,1,1.4043.69677,3.05763,3.05763,0,0,1,1.02929,1.1753,3.89493,3.89493,0,0,1,.39551,1.82031,4.078,4.078,0,0,1-1.50781,3.17236,5.81239,5.81239,0,0,1-3.97363,1.3208,6.247,6.247,0,0,1-3.97364-1.18554,4.0388,4.0388,0,0,1-1.50781-3.37012h3.78613a1.64772,1.64772,0,0,0,1.78907,1.74756,1.70338,1.70338,0,0,0,1.20605-.40576,1.3423,1.3423,0,0,0,.4375-1.02979,1.37792,1.37792,0,0,0-.39551-1.019,2.75142,2.75142,0,0,0-1.02929-.62451q-.63575-.22852-1.415-.42627a14.28942,14.28942,0,0,1-1.54981-.48877,7.62074,7.62074,0,0,1-1.40429-.69678,2.96538,2.96538,0,0,1-1.0293-1.165,3.8467,3.8467,0,0,1-.39551-1.79932,3.98664,3.98664,0,0,1,1.51856-3.26611,5.97553,5.97553,0,0,1,3.87988-1.22754,6.28983,6.28983,0,0,1,3.81738,1.07129,4.06609,4.06609,0,0,1,1.51856,3.38037H351.5127a1.9527,1.9527,0,0,0-.50977-1.21679A1.47951,1.47951,0,0,0,349.91016,82.5835Z"/><path class="cls-5" d="M363.34863,94.73193a5.61017,5.61017,0,0,1-4.16015-1.63281,5.88252,5.88252,0,0,1-1.62305-4.3374,5.79757,5.79757,0,0,1,1.6123-4.30615,5.66372,5.66372,0,0,1,4.1709-1.60157,5.96116,5.96116,0,0,1,4.24414,1.58057,5.72786,5.72786,0,0,1,1.68457,4.38965,7.08968,7.08968,0,0,1-.083,1.12305h-7.98829a2.02687,2.02687,0,0,0,1.94532,1.74755,2.83187,2.83187,0,0,0,1.00879-.13525,1.80021,1.80021,0,0,0,.48925-.27051,3.66654,3.66654,0,0,0,.40528-.44726h3.84863a5.10163,5.10163,0,0,1-1.99707,2.81884A5.95414,5.95414,0,0,1,363.34863,94.73193Zm1.51856-8.33105a2.26172,2.26172,0,0,0-1.47657-.50977,2.10007,2.10007,0,0,0-1.43554.50977,2.22006,2.22006,0,0,0-.72852,1.3208h4.34766A1.8868,1.8868,0,0,0,364.86719,86.40088Z"/><path class="cls-5" d="M375.12207,82.97852v2.16357a3.7387,3.7387,0,0,1,3.3291-2.28809v3.61963h-.874a2.58246,2.58246,0,0,0-1.84082.58252,2.74423,2.74423,0,0,0-.61426,2.03858v5.4917h-3.55664V82.97852Z"/><path class="cls-5" d="M378.9082,82.97852h3.78614l2.6416,8.6333,2.64258-8.6333h3.78613l-4.11914,11.60791h-4.61817Z"/><path class="cls-5" d="M398.33789,94.73193a5.6102,5.6102,0,0,1-4.16016-1.63281,5.88251,5.88251,0,0,1-1.623-4.3374,5.79757,5.79757,0,0,1,1.6123-4.30615,5.66372,5.66372,0,0,1,4.1709-1.60157,5.96116,5.96116,0,0,1,4.24414,1.58057,5.72786,5.72786,0,0,1,1.68457,4.38965,7.08846,7.08846,0,0,1-.083,1.12305h-7.98828a2.02687,2.02687,0,0,0,1.94531,1.74755,2.83183,2.83183,0,0,0,1.00879-.13525,1.8003,1.8003,0,0,0,.48926-.27051,3.66736,3.66736,0,0,0,.40528-.44726h3.84863a5.10168,5.10168,0,0,1-1.99707,2.81884A5.95416,5.95416,0,0,1,398.33789,94.73193Zm1.51856-8.33105a2.26172,2.26172,0,0,0-1.47657-.50977,2.10007,2.10007,0,0,0-1.43554.50977,2.22,2.22,0,0,0-.72852,1.3208h4.34766A1.8868,1.8868,0,0,0,399.85645,86.40088Z"/><path class="cls-5" d="M410.11133,82.97852v2.16357a3.73869,3.73869,0,0,1,3.3291-2.28809v3.61963h-.874a2.58246,2.58246,0,0,0-1.84082.58252,2.74423,2.74423,0,0,0-.61426,2.03858v5.4917h-3.55664V82.97852Z"/><path class="cls-5" d="M959.91016,94.58643h-3.55664v-15.394h3.55664v8.6333l3.59863-4.84716H968.294l-4.97168,5.92871,4.97168,5.6792h-4.72266l-3.66113-4.63916Z"/><path class="cls-5" d="M974.53418,82.14648a1.46545,1.46545,0,0,0-1.58106,1.53956H969.5a4.199,4.199,0,0,1,1.4043-3.38038,5.56445,5.56445,0,0,1,3.73437-1.19628,5.27028,5.27028,0,0,1,3.61914,1.144,3.721,3.721,0,0,1,1.29,2.9126,3.60129,3.60129,0,0,1-.67578,2.26709,3.53847,3.53847,0,0,1-1.38379,1.165v.0835a3.49231,3.49231,0,0,1,2.33008,3.59863,4.02192,4.02192,0,0,1-1.36231,3.21387,5.58032,5.58032,0,0,1-3.76562,1.17529,6.03889,6.03889,0,0,1-3.9209-1.22705,4.42728,4.42728,0,0,1-1.51855-3.66113h3.45312a2.09641,2.09641,0,0,0,.51953,1.4458,1.80851,1.80851,0,0,0,1.38379.53027,1.73463,1.73463,0,0,0,1.33106-.47851,1.92158,1.92158,0,0,0,.44726-1.36231,1.50561,1.50561,0,0,0-.624-1.32129,3.64825,3.64825,0,0,0-2.03809-.43652h-.666v-2.8916h.666q2.37012,0,2.3711-1.66455A1.37664,1.37664,0,0,0,975.668,82.542,1.60058,1.60058,0,0,0,974.53418,82.14648Z"/><path class="cls-5" d="M981.73145,86.47363A3.17577,3.17577,0,0,1,983.042,83.894a5.55192,5.55192,0,0,1,3.54688-1.04,5.90892,5.90892,0,0,1,3.60937,1.01905,3.50678,3.50678,0,0,1,1.45606,2.78759h-3.64063a1.018,1.018,0,0,0-.416-.82177,2.05432,2.05432,0,0,0-1.06055-.21826q-1.39453,0-1.39356.853,0,.76978,1.70508,1.06055a13.89676,13.89676,0,0,1,3.1416.89453,2.72374,2.72374,0,0,1,1.70606,2.62109,3.16027,3.16027,0,0,1-1.39453,2.65235,5.75543,5.75543,0,0,1-3.51563,1.02978,6.12305,6.12305,0,0,1-3.53613-.96728,3.543,3.543,0,0,1-1.53906-2.86035h3.64062q.145,1.06128,1.49707,1.061a1.72278,1.72278,0,0,0,1.03028-.291.88574.88574,0,0,0,.40527-.749q0-.45776-.67578-.728a9.232,9.232,0,0,0-1.63281-.458q-.958-.18677-1.92481-.46778a3.6786,3.6786,0,0,1-1.64355-.978A2.50488,2.50488,0,0,1,981.73145,86.47363Z"/><path class="cls-5" d="M1009.585,94.58643l-.81152-2.45459h-5.24219l-.81055,2.45459h-3.78613l5.0752-14.645h4.32714l5.05469,14.645Zm-5.15918-5.15918h3.45313l-1.72657-5.20069Z"/><path class="cls-5" d="M1015.82617,93.06787a6.689,6.689,0,0,1,0-8.53955,4.90656,4.90656,0,0,1,3.75488-1.67432,3.93859,3.93859,0,0,1,3.4004,1.64307V82.97852h3.55761V94.52393a6.18944,6.18944,0,0,1-1.33105,4.05664,4.303,4.303,0,0,1-1.82031,1.28955,7.21932,7.21932,0,0,1-2.67286.458,7.29888,7.29888,0,0,1-4.22363-1.082,4.26569,4.26569,0,0,1-1.76758-3.30761h3.49414q.49952,1.311,2.49707,1.31054a2.18043,2.18043,0,0,0,1.62207-.65527,2.85932,2.85932,0,0,0,.64454-2.06982V92.90137a4.02022,4.02022,0,0,1-3.45313,1.83056A4.86221,4.86221,0,0,1,1015.82617,93.06787Zm6.38574-2.16357a2.82563,2.82563,0,0,0,.76954-2.12159,2.792,2.792,0,0,0-.76954-2.11181,2.47368,2.47368,0,0,0-3.53613.01074,2.82185,2.82185,0,0,0-.76953,2.12158,2.78567,2.78567,0,0,0,.76953,2.11133,2.47311,2.47311,0,0,0,3.53613-.01025Z"/><path class="cls-5" d="M1034.58984,94.73193a5.61017,5.61017,0,0,1-4.16015-1.63281,5.88252,5.88252,0,0,1-1.623-4.3374,5.79754,5.79754,0,0,1,1.61231-4.30615,5.66368,5.66368,0,0,1,4.17089-1.60157,5.96116,5.96116,0,0,1,4.24414,1.58057,5.72786,5.72786,0,0,1,1.68457,4.38965,7.08968,7.08968,0,0,1-.083,1.12305h-7.98828a2.02685,2.02685,0,0,0,1.94531,1.74755,2.83187,2.83187,0,0,0,1.00879-.13525,1.80021,1.80021,0,0,0,.48925-.27051,3.66654,3.66654,0,0,0,.40528-.44726h3.84863a5.10163,5.10163,0,0,1-1.99707,2.81884A5.95414,5.95414,0,0,1,1034.58984,94.73193Zm1.51856-8.33105a2.26169,2.26169,0,0,0-1.47656-.50977,2.10008,2.10008,0,0,0-1.43555.50977,2.22006,2.22006,0,0,0-.72852,1.3208h4.34766A1.8868,1.8868,0,0,0,1036.1084,86.40088Z"/><path class="cls-5" d="M1046.36328,82.97852v1.706a3.7991,3.7991,0,0,1,3.51563-1.83057,4.21321,4.21321,0,0,1,3.23535,1.33106,5.1108,5.1108,0,0,1,1.2373,3.61963v6.78174h-3.53613V88.2832a2.40061,2.40061,0,0,0-.59277-1.73681,2.48008,2.48008,0,0,0-3.26661,0,2.40061,2.40061,0,0,0-.59277,1.73681v6.30323h-3.55664V82.97852Z"/><path class="cls-5" d="M1062.29785,91.56982h1.26953v3.01661h-1.81054a4.70742,4.70742,0,0,1-3.02637-.86329,3.60348,3.60348,0,0,1-1.07129-2.96435V85.93262h-1.082v-2.9541h1.082V80.14941h3.55664v2.82911h2.33008v2.9541h-2.33008v4.82617Q1061.21582,91.57031,1062.29785,91.56982Z"/><rect class="cls-3" x="922.94085" y="138.01034" width="173.35423" height="53.69019" rx="5"/><rect class="cls-1" x="953.90039" y="609.66016" width="111.43555" height="111.43457" rx="5"/><rect class="cls-4" x="963.90046" y="619.65974" width="91.435" height="91.43535" rx="5"/><path class="cls-5" d="M1001.62012,663.46777a4.60982,4.60982,0,0,1-1.06055,2.85059,3.97433,3.97433,0,0,1-1.6748,1.1543,7.04636,7.04636,0,0,1-2.63184.44726h-2.20508v5.67871h-3.55664V658.99512h5.76172a5.60023,5.60023,0,0,1,3.95312,1.31054A4.15853,4.15853,0,0,1,1001.62012,663.46777Zm-7.57227,1.74805h2.20508a1.705,1.705,0,0,0,1.2793-.47852,1.72316,1.72316,0,0,0,.46875-1.25878,1.77529,1.77529,0,0,0-.47852-1.2793,1.67686,1.67686,0,0,0-1.26953-.499h-2.20508Z"/><path class="cls-5" d="M1004.68848,672.10156a5.64344,5.64344,0,0,1-1.75782-4.32715,5.56424,5.56424,0,0,1,1.74707-4.29589,6.59839,6.59839,0,0,1,8.64356,0,5.58372,5.58372,0,0,1,1.73633,4.29589,5.6975,5.6975,0,0,1-1.72657,4.32715,5.998,5.998,0,0,1-4.30566,1.64258A6.107,6.107,0,0,1,1004.68848,672.10156Zm6.043-2.14355a3.03575,3.03575,0,0,0,.707-2.16309,2.94394,2.94394,0,0,0-.72852-2.15332,2.34276,2.34276,0,0,0-1.72656-.73828,2.31018,2.31018,0,0,0-1.71582.73828,3.56309,3.56309,0,0,0,.02051,4.31641,2.35829,2.35829,0,0,0,1.7373.749A2.25954,2.25954,0,0,0,1010.73145,669.958Z"/><path class="cls-5" d="M1018.0332,672.08008a6.68833,6.68833,0,0,1,0-8.53906,4.907,4.907,0,0,1,3.75489-1.67481,3.93776,3.93776,0,0,1,3.40039,1.64356v-5.30469h3.55761v15.39355h-3.55761v-1.68457a4.01975,4.01975,0,0,1-3.45313,1.83008A4.86054,4.86054,0,0,1,1018.0332,672.08008Zm6.38575-2.16309a2.8268,2.8268,0,0,0,.76953-2.12207,2.79085,2.79085,0,0,0-.76953-2.11133,2.47368,2.47368,0,0,0-3.53614.01075,2.82068,2.82068,0,0,0-.76953,2.12109,2.78419,2.78419,0,0,0,.76953,2.11133,2.47254,2.47254,0,0,0,3.53614-.00977Z"/><rect class="cls-1" x="1106.21973" y="609.66016" width="111.43555" height="111.43457" rx="5"/><rect class="cls-4" x="1116.22007" y="619.65974" width="91.435" height="91.43535" rx="5"/><path class="cls-5" d="M1153.94043,663.46777a4.60982,4.60982,0,0,1-1.06055,2.85059,3.97433,3.97433,0,0,1-1.6748,1.1543,7.04633,7.04633,0,0,1-2.63184.44726h-2.20508v5.67871h-3.55664V658.99512h5.76172a5.60028,5.60028,0,0,1,3.95313,1.31054A4.15856,4.15856,0,0,1,1153.94043,663.46777Zm-7.57227,1.74805h2.20508a1.705,1.705,0,0,0,1.2793-.47852,1.72316,1.72316,0,0,0,.46875-1.25878,1.77529,1.77529,0,0,0-.47852-1.2793,1.67683,1.67683,0,0,0-1.26953-.499h-2.20508Z"/><path class="cls-5" d="M1157.00879,672.10156a5.64346,5.64346,0,0,1-1.75781-4.32715,5.56421,5.56421,0,0,1,1.74707-4.29589,6.59838,6.59838,0,0,1,8.64355,0,5.58372,5.58372,0,0,1,1.73633,4.29589,5.69753,5.69753,0,0,1-1.72656,4.32715,5.998,5.998,0,0,1-4.30567,1.64258A6.107,6.107,0,0,1,1157.00879,672.10156Zm6.043-2.14355a3.03575,3.03575,0,0,0,.707-2.16309,2.94394,2.94394,0,0,0-.72852-2.15332,2.34274,2.34274,0,0,0-1.72656-.73828,2.3102,2.3102,0,0,0-1.71582.73828,3.56313,3.56313,0,0,0,.02051,4.31641,2.3583,2.3583,0,0,0,1.7373.749A2.25954,2.25954,0,0,0,1163.05176,669.958Z"/><path class="cls-5" d="M1170.35352,672.08008a6.68833,6.68833,0,0,1,0-8.53906,4.907,4.907,0,0,1,3.75488-1.67481,3.93776,3.93776,0,0,1,3.40039,1.64356v-5.30469h3.55762v15.39355h-3.55762v-1.68457a4.01974,4.01974,0,0,1-3.45313,1.83008A4.86052,4.86052,0,0,1,1170.35352,672.08008Zm6.38574-2.16309a2.8268,2.8268,0,0,0,.76953-2.12207,2.79085,2.79085,0,0,0-.76953-2.11133,2.47368,2.47368,0,0,0-3.53614.01075,2.82068,2.82068,0,0,0-.76953,2.12109,2.78419,2.78419,0,0,0,.76953,2.11133,2.47254,2.47254,0,0,0,3.53614-.00977Z"/><rect class="cls-1" x="802.46582" y="609.66016" width="111.43457" height="111.43457" rx="5"/><rect class="cls-4" x="812.46546" y="619.65974" width="91.435" height="91.43535" rx="5"/><path class="cls-5" d="M850.18555,663.46777a4.60982,4.60982,0,0,1-1.06055,2.85059,3.97433,3.97433,0,0,1-1.6748,1.1543,7.04636,7.04636,0,0,1-2.63184.44726h-2.20508v5.67871h-3.55664V658.99512h5.76172a5.60025,5.60025,0,0,1,3.95312,1.31054A4.15853,4.15853,0,0,1,850.18555,663.46777Zm-7.57227,1.74805h2.20508a1.705,1.705,0,0,0,1.2793-.47852,1.72316,1.72316,0,0,0,.46875-1.25878,1.77529,1.77529,0,0,0-.47852-1.2793,1.67686,1.67686,0,0,0-1.26953-.499h-2.20508Z"/><path class="cls-5" d="M853.25391,672.10156a5.64344,5.64344,0,0,1-1.75782-4.32715,5.56421,5.56421,0,0,1,1.74707-4.29589,6.59839,6.59839,0,0,1,8.64356,0,5.58372,5.58372,0,0,1,1.73633,4.29589,5.6975,5.6975,0,0,1-1.72657,4.32715,5.998,5.998,0,0,1-4.30566,1.64258A6.107,6.107,0,0,1,853.25391,672.10156Zm6.043-2.14355a3.03575,3.03575,0,0,0,.707-2.16309,2.94394,2.94394,0,0,0-.72852-2.15332,2.34276,2.34276,0,0,0-1.72656-.73828,2.31018,2.31018,0,0,0-1.71582.73828,3.56309,3.56309,0,0,0,.02051,4.31641,2.35827,2.35827,0,0,0,1.7373.749A2.25954,2.25954,0,0,0,859.29688,669.958Z"/><path class="cls-5" d="M866.59863,672.08008a6.68833,6.68833,0,0,1,0-8.53906,4.907,4.907,0,0,1,3.75489-1.67481,3.93776,3.93776,0,0,1,3.40039,1.64356v-5.30469h3.55761v15.39355h-3.55761v-1.68457a4.01975,4.01975,0,0,1-3.45313,1.83008A4.86054,4.86054,0,0,1,866.59863,672.08008Zm6.38575-2.16309a2.8268,2.8268,0,0,0,.76953-2.12207,2.79085,2.79085,0,0,0-.76953-2.11133,2.47368,2.47368,0,0,0-3.53614.01075,2.82068,2.82068,0,0,0-.76953,2.12109,2.78419,2.78419,0,0,0,.76953,2.11133,2.47254,2.47254,0,0,0,3.53614-.00977Z"/><path class="cls-6" d="M993.95729,598.74854a15.791,15.791,0,1,1,15.791,15.79052A15.79283,15.79283,0,0,1,993.95729,598.74854Z"/><line class="cls-2" x1="1009.74829" y1="598.35339" x2="1009.74829" y2="637.75183"/><path class="cls-5" d="M1001.85278,598.74817a7.89551,7.89551,0,1,1,7.89551,7.89545A7.89639,7.89639,0,0,1,1001.85278,598.74817Z"/><polygon class="cls-5" points="1003.765 636.001 1009.748 646.363 1015.732 636.001 1003.765 636.001"/><path class="cls-6" d="M993.95729,474.64775a15.791,15.791,0,1,1,15.791,15.79053A15.79283,15.79283,0,0,1,993.95729,474.64775Z"/><line class="cls-2" x1="1009.74829" y1="474.25262" x2="1009.74829" y2="513.651"/><path class="cls-5" d="M1001.85278,474.6474a7.89551,7.89551,0,1,1,7.89551,7.89542A7.89639,7.89639,0,0,1,1001.85278,474.6474Z"/><polygon class="cls-5" points="1003.765 511.9 1009.748 522.263 1015.732 511.9 1003.765 511.9"/><path class="cls-2" d="M858.82642,637.75183V572.44489a20.95367,20.95367,0,0,1,20.89209-20.89216H925.26"/><polygon class="cls-5" points="864.81 636.001 858.826 646.363 852.843 636.001 864.81 636.001"/><circle class="cls-5" cx="924.86523" cy="551.55275" r="7.89552"/><path class="cls-6" d="M1111.02185,551.34333a15.791,15.791,0,1,0-15.791,15.79053A15.79283,15.79283,0,0,0,1111.02185,551.34333Z"/><path class="cls-2" d="M1162.08765,637.54187V572.235a20.95351,20.95351,0,0,0-20.89209-20.89216h-46.54151"/><polygon class="cls-5" points="1168.071 635.791 1162.088 646.153 1156.104 635.791 1168.071 635.791"/><circle class="cls-5" cx="1095.04883" cy="551.34283" r="7.89551"/></svg>