<svg id="Layer_1" data-name="Layer 1" xmlns="http://www.w3.org/2000/svg" viewBox="0 0 194.25619 159.08912"><defs><style>.cls-1{fill:#fd824e;}</style></defs><path class="cls-1" d="M173.69578,0H20.56053A20.62119,20.62119,0,0,0,0,20.56068V138.52845a20.62119,20.62119,0,0,0,20.56055,20.56067H173.69578a20.62119,20.62119,0,0,0,20.56055-20.56067V20.56068A20.62119,20.62119,0,0,0,173.69578,0ZM50.13816,138.89814a18.85053,18.85053,0,1,1,0-37.70105,18.66573,18.66573,0,0,1,8.9795,2.32251L45.227,111.59242a9.77954,9.77954,0,0,0-3.543,13.36859,9.7778,9.7778,0,0,0,13.36866,3.5426l13.91748-8.08844A18.86253,18.86253,0,0,1,50.13816,138.89814Zm37.43946-35.15655L52.50633,124.12287a4.71273,4.71273,0,1,1-4.73535-8.14959l35.0708-20.38123a4.71283,4.71283,0,0,1,4.73584,8.14954Zm-.22608-65.11847-.061,16.05963a18.84648,18.84648,0,1,1,19.55859.07916l.06055-16.06622a9.77912,9.77912,0,1,0-19.55811-.07257Zm14.33838,40.61371A4.71273,4.71273,0,0,1,96.978,83.932h-.01856a4.71315,4.71315,0,0,1-4.69482-4.73011l.15381-40.56a4.713,4.713,0,0,1,4.71191-4.69513h.01856a4.71314,4.71314,0,0,1,4.69482,4.7301Zm2.99219,18.03869a4.71113,4.71113,0,0,1,6.4375-1.72485l35.355,20.41254a4.71253,4.71253,0,1,1-4.7124,8.16241l-35.35547-20.41254A4.71226,4.71226,0,0,1,104.68211,97.27552Zm39.43652,41.61957A18.86233,18.86233,0,0,1,125.289,120.46522l13.939,8.04742a9.77912,9.77912,0,0,0,9.77978-16.93756l-13.91259-8.03277a18.66318,18.66318,0,0,1,9.02343-2.34833,18.85056,18.85056,0,1,1,0,37.70111Z"/></svg>