<?xml version="1.0" encoding="utf-8"?>
<!-- Generator: Adobe Illustrator 23.0.6, SVG Export Plug-In . SVG Version: 6.00 Build 0)  -->
<svg version="1.1" id="Layer_1" xmlns="http://www.w3.org/2000/svg" xmlns:xlink="http://www.w3.org/1999/xlink" x="0px" y="0px"
	 viewBox="0 0 537.0773315 111.362381" style="enable-background:new 0 0 537.0773315 111.362381;" xml:space="preserve">
<style type="text/css">
	.st0{fill:#FFFFFF;stroke:#000000;stroke-miterlimit:10;}
	.st1{fill:#FFFFFF;}
	.st2{fill:#5F224A;}
</style>
<rect x="6.8995399" y="10" class="st0" width="120.6106186" height="90.3087921"/>
<title>longhorn</title>
<path class="st1" d="M163.8199005,30.4260006h12.4963684v41.2306976h21.0270538v9.2784958h-33.5234222V30.4260006z"/>
<path class="st1" d="M199.3663635,54.9705009c0-18.1842995,9.6529999-25.4421806,23.197464-25.4421806
	c13.3191223,0,22.9721527,7.2578812,22.9721527,25.4421806c0,20.203701-9.9519958,26.8635597-22.9721527,26.8635597
	C209.0193939,81.8340607,199.3663635,74.5749969,199.3663635,54.9705009z M232.739975,54.9705009
	c0-12.571888-4.9382629-16.6131096-10.326004-16.6131096S212.162323,42.398613,212.162323,54.9705009
	c0,13.9920006,4.8639984,18.033268,10.2516479,18.033268s10.3260345-4.0412216,10.3260345-18.033268H232.739975z"/>
<path class="st1" d="M252.3462524,30.4260006h13.3940125l13.2454224,25.0682697
	c1.1217651,2.1704216,2.6186218,5.9851112,3.8158875,8.9788818h0.2996216
	c-0.1498108-2.8427391-0.5237427-6.8839989-0.5237427-9.8022308V30.4260006h10.2516479v50.509201H279.733551L265.9656067,55.94244
	c-1.3985901-2.6616631-2.6233521-5.4110794-3.666687-8.230999h-0.2996216
	c0.2247314,2.8440018,0.5986328,6.2116508,0.5986328,8.9788818v24.2448807h-10.2516785V30.4260006z"/>
<path class="st1" d="M322.312561,55.4187202h20.802948v25.5164833h-8.4551392v-8.5306702
	c-1.7965088,5.6124115-5.837738,9.4295273-14.5169983,9.4295273c-11.6742554,0-20.4290161-8.0824509-20.4290161-26.4153404
	s8.8302917-25.8903999,22.5982056-25.8903999c15.4901428,0,21.5507812,8.7547684,19.8297729,17.6593475l-11.747345,1.2715607
	c0.897644-6.9582596-2.544342-10.101841-7.4832153-10.101841c-5.4625854,0-10.2516479,3.9657097-10.2516479,17.2854309
	s4.115509,17.0613289,10.1761475,17.0613289c5.6123962,0,8.756012-3.4420013,8.9057922-6.8840027v-1.4213333h-9.4295349
	L322.312561,55.4187202z"/>
<path class="st1" d="M350.5999451,30.4260006h12.4963684V49.506691h15.340332V30.4260006h12.4963684v50.509201h-12.4963684
	V59.5354614h-15.340332v21.3997421h-12.4963684V30.4260006z"/>
<path class="st1" d="M397.743927,54.9705009c0-18.1842995,9.6524353-25.4421806,23.1962585-25.4421806
	c13.3197327,0,22.9733582,7.2578812,22.9733582,25.4421806c0,20.203701-9.9519958,26.8635597-22.9733582,26.8635597
	C407.3963318,81.8340607,397.743927,74.5749969,397.743927,54.9705009z M431.1175537,54.9705009
	c0-12.571888-4.9388733-16.6131096-10.3259583-16.6131096c-5.3883057,0-10.2516479,4.0412216-10.2516479,16.6131096
	c0,13.9920006,4.8633728,18.033268,10.2516479,18.033268c5.3870544,0,10.3259277-4.0412216,10.3259277-18.033268H431.1175537z"/>
<path class="st1" d="M450.7232056,30.4260006h20.802948c9.8777466,0,16.5375977,4.7890606,16.5375977,14.0675602
	c0.0561218,6.3286438-4.1015015,11.923214-10.1773682,13.6948624c1.4805908,1.3453827,2.6766357,2.9737854,3.5174866,4.7890587
	c2.0949097,4.2653313,3.5162659,8.978878,7.931427,8.978878c0.6903687-0.0038605,1.3745728-0.1304703,2.0205994-0.3739166
	l-0.973175,8.9045868c-1.6433105,0.3970947-3.3233337,0.6228104-5.0131836,0.6735306
	c-5.9863281,0-9.4283142-2.3202286-12.9458008-10.3271713c-1.4956665-3.5905762-3.5917969-9.877739-6.3602295-9.877739h-2.8439941
	v19.9795532h-12.4963074V30.4260006z M463.219574,39.4803925v12.420826h4.4906616
	c3.5917969,0,7.7816162-1.1217499,7.7816162-6.5088387c0-4.4151382-2.8427429-5.9119987-6.2859497-5.9119987L463.219574,39.4803925z
	"/>
<path class="st1" d="M496.5944214,30.4260006h13.3952332l13.2442322,25.0682697
	c1.1229858,2.1704216,2.6186523,5.9851112,3.815918,8.9788818h0.2996216
	c-0.1497803-2.8427391-0.5237427-6.8839989-0.5237427-9.8022308V30.4260006h10.2516479v50.509201h-13.0944214L510.2137451,55.94244
	c-1.3981323-2.6617966-2.6227112-5.4111977-3.6661072-8.230999h-0.2996521
	c0.2241211,2.8440018,0.5979919,6.2116508,0.5979919,8.9788818v24.2448807h-10.2515564V30.4260006z"/>
<path class="st2" d="M67.989502,56.4387093c-0.4602051,0.0000076-0.9192886-0.04533-1.3705978-0.1353493l-3.6987495-0.7384491
	l3.1840019,19.5881653c0.0606689,0.3712997,0.0910797,0.7469177,0.0909195,1.1231384h3.5881805
	c0.0000534-0.4219666,0.0382614-0.8430634,0.1141586-1.2581482l3.5686874-19.5344658L69.3600998,56.30336
	C68.9087906,56.3933792,68.449707,56.4387169,67.989502,56.4387093z"/>
<path class="st2" d="M121.586647,0H14.3924398C6.4533525,0.0232203,0.0232204,6.4533525,0,14.3924398v82.5772781
	c0.0232182,7.9390869,6.4533534,14.3692169,14.3924398,14.3924332H121.586647
	c7.9390488-0.0232544,14.3691483-6.4533768,14.3923569-14.3924332V14.3924398
	C135.9557953,6.4533811,129.5257111,0.0232549,121.586647,0z M124.0051041,29.1066399l-1.751358,11.8999977
	c-0.4307556,2.9263382-2.654274,5.2661438-5.5548706,5.8453979l-28.4672699,5.6836014
	c-0.0048676,0.0284996-0.0059967,0.0567398-0.0111923,0.0852394l-4.456337,24.3953362
	c-0.4026108,7.4299622-6.5399704,13.2508926-13.9808273,13.2600021h-3.5881805
	c-7.4721413-0.0089417-13.623848-5.8772507-13.9849281-13.3406677l-3.9490013-24.2973595l-28.9810181-5.7861862
	c-2.9005985-0.5792542-5.1241131-2.9190636-5.5548706-5.8454018l-1.7513599-11.8999996
	c-0.5585079-3.8254814,2.0898972-7.3794079,5.9153805-7.9379177c3.8192558-0.5575981,7.3691788,2.0814743,7.9355698,5.899437
	l1.0329094,7.0205002l41.131752,8.2120018l41.1317444-8.211998l1.0329132-7.0205002
	c0.5668411-3.8242569,4.1265259-6.4649143,7.9507828-5.8980732c3.8187027,0.5660172,6.4583359,4.1166973,5.9001694,7.936554
	L124.0051041,29.1066399z"/>
</svg>
