<?xml version="1.0" encoding="utf-8"?>
<!-- Generator: Adobe Illustrator 23.0.6, SVG Export Plug-In . SVG Version: 6.00 Build 0)  -->
<svg version="1.1" id="Layer_1" xmlns="http://www.w3.org/2000/svg" xmlns:xlink="http://www.w3.org/1999/xlink" x="0px" y="0px"
	 viewBox="0 0 290.1343689 111.362381" style="enable-background:new 0 0 290.1343689 111.362381;" xml:space="preserve">
<style type="text/css">
	.st0{fill:#FFFFFF;}
	.st1{fill:#2E68E9;}
</style>
<rect x="2.9946964" y="5.6362824" class="st0" width="127.0053024" height="97.3637161"/>
<path class="st0" d="M163.8198547,30.3139095h20.802948c9.8777466,0,16.5375977,4.7890606,16.5375977,14.0675602
	c0.0561066,6.3286514-4.101532,11.9232178-10.1773987,13.6948586c1.4806061,1.3453865,2.6766357,2.9737854,3.5175018,4.7890587
	c2.0949097,4.2653275,3.5162811,8.9788818,7.931427,8.9788818c0.6903839-0.0038605,1.3745728-0.1304703,2.0206146-0.3739166
	l-0.9731445,8.9045792c-1.6432953,0.3971024-3.3233337,0.622818-5.0131683,0.6735382
	c-5.9863281,0-9.4283142-2.3202286-12.945816-10.3271713c-1.4956665-3.5905762-3.5917969-9.877739-6.3602448-9.877739h-2.8439941
	v19.9795914h-12.4963226V30.3139095z M176.3162384,39.3683014v12.4208603h4.4906464
	c3.5917969,0,7.7816162-1.1217499,7.7816162-6.508831c0-4.4151421-2.8427429-5.9119987-6.2859955-5.9119987L176.3162384,39.3683014z
	"/>
<path class="st0" d="M209.6910553,30.3139095h12.4963837v14.1430912c0,1.5711784-0.2241058,3.8902016-0.3739166,5.6124115h0.2996216
	c0.9427948-1.6388855,1.9925079-3.2138824,3.1423645-4.7147598l12.3477783-15.04072h13.4683228l-16.4620819,19.8297558
	L251.97052,80.8231506h-14.3672333l-11.6742401-21.1756401l-3.7416077,4.5649529v16.6106873h-12.4963837V30.3139095z"/>
<path class="st0" d="M255.9374084,30.3139095h33.4479065v9.2784977h-20.9515381V50.443306h17.5850525v9.2784996h-17.5850525
	v11.8228416h21.700592v9.2785034h-34.196991L255.9374084,30.3139095z"/>
<circle class="st1" cx="34.9080582" cy="76.3942108" r="7"/>
<path class="st1" d="M71.4586182,58.6818199c-0.2091827,0-0.4169998-0.0108109-0.6231003-0.0293884
	c1.8463287,3.982708,2.9659958,8.26334,3.3061981,12.6400032h14.9655838
	c2.1539536-3.7998352,5.6450806-6.6619644,9.7935104-8.0289993v-4.5833244H71.4873276L71.4586182,58.6818199z"/>
<path class="st1" d="M42.107151,27.7440796V37.39048c8.0478706,1.0923386,15.5138435,4.7988777,21.2491684,10.5493088
	l-4.8880005-20.1957092H42.107151z"/>
<circle class="st1" cx="104.3382797" cy="79.8942108" r="3.5"/>
<path class="st1" d="M121.5868912,0H14.3923798C6.4533048,0.0232533,0.0232034,6.4533954,0,14.3924704v82.5774384
	c0.023208,7.9390717,6.4533062,14.3692093,14.3923798,14.3924713h107.1945114
	c7.9390793-0.0232544,14.3691788-6.453392,14.3923874-14.3924713V14.3924704
	C135.9560699,6.4533916,129.5259705,0.0232492,121.5868912,0z M34.9080582,97.3942108c-11.5979805,0-21-9.4020233-21-21
	s9.4020195-21,21-21s21,9.4020233,21,21l0,0C55.8949356,87.9867554,46.5005989,97.3810883,34.9080582,97.3942108z
	 M104.3382797,97.3942108c-7.5813675-0.0099869-14.2970352-4.8928909-16.6441422-12.1017914H67.2579269
	c-3.8627586-0.0000763-6.9953957-3.1290436-7-6.9917984l-0.0047798-4.1080017
	C60.2423782,61.4186592,49.8922424,51.0646782,37.1182899,51.04916H25.6086197c-3.8659935,0-7-3.1340065-7-7s3.1340065-7,7-7
	h2.4985294v-9.3050804h-2.4985294c-3.8659935,0-7-3.1340065-7-7s3.1340065-7,7-7h38.367382
	c3.2316475,0.0001955,6.0432396,2.2123499,6.8038139,5.35322l6.1923294,25.5828075h26.4150925
	c5.25177,0.0058708,9.5077133,4.2618065,9.5135803,9.5135803v10.4468918
	c8.4273148,4.7259903,11.4278336,15.3888474,6.7018433,23.8161621
	C116.506279,93.9781647,110.6686707,97.3961563,104.3382797,97.3942108z"/>
</svg>
