<svg id="Layer_1" data-name="Layer 1" xmlns="http://www.w3.org/2000/svg" viewBox="0 0 283.62357 111.36238"><defs><style>.cls-1{fill:#384745;}.cls-2{fill:#72c2cf;}</style></defs><path class="cls-1" d="M163.81973,30.426h20.80293c9.87713,0,16.537,4.78906,16.537,14.06756A14.13486,14.13486,0,0,1,190.9829,58.18838a14.974,14.974,0,0,1,3.51689,4.78906c2.09552,4.26533,3.51689,8.97888,7.932,8.97888a5.82687,5.82687,0,0,0,2.02061-.37392l-.97316,8.90459a24.47644,24.47644,0,0,1-5.01316.67353c-5.98633,0-9.42892-2.32023-12.94581-10.32717-1.49628-3.59058-3.5918-9.87774-6.36024-9.87774h-2.844V80.9352H163.81973Zm12.49637,9.05439V51.90122h4.49c3.5918,0,7.78222-1.12175,7.78222-6.50884,0-4.41514-2.84335-5.912-6.28594-5.912Z"/><path class="cls-1" d="M207.44621,30.426H233.487v8.83029h-6.80967V72.10613H233.487V80.9352H207.44621V72.10613H214.181V39.25625h-6.73477Z"/><path class="cls-1" d="M237.454,54.9705c0-18.1843,9.653-25.44218,23.19686-25.44218,13.31911,0,22.97275,7.25788,22.97275,25.44218,0,20.2037-9.952,26.86356-22.97275,26.86356C247.107,81.83406,237.454,74.575,237.454,54.9705Zm33.37361,0c0-12.57189-4.93887-16.61311-10.32595-16.61311-5.3877,0-10.25166,4.04122-10.25166,16.61311,0,13.992,4.864,18.03327,10.25166,18.03327C265.8887,73.00377,270.82757,68.96255,270.82757,54.9705Z"/><path class="cls-2" d="M113.31472,62.45219c-5.02715,2.45683-13.62539,5.86113-22.6625,5.86113S73.01687,64.909,67.989,62.45219c-5.02715,2.45683-13.62539,5.86113-22.66182,5.86113-9.03779,0-17.63672-3.405-22.66523-5.86113C17.63484,64.909,9.03694,68.31315,0,68.31332V96.96991a14.43487,14.43487,0,0,0,14.39255,14.39247H121.58689a14.43473,14.43473,0,0,0,14.39238-14.39247V68.31332C126.94182,68.31315,118.34307,64.90829,113.31472,62.45219Z"/><path class="cls-2" d="M18.26921,45.76293l4.39961-2.68448,4.40508,2.6961c2.60654,1.59,11.0086,5.747,18.25332,5.747,8.70352,0,18.15625-5.68887,18.24922-5.74629l4.4126-2.72617L72.401,45.77455c2.60655,1.59,11.00791,5.747,18.25127,5.747s15.644-4.15693,18.26973-5.75859l4.39961-2.68448,4.40508,2.6961c2.60637,1.59,11.00808,5.7468,18.25263,5.747V14.39247A14.43472,14.43472,0,0,0,121.58689,0H14.39255A14.43487,14.43487,0,0,0,0,14.39247V51.52152C7.24319,51.52126,15.64353,47.36454,18.26921,45.76293Z"/></svg>