<?xml version="1.0" encoding="utf-8"?>
<!-- Generator: Adobe Illustrator 19.2.1, SVG Export Plug-In . SVG Version: 6.00 Build 0)  -->
<svg version="1.1" id="Layer_1" xmlns="http://www.w3.org/2000/svg" xmlns:xlink="http://www.w3.org/1999/xlink" x="0px" y="0px"
	 viewBox="0 0 637.1 93.8" style="enable-background:new 0 0 637.1 93.8;" xml:space="preserve">
<style type="text/css">
	.st0{fill:#0075A8;}
	.st1{fill:#59595B;}
	.st2{fill:#CCCCCC;}
	.st3{fill:#B3B3B3;}
	.st4{fill:#FFFFFF;}
</style>
<g>
	<g>
		<path class="st4" d="M199.9,20.6l-2.2-13C197,3.4,195.4,0,194.1,0c-1.3,0-2.4,3.5-2.4,7.7v3.4c0,4.2-3.5,7.7-7.7,7.7h-3.4
			c-0.2,0-0.5,0-0.7,0v9.4c0.2,0,0.5,0,0.7,0h12.8C197.7,28.2,200.6,24.8,199.9,20.6"/>
		<path class="st4" d="M169.2,9.6h-20.8c-0.2,0-0.3,0-0.5,0h-21.3c-0.3,0-0.5,0-0.7,0.1v-2c0-4.2-1.1-7.7-2.4-7.7
			c-1.3,0-2.9,3.4-3.6,7.6l-2.2,13c-0.7,4.2,2.2,7.6,6.4,7.6H137c1.3,0,2.6-0.2,3.6-0.6c-0.4,2.2-2.3,3.8-4.6,3.8h-18
			c-2.9,0-5.1-2.6-4.6-5.5l1.8-10.9c0.5-2.9-1.7-5.5-4.6-5.5H21.3c-1.9,0-3.5,1.1-4.3,2.8L0.2,38c-0.3,0.4-0.3,1,0.1,1.4l3.3,3.9
			c0.4,0.5,1.1,0.6,1.6,0.2l11.4-9v54.8c0,2.6,2.1,4.7,4.7,4.7h25.4c2.6,0,4.7-2.1,4.7-4.7v-19c0-2.6,2.1-4.7,4.7-4.7h63.3
			c2.6,0,4.7,2.1,4.7,4.7v19c0,2.6,2.1,4.7,4.7,4.7h25.4c2.6,0,4.7-2.1,4.7-4.7V68.6h-13.5c-4.2,0-7.7-3.5-7.7-7.7V47.8
			c0-2.5,1.2-4.7,3.1-6.1v15.7c0,4.2,3.5,7.7,7.7,7.7h20.8c4.2,0,7.7-3.5,7.7-7.7v-40C176.9,13.1,173.4,9.6,169.2,9.6"/>
	</g>
	<g>
		<g>
			<path class="st4" d="M216.9,12.2h28.6c13.6,0,22.7,6.6,22.7,19.3c0,10.4-7.1,16.6-14,18.8c2.1,1.7,3.6,4.1,4.8,6.6
				c2.9,5.9,4.8,12.3,10.9,12.3c1.5,0,2.8-0.5,2.8-0.5L271.4,81c0,0-3.7,0.9-6.9,0.9c-8.2,0-12.9-3.2-17.8-14.2
				c-2.1-4.9-4.9-13.6-8.7-13.6h-3.9v27.4h-17.2V12.2z M234.1,24.7v17h6.2c4.9,0,10.7-1.5,10.7-8.9c0-6.1-3.9-8.1-8.6-8.1H234.1z"/>
			<path class="st4" d="M291.4,12.2h17.4l23.4,69.3h-17.4l-4.3-13.1h-23.2l-4.2,13.1h-15L291.4,12.2z M291.4,55.7h14.9l-4.7-14.6
				c-1.6-4.9-2.4-11.9-2.4-11.9h-0.4c0,0-1,7.1-2.6,11.8L291.4,55.7z"/>
			<path class="st4" d="M332.9,12.2h18.4l18.2,34.4c1.5,3,3.6,8.2,5.2,12.3h0.4c-0.2-3.9-0.7-9.4-0.7-13.5V12.2h14.1v69.3h-18
				l-18.9-34.3c-1.7-3.1-3.6-7.6-5-11.3h-0.4c0.3,3.9,0.8,8.5,0.8,12.3v33.3h-14.1V12.2z"/>
			<path class="st4" d="M392.1,46.5c0-25.1,12.4-35.4,31.6-35.4c20.2,0,28.3,11.1,26.1,26.1l-16,1.4c1.7-11-2.6-15.4-10.4-15.4
				c-7.5,0-13.6,5.5-13.6,23.4c0,18.9,6.6,23.7,14.1,23.7c7.1,0,12.8-4.4,11.6-13.5l15,1.5c1.1,14.1-9,24.4-27.5,24.4
				C404.3,82.8,392.1,71.7,392.1,46.5"/>
			<polygon class="st4" points="454.1,12.2 471.2,12.2 471.2,38.4 492.3,38.4 492.3,12.2 509.4,12.2 509.4,81.6 492.3,81.6 
				492.3,52.2 471.2,52.2 471.2,81.6 454.1,81.6 			"/>
			<polygon class="st4" points="516.3,12.2 562.2,12.2 562.2,25 533.4,25 533.4,39.9 557.6,39.9 557.6,52.6 533.4,52.6 533.4,68.8 
				563.2,68.8 563.2,81.6 516.3,81.6 			"/>
			<path class="st4" d="M566.5,12.2h28.6c13.6,0,22.7,6.6,22.7,19.3c0,10.4-7.1,16.6-14,18.8c2.1,1.7,3.6,4.1,4.8,6.6
				c2.9,5.9,4.8,12.3,10.9,12.3c1.5,0,2.8-0.5,2.8-0.5L620.9,81c0,0-3.7,0.9-6.9,0.9c-8.2,0-12.9-3.2-17.8-14.2
				c-2.1-4.9-4.9-13.6-8.7-13.6h-3.9v27.4h-17.2V12.2z M583.7,24.7v17h6.2c4.9,0,10.7-1.5,10.7-8.9c0-6.1-3.9-8.1-8.6-8.1H583.7z"/>
		</g>
		<g>
			<path class="st4" d="M624.1,16.6c0-3.9,2.9-5.6,5.6-5.6c2.7,0,5.6,1.7,5.6,5.6c0,3.8-2.9,5.5-5.6,5.5
				C627,22.2,624.1,20.5,624.1,16.6z M633.9,16.6c0-3.1-2-4.4-4.2-4.4c-2.2,0-4.3,1.3-4.3,4.4c0,3,2.1,4.4,4.3,4.4
				C631.9,21,633.9,19.7,633.9,16.6z M627.8,13.8h2c1,0,2,0.3,2,1.7c0,0.8-0.6,1.3-1.3,1.5l1.3,2.3h-1.2l-1.2-2.2h-0.5v2.2h-1.1
				V13.8z M629.9,16.3c0.5,0,0.9-0.3,0.9-0.8c0-0.6-0.5-0.7-0.9-0.7h-1v1.5H629.9z"/>
		</g>
	</g>
</g>
</svg>
