<svg id="Layer_1" data-name="Layer 1" xmlns="http://www.w3.org/2000/svg" viewBox="0 0 194.25623 159.08911"><defs><style>.cls-1{fill:#2adfc3;}</style></defs><path class="cls-1" d="M48.55243,48.55139V69.54456h99.44189a17.73,17.73,0,0,1,17.71,17.71044v25.57276a17.72991,17.72991,0,0,1-17.71,17.71H0v7.99072a20.62115,20.62115,0,0,0,20.56073,20.56067H173.6955a20.62115,20.62115,0,0,0,20.56073-20.56067v-89.977Z"/><path class="cls-1" d="M145.70428,110.53772V89.54456H46.26239a17.73034,17.73034,0,0,1-17.71-17.71045V46.26135a17.73024,17.73024,0,0,1,17.71-17.71H194.25623V20.56067A20.62115,20.62115,0,0,0,173.6955,0H20.56073A20.62115,20.62115,0,0,0,0,20.56067v89.977Z"/></svg>