<svg id="Layer_1" data-name="Layer 1" xmlns="http://www.w3.org/2000/svg" viewBox="0 0 194.25619 159.08912"><defs><style>.cls-1{fill:#2e68e9;}</style></defs><circle class="cls-1" cx="49.86871" cy="109.13459" r="10"/><path class="cls-1" d="M102.0838,83.83119c-.29883,0-.59571-.01544-.89014-.042a52.63067,52.63067,0,0,1,4.72314,18.05712h21.3794a25.11915,25.11915,0,0,1,13.99072-11.47V83.82875H102.12481C102.11138,83.82881,102.09747,83.83119,102.0838,83.83119Z"/><path class="cls-1" d="M60.15313,39.63441V53.415a52.92742,52.92742,0,0,1,30.356,15.07043l-6.98291-28.851Z"/><circle class="cls-1" cx="149.05474" cy="114.13459" r="5"/><path class="cls-1" d="M173.69561,0H20.5606A20.621,20.621,0,0,0,.00006,20.56068V138.52845A20.621,20.621,0,0,0,20.5606,159.08912h153.135a20.621,20.621,0,0,0,20.56055-20.56067V20.56068A20.621,20.621,0,0,0,173.69561,0ZM49.86871,139.13459a30,30,0,1,1,30-30A30.034,30.034,0,0,1,49.86871,139.13459Zm99.186,0a25.04055,25.04055,0,0,1-23.77734-17.28827H96.08282a10.00019,10.00019,0,0,1-10-9.98828l-.00684-5.86865a33.08994,33.08994,0,0,0-33.0498-33.062H36.5838a10,10,0,1,1,0-20h3.56933v-13.293H36.5838a10,10,0,1,1,0-20H91.39434a10.00128,10.00128,0,0,1,9.71973,7.64746l8.84619,36.54688H147.6961a13.606,13.606,0,0,1,13.59082,13.59082V92.3437a24.99232,24.99232,0,0,1-12.23218,46.79089Z"/></svg>