<svg id="Layer_1" data-name="Layer 1" xmlns="http://www.w3.org/2000/svg" viewBox="0 0 290.13436 111.36238"><defs><style>.cls-1{fill:#384745;}.cls-2{fill:#2e68e9;}</style></defs><path class="cls-1" d="M163.81986,30.31391H184.6228c9.87774,0,16.5376,4.78906,16.5376,14.06756A14.13465,14.13465,0,0,1,190.983,58.07633a14.976,14.976,0,0,1,3.5175,4.78906c2.09491,4.26533,3.51628,8.97888,7.93142,8.97888a5.82257,5.82257,0,0,0,2.02061-.37392l-.97315,8.90458a24.46818,24.46818,0,0,1-5.01317.67354c-5.98633,0-9.42831-2.32023-12.94581-10.32717-1.49567-3.59058-3.5918-9.87774-6.36024-9.87774h-2.844V80.82315H163.81986Zm12.49638,9.05439V51.78916h4.49065c3.5918,0,7.78162-1.12175,7.78162-6.50883,0-4.41514-2.84275-5.912-6.286-5.912Z"/><path class="cls-1" d="M209.69106,30.31391h12.49638V44.457c0,1.57118-.2241,3.8902-.37391,5.61241h.29962a43.05126,43.05126,0,0,1,3.14236-4.71476l12.34778-15.04072h13.46832L234.60952,50.14369l17.361,30.67946H237.60329L225.92905,59.64751l-3.74161,4.56495V80.82315H209.69106Z"/><path class="cls-1" d="M255.93741,30.31391h33.4479v9.2785H268.43378v10.8509h17.58506v9.2785H268.43378V71.54465h21.70058v9.2785h-34.197Z"/><circle class="cls-2" cx="34.90806" cy="76.39421" r="7"/><path class="cls-2" d="M71.45862,58.68182c-.20918,0-.417-.01081-.6231-.02939a36.84154,36.84154,0,0,1,3.3062,12.64H89.1073a17.58337,17.58337,0,0,1,9.79351-8.029V58.68011H71.48733Z"/><path class="cls-2" d="M42.10715,27.74408v9.6464A37.04921,37.04921,0,0,1,63.35632,47.93979l-4.888-20.19571Z"/><circle class="cls-2" cx="104.33828" cy="79.89421" r="3.5"/><path class="cls-2" d="M121.58689,0H14.39238A14.43472,14.43472,0,0,0,0,14.39247V96.96991a14.43473,14.43473,0,0,0,14.39238,14.39247H121.58689a14.43473,14.43473,0,0,0,14.39238-14.39247V14.39247A14.43472,14.43472,0,0,0,121.58689,0ZM34.90806,97.39421a21,21,0,1,1,21-21A21.02381,21.02381,0,0,1,34.90806,97.39421Zm69.43022,0A17.52839,17.52839,0,0,1,87.69414,85.29242H67.25793a7.00014,7.00014,0,0,1-7-6.9918l-.00478-4.108A23.163,23.163,0,0,0,37.11829,51.04916H25.60862a7,7,0,0,1,0-14h2.49853V27.74408H25.60862a7,7,0,0,1,0-14H63.976a7.00089,7.00089,0,0,1,6.80381,5.35322l6.19233,25.58281h26.41509a9.52423,9.52423,0,0,1,9.51358,9.51358V64.64058a17.49463,17.49463,0,0,1-8.56253,32.75363Z"/></svg>