<?xml version="1.0" encoding="utf-8"?>
<!-- Generator: Adobe Illustrator 23.0.6, SVG Export Plug-In . SVG Version: 6.00 Build 0)  -->
<svg version="1.1" id="Layer_1" xmlns="http://www.w3.org/2000/svg" xmlns:xlink="http://www.w3.org/1999/xlink" x="0px" y="0px"
	 viewBox="0 0 283.6235657 111.362381" style="enable-background:new 0 0 283.6235657 111.362381;" xml:space="preserve">
<style type="text/css">
	.st0{fill:#FFFFFF;}
	.st1{fill:#72C2CF;}
</style>
<rect y="30.4260006" class="st0" width="135.9793243" height="62.5739975"/>
<path class="st0" d="M163.8197327,30.4260006h20.8029327c9.8771362,0,16.5370026,4.7890606,16.5370026,14.0675602
	c0.0560913,6.3284378-4.1012115,11.9228897-10.1767731,13.6948204c1.480423,1.3454094,2.6762543,2.9738121,3.5168915,4.7890587
	c2.09552,4.2653275,3.5168915,8.9788818,7.9320068,8.9788818c0.6903687-0.003952,1.3745422-0.1305618,2.0206146-0.3739166
	l-0.9731598,8.9045868c-1.6433105,0.3970337-3.3233185,0.6227493-5.0131531,0.6735306
	c-5.9863281,0-9.4289246-2.3202286-12.945816-10.3271713c-1.4962769-3.5905838-3.5917969-9.877739-6.3602448-9.877739H176.31604
	v19.9795914h-12.4963074V30.4260006z M176.3161011,39.4803925v12.420826h4.4900055
	c3.5917969,0,7.7822266-1.1217499,7.7822266-6.5088387c0-4.4151382-2.8433533-5.9119987-6.2859344-5.9119987L176.3161011,39.4803925
	z"/>
<path class="st0" d="M207.4462128,30.4260006h26.0407867v8.8302898h-6.8096771v32.8498421h6.8096771v8.829071h-26.0407867v-8.829071
	h6.734787v-32.849884h-6.7347717L207.4462128,30.4260006z"/>
<path class="st0" d="M237.4539948,54.9705009c0-18.1842995,9.6529999-25.4421806,23.1968536-25.4421806
	c13.3191223,0,22.9727478,7.2578812,22.9727478,25.4421806c0,20.203701-9.9519958,26.8635597-22.9727478,26.8635597
	C247.1069946,81.8340607,237.4539948,74.5749969,237.4539948,54.9705009z M270.8276062,54.9705009
	c0-12.571888-4.9388733-16.6131096-10.3259583-16.6131096c-5.3876953,0-10.2516632,4.0412216-10.2516632,16.6131096
	c0,13.9920006,4.8639984,18.033268,10.2516632,18.033268c5.3870544,0,10.3259277-4.0412216,10.3259277-18.033268H270.8276062z"/>
<path class="st1" d="M113.3147202,62.4521904c-5.027153,2.4568291-13.6253891,5.8611336-22.6624985,5.8611336
	s-17.6353531-3.4043274-22.6632233-5.8611336c-5.0271492,2.4568291-13.6253891,5.8611336-22.6618195,5.8611336
	c-9.0377884,0-17.6367207-3.4049988-22.6652298-5.8611298C17.63484,64.9089966,9.0369396,68.3131485,0,68.3133163v28.6565933
	c0.023285,7.9391098,6.4534421,14.3692322,14.3925505,14.3924713h107.1943436
	c7.9390793-0.0232544,14.3691788-6.453392,14.3923874-14.3924713V68.3133163
	C126.9418182,68.3131485,118.343071,64.908287,113.3147202,62.4521904z"/>
<path class="st1" d="M18.2692108,45.7629318l4.3996105-2.6844788l4.4050808,2.6960983
	c2.6065407,1.5900002,11.0086021,5.7470016,18.2533226,5.7470016c8.7035217,0,18.15625-5.6888695,18.2492218-5.7462921
	l4.4125977-2.7261696l4.4119568,2.7254601c2.6065521,1.5900002,11.0079117,5.7470016,18.2512665,5.7470016
	s15.6439972-4.156929,18.2697296-5.7585907l4.3996124-2.6844788l4.4050827,2.6960983
	c2.606369,1.5900002,11.0080795,5.7467995,18.2526321,5.7470016V14.3924704
	C135.9561157,6.4533734,129.5259857,0.0232241,121.5868912,0H14.3925505C6.4534421,0.0232413,0.0232854,6.453362,0,14.3924704
	v37.1290474C7.2431898,51.5212593,15.6435299,47.3645401,18.2692108,45.7629318z"/>
</svg>
