<?xml version="1.0" encoding="utf-8"?>
<!-- Generator: Adobe Illustrator 23.0.6, SVG Export Plug-In . SVG Version: 6.00 Build 0)  -->
<svg version="1.1" id="Layer_1" xmlns="http://www.w3.org/2000/svg" xmlns:xlink="http://www.w3.org/1999/xlink" x="0px" y="0px"
	 viewBox="0 0 287.3639526 111.362381" style="enable-background:new 0 0 287.3639526 111.362381;" xml:space="preserve">
<style type="text/css">
	.st0{fill:#FFFFFF;}
	.st1{fill:#FFC61C;}
</style>
<path class="st0" d="M163.8197174,30.43153h12.4963837v14.1430817c0,1.5711784-0.2241058,3.8901901-0.3739166,5.6124001h0.2996216
	c0.9425812-1.6390152,1.9923096-3.2140236,3.1423645-4.7147598l12.347168-15.04072h13.4689331l-16.4620972,19.8297787
	l17.3603363,30.6794624h-14.3671722l-11.673645-21.1756439l-3.7415924,4.5650024V80.940773h-12.4963837V30.43153z"/>
<path class="st0" d="M218.2971039,65.077919c-1.3470764,4.8633575,1.4213715,7.931427,5.6118011,7.931427
	c4.7141571,0,7.1086731-3.7416077,7.1086731-9.0544014c0-5.6866989-2.8433533-7.8559113-6.6598663-7.8559113
	c-2.2986908-0.0170898-4.518219,0.8386879-6.210434,2.3945312l-5.3876953-5.8377304l15.6394196-12.9458351h-18.5576019v-9.2784996
	h31.0540009v9.8022308l-11.9727173,9.8777695c7.6324158-0.7478294,14.8909149,4.2653313,14.8909149,13.9932594
	c0,10.5512772-8.6055756,17.7348709-19.4558563,17.7348709c-10.2510071,0-18.8566132-6.3602371-16.6118927-15.2659988
	L218.2971039,65.077919z"/>
<path class="st0" d="M259.3037415,64.3300934c-0.897644,4.0400009,0.6735535,8.6792603,8.6055603,8.6792603
	c5.2372742,0,7.033783-2.0949097,7.033783-4.8645782c0-4.1898193-4.1910095-5.2372704-9.1299133-7.0325584
	c-7.4071045-2.5455589-16.536377-6.1361389-16.536377-16.6874123c0-9.4283104,7.2584839-15.1905289,19.6044617-14.8909111
	c15.1162415,0.2984009,19.3815613,9.2042007,17.7348633,16.9115181l-11.4489136,1.0474472
	c0.749054-5.8365097-1.3470764-9.1298981-7.2579041-9.1298981c-3.9656982,0-6.2109985,1.4981003-6.2109985,4.640461
	c0,4.1898193,4.0406189,5.46138,8.9794922,7.1835899c7.6329956,2.543129,16.6861877,5.6124115,16.6861877,16.086998
	c0,9.05439-6.7341614,15.5656586-19.9040833,15.5656586c-12.3465729,0-20.8023376-5.6879196-19.0807343-16.4620895
	L259.3037415,64.3300934z"/>
<g>
	<path class="st0" d="M78.2762451,81.0647125l26.1987305,15.1259155c0.001709,0.0009766,0.003418,0.0019531,0.005127,0.0029297
		c3.3474121,1.9307861,7.6262207,0.7823486,9.5570068-2.5650635c0.0001221-0.0002441,0.0002441-0.0004272,0.0003662-0.0006714
		c1.9327393-3.3479004,0.7854614-7.6287231-2.5625-9.5614624L85.2762451,68.940506
		c-0.0046387-0.0026855-0.0092773-0.0053711-0.013916-0.0080566c-3.3502197-1.9291382-7.6300049-0.7770996-9.5591431,2.5731201
		S74.9260254,79.1355743,78.2762451,81.0647125z"/>
	<path class="st0" d="M67.7181396,57.8184357h0.0314941c3.8537598-0.0006714,6.9822388-3.1159058,6.9993286-6.9696045
		l0.1312256-30.1372681c0.0169067-3.8658447-3.1033325-7.0134888-6.9692383-7.0303955h-0.0314331
		c-3.8537598,0.0006714-6.9822998,3.1158447-6.9993286,6.9696045l-0.1312256,30.137207c0,0.0001831,0,0.0003052-0.000061,0.0004883
		C60.7321777,54.6542511,63.852417,57.801651,67.7181396,57.8184357z"/>
	<path class="st0" d="M50.4239502,68.876236L24.2634888,84.0789948c-3.3425293,1.9424438-4.4776001,6.2267456-2.5351562,9.5693359
		c1.9424438,3.3425293,6.2268066,4.4775391,9.5693359,2.5350952l26.1604614-15.2027588
		c0.0023193-0.0013428,0.0046387-0.0026855,0.006958-0.0040283c3.3413696-1.944397,4.473938-6.2293701,2.5296021-9.5708008
		C58.050293,68.0644684,53.7653809,66.9319,50.4239502,68.876236z"/>
</g>
<path class="st1" d="M121.5868912,0H14.3925505C6.4534421,0.0232413,0.0232854,6.453362,0,14.3924704v82.5774384
	c0.023285,7.9391098,6.4534421,14.3692322,14.3925505,14.3924713h107.1943436
	c7.9391098-0.0232391,14.3692703-6.4533615,14.3925552-14.3924713V14.3924704
	C135.9561615,6.4533606,129.526001,0.0232386,121.5868912,0z M57.4581108,80.9806519l-26.16045,15.2027893
	c-3.3425484,1.9424362-7.6268749,0.8074188-9.5693092-2.5351257c-1.9424362-3.3425522-0.8074207-7.6268768,2.5351276-9.569313
	l26.1604519-15.2027435c3.3414192-1.9443512,7.6263885-0.8118057,9.5707397,2.5296097
	c1.944355,3.341423,0.8118095,7.6263885-2.5296135,9.5707474C57.4627457,80.9779587,57.4604263,80.9793091,57.4581108,80.9806519z
	 M67.7496109,57.8184433h-0.0314484c-3.8657761-0.0167732-6.9860077-3.1641998-6.9692345-7.0299759
	c0.0000038-0.0001564,0.0000038-0.0003128,0.0000038-0.0004692l0.1312485-30.1372509
	c0.0170555-3.8537121,3.1455612-6.9689312,6.9993134-6.9695797h0.0314484
	c3.8658981,0.0169029,6.9861221,3.1645241,6.9692383,7.0304203l-0.1312485,30.1372509
	C74.7318878,54.7025604,71.6033707,57.8177948,67.7496109,57.8184433z M114.0371094,93.6285019
	c-1.9307785,3.3474197-6.2095947,4.4958267-9.5570145,2.5650558c-0.0017014-0.0009842-0.0033951-0.0019608-0.0050964-0.0029449
	L78.276268,81.0647278c-3.3502274-1.9291458-4.502243-6.208931-2.5730896-9.5591583
	c1.9291458-3.3502274,6.208931-4.502243,9.5591583-2.5730896c0.0046463,0.0026703,0.0092926,0.0053558,0.0139313,0.0080414
	l26.1987305,15.1258698c3.3479309,1.9327087,4.4952011,6.2135162,2.5624924,9.5614471
	C114.0373611,93.6280594,114.0372391,93.6282806,114.0371094,93.6285019z"/>
</svg>
