<svg id="Layer_1" data-name="Layer 1" xmlns="http://www.w3.org/2000/svg" viewBox="0 0 618.79097 111.36238"><defs><style>.cls-1{fill:#384745;}.cls-2{fill:#2adfc3;}</style></defs><path class="cls-1" d="M174.96678,64.33009c-.89765,4.04.67354,8.67926,8.60557,8.67926,5.23788,0,7.03378-2.09491,7.03378-4.86458,0-4.18982-4.19043-5.23727-9.1293-7.03256-7.4077-2.54556-16.537-6.13614-16.537-16.68741,0-9.42831,7.25849-15.19053,19.60506-14.89091,15.11562.2984,19.38095,9.2042,17.73487,16.91152l-11.44893,1.04745c.74845-5.83651-1.34707-9.1299-7.25849-9.1299-3.96571,0-6.211,1.4981-6.211,4.64046,0,4.18982,4.04122,5.46138,8.97949,7.18359,7.633,2.54313,16.6868,5.61241,16.6868,16.087,0,9.05439-6.73416,15.56566-19.90407,15.56566-12.34718,0-20.80294-5.68792-19.08134-16.46209Z"/><path class="cls-1" d="M209.46458,30.43153H221.961V62.832c0,6.43576,2.69415,9.12991,7.85713,9.12991,5.08868,0,8.15675-2.61863,8.15675-9.354V30.43153h12.12185V62.38377c0,11.59873-7.55751,19.45586-20.65252,19.45586-12.27227,0-19.97958-7.18359-19.97958-18.33289Z"/><path class="cls-1" d="M258.779,30.43153h21.62568c8.90458,0,15.63874,2.99377,15.63874,12.19676,0,6.95948-3.8159,9.65363-10.326,11.07622v.29841c7.40769.89764,11.89713,4.78906,11.89713,12.34656,0,9.87774-7.10807,14.59129-16.6119,14.59129H258.779Zm17.95837,19.38035c3.29339,0,6.58557-.89643,6.58557-5.23727,0-4.41515-2.91826-5.08868-5.83652-5.08868h-6.28594V49.81188Zm1.19726,22.0745c3.81712,0,7.1093-1.87081,7.1093-6.884,0-4.33963-3.29218-6.13614-7.1093-6.13614h-6.73415V71.88638Z"/><path class="cls-1" d="M304.27566,30.43153h15.48893l8.23227,22.52393c1.27156,3.5918,2.1692,7.25789,2.1692,7.25789h.29962a71.28184,71.28184,0,0,1,2.17043-7.25789L340.643,30.43153h14.7411V80.94077H343.70989V55.42429c0-2.99256.82335-10.02634.82335-10.02634h-.2984s-1.49689,7.10808-2.47,9.65242l-9.72794,25.8904h-5.6124l-9.80223-25.8904a79.70533,79.70533,0,0,1-2.319-9.2042h-.29962s.52373,6.58556.52373,9.57812V80.94077H304.27566Z"/><path class="cls-1" d="M377.01164,30.43153h12.64619l17.06133,50.50924H394.073l-3.14358-9.57812H374.01787L370.951,80.94077H360.02583Zm0,31.65262h10.84969l-3.442-10.62557a49.39994,49.39994,0,0,1-1.721-8.67926h-.29962a64.16333,64.16333,0,0,1-1.86959,8.60374Z"/><path class="cls-1" d="M411.35963,30.43153h20.80294c9.87652,0,16.53638,4.78906,16.53638,14.06756A14.13507,14.13507,0,0,1,438.52281,58.194a14.99055,14.99055,0,0,1,3.51628,4.78906c2.09613,4.26534,3.5175,8.97888,7.93264,8.97888a5.82,5.82,0,0,0,2.0194-.37392l-.97194,8.90459a24.48737,24.48737,0,0,1-5.01439.67353c-5.98632,0-9.42831-2.32023-12.94459-10.32717-1.49688-3.59057-3.59179-9.87774-6.36024-9.87774h-2.844V80.94077H411.35963Zm12.49638,9.0544V51.90679h4.48944c3.59179,0,7.78283-1.12175,7.78283-6.50884,0-4.41514-2.844-5.912-6.286-5.912Z"/><path class="cls-1" d="M454.98612,30.43153h26.04021v8.83029h-6.80968V72.1117h6.80968v8.82907H454.98612V72.1117h6.73415V39.26182h-6.73415Z"/><path class="cls-1" d="M487.83722,30.43153h13.394L514.47667,55.4998c1.12175,2.17043,2.61863,5.98511,3.8159,8.97888h.29962c-.14981-2.84274-.52373-6.884-.52373-9.80223V30.43153h10.25166V80.94077H515.2245L501.45656,55.948a69.56462,69.56462,0,0,1-3.66731-8.231h-.29962c.22533,2.844.59924,6.21165.59924,8.97888V80.94077H487.83722Z"/><path class="cls-1" d="M537.45,30.43153h33.44912V39.71H549.9464v10.8509h17.58506v9.2785H549.9464V71.66227H571.647v9.2785H537.45Z"/><path class="cls-1" d="M578.15826,30.43153h20.80293c9.87774,0,16.53761,4.78906,16.53761,14.06756A14.136,14.136,0,0,1,605.32143,58.194a14.994,14.994,0,0,1,3.5175,4.78906c2.09491,4.26534,3.51628,8.97888,7.93143,8.97888A5.82257,5.82257,0,0,0,618.791,71.588l-.97316,8.90459a24.48454,24.48454,0,0,1-5.01317.67353c-5.98632,0-9.4283-2.32023-12.9458-10.32717-1.49689-3.59057-3.5918-9.87774-6.36025-9.87774h-2.844V80.94077H578.15826Zm12.49637,9.0544V51.90679h4.48944c3.593,0,7.78283-1.12175,7.78283-6.50884,0-4.41514-2.844-5.912-6.28594-5.912Z"/><path class="cls-2" d="M33.9867,33.986V48.68119H103.596A12.411,12.411,0,0,1,115.993,61.0785V78.97943a12.41094,12.41094,0,0,1-12.397,12.397H0v5.59351a14.43481,14.43481,0,0,0,14.39251,14.39247H121.58685a14.43481,14.43481,0,0,0,14.39251-14.39247V33.986Z"/><path class="cls-2" d="M101.993,77.3764V62.68119H32.38367a12.41124,12.41124,0,0,1-12.397-12.39732V32.383a12.41117,12.41117,0,0,1,12.397-12.397H135.97936v-5.5935A14.43481,14.43481,0,0,0,121.58685,0H14.39251A14.4348,14.4348,0,0,0,0,14.39247V77.3764Z"/></svg>