<?xml version="1.0" encoding="utf-8"?>
<!-- Generator: Adobe Illustrator 23.0.6, SVG Export Plug-In . SVG Version: 6.00 Build 0)  -->
<svg version="1.1" id="Layer_1" xmlns="http://www.w3.org/2000/svg" xmlns:xlink="http://www.w3.org/1999/xlink" x="0px" y="0px"
	 viewBox="0 0 618.7909546 111.362381" style="enable-background:new 0 0 618.7909546 111.362381;" xml:space="preserve">
<style type="text/css">
	.st0{fill:#FFFFFF;}
	.st1{fill:#2ADFC3;}
</style>
<rect y="14.3924704" class="st0" width="135.9793701" height="82.5774765"/>
<path class="st0" d="M174.9667816,64.3300934c-0.897644,4.0400009,0.6735382,8.6792603,8.6055756,8.6792603
	c5.2378845,0,7.033783-2.0949097,7.033783-4.8645782c0-4.1898193-4.1904297-5.2372704-9.129303-7.0325584
	c-7.4076996-2.5455589-16.5370026-6.1361389-16.5370026-16.6874123c0-9.4283104,7.2584839-15.1905289,19.6050568-14.8909111
	c15.1156158,0.2984009,19.3809509,9.2042007,17.7348633,16.9115181l-11.4489288,1.047451
	c0.7484436-5.8365097-1.3470764-9.1299019-7.2584839-9.1299019c-3.9657135,0-6.2109985,1.4981003-6.2109985,4.640461
	c0,4.1898193,4.041214,5.46138,8.9794922,7.1835899c7.6329956,2.543129,16.6867981,5.6124115,16.6867981,16.086998
	c0,9.05439-6.7341614,15.5656586-19.904068,15.5656586c-12.3471832,0-20.802948-5.6879196-19.0813446-16.4620895
	L174.9667816,64.3300934z"/>
<path class="st0" d="M209.4645844,30.43153h12.4964142v32.4004707c0,6.4357605,2.6941528,9.1299133,7.857132,9.1299133
	c5.0886841,0,8.1567535-2.6186295,8.1567535-9.3540001V30.43153h12.1218567v31.95224
	c0,11.5987282-7.5575104,19.4558601-20.6525269,19.4558601c-12.2722778,0-19.9795837-7.1835938-19.9795837-18.3328896
	L209.4645844,30.43153z"/>
<path class="st0" d="M258.7789917,30.43153h21.6256714c8.9045715,0,15.6387329,2.9937706,15.6387329,12.1967583
	c0,6.9594803-3.8158875,9.6536293-10.3259888,11.0762177v0.2984085c7.4076843,0.8976402,11.8971252,4.7890587,11.8971252,12.3465576
	c0,9.877739-7.1080627,14.5912933-16.611908,14.5912933h-22.2236328V30.43153z M276.7373657,49.811882
	c3.293396,0,6.5855713-0.896431,6.5855713-5.2372704c0-4.4151497-2.9182739-5.0886803-5.8365173-5.0886803H271.20047v10.3259468
	L276.7373657,49.811882z M277.9346313,71.8863831c3.8171082,0,7.109314-1.8708115,7.109314-6.8840027
	c0-4.3396301-3.2921753-6.1361389-7.109314-6.1361389H271.20047v13.0201416H277.9346313z"/>
<path class="st0" d="M304.2756653,30.43153h15.4889221l8.2322693,22.5239296
	c1.2715454,3.5918007,2.1691895,7.2578888,2.1691895,7.2578888h0.2996216
	c0.5943298-2.4560585,1.3188171-4.8787727,2.1704407-7.2578888l8.006897-22.5239296h14.7410889v50.509243h-11.6741943V55.4242897
	c0-2.9925613,0.8233643-10.0263405,0.8233643-10.0263405h-0.2984009c0,0-1.4968872,7.108078-2.4700012,9.65242
	l-9.7279358,25.8903961H326.42453l-9.8022156-25.8903999c-0.9551697-3.0192757-1.7295227-6.0927887-2.3190002-9.2042007h-0.2996216
	c0,0,0.5237427,6.5855598,0.5237427,9.5781212V80.940773h-10.25177V30.43153z"/>
<path class="st0" d="M377.0116272,30.43153h12.6461792l17.0613403,50.5092354H394.072998l-3.1435852-9.5781174h-16.9115295
	l-3.0668945,9.578125h-10.9251709L377.0116272,30.43153z M377.0116272,62.0841522h10.8497009L384.419342,51.45858
	c-0.8321228-2.8357811-1.4081116-5.7405167-1.7210083-8.6792603h-0.2996216
	c-0.4254761,2.9073372-1.0501404,5.7820168-1.8695984,8.6037407L377.0116272,62.0841522z"/>
<path class="st0" d="M411.3596191,30.43153h20.802948c9.8765259,0,16.536377,4.7890587,16.536377,14.0675621
	c0.0561523,6.3282738-4.1008301,11.9226761-10.1761475,13.6949081c1.4798584,1.345768,2.6754456,2.9740944,3.5162659,4.7890587
	c2.0961304,4.2653389,3.5174866,8.978878,7.9326477,8.978878c0.6899719-0.0039444,1.3737488-0.1305542,2.0194092-0.3739166
	l-0.9719543,8.9045868c-1.6437378,0.397049-3.3241577,0.622757-5.0144043,0.6735306
	c-5.9863281,0-9.4283142-2.3202286-12.9445801-10.3271713c-1.4968872-3.5905685-3.5917969-9.877739-6.3602295-9.877739h-2.8439941
	V80.940773h-12.4963379V30.43153z M423.8559875,39.4859314v12.4208603h4.4894409
	c3.5917969,0,7.7828369-1.1217499,7.7828369-6.5088387c0-4.4151421-2.8439941-5.9119987-6.2860107-5.9119987L423.8559875,39.4859314
	z"/>
<path class="st0" d="M454.9861145,30.43153h26.0402222v8.8302879h-6.8096924v32.849884h6.8096924v8.829071h-26.0402222v-8.829071
	h6.7341614V39.2618217h-6.7341614V30.43153z"/>
<path class="st0" d="M487.8372192,30.43153h13.3940125l13.2454529,25.0682716
	c1.1217651,2.1704292,2.6186523,5.9851112,3.815918,8.9788818h0.2996216
	c-0.1497803-2.8427391-0.5237427-6.8839989-0.5237427-9.8022308V30.43153h10.2516479v50.509243h-13.0956421l-13.7679138-24.9927711
	c-1.3990479-2.6615257-2.6240234-5.4109573-3.6672974-8.230999h-0.2996216
	c0.2253418,2.8440018,0.5992432,6.2116508,0.5992432,8.9788818V80.940773h-10.2516785V30.43153z"/>
<path class="st0" d="M537.4500122,30.43153h33.4490967v9.2784691h-20.9526978v10.8508987h17.585083v9.2784996h-17.585083v11.8228722
	h21.7005615v9.2784958h-34.1969604V30.43153z"/>
<path class="st0" d="M578.1582642,30.43153h20.8029175c9.8777466,0,16.5375977,4.7890587,16.5375977,14.0675621
	c0.0556641,6.3285103-4.1017456,11.9228554-10.1773682,13.6949081c1.4802246,1.3457108,2.6762085,2.9740334,3.5175171,4.7890587
	c2.0949097,4.2653389,3.5162964,8.978878,7.9314575,8.978878c0.6903687-0.0038681,1.3745728-0.1304855,2.0206299-0.3739395
	l-0.9731445,8.9045868c-1.6433105,0.3969803-3.3233643,0.6226959-5.0131836,0.6735306
	c-5.9863281,0-9.4282837-2.3202286-12.9458008-10.3271713c-1.4968872-3.5905685-3.5917969-9.877739-6.3602295-9.877739h-2.8439941
	V80.940773h-12.4963989V30.43153z M590.6546631,39.4859314v12.4208603h4.4894409
	c3.5930176,0,7.7828369-1.1217499,7.7828369-6.5088387c0-4.4151421-2.8439941-5.9119987-6.2859497-5.9119987L590.6546631,39.4859314
	z"/>
<path class="st1" d="M33.9866982,33.9860001v14.6951904h69.6092987c6.8435974,0.0077171,12.3894501,5.5537148,12.3969955,12.3973083
	v17.9009323c-0.0076828,6.8434906-5.5535126,12.3893204-12.3970032,12.3970032H0v5.5935135
	c0.023252,7.9391098,6.4534039,14.3692398,14.3925104,14.3924713H121.586853
	c7.9391022-0.0232239,14.3692627-6.4533615,14.3925171-14.3924713V33.9860001H33.9866982z"/>
<path class="st1" d="M101.9929962,77.3764038V62.6811905H32.3836708
	c-6.8435459-0.0078468-12.389328-5.5537758-12.3969994-12.3973198V32.3829994
	c0.0078087-6.8434372,5.5535622-12.3891907,12.3969994-12.3969994h103.5956879v-5.5935001
	C135.9561157,6.4533858,129.5259705,0.023235,121.586853,0H14.3925104C6.4534025,0.0232252,0.0232471,6.4533625,0,14.3924704
	v62.9839325H101.9929962z"/>
</svg>
