<?xml version="1.0" encoding="utf-8"?>
<!-- Generator: Adobe Illustrator 23.0.6, SVG Export Plug-In . SVG Version: 6.00 Build 0)  -->
<svg version="1.1" id="Layer_1" xmlns="http://www.w3.org/2000/svg" xmlns:xlink="http://www.w3.org/1999/xlink" x="0px" y="0px"
	 viewBox="0 0 1366 768" style="enable-background:new 0 0 1366 768;" xml:space="preserve">
<style type="text/css">
	.st0{fill:#FFF0D4;}
	.st1{fill:#FFE1A9;}
	.st2{fill:#FFD37E;}
	.st3{fill:#33313B;}
	.st4{fill:#FD824E;}
	.st5{fill:none;stroke:#33313B;stroke-width:3;stroke-miterlimit:10;}
	.st6{fill:#FFFFFF;}
	.st7{fill:#FFC61C;}
	.st8{fill:#FFB528;}
	.st9{fill:#FEA435;}
	.st10{fill:#FE9341;}
</style>
<title>how-it-works-k3os</title>
<path class="st0" d="M10,0h1346c5.5,0,10,4.5,10,10v748c0,5.5-4.5,10-10,10H10c-5.5,0-10-4.5-10-10V10C0,4.5,4.5,0,10,0z"/>
<path class="st1" d="M54.5,260.8h609.1c2.5,0,4.5,2,4.5,4.5v213.1c0,2.5-2,4.5-4.5,4.5H54.5c-2.5,0-4.5-2-4.5-4.5V265.3
	C50,262.8,52,260.8,54.5,260.8z"/>
<path class="st2" d="M702.2,274.3h609.6c2.3,0,4.2,1.9,4.2,4.2v186.8c0,2.3-1.9,4.2-4.2,4.2H702.2c-2.3,0-4.2-1.9-4.2-4.2V278.4
	C698,276.1,699.9,274.3,702.2,274.3z"/>
<path class="st1" d="M702.2,50h609.6c2.3,0,4.2,1.9,4.2,4.2v189.3c0,2.3-1.9,4.2-4.2,4.2H702.2c-2.3,0-4.2-1.9-4.2-4.2V54.2
	C698,51.9,699.9,50,702.2,50z"/>
<path class="st1" d="M56.4,496h1253.2c3.5,0,6.4,2.9,6.4,6.4v209.2c0,3.5-2.9,6.4-6.4,6.4H56.4c-3.5,0-6.4-2.9-6.4-6.4V502.4
	C50,498.9,52.9,496,56.4,496z"/>
<path class="st2" d="M86,552.8h576c3.3,0,6,2.7,6,6V682c0,3.3-2.7,6-6,6H86c-3.3,0-6-2.7-6-6V558.8C80,555.5,82.7,552.8,86,552.8z"
	/>
<path class="st2" d="M704,552.8h576c3.3,0,6,2.7,6,6V682c0,3.3-2.7,6-6,6H704c-3.3,0-6-2.7-6-6V558.8
	C698,555.5,700.7,552.8,704,552.8z"/>
<path class="st3" d="M659.6,515.1h6.3c1.3-0.1,2.5,0.3,3.5,1.1c0.8,0.7,1.3,1.7,1.3,2.7c0,1.7-1,2.8-2.9,3.3
	c0.9,0.1,1.7,0.5,2.4,1.2c0.6,0.7,0.9,1.5,0.9,2.4c0,1.1-0.4,2.1-1.3,2.8c-1,0.7-2.3,1.1-3.6,1h-6.7V515.1z M663.2,517.8v3.2h2.3
	c0.4,0,0.9-0.1,1.2-0.4c0.3-0.3,0.5-0.7,0.5-1.2c0-0.4-0.1-0.9-0.5-1.2c-0.3-0.3-0.8-0.4-1.2-0.4H663.2z M663.2,527h2.7
	c0.4,0,0.9-0.1,1.2-0.4c0.3-0.3,0.5-0.8,0.5-1.2c0-0.5-0.1-0.9-0.5-1.2c-0.3-0.3-0.7-0.5-1.2-0.5h-2.7V527z"/>
<path class="st3" d="M674.6,528.2c-1.2-1.1-1.8-2.7-1.8-4.3c-0.1-1.6,0.6-3.2,1.7-4.3c2.5-2.1,6.2-2.1,8.6,0
	c1.2,1.1,1.8,2.7,1.7,4.3c0.1,1.6-0.6,3.2-1.7,4.3c-1.2,1.1-2.7,1.7-4.3,1.6C677.3,529.9,675.8,529.3,674.6,528.2z M680.6,526.1
	c0.5-0.6,0.8-1.4,0.7-2.2c0.1-0.8-0.2-1.6-0.7-2.2c-0.4-0.5-1.1-0.7-1.7-0.7c-0.7,0-1.3,0.3-1.7,0.7c-1,1.3-1,3,0,4.3
	c0.4,0.5,1.1,0.8,1.7,0.7C679.6,526.8,680.2,526.6,680.6,526.1L680.6,526.1z"/>
<path class="st3" d="M688.2,528.2c-1.2-1.1-1.8-2.7-1.8-4.3c-0.1-1.6,0.6-3.2,1.7-4.3c2.5-2.1,6.2-2.1,8.6,0
	c1.2,1.1,1.8,2.7,1.7,4.3c0.1,1.6-0.6,3.2-1.7,4.3c-1.2,1.1-2.7,1.7-4.3,1.6C690.9,529.9,689.4,529.3,688.2,528.2z M694.2,526.1
	c0.5-0.6,0.8-1.4,0.7-2.2c0.1-0.8-0.2-1.6-0.7-2.2c-0.4-0.5-1.1-0.7-1.7-0.7c-0.7,0-1.3,0.3-1.7,0.7c-1,1.3-1,3,0,4.3
	c0.4,0.5,1.1,0.8,1.7,0.7C693.2,526.8,693.8,526.6,694.2,526.1z"/>
<path class="st3" d="M705.8,526.7h1.3v3h-1.8c-1.1,0.1-2.1-0.2-3-0.9c-0.8-0.8-1.2-1.9-1.1-3v-4.8H700v-3h1.1v-2.8h3.6v2.8h2.3v3
	h-2.3v4.8C704.7,526.4,705,526.7,705.8,526.7z"/>
<path class="st3" d="M292.1,611.6v5.7h-3.6v-14.6h5.8c1.4-0.1,2.9,0.4,4,1.3c0.9,0.8,1.4,2,1.4,3.2c0,0.9-0.3,1.7-0.8,2.5
	c-0.6,0.9-1.5,1.5-2.5,1.7l3.6,5.9h-4.2l-3.3-5.7H292.1z M292.1,605.4v3.5h2.2c0.5,0,0.9-0.1,1.3-0.5c0.3-0.3,0.5-0.8,0.5-1.3
	c0-0.5-0.2-0.9-0.5-1.3c-0.3-0.3-0.8-0.5-1.3-0.5L292.1,605.4z"/>
<path class="st3" d="M307.4,617.4c-1.6,0.1-3.1-0.5-4.2-1.6c-1.1-1.2-1.7-2.7-1.6-4.3c-0.1-1.6,0.5-3.2,1.6-4.3
	c1.1-1.1,2.6-1.7,4.2-1.6c1.6-0.1,3.1,0.5,4.2,1.6c1.2,1.2,1.8,2.8,1.7,4.4c0,0.4,0,0.8-0.1,1.1h-8c0.1,1,1,1.7,1.9,1.7
	c0.3,0,0.7,0,1-0.1c0.2-0.1,0.3-0.2,0.5-0.3c0.1-0.1,0.3-0.3,0.4-0.4h3.8c-0.3,1.1-1,2.1-2,2.8C309.9,617.1,308.7,617.5,307.4,617.4
	z M308.9,609.1c-0.4-0.3-0.9-0.5-1.5-0.5c-0.5,0-1,0.2-1.4,0.5c-0.4,0.3-0.6,0.8-0.7,1.3h4.3C309.6,609.9,309.3,609.4,308.9,609.1z"
	/>
<path class="st3" d="M316.3,615.8c-2.1-2.5-2.1-6.1,0-8.5c0.9-1.1,2.3-1.7,3.8-1.7c1.3-0.1,2.6,0.6,3.4,1.6v-1.5h3.6v11.6h-3.6v-1.7
	c-0.8,1.2-2.1,1.9-3.5,1.8C318.6,617.5,317.3,616.9,316.3,615.8z M322.7,613.6c0.5-0.6,0.8-1.3,0.8-2.1c0.1-0.8-0.2-1.5-0.8-2.1
	c-1-1-2.5-1-3.5,0c0,0,0,0,0,0c-0.5,0.6-0.8,1.3-0.8,2.1c-0.1,0.8,0.2,1.5,0.8,2.1C320.1,614.6,321.7,614.6,322.7,613.6
	C322.7,613.6,322.7,613.6,322.7,613.6z"/>
<path class="st3" d="M330.8,615.8c-2.1-2.5-2.1-6.1,0-8.5c0.9-1.1,2.3-1.7,3.8-1.7c1.3-0.1,2.6,0.6,3.4,1.6v-5.3h3.6v15.4H338v-1.7
	c-0.8,1.2-2.1,1.9-3.5,1.8C333.1,617.5,331.8,616.9,330.8,615.8z M337.2,613.6c0.5-0.6,0.8-1.3,0.8-2.1c0.1-0.8-0.2-1.5-0.8-2.1
	c-1-1-2.5-1-3.5,0c0,0,0,0,0,0c-0.5,0.6-0.8,1.3-0.8,2.1c-0.1,0.8,0.2,1.5,0.8,2.1C334.6,614.6,336.2,614.6,337.2,613.6
	C337.2,613.6,337.2,613.6,337.2,613.6z"/>
<path class="st3" d="M352.2,615.3c-2.9-3-2.9-7.7,0-10.7c1.4-1.4,3.3-2.2,5.3-2.1c2,0,3.9,0.7,5.3,2.1c2.9,3,2.9,7.7,0,10.7
	C359.9,618.2,355.2,618.2,352.2,615.3z M360.3,613c1.4-1.8,1.4-4.3,0-6.1c-1.6-1.5-4.1-1.5-5.6,0c-1.4,1.8-1.4,4.3,0,6.1
	C356.3,614.5,358.8,614.5,360.3,613z"/>
<path class="st3" d="M370.9,605.7v1.7c0.7-1.2,2.1-1.9,3.5-1.8c1.2,0,2.4,0.4,3.2,1.3c0.9,1,1.3,2.3,1.2,3.6v6.8h-3.5V611
	c0-0.6-0.2-1.3-0.6-1.7c-0.9-0.8-2.3-0.8-3.3,0c-0.4,0.5-0.6,1.1-0.6,1.7v6.3h-3.6v-11.6H370.9z"/>
<path class="st3" d="M381.9,617.3v-15.4h3.6v15.4H381.9z"/>
<path class="st3" d="M391.6,617.1l-4.5-11.4h4l2.6,7.6l2.8-7.6h3.7l-7.4,17.1h-3.7L391.6,617.1z"/>
<path class="st3" d="M409.5,616c-2.1-4.5-2.1-9.7,0-14.2c0.9-2,2.3-3.8,4.1-5.1h3.5v0.3c-6.6,5.2-7.7,14.8-2.4,21.4
	c0.7,0.9,1.5,1.7,2.4,2.4v0.3h-3.5C411.9,619.8,410.5,618.1,409.5,616z"/>
<path class="st3" d="M421.7,617.3h-3.6v-15.4h3.6v8.6l3.6-4.8h4.8l-5,5.9l5,5.7h-4.7l-3.7-4.6V617.3z"/>
<path class="st3" d="M436.3,604.9c-0.8-0.1-1.5,0.5-1.6,1.3c0,0.1,0,0.1,0,0.2h-3.5c-0.1-1.3,0.4-2.5,1.4-3.4
	c1.1-0.8,2.4-1.3,3.7-1.2c1.3-0.1,2.6,0.3,3.6,1.1c0.8,0.7,1.3,1.8,1.3,2.9c0,0.8-0.2,1.6-0.7,2.3c-0.4,0.5-0.8,0.9-1.4,1.2v0.1
	c1.5,0.5,2.5,2,2.3,3.6c0.1,1.2-0.4,2.4-1.4,3.2c-1.1,0.8-2.4,1.3-3.8,1.2c-1.4,0.1-2.8-0.4-3.9-1.2c-1.1-0.9-1.6-2.3-1.5-3.7h3.5
	c0,0.5,0.2,1,0.5,1.4c0.4,0.4,0.9,0.6,1.4,0.5c0.5,0,1-0.1,1.3-0.5c0.3-0.4,0.5-0.9,0.4-1.4c0-0.5-0.2-1-0.6-1.3
	c-0.6-0.3-1.3-0.5-2-0.4h-0.7V608h0.7c1.6,0,2.4-0.6,2.4-1.7c0-0.4-0.1-0.8-0.4-1.1C437.1,605,436.7,604.8,436.3,604.9z"/>
<path class="st3" d="M445.2,615.8c-1.2-1.1-1.8-2.7-1.8-4.3c-0.1-1.6,0.6-3.2,1.7-4.3c2.5-2.1,6.2-2.1,8.6,0
	c1.2,1.1,1.8,2.7,1.7,4.3c0.1,1.6-0.6,3.2-1.7,4.3c-1.2,1.1-2.7,1.7-4.3,1.6C447.9,617.5,446.4,616.9,445.2,615.8z M451.2,613.7
	c0.5-0.6,0.8-1.4,0.7-2.2c0.1-0.8-0.2-1.6-0.7-2.2c-0.4-0.5-1.1-0.7-1.7-0.7c-0.7,0-1.3,0.3-1.7,0.7c-1,1.3-1,3,0,4.3
	c0.4,0.5,1.1,0.8,1.7,0.7C450.2,614.4,450.8,614.1,451.2,613.7L451.2,613.7z"/>
<path class="st3" d="M457.1,609.2c0-1,0.5-2,1.3-2.6c1-0.7,2.3-1.1,3.5-1c1.3-0.1,2.5,0.3,3.6,1c0.9,0.6,1.4,1.7,1.5,2.8h-3.6
	c0-0.3-0.2-0.6-0.4-0.8c-0.3-0.2-0.7-0.2-1.1-0.2c-0.9,0-1.4,0.3-1.4,0.9c0,0.5,0.6,0.9,1.7,1.1c1.1,0.2,2.1,0.5,3.1,0.9
	c1.1,0.4,1.7,1.5,1.7,2.6c0,1.1-0.5,2.1-1.4,2.7c-1,0.7-2.3,1.1-3.5,1c-1.2,0-2.5-0.3-3.5-1c-0.9-0.6-1.5-1.7-1.5-2.9h3.6
	c0.1,0.7,0.6,1.1,1.5,1.1c0.4,0,0.7-0.1,1-0.3c0.3-0.2,0.4-0.4,0.4-0.7c0-0.3-0.2-0.5-0.7-0.7c-0.5-0.2-1.1-0.4-1.6-0.5
	c-0.6-0.1-1.3-0.3-1.9-0.5c-0.6-0.2-1.2-0.5-1.6-1C457.3,610.5,457,609.9,457.1,609.2z"/>
<path class="st3" d="M474.9,601.8c2.1,4.5,2.1,9.7,0,14.2c-0.9,2-2.3,3.8-4.1,5.1h-3.5v-0.3c6.6-5.2,7.7-14.8,2.4-21.4
	c-0.7-0.9-1.5-1.7-2.4-2.4v-0.3h3.5C472.6,598,474,599.8,474.9,601.8z"/>
<path class="st3" d="M332.9,627.6v2.7h-5.3v3.1h4.7v2.7h-4.7v3.4h5.3v2.7h-8.8v-14.6H332.9z"/>
<path class="st3" d="M339.5,632.2c0.8-1.1,2.1-1.7,3.4-1.6c1.4,0,2.8,0.6,3.8,1.7c2.1,2.5,2.1,6.1,0,8.5c-0.9,1.1-2.3,1.7-3.7,1.7
	c-1.4,0-2.7-0.7-3.4-1.8v7.2H336v-17.1h3.6V632.2z M343.8,638.6c0.5-0.6,0.8-1.3,0.8-2.1c0-0.8-0.2-1.6-0.8-2.1c-1-1-2.5-1-3.5,0
	c0,0,0,0,0,0c-0.5,0.6-0.8,1.3-0.8,2.1c0,0.8,0.2,1.6,0.8,2.1C341.3,639.6,342.8,639.6,343.8,638.6
	C343.8,638.6,343.8,638.6,343.8,638.6z"/>
<path class="st3" d="M354.1,626.9v5.5c0.7-1.2,2.1-1.9,3.5-1.8c1.2,0,2.4,0.4,3.2,1.3c0.9,1,1.3,2.3,1.2,3.6v6.8h-3.5V636
	c0-0.6-0.2-1.3-0.6-1.7c-0.9-0.8-2.3-0.8-3.3,0c-0.4,0.5-0.6,1.1-0.6,1.7v6.3h-3.6v-15.4H354.1z"/>
<path class="st3" d="M370,642.4c-1.6,0.1-3.1-0.5-4.2-1.6c-1.1-1.2-1.7-2.7-1.6-4.3c-0.1-1.6,0.5-3.2,1.6-4.3
	c1.1-1.1,2.6-1.7,4.2-1.6c1.6-0.1,3.1,0.5,4.2,1.6c1.2,1.2,1.8,2.8,1.7,4.4c0,0.4,0,0.8-0.1,1.1h-8c0.1,1,1,1.7,1.9,1.7
	c0.3,0,0.7,0,1-0.1c0.2-0.1,0.3-0.2,0.5-0.3c0.1-0.1,0.3-0.3,0.4-0.4h3.8c-0.3,1.1-1,2.1-2,2.8C372.5,642.1,371.3,642.4,370,642.4z
	 M371.5,634.1c-0.4-0.3-0.9-0.5-1.5-0.5c-0.5,0-1,0.2-1.4,0.5c-0.4,0.3-0.6,0.8-0.7,1.3h4.3C372.2,634.9,371.9,634.4,371.5,634.1z"
	/>
<path class="st3" d="M381.8,630.7v1.7c0.7-1.2,2.1-1.9,3.5-1.8c0.8,0,1.6,0.2,2.3,0.6c0.7,0.4,1.2,1,1.6,1.7c0.4-0.7,1-1.2,1.7-1.6
	c1.8-1,4.1-0.7,5.7,0.7c0.9,1,1.3,2.3,1.2,3.6v6.8h-3.5V636c0-0.6-0.2-1.3-0.6-1.7c-0.9-0.8-2.3-0.8-3.3,0c-0.4,0.5-0.6,1.1-0.6,1.7
	v6.3h-3.5V636c0-0.6-0.2-1.3-0.6-1.7c-0.9-0.8-2.3-0.8-3.3,0c-0.4,0.5-0.6,1.1-0.6,1.7v6.3h-3.6v-11.6H381.8z"/>
<path class="st3" d="M405.7,642.4c-1.6,0.1-3.1-0.5-4.2-1.6c-1.1-1.2-1.7-2.7-1.6-4.3c-0.1-1.6,0.5-3.2,1.6-4.3
	c1.1-1.1,2.6-1.7,4.2-1.6c1.6-0.1,3.1,0.5,4.2,1.6c1.2,1.2,1.8,2.8,1.7,4.4c0,0.4,0,0.8-0.1,1.1h-8c0.1,1,1,1.7,1.9,1.7
	c0.3,0,0.7,0,1-0.1c0.2-0.1,0.3-0.2,0.5-0.3c0.1-0.1,0.3-0.3,0.4-0.4h3.8c-0.3,1.1-1,2.1-2,2.8C408.2,642.1,407,642.4,405.7,642.4z
	 M407.2,634.1c-0.4-0.3-0.9-0.5-1.5-0.5c-0.5,0-1,0.2-1.4,0.5c-0.4,0.3-0.6,0.8-0.7,1.3h4.3C407.9,634.9,407.6,634.4,407.2,634.1z"
	/>
<path class="st3" d="M417.5,630.7v2.2c0.6-1.3,1.9-2.2,3.3-2.3v3.6h-0.9c-0.7-0.1-1.3,0.2-1.8,0.6c-0.5,0.6-0.7,1.3-0.6,2v5.5h-3.6
	v-11.6H417.5z"/>
<path class="st3" d="M423.4,640.7c-2.1-2.5-2.1-6.1,0-8.5c0.9-1.1,2.3-1.7,3.8-1.7c1.3-0.1,2.6,0.6,3.4,1.6v-1.5h3.6v11.6h-3.6v-1.7
	c-0.8,1.2-2.1,1.9-3.5,1.8C425.7,642.4,424.4,641.8,423.4,640.7z M429.8,638.6c0.5-0.6,0.8-1.3,0.8-2.1c0.1-0.8-0.2-1.5-0.8-2.1
	c-1-1-2.5-1-3.5,0c0,0,0,0,0,0c-0.5,0.6-0.8,1.3-0.8,2.1c-0.1,0.8,0.2,1.5,0.8,2.1C427.2,639.6,428.8,639.6,429.8,638.6
	C429.8,638.6,429.8,638.6,429.8,638.6z"/>
<path class="st3" d="M437.3,642.3v-15.4h3.6v15.4H437.3z"/>
<path class="st3" d="M923,617.2c0,1-0.4,2-1.1,2.9c-0.4,0.5-1,0.9-1.7,1.2c-0.8,0.3-1.7,0.5-2.6,0.4h-2.2v5.7h-3.6v-14.6h5.8
	c1.4-0.1,2.9,0.4,4,1.3C922.5,614.8,923,616,923,617.2z M915.4,618.9h2.2c0.5,0,0.9-0.1,1.3-0.5c0.3-0.3,0.5-0.8,0.5-1.3
	c0-0.5-0.2-0.9-0.5-1.3c-0.3-0.3-0.8-0.5-1.3-0.5h-2.2V618.9z"/>
<path class="st3" d="M930.1,627.4c-1.6,0.1-3.1-0.5-4.2-1.6c-1.1-1.2-1.7-2.7-1.6-4.3c-0.1-1.6,0.5-3.2,1.6-4.3
	c1.1-1.1,2.6-1.7,4.2-1.6c1.6-0.1,3.1,0.5,4.2,1.6c1.2,1.2,1.8,2.8,1.7,4.4c0,0.4,0,0.8-0.1,1.1h-8c0.1,1,1,1.7,1.9,1.7
	c0.3,0,0.7,0,1-0.1c0.2-0.1,0.3-0.2,0.5-0.3c0.1-0.1,0.3-0.3,0.4-0.4h3.8c-0.3,1.1-1,2.1-2,2.8C932.6,627.1,931.3,627.5,930.1,627.4
	z M931.6,619.1c-0.4-0.3-0.9-0.5-1.5-0.5c-0.5,0-1,0.2-1.4,0.5c-0.4,0.3-0.6,0.8-0.7,1.3h4.3C932.2,619.9,932,619.4,931.6,619.1z"/>
<path class="st3" d="M941.8,615.7v2.2c0.6-1.3,1.9-2.2,3.3-2.3v3.6h-0.9c-0.7-0.1-1.3,0.2-1.8,0.6c-0.5,0.6-0.7,1.3-0.6,2v5.5h-3.6
	v-11.6H941.8z"/>
<path class="st3" d="M946.3,619.2c0-1,0.5-2,1.3-2.6c1-0.7,2.3-1.1,3.5-1c1.3-0.1,2.5,0.3,3.6,1c0.9,0.6,1.4,1.7,1.5,2.8h-3.6
	c0-0.3-0.2-0.6-0.4-0.8c-0.3-0.2-0.7-0.2-1.1-0.2c-0.9,0-1.4,0.3-1.4,0.9c0,0.5,0.6,0.9,1.7,1.1c1.1,0.2,2.1,0.5,3.1,0.9
	c1.1,0.4,1.7,1.5,1.7,2.6c0,1.1-0.5,2.1-1.4,2.7c-1,0.7-2.3,1.1-3.5,1c-1.2,0-2.5-0.3-3.5-1c-0.9-0.6-1.5-1.7-1.5-2.9h3.6
	c0.1,0.7,0.6,1.1,1.5,1.1c0.4,0,0.7-0.1,1-0.3c0.3-0.2,0.4-0.4,0.4-0.7c0-0.3-0.2-0.5-0.7-0.7c-0.5-0.2-1.1-0.4-1.6-0.5
	c-0.6-0.1-1.3-0.3-1.9-0.5c-0.6-0.2-1.2-0.5-1.6-1C946.5,620.5,946.3,619.9,946.3,619.2z"/>
<path class="st3" d="M961.9,614.4c-0.8,0.8-2.2,0.9-3,0s-0.9-2.2,0-3s2.2-0.9,3,0c0.4,0.4,0.6,1,0.6,1.5
	C962.5,613.5,962.3,614,961.9,614.4z M958.6,627.3v-11.6h3.6v11.6L958.6,627.3z"/>
<path class="st3" d="M964.5,619.2c0-1,0.5-2,1.3-2.6c1-0.7,2.3-1.1,3.5-1c1.3-0.1,2.5,0.3,3.6,1c0.9,0.6,1.4,1.7,1.5,2.8h-3.6
	c0-0.3-0.2-0.6-0.4-0.8c-0.3-0.2-0.7-0.2-1.1-0.2c-0.9,0-1.4,0.3-1.4,0.9c0,0.5,0.6,0.9,1.7,1.1c1.1,0.2,2.1,0.5,3.1,0.9
	c1.1,0.4,1.7,1.5,1.7,2.6c0,1.1-0.5,2.1-1.4,2.7c-1,0.7-2.3,1.1-3.5,1c-1.2,0-2.5-0.3-3.5-1c-0.9-0.6-1.5-1.7-1.5-2.9h3.6
	c0.1,0.7,0.6,1.1,1.5,1.1c0.4,0,0.7-0.1,1-0.3c0.3-0.2,0.4-0.4,0.4-0.7c0-0.3-0.2-0.5-0.7-0.7c-0.5-0.2-1.1-0.4-1.6-0.5
	c-0.6-0.1-1.3-0.3-1.9-0.5c-0.6-0.2-1.2-0.5-1.6-1C964.7,620.5,964.5,619.9,964.5,619.2z"/>
<path class="st3" d="M981.8,624.3h1.3v3h-1.8c-1.1,0.1-2.1-0.2-3-0.9c-0.8-0.8-1.2-1.9-1.1-3v-4.8h-1.1v-3h1.1v-2.8h3.6v2.8h2.3v3
	h-2.3v4.8C980.7,624,981.1,624.3,981.8,624.3z"/>
<path class="st3" d="M990.4,627.4c-1.6,0.1-3.1-0.5-4.2-1.6c-1.1-1.2-1.7-2.7-1.6-4.3c-0.1-1.6,0.5-3.2,1.6-4.3
	c1.1-1.1,2.6-1.7,4.2-1.6c1.6-0.1,3.1,0.5,4.2,1.6c1.2,1.2,1.8,2.8,1.7,4.4c0,0.4,0,0.8-0.1,1.1h-8c0.1,1,1,1.7,1.9,1.7
	c0.3,0,0.7,0,1-0.1c0.2-0.1,0.3-0.2,0.5-0.3c0.1-0.1,0.3-0.3,0.4-0.4h3.8c-0.3,1.1-1,2.1-2,2.8C992.9,627.1,991.7,627.5,990.4,627.4
	z M991.9,619.1c-0.4-0.3-0.9-0.5-1.5-0.5c-0.5,0-1,0.2-1.4,0.5c-0.4,0.3-0.6,0.8-0.7,1.3h4.3C992.6,619.9,992.4,619.4,991.9,619.1z"
	/>
<path class="st3" d="M1002.2,615.7v1.7c0.7-1.2,2.1-1.9,3.5-1.8c1.2,0,2.4,0.4,3.2,1.3c0.9,1,1.3,2.3,1.2,3.6v6.8h-3.5V621
	c0-0.6-0.2-1.3-0.6-1.7c-0.9-0.8-2.3-0.8-3.3,0c-0.4,0.5-0.6,1.1-0.6,1.7v6.3h-3.6v-11.6H1002.2z"/>
<path class="st3" d="M1018.1,624.3h1.3v3h-1.8c-1.1,0.1-2.1-0.2-3-0.9c-0.8-0.8-1.2-1.9-1.1-3v-4.8h-1.1v-3h1.1v-2.8h3.6v2.8h2.3v3
	h-2.3v4.8C1017.1,624,1017.4,624.3,1018.1,624.3z"/>
<path class="st3" d="M1033.2,612.7c2.1-0.1,4.2,0.6,5.7,2c2.9,2.8,3,7.4,0.2,10.3c-0.1,0.1-0.1,0.1-0.2,0.2c-1.6,1.4-3.6,2.1-5.7,2
	h-5.1v-14.6H1033.2z M1031.6,624.6h1.6c1.2,0.1,2.4-0.4,3.2-1.2c1.6-2,1.6-4.7,0-6.7c-0.8-0.9-2-1.3-3.2-1.2h-1.6V624.6z"/>
<path class="st3" d="M1046.7,614.4c-0.8,0.8-2.2,0.9-3,0c-0.8-0.8-0.9-2.2,0-3s2.2-0.9,3,0c0.4,0.4,0.6,1,0.6,1.5
	C1047.3,613.5,1047.1,614,1046.7,614.4z M1043.5,627.3v-11.6h3.6v11.6L1043.5,627.3z"/>
<path class="st3" d="M1049.3,619.2c0-1,0.5-2,1.3-2.6c1-0.7,2.3-1.1,3.5-1c1.3-0.1,2.5,0.3,3.6,1c0.9,0.6,1.4,1.7,1.5,2.8h-3.6
	c0-0.3-0.2-0.6-0.4-0.8c-0.3-0.2-0.7-0.2-1.1-0.2c-0.9,0-1.4,0.3-1.4,0.9c0,0.5,0.6,0.9,1.7,1.1c1.1,0.2,2.1,0.5,3.1,0.9
	c1.1,0.4,1.7,1.5,1.7,2.6c0,1.1-0.5,2.1-1.4,2.7c-1,0.7-2.3,1.1-3.5,1c-1.2,0-2.5-0.3-3.5-1c-0.9-0.6-1.5-1.7-1.5-2.9h3.6
	c0.1,0.7,0.6,1.1,1.5,1.1c0.4,0,0.7-0.1,1-0.3c0.3-0.2,0.4-0.4,0.4-0.7c0-0.3-0.2-0.5-0.7-0.7c-0.5-0.2-1.1-0.4-1.6-0.5
	c-0.6-0.1-1.3-0.3-1.9-0.5c-0.6-0.2-1.2-0.5-1.6-1C1049.6,620.5,1049.3,619.9,1049.3,619.2z"/>
<path class="st3" d="M1065.2,627.3h-3.6v-15.4h3.6v8.6l3.6-4.8h4.8l-5,5.9l5,5.7h-4.7l-3.7-4.6V627.3z"/>
<path class="st3" d="M993.3,383.9h-3.6v-15.4h3.6v8.6l3.6-4.8h4.8l-5,5.9l5,5.7h-4.7l-3.7-4.6V383.9z"/>
<path class="st3" d="M1007.9,371.4c-0.8-0.1-1.5,0.5-1.6,1.3c0,0.1,0,0.1,0,0.2h-3.5c-0.1-1.3,0.4-2.5,1.4-3.4
	c1.1-0.8,2.4-1.3,3.7-1.2c1.3-0.1,2.6,0.3,3.6,1.1c0.8,0.7,1.3,1.8,1.3,2.9c0,0.8-0.2,1.6-0.7,2.3c-0.4,0.5-0.8,0.9-1.4,1.2v0.1
	c1.5,0.5,2.5,2,2.3,3.6c0.1,1.2-0.4,2.4-1.4,3.2c-1.1,0.8-2.4,1.3-3.8,1.2c-1.4,0.1-2.8-0.4-3.9-1.2c-1.1-0.9-1.6-2.3-1.5-3.7h3.5
	c0,0.5,0.2,1,0.5,1.4c0.4,0.4,0.9,0.6,1.4,0.5c0.5,0,1-0.1,1.3-0.5c0.3-0.4,0.5-0.9,0.4-1.4c0-0.5-0.2-1-0.6-1.3
	c-0.6-0.3-1.3-0.5-2-0.4h-0.7v-2.9h0.7c1.6,0,2.4-0.6,2.4-1.7c0-0.4-0.1-0.8-0.4-1.1C1008.7,371.6,1008.3,371.4,1007.9,371.4z"/>
<path class="st3" d="M1015.1,375.8c0-1,0.5-2,1.3-2.6c1-0.7,2.3-1.1,3.5-1c1.3-0.1,2.5,0.3,3.6,1c0.9,0.6,1.4,1.7,1.5,2.8h-3.6
	c0-0.3-0.2-0.6-0.4-0.8c-0.3-0.2-0.7-0.2-1.1-0.2c-0.9,0-1.4,0.3-1.4,0.9c0,0.5,0.6,0.9,1.7,1.1c1.1,0.2,2.1,0.5,3.1,0.9
	c1.1,0.4,1.7,1.5,1.7,2.6c0,1.1-0.5,2.1-1.4,2.7c-1,0.7-2.3,1.1-3.5,1c-1.2,0-2.5-0.3-3.5-1c-0.9-0.6-1.5-1.7-1.5-2.9h3.6
	c0.1,0.7,0.6,1.1,1.5,1.1c0.4,0,0.7-0.1,1-0.3c0.3-0.2,0.4-0.4,0.4-0.7c0-0.3-0.2-0.5-0.7-0.7c-0.5-0.2-1.1-0.4-1.6-0.5
	c-0.6-0.1-1.3-0.3-1.9-0.5c-0.6-0.2-1.2-0.5-1.6-1C1015.3,377.1,1015.1,376.4,1015.1,375.8z"/>
<path class="st3" d="M342.3,294.6V280h3.6v14.6L342.3,294.6z"/>
<path class="st3" d="M352.5,283v1.7c0.7-1.2,2.1-1.9,3.5-1.8c1.2,0,2.4,0.4,3.2,1.3c0.9,1,1.3,2.3,1.2,3.6v6.8H357v-6.3
	c0-0.6-0.2-1.3-0.6-1.7c-0.9-0.8-2.3-0.8-3.3,0c-0.4,0.5-0.6,1.1-0.6,1.7v6.3H349V283H352.5z"/>
<path class="st3" d="M366.8,281.6c-0.8,0.8-2.2,0.9-3,0c-0.8-0.8-0.9-2.2,0-3c0.8-0.8,2.2-0.9,3,0c0.4,0.4,0.6,1,0.6,1.5
	C367.4,280.7,367.2,281.3,366.8,281.6z M363.5,294.6V283h3.6v11.6H363.5z"/>
<path class="st3" d="M375.1,291.5h1.3v3h-1.8c-1.1,0.1-2.1-0.2-3-0.9c-0.8-0.8-1.2-1.9-1.1-3v-4.8h-1.1v-3h1.1v-2.8h3.6v2.8h2.3v3
	h-2.3v4.8C374.1,291.3,374.4,291.5,375.1,291.5z"/>
<path class="st2" d="M87.6,317.7h248.9c4.2,0,7.6,3.4,7.6,7.6v120c0,4.2-3.4,7.6-7.6,7.6H87.6c-4.2,0-7.6-3.4-7.6-7.6v-120
	C80,321.1,83.4,317.7,87.6,317.7z"/>
<path class="st2" d="M381.6,317.7h248.8c4.2,0,7.6,3.4,7.6,7.6v120c0,4.2-3.4,7.6-7.6,7.6H381.6c-4.2,0-7.6-3.4-7.6-7.6v-120
	C374,321.1,377.4,317.7,381.6,317.7z"/>
<path class="st3" d="M453.5,377.6h3.6v14.6h-3.6l-6-9.2v9.2H444v-14.6h3.6l6,9.2V377.6z"/>
<path class="st3" d="M465.1,392.3c-1.6,0.1-3.1-0.5-4.2-1.6c-1.1-1.2-1.7-2.7-1.6-4.3c-0.1-1.6,0.5-3.2,1.6-4.3
	c1.1-1.1,2.6-1.7,4.2-1.6c1.6-0.1,3.1,0.5,4.2,1.6c1.2,1.2,1.8,2.8,1.7,4.4c0,0.4,0,0.8-0.1,1.1h-8c0.1,1,1,1.7,1.9,1.7
	c0.3,0,0.7,0,1-0.1c0.2-0.1,0.3-0.2,0.5-0.3c0.1-0.1,0.3-0.3,0.4-0.4h3.8c-0.3,1.1-1,2.1-2,2.8C467.6,392,466.4,392.4,465.1,392.3z
	 M466.6,384c-0.4-0.3-0.9-0.5-1.5-0.5c-0.5,0-1,0.2-1.4,0.5c-0.4,0.3-0.6,0.8-0.7,1.3h4.3C467.3,384.8,467,384.3,466.6,384
	L466.6,384z"/>
<path class="st3" d="M478.2,389.2h1.3v3h-1.8c-1.1,0.1-2.1-0.2-3-0.9c-0.8-0.8-1.2-1.9-1.1-3v-4.8h-1.1v-3h1.1v-2.8h3.6v2.8h2.3v3
	h-2.3v4.8C477.2,388.9,477.5,389.2,478.2,389.2z"/>
<path class="st3" d="M495,380.6h3.3l-3.5,11.6H491l-1.6-6.9l-1.6,6.9h-3.8l-3.5-11.6h3.6l1.8,8.2l1.8-8.2h3.8l1.8,8.2L495,380.6z"/>
<path class="st3" d="M500.9,390.7c-1.2-1.1-1.8-2.7-1.8-4.3c-0.1-1.6,0.6-3.2,1.7-4.3c2.5-2.1,6.2-2.1,8.6,0
	c1.2,1.1,1.8,2.7,1.7,4.3c0.1,1.6-0.6,3.2-1.7,4.3c-1.2,1.1-2.7,1.7-4.3,1.6C503.6,392.4,502.1,391.8,500.9,390.7z M506.9,388.6
	c0.5-0.6,0.8-1.4,0.7-2.2c0.1-0.8-0.2-1.6-0.7-2.2c-0.4-0.5-1.1-0.7-1.7-0.7c-0.7,0-1.3,0.3-1.7,0.7c-1,1.3-1,3,0,4.3
	c0.4,0.5,1.1,0.8,1.7,0.7C505.9,389.3,506.5,389,506.9,388.6z"/>
<path class="st3" d="M517.1,380.6v2.2c0.6-1.3,1.9-2.2,3.3-2.3v3.6h-0.9c-0.7-0.1-1.3,0.2-1.8,0.6c-0.5,0.6-0.7,1.3-0.6,2v5.5h-3.6
	v-11.6H517.1z"/>
<path class="st3" d="M525.9,392.2h-3.6v-15.4h3.6v8.6l3.6-4.8h4.8l-5,5.9l5,5.7h-4.7l-3.7-4.6V392.2z"/>
<path class="st3" d="M539.2,379.3c-0.8,0.8-2.2,0.9-3,0s-0.9-2.2,0-3s2.2-0.9,3,0c0.4,0.4,0.6,1,0.6,1.5
	C539.8,378.3,539.6,378.9,539.2,379.3z M536,392.2v-11.6h3.6v11.6H536z"/>
<path class="st3" d="M546.2,380.6v1.7c0.7-1.2,2.1-1.9,3.5-1.8c1.2,0,2.4,0.4,3.2,1.3c0.9,1,1.3,2.3,1.2,3.6v6.8h-3.5v-6.3
	c0-0.6-0.2-1.3-0.6-1.7c-0.9-0.8-2.3-0.8-3.3,0c-0.4,0.5-0.6,1.1-0.6,1.7v6.3h-3.6v-11.6H546.2z"/>
<path class="st3" d="M557.9,390.7c-2.1-2.5-2.1-6.1,0-8.5c0.9-1.1,2.3-1.7,3.8-1.7c1.3-0.1,2.6,0.6,3.4,1.6v-1.5h3.6v11.5
	c0.1,1.5-0.4,2.9-1.3,4.1c-0.5,0.6-1.1,1-1.8,1.3c-0.9,0.3-1.8,0.5-2.7,0.5c-1.5,0.1-3-0.3-4.2-1.1c-1.1-0.8-1.7-2-1.8-3.3h3.5
	c0.3,0.9,1.2,1.3,2.5,1.3c0.6,0,1.2-0.2,1.6-0.7c0.5-0.6,0.7-1.3,0.6-2.1v-1.6c-0.8,1.2-2.1,1.9-3.5,1.8
	C560.2,392.4,558.8,391.7,557.9,390.7z M564.3,388.5c0.5-0.6,0.8-1.3,0.8-2.1c0.1-0.8-0.2-1.5-0.8-2.1c-1-1-2.5-1-3.5,0c0,0,0,0,0,0
	c-0.5,0.6-0.8,1.3-0.8,2.1c-0.1,0.8,0.2,1.5,0.8,2.1C561.7,389.5,563.2,389.5,564.3,388.5C564.2,388.5,564.2,388.5,564.3,388.5z"/>
<path class="st3" d="M170.6,390.2c-2.9-3-2.9-7.7,0-10.7c1.4-1.4,3.3-2.2,5.3-2.1c2,0,3.9,0.7,5.3,2.1c2.9,3,2.9,7.7,0,10.7
	C178.3,393,173.6,393,170.6,390.2z M178.7,387.9c1.4-1.8,1.4-4.3,0-6.1c-1.6-1.5-4.1-1.5-5.6,0c-1.4,1.8-1.4,4.3,0,6.1
	C174.7,389.4,177.2,389.4,178.7,387.9z"/>
<path class="st3" d="M189.3,382.1c0.8-1.1,2.1-1.7,3.4-1.6c1.4,0,2.8,0.6,3.8,1.7c2.1,2.5,2.1,6.1,0,8.5c-0.9,1.1-2.3,1.7-3.7,1.7
	c-1.4,0-2.7-0.7-3.4-1.8v7.2h-3.6v-17.1h3.6V382.1z M193.6,388.5c0.5-0.6,0.8-1.3,0.8-2.1c0-0.8-0.2-1.6-0.8-2.1c-1-1-2.5-1-3.5,0
	c0,0,0,0,0,0c-0.5,0.6-0.8,1.3-0.8,2.1c0,0.8,0.2,1.6,0.8,2.1C191,389.5,192.6,389.5,193.6,388.5
	C193.5,388.5,193.6,388.5,193.6,388.5z"/>
<path class="st3" d="M205.2,392.3c-1.6,0.1-3.1-0.5-4.2-1.6c-1.1-1.2-1.7-2.7-1.6-4.3c-0.1-1.6,0.5-3.2,1.6-4.3
	c1.1-1.1,2.6-1.7,4.2-1.6c1.6-0.1,3.1,0.5,4.2,1.6c1.2,1.2,1.8,2.8,1.7,4.4c0,0.4,0,0.8-0.1,1.1h-8c0.1,1,1,1.7,1.9,1.7
	c0.3,0,0.7,0,1-0.1c0.2-0.1,0.3-0.2,0.5-0.3c0.1-0.1,0.3-0.3,0.4-0.4h3.8c-0.3,1.1-1,2.1-2,2.8C207.7,392,206.4,392.4,205.2,392.3z
	 M206.7,384c-0.4-0.3-0.9-0.5-1.5-0.5c-0.5,0-1,0.2-1.4,0.5c-0.4,0.3-0.6,0.8-0.7,1.3h4.3C207.3,384.8,207.1,384.3,206.7,384
	L206.7,384z"/>
<path class="st3" d="M216.9,380.6v1.7c0.7-1.2,2.1-1.9,3.5-1.8c1.2,0,2.4,0.4,3.2,1.3c0.9,1,1.3,2.3,1.2,3.6v6.8h-3.5v-6.3
	c0-0.6-0.2-1.3-0.6-1.7c-0.9-0.8-2.3-0.8-3.3,0c-0.4,0.5-0.6,1.1-0.6,1.7v6.3h-3.6v-11.6H216.9z"/>
<path class="st3" d="M231.5,386.5v5.7h-3.6v-14.6h5.8c1.4-0.1,2.9,0.4,4,1.3c0.9,0.8,1.4,2,1.4,3.2c0,0.9-0.3,1.7-0.8,2.5
	c-0.6,0.9-1.5,1.5-2.5,1.7l3.6,5.9h-4.2l-3.3-5.7H231.5z M231.5,380.3v3.5h2.2c0.9,0.1,1.7-0.6,1.7-1.5c0-0.1,0-0.2,0-0.2
	c0-0.5-0.2-0.9-0.5-1.3c-0.3-0.3-0.8-0.5-1.3-0.5L231.5,380.3z"/>
<path class="st3" d="M243.2,390.2c-2.9-3-2.9-7.7,0-10.7c1.4-1.4,3.3-2.2,5.3-2.1c1.5,0,3.1,0.4,4.3,1.3c1.3,0.9,2.2,2.1,2.6,3.6
	h-4.2c-0.5-1-1.5-1.7-2.7-1.6c-1.1-0.1-2.1,0.4-2.9,1.1c-1.4,1.8-1.4,4.3,0,6.1c0.7,0.8,1.8,1.2,2.9,1.1c1.1,0.1,2.2-0.6,2.7-1.6
	h4.2c-0.4,1.5-1.4,2.7-2.6,3.6c-1.3,0.9-2.8,1.3-4.3,1.3C246.5,392.4,244.6,391.6,243.2,390.2z"/>
<path class="st2" d="M929.8,81.3h154.6c3.3,0,6,2.7,6,6v123.2c0,3.3-2.7,6-6,6H929.8c-3.3,0-6-2.7-6-6V87.3
	C923.8,83.9,926.5,81.3,929.8,81.3z"/>
<path class="st2" d="M734,81.3h153.8c3.3,0,6,2.7,6,6v123.2c0,3.3-2.7,6-6,6H734c-3.3,0-6-2.7-6-6V87.3
	C728,83.9,730.7,81.3,734,81.3z"/>
<path class="st2" d="M1126.4,81.3H1280c3.3,0,6,2.7,6,6v123.2c0,3.3-2.7,6-6,6h-153.6c-3.3,0-6-2.7-6-6V87.3
	C1120.4,83.9,1123.1,81.3,1126.4,81.3z"/>
<path class="st3" d="M999.1,145.6c0,1-0.4,2-1.1,2.9c-0.4,0.5-1,0.9-1.7,1.2c-0.8,0.3-1.7,0.5-2.6,0.4h-2.2v5.7h-3.6v-14.6h5.8
	c1.4-0.1,2.9,0.4,4,1.3C998.6,143.3,999.1,144.4,999.1,145.6z M991.5,147.4h2.2c0.9,0.1,1.7-0.6,1.7-1.5c0-0.1,0-0.2,0-0.2
	c0-0.5-0.2-0.9-0.5-1.3c-0.3-0.3-0.8-0.5-1.3-0.5h-2.2V147.4z"/>
<path class="st3" d="M1002.1,154.3c-1.2-1.1-1.8-2.7-1.8-4.3c-0.1-1.6,0.6-3.2,1.7-4.3c2.5-2.1,6.2-2.1,8.6,0
	c1.2,1.1,1.8,2.7,1.7,4.3c0.1,1.6-0.6,3.2-1.7,4.3c-1.2,1.1-2.7,1.7-4.3,1.6C1004.9,156,1003.3,155.4,1002.1,154.3z M1008.2,152.1
	c0.5-0.6,0.8-1.4,0.7-2.2c0.1-0.8-0.2-1.6-0.7-2.2c-0.4-0.5-1.1-0.7-1.7-0.7c-0.7,0-1.3,0.3-1.7,0.7c-1,1.3-1,3,0,4.3
	c0.4,0.5,1.1,0.8,1.7,0.7C1007.1,152.9,1007.8,152.6,1008.2,152.1L1008.2,152.1z"/>
<path class="st3" d="M1015.5,154.3c-2.1-2.5-2.1-6.1,0-8.5c0.9-1.1,2.3-1.7,3.8-1.7c1.3-0.1,2.6,0.6,3.4,1.6v-5.3h3.6v15.4h-3.6
	v-1.7c-0.8,1.2-2.1,1.9-3.5,1.8C1017.8,155.9,1016.4,155.3,1015.5,154.3z M1021.9,152.1c0.5-0.6,0.8-1.3,0.8-2.1
	c0.1-0.8-0.2-1.5-0.8-2.1c-1-1-2.5-1-3.5,0c0,0,0,0,0,0c-0.5,0.6-0.8,1.3-0.8,2.1c-0.1,0.8,0.2,1.5,0.8,2.1
	C1019.3,153.1,1020.9,153.1,1021.9,152.1C1021.8,152.1,1021.9,152.1,1021.9,152.1z"/>
<path class="st3" d="M1195.2,145.6c0,1-0.4,2-1.1,2.9c-0.4,0.5-1,0.9-1.7,1.2c-0.8,0.3-1.7,0.5-2.6,0.4h-2.2v5.7h-3.6v-14.6h5.8
	c1.4-0.1,2.9,0.4,4,1.3C1194.7,143.3,1195.2,144.4,1195.2,145.6z M1187.6,147.4h2.2c0.9,0.1,1.7-0.6,1.7-1.5c0-0.1,0-0.2,0-0.2
	c0-0.5-0.2-0.9-0.5-1.3c-0.3-0.3-0.8-0.5-1.3-0.5h-2.2V147.4z"/>
<path class="st3" d="M1198.3,154.3c-1.2-1.1-1.8-2.7-1.8-4.3c-0.1-1.6,0.6-3.2,1.7-4.3c2.5-2.1,6.2-2.1,8.6,0
	c1.2,1.1,1.8,2.7,1.7,4.3c0.1,1.6-0.6,3.2-1.7,4.3c-1.2,1.1-2.7,1.7-4.3,1.6C1201,156,1199.4,155.4,1198.3,154.3z M1204.3,152.1
	c0.5-0.6,0.8-1.4,0.7-2.2c0.1-0.8-0.2-1.6-0.7-2.2c-0.4-0.5-1.1-0.7-1.7-0.7c-0.7,0-1.3,0.3-1.7,0.7c-1,1.3-1,3,0,4.3
	c0.4,0.5,1.1,0.8,1.7,0.7C1203.2,152.9,1203.9,152.6,1204.3,152.1L1204.3,152.1z"/>
<path class="st3" d="M1211.6,154.3c-2.1-2.5-2.1-6.1,0-8.5c0.9-1.1,2.3-1.7,3.8-1.7c1.3-0.1,2.6,0.6,3.4,1.6v-5.3h3.6v15.4h-3.6
	v-1.7c-0.8,1.2-2.1,1.9-3.5,1.8C1213.9,155.9,1212.5,155.3,1211.6,154.3z M1218,152.1c0.5-0.6,0.8-1.3,0.8-2.1
	c0.1-0.8-0.2-1.5-0.8-2.1c-1-1-2.5-1-3.5,0c0,0,0,0,0,0c-0.5,0.6-0.8,1.3-0.8,2.1c-0.1,0.8,0.2,1.5,0.8,2.1
	C1215.4,153.1,1217,153.1,1218,152.1C1218,152.1,1218,152.1,1218,152.1z"/>
<path class="st3" d="M803.2,145.6c0,1-0.4,2-1.1,2.9c-0.4,0.5-1,0.9-1.7,1.2c-0.8,0.3-1.7,0.5-2.6,0.4h-2.2v5.7H792v-14.6h5.8
	c1.4-0.1,2.9,0.4,4,1.3C802.6,143.3,803.2,144.4,803.2,145.6z M795.6,147.4h2.2c0.9,0.1,1.7-0.6,1.7-1.5c0-0.1,0-0.2,0-0.2
	c0-0.5-0.2-0.9-0.5-1.3c-0.3-0.3-0.8-0.5-1.3-0.5h-2.2L795.6,147.4z"/>
<path class="st3" d="M806.2,154.3c-1.2-1.1-1.8-2.7-1.8-4.3c-0.1-1.6,0.6-3.2,1.7-4.3c2.5-2.1,6.2-2.1,8.6,0
	c1.2,1.1,1.8,2.7,1.7,4.3c0.1,1.6-0.6,3.2-1.7,4.3c-1.2,1.1-2.7,1.7-4.3,1.6C809,156,807.4,155.4,806.2,154.3z M812.3,152.1
	c0.5-0.6,0.8-1.4,0.7-2.2c0.1-0.8-0.2-1.6-0.7-2.2c-0.4-0.5-1.1-0.7-1.7-0.7c-0.7,0-1.3,0.3-1.7,0.7c-1,1.3-1,3,0,4.3
	c0.4,0.5,1.1,0.8,1.7,0.7C811.2,152.9,811.8,152.6,812.3,152.1L812.3,152.1z"/>
<path class="st3" d="M819.6,154.3c-2.1-2.5-2.1-6.1,0-8.5c0.9-1.1,2.3-1.7,3.8-1.7c1.3-0.1,2.6,0.6,3.4,1.6v-5.3h3.6v15.4h-3.6v-1.7
	c-0.8,1.2-2.1,1.9-3.5,1.8C821.8,155.9,820.5,155.3,819.6,154.3z M826,152.1c0.5-0.6,0.8-1.3,0.8-2.1c0.1-0.8-0.2-1.5-0.8-2.1
	c-1-1-2.5-1-3.5,0c0,0,0,0,0,0c-0.5,0.6-0.8,1.3-0.8,2.1c-0.1,0.8,0.2,1.5,0.8,2.1C823.4,153.1,824.9,153.1,826,152.1
	C825.9,152.1,825.9,152.1,826,152.1z"/>
<path class="st4" d="M670,387.6c-8.7,0-15.8-7.1-15.8-15.8c0-8.7,7.1-15.8,15.8-15.8c8.7,0,15.8,7.1,15.8,15.8c0,0,0,0,0,0
	C685.8,380.6,678.7,387.6,670,387.6z"/>
<line class="st5" x1="669.6" y1="371.8" x2="709" y2="371.8"/>
<path class="st3" d="M670,379.7c-4.4,0-7.9-3.5-7.9-7.9c0-4.4,3.5-7.9,7.9-7.9c4.4,0,7.9,3.5,7.9,7.9c0,0,0,0,0,0
	C677.9,376.2,674.3,379.7,670,379.7z"/>
<polygon class="st3" points="707.2,377.8 717.6,371.8 707.2,365.9 "/>
<path class="st4" d="M769,1001.2H615.9c-11.3,0-20.6-9.3-20.6-20.6v-118c0-11.3,9.3-20.6,20.6-20.6H769c11.3,0,20.6,9.3,20.6,20.6
	v118C789.6,992,780.3,1001.2,769,1001.2z"/>
<g>
	<path class="st6" d="M692.5,862c-10.4,0-18.9,8.5-18.9,18.9c0,6.8,3.6,12.7,9,16l0.1-16.1c0-5.4,4.4-9.7,9.8-9.7
		c2.7,0,5.1,1,6.9,2.9c1.8,1.9,2.8,4.3,2.8,6.9l-0.1,16.1c5.5-3.3,9.1-9.3,9.1-16.1C711.3,870.4,702.9,862,692.5,862z"/>
	<path class="st6" d="M692.3,926.1C692.3,926.1,692.3,926.1,692.3,926.1c-2.6,0-4.7-2.1-4.7-4.7l0.2-40.6c0-2.6,2.1-4.7,4.7-4.7
		c0,0,0,0,0,0c2.6,0,4.7,2.1,4.7,4.7l-0.2,40.6C697,924,694.9,926.1,692.3,926.1z"/>
</g>
<g>
	<path class="st6" d="M650.4,970.7c-1.5,0.9-3.2,1.3-4.9,1.3c-3.5,0-6.7-1.9-8.5-4.9c-1.3-2.3-1.7-4.9-1-7.4c0.7-2.5,2.3-4.6,4.5-6
		l13.9-8.1c-2.7-1.5-5.7-2.3-9-2.3c-10.4,0-18.9,8.5-18.9,18.9c0,10.4,8.5,18.9,18.9,18.9c10.3,0,18.6-8.3,18.8-18.5L650.4,970.7z"
		/>
	<path class="st6" d="M645.5,966.9c-1.6,0-3.2-0.8-4.1-2.3c-1.3-2.3-0.5-5.1,1.7-6.4l35.1-20.4c2.3-1.3,5.1-0.5,6.4,1.7
		c1.3,2.3,0.5,5.1-1.7,6.4l-35.1,20.4C647.1,966.7,646.3,966.9,645.5,966.9z"/>
</g>
<g>
	<path class="st6" d="M739.5,943.4c-3.3,0-6.3,0.9-9,2.3l13.9,8c4.7,2.7,6.3,8.7,3.6,13.4c-1.7,3-5,4.9-8.5,4.9
		c-1.7,0-3.4-0.5-4.9-1.3l-13.9-8c0.2,10.2,8.6,18.4,18.8,18.4c10.4,0,18.9-8.5,18.9-18.9C758.3,951.8,749.9,943.4,739.5,943.4z"/>
	<path class="st6" d="M739.5,966.9c-0.8,0-1.6-0.2-2.4-0.6l-35.4-20.4c-2.3-1.3-3-4.2-1.7-6.4c1.3-2.3,4.2-3,6.4-1.7l35.4,20.4
		c2.3,1.3,3,4.2,1.7,6.4C742.7,966.1,741.1,966.9,739.5,966.9z"/>
</g>
<g>
	<circle class="st7" cx="776" cy="1110.1" r="36.8"/>
	<circle class="st8" cx="733.9" cy="1110.1" r="36.8"/>
	<circle class="st9" cx="691.8" cy="1110.1" r="36.8"/>
	<circle class="st10" cx="649.7" cy="1110.1" r="36.8"/>
	<circle class="st4" cx="607.6" cy="1110.1" r="36.8"/>
</g>
<g>
	<circle class="st7" cx="776" cy="1267" r="36.8"/>
	<circle class="st8" cx="733.9" cy="1267" r="36.8"/>
	<circle class="st9" cx="691.8" cy="1267" r="36.8"/>
	<circle class="st10" cx="649.7" cy="1267" r="36.8"/>
	<circle class="st4" cx="607.6" cy="1267" r="36.8"/>
</g>
</svg>
