<svg id="Layer_1" data-name="Layer 1" xmlns="http://www.w3.org/2000/svg" viewBox="0 0 1366 768"><defs><style>.cls-1{fill:#dee7f9;}.cls-2{fill:#abc3f6;}.cls-3{fill:#33313b;}.cls-4{fill:#2e68e9;}.cls-5{fill:none;stroke:#33313b;stroke-miterlimit:10;stroke-width:3px;}</style></defs><title>how-it-works</title><rect class="cls-1" width="1366" height="768" rx="10"/><rect class="cls-2" x="488.66664" y="409" width="388.6665" height="129.5" rx="6"/><rect class="cls-2" x="927.33314" y="409" width="388.6665" height="129.5" rx="6"/><rect class="cls-2" x="49.99964" y="409" width="388.66699" height="129.5" rx="6"/><rect class="cls-2" x="488.66614" y="229.5" width="388.667" height="129.5" rx="3.32448" transform="translate(1365.99928 588.5) rotate(180)"/><rect class="cls-2" x="488.66664" y="50" width="388.6665" height="129.5" rx="3.32447"/><rect class="cls-2" x="49.99964" y="588.5" width="1266" height="129.5" rx="6" transform="translate(1365.99929 1306.5) rotate(180)"/><path class="cls-3" d="M619.08949,109.644v-3.12011h13.29492V109.644H627.777v13.728h-4.10352V109.644Z"/><path class="cls-3" d="M643.92933,109.98h4.10352v13.39209h-4.10352V121.4043a4.38553,4.38553,0,0,1-4.05664,2.11181,4.856,4.856,0,0,1-3.73242-1.53613,5.89294,5.89294,0,0,1-1.42774-4.17578V109.98h4.08008v7.272a2.76943,2.76943,0,0,0,.6836,2.00391,2.86007,2.86007,0,0,0,3.76757,0,2.76181,2.76181,0,0,0,.68555-2.00391Z"/><path class="cls-3" d="M655.736,109.98v1.96826a4.3818,4.3818,0,0,1,4.05664-2.1123,4.86345,4.86345,0,0,1,3.73242,1.53613,5.89453,5.89453,0,0,1,1.42774,4.17578v7.82422h-4.08008v-7.272a2.77026,2.77026,0,0,0-.68359-2.00391,2.86268,2.86268,0,0,0-3.76953,0,2.77022,2.77022,0,0,0-.6836,2.00391v7.272h-4.10351V109.98Z"/><path class="cls-3" d="M672.53675,109.98v1.96826a4.38068,4.38068,0,0,1,4.05469-2.1123,4.85768,4.85768,0,0,1,3.73242,1.53613,5.89457,5.89457,0,0,1,1.42774,4.17578v7.82422h-4.08008v-7.272a2.77022,2.77022,0,0,0-.6836-2.00391,2.86007,2.86007,0,0,0-3.76757,0,2.76186,2.76186,0,0,0-.6836,2.00391v7.272h-4.10547V109.98Z"/><path class="cls-3" d="M690.91957,123.54a6.47251,6.47251,0,0,1-4.79883-1.88379,6.78806,6.78806,0,0,1-1.873-5.00439,6.68862,6.68862,0,0,1,1.85938-4.96778,6.53493,6.53493,0,0,1,4.8125-1.84814,6.87666,6.87666,0,0,1,4.89648,1.82422,6.60884,6.60884,0,0,1,1.94336,5.064,8.15779,8.15779,0,0,1-.0957,1.2959h-9.2168a2.34054,2.34054,0,0,0,2.24414,2.01611,3.26095,3.26095,0,0,0,1.16406-.15625,2.043,2.043,0,0,0,.56446-.312,4.13917,4.13917,0,0,0,.46875-.51562h4.43945a5.88845,5.88845,0,0,1-2.30469,3.25195A6.86158,6.86158,0,0,1,690.91957,123.54Zm1.75195-9.61182a2.61207,2.61207,0,0,0-1.70313-.58838,2.42416,2.42416,0,0,0-1.65625.58838,2.55015,2.55015,0,0,0-.83984,1.52393h5.01562A2.18126,2.18126,0,0,0,692.67152,113.92822Z"/><path class="cls-3" d="M700.4,123.37207V105.6123h4.10352v17.75977Z"/><path class="cls-3" d="M711.8473,108.46826a2.46036,2.46036,0,1,1,.69727-1.71631A2.31423,2.31423,0,0,1,711.8473,108.46826Zm-3.74414,14.90381V109.98h4.10547v13.39209Z"/><path class="cls-3" d="M719.91175,109.98v1.96826a4.3818,4.3818,0,0,1,4.05664-2.1123,4.86349,4.86349,0,0,1,3.73243,1.53613,5.89457,5.89457,0,0,1,1.42773,4.17578v7.82422h-4.08008v-7.272a2.77022,2.77022,0,0,0-.68359-2.00391,2.86268,2.86268,0,0,0-3.76953,0,2.77022,2.77022,0,0,0-.6836,2.00391v7.272h-4.10351V109.98Z"/><path class="cls-3" d="M733.4,121.62012a7.7216,7.7216,0,0,1,0-9.85205,5.662,5.662,0,0,1,4.332-1.93213,4.54659,4.54659,0,0,1,3.92382,1.896V109.98h4.10352v13.32031a7.137,7.137,0,0,1-1.53516,4.67969,4.98323,4.98323,0,0,1-2.09961,1.48828,9.7918,9.7918,0,0,1-7.957-.72021,4.92111,4.92111,0,0,1-2.03906-3.81592h4.03125q.57716,1.51172,2.88086,1.51172a2.51875,2.51875,0,0,0,1.87109-.75586,3.29686,3.29686,0,0,0,.74414-2.3877v-1.87207a4.64,4.64,0,0,1-3.98437,2.11182A5.61182,5.61182,0,0,1,733.4,121.62012Zm7.36719-2.4961a3.26007,3.26007,0,0,0,.88867-2.44775,3.21886,3.21886,0,0,0-.88867-2.436,2.85451,2.85451,0,0,0-4.08008.01172,3.2596,3.2596,0,0,0-.88672,2.44825,3.21868,3.21868,0,0,0,.88672,2.436,2.85393,2.85393,0,0,0,4.08008-.01221Z"/><path class="cls-3" d="M604.49574,289.18408a5.311,5.311,0,0,1-1.22266,3.28809,4.58234,4.58234,0,0,1-1.93164,1.332,8.12675,8.12675,0,0,1-3.03711.51611h-2.543v6.55176h-4.10547V284.02393h6.64844a6.45718,6.45718,0,0,1,4.56055,1.5122A4.79411,4.79411,0,0,1,604.49574,289.18408Zm-8.73438,2.01612h2.543a1.9683,1.9683,0,0,0,1.47656-.55225,1.98864,1.98864,0,0,0,.53907-1.45166,2.04807,2.04807,0,0,0-.55079-1.47608,1.93759,1.93759,0,0,0-1.46484-.57617h-2.543Z"/><path class="cls-3" d="M611.07191,287.48v2.49609q1.44141-2.63964,3.83984-2.64013v4.17627h-1.00781a2.9788,2.9788,0,0,0-2.12305.67187,3.165,3.165,0,0,0-.709,2.35205v6.33594h-4.10352V287.48Z"/><path class="cls-3" d="M622.83167,301.04a6.4725,6.4725,0,0,1-4.79882-1.88379,6.78806,6.78806,0,0,1-1.87305-5.00439,6.68865,6.68865,0,0,1,1.85937-4.96778,6.53494,6.53494,0,0,1,4.8125-1.84814,6.87669,6.87669,0,0,1,4.89649,1.82422,6.60884,6.60884,0,0,1,1.94336,5.064,8.15779,8.15779,0,0,1-.0957,1.2959H620.359a2.34054,2.34054,0,0,0,2.24414,2.01611,3.26095,3.26095,0,0,0,1.16406-.15625,2.04273,2.04273,0,0,0,.56445-.312,4.13759,4.13759,0,0,0,.46875-.51562h4.43946a5.88845,5.88845,0,0,1-2.30469,3.25195A6.86159,6.86159,0,0,1,622.83167,301.04Zm1.752-9.61182a2.61207,2.61207,0,0,0-1.70313-.58838,2.42416,2.42416,0,0,0-1.65625.58838,2.55015,2.55015,0,0,0-.83984,1.52393H625.4A2.18126,2.18126,0,0,0,624.58363,291.42822Z"/><path class="cls-3" d="M636.41566,289.23193a4.5466,4.5466,0,0,1,3.92383-1.896,5.662,5.662,0,0,1,4.332,1.93213,7.7216,7.7216,0,0,1,0,9.852A5.63659,5.63659,0,0,1,640.3766,301.04a4.54275,4.54275,0,0,1-3.96094-2.11182v8.32764h-4.10352V287.48h4.10352Zm4.96875,7.4043a3.21864,3.21864,0,0,0,.88672-2.436,3.25957,3.25957,0,0,0-.88672-2.44825,2.85451,2.85451,0,0,0-4.08008-.01172,3.21886,3.21886,0,0,0-.88867,2.436,3.26007,3.26007,0,0,0,.88867,2.44775,2.85393,2.85393,0,0,0,4.08008.01221Z"/><path class="cls-3" d="M649.85511,299.12012a7.7216,7.7216,0,0,1,0-9.852,5.665,5.665,0,0,1,4.332-1.93213,4.54425,4.54425,0,0,1,3.92383,1.896V287.48h4.10547v13.39209H658.111v-1.94385a4.63673,4.63673,0,0,1-3.98242,2.11182A5.61584,5.61584,0,0,1,649.85511,299.12012Zm7.36914-2.4961a3.25913,3.25913,0,0,0,.88672-2.44775,3.21794,3.21794,0,0,0-.88672-2.436,2.8545,2.8545,0,0,0-4.08008.01172,3.26054,3.26054,0,0,0-.88867,2.44825,3.2196,3.2196,0,0,0,.88867,2.436,2.85394,2.85394,0,0,0,4.08008-.01221Z"/><path class="cls-3" d="M669.91957,287.48v2.49609q1.44139-2.63964,3.83984-2.64013v4.17627H672.7516a2.97879,2.97879,0,0,0-2.12305.67187,3.1649,3.1649,0,0,0-.709,2.35205v6.33594h-4.10352V287.48Z"/><path class="cls-3" d="M681.67933,301.04a6.47254,6.47254,0,0,1-4.79883-1.88379,6.78809,6.78809,0,0,1-1.873-5.00439,6.68865,6.68865,0,0,1,1.85937-4.96778,6.53494,6.53494,0,0,1,4.8125-1.84814,6.87669,6.87669,0,0,1,4.89649,1.82422,6.60884,6.60884,0,0,1,1.94335,5.064,8.15779,8.15779,0,0,1-.0957,1.2959h-9.2168a2.34054,2.34054,0,0,0,2.24415,2.01611,3.26095,3.26095,0,0,0,1.16406-.15625,2.04273,2.04273,0,0,0,.56445-.312,4.13917,4.13917,0,0,0,.46875-.51562h4.43945a5.88839,5.88839,0,0,1-2.30468,3.25195A6.86159,6.86159,0,0,1,681.67933,301.04Zm1.75195-9.61182a2.612,2.612,0,0,0-1.70312-.58838,2.42414,2.42414,0,0,0-1.65625.58838,2.5501,2.5501,0,0,0-.83984,1.52393h5.01562A2.18127,2.18127,0,0,0,683.43128,291.42822Z"/><path class="cls-3" d="M709.32777,283.97607h4.10351v16.896h-4.10351l-6.86328-10.63184v10.63184H698.359v-16.896h4.10547l6.86328,10.63184Z"/><path class="cls-3" d="M718.09925,299.144a6.51451,6.51451,0,0,1-2.02734-4.99218,6.41845,6.41845,0,0,1,2.01562-4.95557,7.61264,7.61264,0,0,1,9.97266,0,6.43725,6.43725,0,0,1,2.00391,4.95557,6.57278,6.57278,0,0,1-1.99219,4.99218,6.92459,6.92459,0,0,1-4.96875,1.896A7.04789,7.04789,0,0,1,718.09925,299.144Zm6.97266-2.47216a3.50374,3.50374,0,0,0,.81641-2.49561,3.4019,3.4019,0,0,0-.83985-2.48438,2.70767,2.70767,0,0,0-1.99219-.85205,2.66671,2.66671,0,0,0-1.98046.85205,4.1113,4.1113,0,0,0,.02343,4.98,2.72466,2.72466,0,0,0,2.00391.86425A2.6127,2.6127,0,0,0,725.07191,296.67188Z"/><path class="cls-3" d="M733.49574,299.12012a7.7216,7.7216,0,0,1,0-9.852,5.662,5.662,0,0,1,4.332-1.93213,4.54661,4.54661,0,0,1,3.92383,1.896V283.1123h4.10351v17.75977H741.7516v-1.94385a4.64,4.64,0,0,1-3.98438,2.11182A5.61179,5.61179,0,0,1,733.49574,299.12012Zm7.36718-2.4961a3.26007,3.26007,0,0,0,.88868-2.44775,3.21887,3.21887,0,0,0-.88868-2.436,2.8545,2.8545,0,0,0-4.08007.01172,3.25957,3.25957,0,0,0-.88672,2.44825,3.21864,3.21864,0,0,0,.88672,2.436,2.85392,2.85392,0,0,0,4.08007-.01221Z"/><path class="cls-3" d="M755.14417,301.04a6.477,6.477,0,0,1-4.80078-1.88379,6.78688,6.78688,0,0,1-1.87109-5.00439,6.68865,6.68865,0,0,1,1.85937-4.96778,6.53494,6.53494,0,0,1,4.8125-1.84814,6.87194,6.87194,0,0,1,4.89454,1.82422,6.603,6.603,0,0,1,1.94531,5.064,8.39351,8.39351,0,0,1-.0957,1.2959h-9.2168a2.33639,2.33639,0,0,0,2.24414,2.01611,3.26095,3.26095,0,0,0,1.16406-.15625,2.07267,2.07267,0,0,0,.56445-.312,4.15517,4.15517,0,0,0,.4668-.51562h4.44141a5.88845,5.88845,0,0,1-2.30469,3.25195A6.86573,6.86573,0,0,1,755.14417,301.04Zm1.752-9.61182a2.61362,2.61362,0,0,0-1.70508-.58838,2.42761,2.42761,0,0,0-1.65625.58838,2.56014,2.56014,0,0,0-.83984,1.52393h5.01562A2.17911,2.17911,0,0,0,756.89613,291.42822Z"/><path class="cls-3" d="M763.71058,291.51221a3.65926,3.65926,0,0,1,1.51367-2.97608,6.40377,6.40377,0,0,1,4.0918-1.20019,6.82172,6.82172,0,0,1,4.16406,1.17627,4.04865,4.04865,0,0,1,1.67969,3.21582h-4.20117a1.17471,1.17471,0,0,0-.47852-.94776,2.37767,2.37767,0,0,0-1.22461-.25244q-1.60839,0-1.60742.98438,0,.88769,1.9668,1.22363a16.04135,16.04135,0,0,1,3.625,1.03223,3.13736,3.13736,0,0,1,1.96679,3.02392,3.64573,3.64573,0,0,1-1.60742,3.06006,6.64344,6.64344,0,0,1-4.05664,1.188,7.066,7.066,0,0,1-4.08008-1.11621,4.08758,4.08758,0,0,1-1.77539-3.29981h4.20118q.167,1.22388,1.72656,1.22412a1.99058,1.99058,0,0,0,1.18945-.33593,1.02484,1.02484,0,0,0,.4668-.86426q0-.52734-.7793-.83984a10.60809,10.60809,0,0,0-1.88476-.52784q-1.1045-.21606-2.21875-.54a4.23716,4.23716,0,0,1-1.89649-1.12793A2.884,2.884,0,0,1,763.71058,291.51221Z"/><path class="cls-3" d="M587.7555,645.02441a9.5111,9.5111,0,0,1,6.625,2.33985,8.42291,8.42291,0,0,1,0,12.15625,9.47806,9.47806,0,0,1-6.625,2.35156h-5.92773V645.02441ZM585.93324,658.752h1.82226a4.81155,4.81155,0,0,0,3.69727-1.43945,6.22816,6.22816,0,0,0,0-7.72852,4.81155,4.81155,0,0,0-3.69727-1.43945h-1.82226Z"/><path class="cls-3" d="M605.25355,662.04a6.477,6.477,0,0,1-4.80078-1.88379,6.78646,6.78646,0,0,1-1.8711-5.00391,6.68789,6.68789,0,0,1,1.85938-4.96777,6.53334,6.53334,0,0,1,4.8125-1.84863,6.8719,6.8719,0,0,1,4.89453,1.82422,6.604,6.604,0,0,1,1.94531,5.06445,8.40284,8.40284,0,0,1-.0957,1.2959h-9.2168a2.33535,2.33535,0,0,0,2.24414,2.01562,3.261,3.261,0,0,0,1.16407-.15625,2.07352,2.07352,0,0,0,.56445-.31152,4.19386,4.19386,0,0,0,.4668-.51563h4.4414a5.88841,5.88841,0,0,1-2.30468,3.252A6.86546,6.86546,0,0,1,605.25355,662.04Zm1.75195-9.61133a2.61137,2.61137,0,0,0-1.70508-.58887,2.4256,2.4256,0,0,0-1.65625.58887,2.55758,2.55758,0,0,0-.83984,1.52344H607.82A2.17706,2.17706,0,0,0,607.0055,652.42871Z"/><path class="cls-3" d="M618.83753,650.23242a4.54463,4.54463,0,0,1,3.92383-1.89648,5.66668,5.66668,0,0,1,4.332,1.93261,7.72093,7.72093,0,0,1,0,9.85157,5.64354,5.64354,0,0,1-4.29687,1.91992,4.53909,4.53909,0,0,1-3.959-2.11133v8.32715h-4.10546V648.48047h4.10546Zm4.9668,7.4043a3.22147,3.22147,0,0,0,.88867-2.43652,3.26125,3.26125,0,0,0-.88867-2.44825,2.85564,2.85564,0,0,0-4.08008-.01172,3.21913,3.21913,0,0,0-.88672,2.43653,3.258,3.258,0,0,0,.88672,2.44726,2.85451,2.85451,0,0,0,4.08008.0127Z"/><path class="cls-3" d="M631.484,661.87207V644.1123h4.10547v17.75977Z"/><path class="cls-3" d="M640.25746,660.14453a6.50906,6.50906,0,0,1-2.0293-4.99219,6.41413,6.41413,0,0,1,2.01758-4.95605,7.61,7.61,0,0,1,9.9707,0,6.4383,6.4383,0,0,1,2.00391,4.95605,6.57279,6.57279,0,0,1-1.99219,4.99219,6.92483,6.92483,0,0,1-4.9668,1.89551A7.0496,7.0496,0,0,1,640.25746,660.14453Zm6.9707-2.47265a3.49286,3.49286,0,0,0,.81641-2.49512,3.39368,3.39368,0,0,0-.83985-2.48438,2.70816,2.70816,0,0,0-1.99219-.85254,2.67028,2.67028,0,0,0-1.98046.85254,4.10679,4.10679,0,0,0,.02539,4.9795,2.71838,2.71838,0,0,0,2.0039.86425A2.6056,2.6056,0,0,0,647.22816,657.67188Z"/><path class="cls-3" d="M658.36488,661.6084l-5.209-13.12793h4.65625l2.97657,8.75976,3.26367-8.75976h4.29687l-8.54492,19.77539h-4.29492Z"/><path class="cls-3" d="M688.14808,661.87207l-.93555-2.832h-6.04882l-.93555,2.832H675.859l5.85742-16.89551h4.99219l5.832,16.89551Zm-5.95312-5.95215h3.98437l-1.99219-6Z"/><path class="cls-3" d="M695.3473,660.12012a7.72093,7.72093,0,0,1,0-9.85157,5.66377,5.66377,0,0,1,4.332-1.93261,4.54463,4.54463,0,0,1,3.92383,1.89648V644.1123h4.10547v17.75977h-4.10547v-1.94336a4.63629,4.63629,0,0,1-3.98242,2.11133A5.61581,5.61581,0,0,1,695.3473,660.12012Zm7.36914-2.4961a3.258,3.258,0,0,0,.88672-2.44726,3.21909,3.21909,0,0,0-.88672-2.43653,2.85564,2.85564,0,0,0-4.08008.01172,3.26129,3.26129,0,0,0-.88867,2.44825,3.2215,3.2215,0,0,0,.88867,2.43652,2.85451,2.85451,0,0,0,4.08008-.0127Z"/><path class="cls-3" d="M712.09925,660.12012a7.72093,7.72093,0,0,1,0-9.85157,5.66379,5.66379,0,0,1,4.332-1.93261,4.54463,4.54463,0,0,1,3.92383,1.89648V644.1123h4.10547v17.75977h-4.10547v-1.94336a4.63629,4.63629,0,0,1-3.98242,2.11133A5.61584,5.61584,0,0,1,712.09925,660.12012Zm7.36914-2.4961a3.258,3.258,0,0,0,.88672-2.44726,3.21909,3.21909,0,0,0-.88672-2.43653,2.85563,2.85563,0,0,0-4.08007.01172,3.26125,3.26125,0,0,0-.88868,2.44825,3.22147,3.22147,0,0,0,.88868,2.43652,2.8545,2.8545,0,0,0,4.08007-.0127Z"/><path class="cls-3" d="M727.9391,655.15234v-3.4082h10.56054v3.4082Z"/><path class="cls-3" d="M743.04847,660.14453a6.50909,6.50909,0,0,1-2.0293-4.99219,6.41417,6.41417,0,0,1,2.01758-4.95605,7.61,7.61,0,0,1,9.97071,0,6.43833,6.43833,0,0,1,2.0039,4.95605,6.57275,6.57275,0,0,1-1.99219,4.99219,6.92479,6.92479,0,0,1-4.96679,1.89551A7.04961,7.04961,0,0,1,743.04847,660.14453Zm6.9707-2.47265a3.49282,3.49282,0,0,0,.81641-2.49512,3.39372,3.39372,0,0,0-.83984-2.48438,2.70816,2.70816,0,0,0-1.99219-.85254,2.6703,2.6703,0,0,0-1.98047.85254,4.10683,4.10683,0,0,0,.02539,4.9795,2.71842,2.71842,0,0,0,2.00391.86425A2.60557,2.60557,0,0,0,750.01917,657.67188Z"/><path class="cls-3" d="M761.7555,648.48047v1.96777a4.38274,4.38274,0,0,1,4.05664-2.1123,4.8652,4.8652,0,0,1,3.73243,1.53613,5.89537,5.89537,0,0,1,1.42773,4.17578v7.82422h-4.08008v-7.27148a2.76943,2.76943,0,0,0-.68359-2.00391,2.86268,2.86268,0,0,0-3.76953,0,2.76943,2.76943,0,0,0-.6836,2.00391v7.27148H757.652v-13.3916Z"/><path class="cls-3" d="M773.53871,652.5127a3.66011,3.66011,0,0,1,1.51367-2.97657,6.40372,6.40372,0,0,1,4.09179-1.20019,6.81862,6.81862,0,0,1,4.16407,1.17676,4.04794,4.04794,0,0,1,1.67968,3.21582h-4.20117a1.17573,1.17573,0,0,0-.47851-.94825,2.37818,2.37818,0,0,0-1.22461-.25195q-1.60841,0-1.60742.98438,0,.88769,1.96679,1.22363a16.04172,16.04172,0,0,1,3.625,1.03222,3.13733,3.13733,0,0,1,1.9668,3.02344,3.6466,3.6466,0,0,1-1.60742,3.06055,6.64326,6.64326,0,0,1-4.05664,1.1875,7.066,7.066,0,0,1-4.08008-1.11621,4.08686,4.08686,0,0,1-1.77539-3.29981h4.20117q.167,1.22462,1.72656,1.22461a1.994,1.994,0,0,0,1.18946-.33593,1.02608,1.02608,0,0,0,.46679-.86426q0-.52734-.77929-.83985a10.60655,10.60655,0,0,0-1.88477-.52832q-1.1045-.21533-2.21875-.54A4.23286,4.23286,0,0,1,774.32,654.6123,2.88359,2.88359,0,0,1,773.53871,652.5127Z"/><path class="cls-3" d="M618.05628,466.52441h4.416l-4.70313,16.84766H613.0641l-2.95118-10.67969-2.92773,10.67969h-4.70508l-4.77539-16.84766h4.39258l2.92773,12.12012,3-12.12012h4.65625l2.87891,11.92774Z"/><path class="cls-3" d="M625.50941,481.64453a6.50906,6.50906,0,0,1-2.0293-4.99219,6.41417,6.41417,0,0,1,2.01758-4.95605,7.61,7.61,0,0,1,9.9707,0,6.4383,6.4383,0,0,1,2.00391,4.95605,6.57275,6.57275,0,0,1-1.99219,4.99219,6.92479,6.92479,0,0,1-4.96679,1.89551A7.04961,7.04961,0,0,1,625.50941,481.64453Zm6.9707-2.47265a3.49286,3.49286,0,0,0,.81641-2.49512,3.39368,3.39368,0,0,0-.83985-2.48438,2.70812,2.70812,0,0,0-1.99218-.85254,2.67029,2.67029,0,0,0-1.98047.85254,4.10679,4.10679,0,0,0,.02539,4.9795,2.7184,2.7184,0,0,0,2.00391.86425A2.6056,2.6056,0,0,0,632.48011,479.17188Z"/><path class="cls-3" d="M644.21644,469.98047v2.49609q1.44141-2.63964,3.83984-2.64062v4.17676h-1.00781a2.97657,2.97657,0,0,0-2.123.67187,3.1644,3.1644,0,0,0-.709,2.35156v6.33594h-4.10352v-13.3916Z"/><path class="cls-3" d="M654.39222,483.37207h-4.10351V465.6123h4.10351v9.96l4.15235-5.5918h5.51953l-5.73633,6.83984,5.73633,6.55176h-5.44727l-4.22461-5.35156Z"/><path class="cls-3" d="M671.64808,483.54a6.47254,6.47254,0,0,1-4.79883-1.88379,6.78771,6.78771,0,0,1-1.873-5.00391,6.68788,6.68788,0,0,1,1.85937-4.96777,6.53335,6.53335,0,0,1,4.8125-1.84863,6.87669,6.87669,0,0,1,4.89649,1.82422,6.61,6.61,0,0,1,1.94335,5.06445,8.16661,8.16661,0,0,1-.0957,1.2959h-9.2168a2.33947,2.33947,0,0,0,2.24415,2.01562,3.26095,3.26095,0,0,0,1.16406-.15625,2.04357,2.04357,0,0,0,.56445-.31152,4.17588,4.17588,0,0,0,.46875-.51563h4.43945a5.88841,5.88841,0,0,1-2.30468,3.252A6.86128,6.86128,0,0,1,671.64808,483.54ZM673.4,473.92871a2.60978,2.60978,0,0,0-1.70312-.58887,2.42213,2.42213,0,0,0-1.65625.58887,2.54744,2.54744,0,0,0-.83984,1.52344h5.01562A2.17925,2.17925,0,0,0,673.4,473.92871Z"/><path class="cls-3" d="M685.23207,469.98047v2.49609q1.44139-2.63964,3.83984-2.64062v4.17676H688.0641a2.97655,2.97655,0,0,0-2.12305.67187,3.16436,3.16436,0,0,0-.709,2.35156v6.33594h-4.10352v-13.3916Z"/><path class="cls-3" d="M711.34339,471.68457a5.31314,5.31314,0,0,1-1.22265,3.28809,4.58669,4.58669,0,0,1-1.93164,1.332,8.137,8.137,0,0,1-3.03711.51562h-2.543v6.55176h-4.10547V466.52441H705.152a6.45922,6.45922,0,0,1,4.56054,1.51172A4.79512,4.79512,0,0,1,711.34339,471.68457ZM702.609,473.7002h2.543a1.968,1.968,0,0,0,1.47656-.55176,1.99064,1.99064,0,0,0,.53906-1.45215,2.04768,2.04768,0,0,0-.55078-1.47559,1.93579,1.93579,0,0,0-1.46484-.57617h-2.543Z"/><path class="cls-3" d="M713.81605,483.37207V465.6123h4.10352v17.75977Z"/><path class="cls-3" d="M722.31214,481.62012a7.72093,7.72093,0,0,1,0-9.85157,5.66086,5.66086,0,0,1,4.332-1.93261,4.547,4.547,0,0,1,3.92383,1.89648v-1.75195h4.10352v13.3916H730.568v-1.94336a4.63957,4.63957,0,0,1-3.98437,2.11133A5.61182,5.61182,0,0,1,722.31214,481.62012Zm7.36719-2.4961a3.2589,3.2589,0,0,0,.88867-2.44726,3.22,3.22,0,0,0-.88867-2.43653,2.85565,2.85565,0,0,0-4.08008.01172,3.26035,3.26035,0,0,0-.88672,2.44825,3.22058,3.22058,0,0,0,.88672,2.43652,2.8545,2.8545,0,0,0,4.08008-.0127Z"/><path class="cls-3" d="M742.3766,469.98047v1.96777a4.3816,4.3816,0,0,1,4.05468-2.1123,4.85942,4.85942,0,0,1,3.73243,1.53613,5.89537,5.89537,0,0,1,1.42773,4.17578v7.82422h-4.08008v-7.27148a2.76943,2.76943,0,0,0-.68359-2.00391,2.86009,2.86009,0,0,0-3.76758,0,2.76108,2.76108,0,0,0-.68359,2.00391v7.27148h-4.10547v-13.3916Z"/><path class="cls-3" d="M760.75941,483.54a6.47253,6.47253,0,0,1-4.79883-1.88379,6.78768,6.78768,0,0,1-1.87305-5.00391,6.68785,6.68785,0,0,1,1.85938-4.96777,6.53334,6.53334,0,0,1,4.8125-1.84863,6.87665,6.87665,0,0,1,4.89648,1.82422,6.60992,6.60992,0,0,1,1.94336,5.06445,8.16661,8.16661,0,0,1-.0957,1.2959h-9.2168a2.33947,2.33947,0,0,0,2.24414,2.01562,3.261,3.261,0,0,0,1.16407-.15625,2.04357,2.04357,0,0,0,.56445-.31152,4.17588,4.17588,0,0,0,.46875-.51563h4.43945a5.88838,5.88838,0,0,1-2.30469,3.252A6.86127,6.86127,0,0,1,760.75941,483.54Zm1.75195-9.61133a2.60982,2.60982,0,0,0-1.70312-.58887,2.42213,2.42213,0,0,0-1.65625.58887,2.54751,2.54751,0,0,0-.83985,1.52344h5.01563A2.17925,2.17925,0,0,0,762.51136,473.92871Z"/><path class="cls-3" d="M1038.3639,481.08008a8.86783,8.86783,0,0,1,0-12.35938,8.46811,8.46811,0,0,1,6.13184-2.43652,8.65463,8.65463,0,0,1,4.99218,1.48828,7.76313,7.76313,0,0,1,3.04786,4.12793h-4.89649a3.22187,3.22187,0,0,0-3.07129-1.84766,4.28811,4.28811,0,0,0-3.32422,1.31934,5.74208,5.74208,0,0,0,0,7.05664,4.28811,4.28811,0,0,0,3.32422,1.31934,3.22187,3.22187,0,0,0,3.07129-1.84766h4.89649a7.76313,7.76313,0,0,1-3.04786,4.12793,8.65463,8.65463,0,0,1-4.99218,1.48828A8.46811,8.46811,0,0,1,1038.3639,481.08008Z"/><path class="cls-3" d="M1056.24378,481.64453a6.51178,6.51178,0,0,1-2.02832-4.99219,6.41682,6.41682,0,0,1,2.01661-4.95605,7.61132,7.61132,0,0,1,9.97167,0,6.4383,6.4383,0,0,1,2.00391,4.95605,6.57275,6.57275,0,0,1-1.99219,4.99219,6.92551,6.92551,0,0,1-4.96777,1.89551A7.04964,7.04964,0,0,1,1056.24378,481.64453Zm6.97168-2.47265a3.49722,3.49722,0,0,0,.81641-2.49512,3.3978,3.3978,0,0,0-.83984-2.48438,2.70816,2.70816,0,0,0-1.99219-.85254,2.66874,2.66874,0,0,0-1.98047.85254,4.10868,4.10868,0,0,0,.02441,4.9795,2.72155,2.72155,0,0,0,2.00391.86425A2.60913,2.60913,0,0,0,1063.21546,479.17188Z"/><path class="cls-3" d="M1074.95179,469.98047v1.96777a4.38218,4.38218,0,0,1,4.05567-2.1123,4.86229,4.86229,0,0,1,3.73242,1.53613,5.89537,5.89537,0,0,1,1.42773,4.17578v7.82422h-4.08008v-7.27148a2.76943,2.76943,0,0,0-.68359-2.00391,2.86138,2.86138,0,0,0-3.76855,0,2.76523,2.76523,0,0,0-.6836,2.00391v7.27148h-4.10449v-13.3916Z"/><path class="cls-3" d="M1093.33558,479.89258h1.46387v3.47949h-2.08789a5.4352,5.4352,0,0,1-3.49219-.99609,4.15821,4.15821,0,0,1-1.23633-3.41993v-5.56738H1086.735v-3.4082h1.24805V466.7168h4.10449v3.26367h2.6875v3.4082h-2.6875v5.56738Q1092.08753,479.8921,1093.33558,479.89258Z"/><path class="cls-3" d="M1101.71156,469.98047v2.49609q1.43994-2.63964,3.83984-2.64062v4.17676h-1.00781a2.97913,2.97913,0,0,0-2.124.67187,3.16445,3.16445,0,0,0-.708,2.35156v6.33594h-4.10449v-13.3916Z"/><path class="cls-3" d="M1108.85121,481.64453a6.51178,6.51178,0,0,1-2.02832-4.99219,6.41681,6.41681,0,0,1,2.0166-4.95605,7.61133,7.61133,0,0,1,9.97168,0,6.43833,6.43833,0,0,1,2.0039,4.95605,6.57278,6.57278,0,0,1-1.99218,4.99219,6.92555,6.92555,0,0,1-4.96778,1.89551A7.0496,7.0496,0,0,1,1108.85121,481.64453Zm6.97168-2.47265a3.49726,3.49726,0,0,0,.8164-2.49512,3.3978,3.3978,0,0,0-.83984-2.48438,2.70816,2.70816,0,0,0-1.99219-.85254,2.66877,2.66877,0,0,0-1.98047.85254,4.1087,4.1087,0,0,0,.02442,4.9795,2.72151,2.72151,0,0,0,2.0039.86425A2.60917,2.60917,0,0,0,1115.82289,479.17188Z"/><path class="cls-3" d="M1123.45472,483.37207V465.6123h4.10449v17.75977Z"/><path class="cls-3" d="M1151.19789,471.68457a5.31443,5.31443,0,0,1-1.22364,3.28809,4.58669,4.58669,0,0,1-1.93164,1.332,8.128,8.128,0,0,1-3.03613.51562h-2.54395v6.55176H1138.358V466.52441h6.64844a6.45668,6.45668,0,0,1,4.55957,1.51172A4.79609,4.79609,0,0,1,1151.19789,471.68457Zm-8.73536,2.01563h2.54395a1.96726,1.96726,0,0,0,1.47559-.55176,1.98725,1.98725,0,0,0,.54-1.45215,2.04429,2.04429,0,0,0-.55175-1.47559,1.93214,1.93214,0,0,0-1.46387-.57617h-2.54395Z"/><path class="cls-3" d="M1153.66957,483.37207V465.6123h4.10449v17.75977Z"/><path class="cls-3" d="M1162.16566,481.62012a7.72093,7.72093,0,0,1,0-9.85157,5.6623,5.6623,0,0,1,4.332-1.93261,4.54581,4.54581,0,0,1,3.92383,1.89648v-1.75195h4.10449v13.3916h-4.10449v-1.94336a4.638,4.638,0,0,1-3.9834,2.11133A5.61381,5.61381,0,0,1,1162.16566,481.62012Zm7.36816-2.4961a3.25843,3.25843,0,0,0,.8877-2.44726,3.21955,3.21955,0,0,0-.8877-2.43653,2.85565,2.85565,0,0,0-4.08008.01172,3.26082,3.26082,0,0,0-.88769,2.44825,3.221,3.221,0,0,0,.88769,2.43652,2.85451,2.85451,0,0,0,4.08008-.0127Z"/><path class="cls-3" d="M1182.23011,469.98047v1.96777a4.38218,4.38218,0,0,1,4.05567-2.1123,4.86229,4.86229,0,0,1,3.73242,1.53613,5.89537,5.89537,0,0,1,1.42773,4.17578v7.82422h-4.08008v-7.27148a2.76943,2.76943,0,0,0-.68359-2.00391,2.86138,2.86138,0,0,0-3.76855,0,2.76523,2.76523,0,0,0-.6836,2.00391v7.27148h-4.10449v-13.3916Z"/><path class="cls-3" d="M1200.6139,483.54a6.47476,6.47476,0,0,1-4.7998-1.88379,6.78706,6.78706,0,0,1-1.87207-5.00391,6.68788,6.68788,0,0,1,1.85937-4.96777,6.53335,6.53335,0,0,1,4.8125-1.84863,6.8743,6.8743,0,0,1,4.89551,1.82422,6.607,6.607,0,0,1,1.94433,5.06445,8.28243,8.28243,0,0,1-.0957,1.2959h-9.2168a2.33742,2.33742,0,0,0,2.24415,2.01562,3.26095,3.26095,0,0,0,1.16406-.15625,2.05852,2.05852,0,0,0,.56445-.31152,4.184,4.184,0,0,0,.46777-.51563h4.44043a5.88841,5.88841,0,0,1-2.30468,3.252A6.86336,6.86336,0,0,1,1200.6139,483.54Zm1.75195-9.61133a2.61055,2.61055,0,0,0-1.7041-.58887,2.42387,2.42387,0,0,0-1.65625.58887,2.55252,2.55252,0,0,0-.83984,1.52344h5.01562A2.17811,2.17811,0,0,0,1202.36585,473.92871Z"/><path class="cls-3" d="M184.21449,483.54a6.47478,6.47478,0,0,1-4.79981-1.88379,6.7871,6.7871,0,0,1-1.87207-5.00391,6.68785,6.68785,0,0,1,1.85938-4.96777,6.53334,6.53334,0,0,1,4.8125-1.84863,6.87426,6.87426,0,0,1,4.8955,1.82422,6.607,6.607,0,0,1,1.94434,5.06445,8.28364,8.28364,0,0,1-.0957,1.2959h-9.2168a2.3374,2.3374,0,0,0,2.24414,2.01562,3.26095,3.26095,0,0,0,1.16406-.15625,2.0586,2.0586,0,0,0,.56446-.31152,4.18485,4.18485,0,0,0,.46777-.51563h4.44043a5.88843,5.88843,0,0,1-2.30469,3.252A6.86333,6.86333,0,0,1,184.21449,483.54Zm1.75195-9.61133a2.61059,2.61059,0,0,0-1.7041-.58887,2.42387,2.42387,0,0,0-1.65625.58887,2.55254,2.55254,0,0,0-.83985,1.52344h5.01563A2.17818,2.17818,0,0,0,185.96644,473.92871Z"/><path class="cls-3" d="M199.38246,479.89258h1.46386v3.47949h-2.08789a5.43522,5.43522,0,0,1-3.49219-.99609,4.15824,4.15824,0,0,1-1.23632-3.41993v-5.56738h-1.24805v-3.4082h1.24805V466.7168h4.10449v3.26367h2.6875v3.4082h-2.6875v5.56738Q198.13441,479.8921,199.38246,479.89258Z"/><path class="cls-3" d="M204.52992,481.668a7.61433,7.61433,0,0,1,0-9.97168,6.51475,6.51475,0,0,1,4.8125-1.86035,6.97791,6.97791,0,0,1,4.15136,1.21191,5.77387,5.77387,0,0,1,2.25684,3.46875h-4.44043a1.95067,1.95067,0,0,0-1.88379-1.20019,2.20075,2.20075,0,0,0-1.94433.92382,4.985,4.985,0,0,0,0,4.87207,2.11432,2.11432,0,0,0,1.86035.92383,2.30556,2.30556,0,0,0,1.20019-.26367,2.22857,2.22857,0,0,0,.76758-.93652h4.44043a5.96192,5.96192,0,0,1-2.28027,3.43261,6.774,6.774,0,0,1-4.12793,1.27149A6.48893,6.48893,0,0,1,204.52992,481.668Z"/><path class="cls-3" d="M218.84535,481.62012a7.72093,7.72093,0,0,1,0-9.85157,5.6623,5.6623,0,0,1,4.332-1.93261,4.54581,4.54581,0,0,1,3.92383,1.89648V465.6123h4.10449v17.75977h-4.10449v-1.94336a4.638,4.638,0,0,1-3.9834,2.11133A5.61379,5.61379,0,0,1,218.84535,481.62012Zm7.36816-2.4961a3.25843,3.25843,0,0,0,.8877-2.44726,3.21955,3.21955,0,0,0-.8877-2.43653,2.85565,2.85565,0,0,0-4.08008.01172,3.26082,3.26082,0,0,0-.88769,2.44825,3.221,3.221,0,0,0,.88769,2.43652,2.85451,2.85451,0,0,0,4.08008-.0127Z"/><path class="cls-3" d="M254.84535,471.68457a5.31443,5.31443,0,0,1-1.22364,3.28809,4.58669,4.58669,0,0,1-1.93164,1.332,8.128,8.128,0,0,1-3.03613.51562H246.11v6.55176H242.0055V466.52441h6.64844a6.45668,6.45668,0,0,1,4.55957,1.51172A4.79609,4.79609,0,0,1,254.84535,471.68457ZM246.11,473.7002h2.54395a1.96726,1.96726,0,0,0,1.47559-.55176,1.98726,1.98726,0,0,0,.54-1.45215,2.0443,2.0443,0,0,0-.55176-1.47559,1.93214,1.93214,0,0,0-1.46387-.57617H246.11Z"/><path class="cls-3" d="M257.317,483.37207V465.6123h4.10449v17.75977Z"/><path class="cls-3" d="M265.81312,481.62012a7.72093,7.72093,0,0,1,0-9.85157,5.6623,5.6623,0,0,1,4.332-1.93261,4.54581,4.54581,0,0,1,3.92383,1.89648v-1.75195h4.10449v13.3916H274.069v-1.94336a4.638,4.638,0,0,1-3.9834,2.11133A5.61381,5.61381,0,0,1,265.81312,481.62012Zm7.36816-2.4961a3.25843,3.25843,0,0,0,.8877-2.44726,3.21955,3.21955,0,0,0-.8877-2.43653,2.85563,2.85563,0,0,0-4.08007.01172,3.26078,3.26078,0,0,0-.8877,2.44825,3.221,3.221,0,0,0,.8877,2.43652,2.8545,2.8545,0,0,0,4.08007-.0127Z"/><path class="cls-3" d="M285.87757,469.98047v1.96777a4.38218,4.38218,0,0,1,4.05567-2.1123,4.86229,4.86229,0,0,1,3.73242,1.53613,5.89537,5.89537,0,0,1,1.42773,4.17578v7.82422h-4.08007v-7.27148a2.76943,2.76943,0,0,0-.6836-2.00391,2.86138,2.86138,0,0,0-3.76855,0,2.76523,2.76523,0,0,0-.6836,2.00391v7.27148h-4.10449v-13.3916Z"/><path class="cls-3" d="M304.26136,483.54a6.47476,6.47476,0,0,1-4.7998-1.88379,6.78706,6.78706,0,0,1-1.87207-5.00391,6.68788,6.68788,0,0,1,1.85937-4.96777,6.53335,6.53335,0,0,1,4.8125-1.84863,6.87429,6.87429,0,0,1,4.89551,1.82422,6.607,6.607,0,0,1,1.94434,5.06445,8.28238,8.28238,0,0,1-.09571,1.2959h-9.21679a2.3374,2.3374,0,0,0,2.24414,2.01562,3.26095,3.26095,0,0,0,1.16406-.15625,2.05852,2.05852,0,0,0,.56445-.31152,4.18476,4.18476,0,0,0,.46778-.51563h4.44043a5.88847,5.88847,0,0,1-2.30469,3.252A6.86336,6.86336,0,0,1,304.26136,483.54Zm1.752-9.61133a2.6106,2.6106,0,0,0-1.70411-.58887,2.42388,2.42388,0,0,0-1.65625.58887,2.55252,2.55252,0,0,0-.83984,1.52344h5.01562A2.17814,2.17814,0,0,0,306.01332,473.92871Z"/><path class="cls-4" d="M667.209,357.85157A15.791,15.791,0,1,1,683,373.64247,15.79273,15.79273,0,0,1,667.209,357.85157Z"/><line class="cls-5" x1="683.00018" y1="357.45674" x2="683.00018" y2="430.59977"/><path class="cls-3" d="M675.10468,357.85151a7.89551,7.89551,0,1,1,7.8955,7.89545A7.89621,7.89621,0,0,1,675.10468,357.85151Z"/><polygon class="cls-3" points="677.017 428.849 683 439.211 688.984 428.849 677.017 428.849"/><path class="cls-4" d="M667.209,537.40351A15.791,15.791,0,1,1,683,553.1944,15.79274,15.79274,0,0,1,667.209,537.40351Z"/><line class="cls-5" x1="683.00018" y1="537.00867" x2="683.00018" y2="610.15171"/><path class="cls-3" d="M675.10468,537.40345a7.89551,7.89551,0,1,1,7.8955,7.89545A7.89621,7.89621,0,0,1,675.10468,537.40345Z"/><polygon class="cls-3" points="677.017 608.401 683 618.763 688.984 608.401 677.017 608.401"/><path class="cls-4" d="M667.209,179.19065A15.791,15.791,0,1,1,683,194.98154,15.79273,15.79273,0,0,1,667.209,179.19065Z"/><line class="cls-5" x1="683.00018" y1="178.79581" x2="683.00018" y2="251.93885"/><path class="cls-3" d="M675.10468,179.19059a7.89551,7.89551,0,1,1,7.8955,7.89544A7.89621,7.89621,0,0,1,675.10468,179.19059Z"/><polygon class="cls-3" points="677.017 250.188 683 260.55 688.984 250.188 677.017 250.188"/><path class="cls-4" d="M1105.87538,537.92919a15.791,15.791,0,1,1,15.791,15.79089A15.79273,15.79273,0,0,1,1105.87538,537.92919Z"/><path class="cls-5" d="M683.00013,350.83438a36.87454,36.87454,0,0,1-36.87451,36.8746h-364.918a36.87457,36.87457,0,0,0-36.87451,36.87461v3.86331"/><polygon class="cls-3" points="236.854 426.258 244.333 439.211 251.813 426.258 236.854 426.258"/><path class="cls-5" d="M1121.66664,537.52649v27.5788a40.87863,40.87863,0,0,1-40.87842,40.87835H906.423a40.89363,40.89363,0,0,0-39.97949,32.31146"/><path class="cls-3" d="M1113.77113,537.92126a7.89551,7.89551,0,1,1,7.89551,7.89545A7.896,7.896,0,0,1,1113.77113,537.92126Z"/><polygon class="cls-3" points="860.905 635.832 865.545 646.862 872.778 637.33 860.905 635.832"/><path class="cls-4" d="M258.55872,537.92919a15.791,15.791,0,1,0-15.791,15.79089A15.79274,15.79274,0,0,0,258.55872,537.92919Z"/><path class="cls-5" d="M242.76741,537.52646v27.57886a40.87857,40.87857,0,0,0,40.87842,40.8783H458.01155a40.8935,40.8935,0,0,1,39.979,32.31146"/><path class="cls-3" d="M234.8719,537.92124a7.89551,7.89551,0,1,1,7.89551,7.89544A7.89639,7.89639,0,0,1,234.8719,537.92124Z"/><polygon class="cls-3" points="491.656 637.33 498.889 646.862 503.529 635.832 491.656 637.33"/><path class="cls-5" d="M682.99956,350.83438a36.87454,36.87454,0,0,0,36.87451,36.8746h364.918a36.87456,36.87456,0,0,1,36.87451,36.87461v3.86331"/><polygon class="cls-3" points="1114.187 426.258 1121.667 439.211 1129.146 426.258 1114.187 426.258"/></svg>