<?xml version="1.0" encoding="utf-8"?>
<!-- Generator: Adobe Illustrator 24.0.0, SVG Export Plug-In . SVG Version: 6.00 Build 0)  -->
<svg version="1.1" id="Layer_1" xmlns="http://www.w3.org/2000/svg" xmlns:xlink="http://www.w3.org/1999/xlink" x="0px" y="0px"
	 viewBox="0 0 1366 768" style="enable-background:new 0 0 1366 768;" xml:space="preserve">
<style type="text/css">
	.st0{fill:#E3F3F5;}
	.st1{fill:#C7E7EC;}
	.st2{fill:#AADAE2;}
	.st3{fill:#33313B;}
	.st4{fill:#72C2CF;}
	.st5{fill:none;stroke:#33313B;stroke-width:3;stroke-miterlimit:10;}
</style>
<path class="st0" d="M10,0h1346c5.5228271,0,10,4.4771523,10,10v748c0,5.5228271-4.4771729,10-10,10H10
	c-5.5228477,0-10-4.4771729-10-10V10C0,4.4771523,4.4771523,0,10,0z"/>
<path class="st1" d="M59.4283714,51H1081.517334c5.5228271,0,10,4.4771538,10,10v529.2346802c0,5.5228271-4.4771729,10-10,10
	H59.4283714c-5.5228462,0-10-4.4771729-10-10V61C49.4283714,55.4771538,53.9055252,51,59.4283714,51z"/>
<path class="st2" d="M1033.8216553,380.9795227H595.715271c-3.3137207,0-6-2.6862793-6-6v-93.4895935c0-3.3137207,2.6862793-6,6-6
	h438.1063843c3.3137207,0,6,2.6862793,6,6v93.4895935C1039.8216553,378.2932434,1037.135376,380.9795227,1033.8216553,380.9795227z"
	/>
<title>how-it-works</title>
<path class="st1" d="M59.4283714,629.4694214H1081.517334c5.5228271,0,10,4.4771729,10,10v68.5361938
	c0,5.5228271-4.4771729,10-10,10H59.4283714c-5.5228462,0-10-4.4771729-10-10v-68.5361938
	C49.4283714,633.9465942,53.9055252,629.4694214,59.4283714,629.4694214z"/>
<path class="st2" d="M104.428421,381.9796143c-2.7580719-0.0080872-4.9919281-2.2419128-5-5v-95.489624
	c0.0080719-2.7580872,2.2419281-4.9919128,5-5h188.9999847c3.3137207,0,6,2.6862793,6,6v94.4895935
	c-0.0080872,2.7580872-2.2419128,4.9919128-5,5L104.428421,381.9796143z"/>
<path class="st3" d="M163.2617188,332.1669922v6.5517578h-4.1044922v-16.8481445h6.6484375
	c1.6578064-0.1013489,3.2908783,0.4402771,4.5595703,1.512207c1.0488892,0.9205627,1.6446686,2.2524414,1.6318359,3.6479492
	c-0.0126648,1.0179443-0.3210907,2.0102234-0.8876953,2.8559875c-0.6882172,0.9958801-1.7243042,1.6980286-2.9042969,1.9682617
	l4.1279297,6.8637695h-4.7998047l-3.7920074-6.5517578L163.2617188,332.1669922z M163.2617188,324.9907227v4.0561523h2.5439453
	c1.0359344,0.0768433,1.9380035-0.7006531,2.0148468-1.7366028c0.0065918-0.0889587,0.0068665-0.1782837,0.0007782-0.2673035
	c0.0206909-0.54599-0.178009-1.0775452-0.5517578-1.4760742c-0.3842621-0.3908081-0.9163055-0.6002197-1.4638672-0.5761719
	H163.2617188z"/>
<path class="st3" d="M178.9335938,323.8149414c-0.9477539,0.975647-2.5069733,0.99823-3.4826202,0.0504761
	c-0.9756317-0.9477539-0.9982452-2.506958-0.0504761-3.482605c0.9477539-0.975647,2.5069733-0.99823,3.482605-0.0504761
	c0.4773407,0.4636841,0.7467194,1.1008301,0.7467804,1.7662964
	C179.6463623,322.7426453,179.394104,323.3644409,178.9335938,323.8149414z M175.1894531,338.71875v-13.3920898h4.1044922V338.71875
	H175.1894531z"/>
<path class="st3" d="M183.9619141,336.9907227c-1.3651886-1.2931519-2.1047211-3.1133118-2.0283203-4.9921875
	c-0.0814819-1.8666992,0.6548767-3.676178,2.0166168-4.9555664c2.8611298-2.4804688,7.1105499-2.4804688,9.9716797,0
	c1.3546448,1.2833252,2.0857697,3.0913391,2.0039062,4.9555664c0.0778046,1.8719482-0.6469727,3.6881104-1.9921875,4.9921875
	c-1.3375702,1.2680054-3.1255035,1.9503784-4.9677734,1.8959961
	C187.1134644,338.9371033,185.3157806,338.2559814,183.9619141,336.9907227z M190.9335938,334.5185547
	c0.5857544-0.6943665,0.8785248-1.5892944,0.8164062-2.4956055c0.063797-0.907135-0.2387238-1.802002-0.8398438-2.484375
	c-0.5165253-0.5489197-1.2384796-0.8576965-1.9921875-0.8520508c-0.7506256-0.0072021-1.4695587,0.3020935-1.9804688,0.8520508
	c-1.1131897,1.4764404-1.1031952,3.5145569,0.0244141,4.980011c0.518158,0.5550232,1.2446289,0.8683167,2.0039062,0.8642578
	C189.7154541,335.3908386,190.4322968,335.0759583,190.9335938,334.5185547z"/>
<path class="st3" d="M207.2890625,336.4267578c-3.3437347-3.4414978-3.3437347-8.9183655,0-12.3598633
	c1.6305084-1.607666,3.8425903-2.4864807,6.1318359-2.4360046c1.7773285-0.0282898,3.5203094,0.4911499,4.9921875,1.487793
	c1.4544678,0.9907532,2.5291595,2.4462585,3.0478516,4.1279297h-4.8964844
	c-0.5552521-1.1809082-1.767868-1.9104004-3.0712891-1.8476562c-1.247406-0.0651855-2.4612274,0.416748-3.3242035,1.3198242
	c-1.6158905,2.0745239-1.6158905,4.9816284,0,7.0561523c0.8629608,0.9030762,2.0767975,1.3850098,3.3242035,1.3198242
	c1.3035583,0.0627441,2.5162506-0.6669922,3.0712891-1.8481445h4.8964844
	c-0.5184326,1.6817932-1.5931702,3.1373901-3.0478516,4.1279297c-1.4716339,0.9972229-3.2147369,1.5168762-4.9921875,1.4882812
	C211.1316528,338.913269,208.9195557,338.0344543,207.2890625,336.4267578z"/>
<path class="st3" d="M224.1005859,321.8706055h4.1044922v13.7279968h5.1113281v3.1201172h-9.2158203V321.8706055z"/>
<path class="st3" d="M235.5966797,338.71875v-16.8481445h4.1044922V338.71875H235.5966797z"/>
<path class="st2" d="M594.715271,555.4694214c-2.7580566-0.0080566-4.9919434-2.2419434-5-5v-95.4895935
	c0.0080566-2.7580872,2.2419434-4.9919128,5-5h189c3.3137207,0,6,2.6862793,6,6v94.4895935
	c-0.0080566,2.7580566-2.2419434,4.9919434-5,5H594.715271z"/>
<path class="st2" d="M844.715271,555.4694214c-2.7580566-0.0080566-4.9919434-2.2419434-5-5v-95.4895935
	c0.0080566-2.7580872,2.2419434-4.9919128,5-5h189.000061c3.3137207,0,6,2.6862793,6,6v94.4895935
	c-0.0080566,2.7580566-2.2419434,4.9919434-5,5H844.715271z"/>
<g>
	<path class="st3" d="M648.9160156,495.3603516h4.1044922v13.7285156h5.1113281v3.1201172h-9.2158203V495.3603516z"/>
	<path class="st3" d="M664.15625,497.3046875c-0.9476318,0.9753113-2.5064697,0.9977417-3.4816895,0.0501099
		c-0.9753418-0.9476013-0.9978027-2.5064392-0.0501709-3.4817505s2.5064697-0.9977417,3.4818115-0.0501099
		c0.4771729,0.463623,0.7463379,1.1006165,0.7463379,1.7659302
		C664.8688965,496.2326965,664.6165771,496.8542786,664.15625,497.3046875z M660.4121094,512.2089844v-13.3925781h4.1044922
		v13.3925781H660.4121094z"/>
	<path class="st3" d="M672.2207031,498.8164062v1.96875c0.8479004-1.4098816,2.4144287-2.225708,4.0556641-2.1123047
		c1.4080811-0.0533447,2.7698975,0.5071411,3.7324219,1.5361328c0.9987793,1.1545105,1.5106201,2.6514893,1.4277344,4.1757812
		v7.8242188h-4.0800781v-7.2724609c0.0463867-0.7321167-0.1994629-1.4527588-0.6835938-2.0039062
		c-1.0788574-0.9440308-2.6896973-0.9440308-3.7685547,0c-0.4844971,0.5509033-0.7303467,1.2717285-0.6835938,2.0039062v7.2724609
		h-4.1044922v-13.3925781H672.2207031z"/>
	<path class="st3" d="M689.0205078,512.2089844h-4.1044922v-17.7597656h4.1044922v9.9599915l4.1513672-5.5927734h5.5205078
		l-5.7363281,6.8408203l5.7363281,6.5517273h-5.4482422l-4.2236328-5.3525391V512.2089844z"/>
	<path class="st3" d="M706.2763672,512.3770142c-1.791748,0.0636597-3.5296631-0.6184082-4.7998047-1.8837891
		c-1.2819824-1.3421631-1.9584961-3.1507874-1.8720703-5.0048828c-0.0913086-1.8414001,0.581543-3.6388245,1.859375-4.9677734
		c1.2833252-1.2491455,3.0229492-1.9170532,4.8125-1.8476562c1.8083496-0.0598755,3.5673828,0.5955811,4.8955078,1.8242188
		c1.3432617,1.3315735,2.0511475,3.1751099,1.9443359,5.0634766c0.0021973,0.4338074-0.0297852,0.8671265-0.0957031,1.2958984
		h-9.2167969c0.1568604,1.1291809,1.1047363,1.980957,2.2441406,2.0166016
		c0.3942871,0.0187988,0.7886963-0.0341492,1.1640625-0.15625c0.2034912-0.073822,0.3939209-0.1792908,0.5644531-0.3125
		c0.1702881-0.1583557,0.3267822-0.3308411,0.4677734-0.515625h4.4404297
		c-0.3668213,1.3189697-1.1817627,2.4688721-2.3046875,3.2520142
		C709.1790771,511.9802246,707.7410889,512.4134521,706.2763672,512.3770142z M708.0284424,502.7647095
		c-0.4804688-0.3917236-1.0843506-0.6000977-1.7041016-0.5878906c-0.6062012-0.0177612-1.1970215,0.191925-1.6563721,0.5878296
		c-0.4494629,0.3943481-0.7467041,0.9337158-0.8398438,1.5244141h5.015625
		c-0.050293-0.5987244-0.3453369-1.1502075-0.8154297-1.5244141L708.0284424,502.7647095z"/>
	<path class="st3" d="M719.8603516,498.8164062V501.3125c0.9599609-1.7597656,2.2399902-2.6396484,3.8398438-2.6396484v4.1757812
		h-1.0078125c-0.7681885-0.0586853-1.5292969,0.1820679-2.1240234,0.671875
		c-0.5430908,0.6568909-0.7983398,1.5050354-0.7080078,2.3525391v6.3359375h-4.1044922v-13.3925781H719.8603516z"/>
	<path class="st3" d="M726.7236328,510.4570007c-2.3671875-2.8576355-2.3671875-6.9949036,0-9.8525391
		c1.0919189-1.246521,2.6749268-1.9523926,4.3320312-1.9316406c1.5452881-0.07724,3.0238037,0.6369629,3.9238281,1.8955078
		v-6.1191406h4.1044922v17.7597961h-4.1044922v-1.9443359c-0.873291,1.3454285-2.3797607,2.1442261-3.9833984,2.1123047
		C729.3602295,512.3900146,727.8000488,511.6889038,726.7236328,510.4570007z M734.0917969,507.960907
		c0.6230469-0.6573792,0.9447021-1.544281,0.8876953-2.4482422c0.0587158-0.9004211-0.2633057-1.7840881-0.8876953-2.4355469
		c-1.1049805-1.1235046-2.9116211-1.1385193-4.0351562-0.0334778c-0.0151367,0.0148926-0.0300293,0.0299683-0.0449219,0.0451965
		c-0.6231689,0.6572876-0.9448242,1.544281-0.8876953,2.4482422c-0.0587158,0.9004211,0.2634277,1.7841187,0.8876953,2.4355469
		c1.1051025,1.1235046,2.9116211,1.1385193,4.0351562,0.0334778
		C734.0620117,507.9912109,734.0770264,507.9761353,734.0917969,507.960907z"/>
</g>
<path class="st3" d="M877.1591797,500.5205078c-0.0235596,1.2030029-0.4550171,2.3623352-1.2236328,3.2880859
	c-0.5172119,0.6042786-1.1829834,1.0633545-1.9316406,1.3320007c-0.9697266,0.3645935-2.0003662,0.5399475-3.0361328,0.5166016
	h-2.5439453v6.5517883h-4.1044922v-16.8486328h6.6484375c1.6578979-0.1014099,3.2910767,0.4403992,4.5595703,1.5126953
	C876.5762329,497.7934265,877.1719971,499.1251221,877.1591797,500.5205078z M868.4238281,502.5371094h2.5439453
	c1.0363159,0.0764465,1.9384155-0.7016602,2.0148315-1.7379761c0.0065308-0.088501,0.0068359-0.1773682,0.0007935-0.2659302
	c0.020752-0.5461426-0.1779175-1.0778809-0.5517578-1.4765625c-0.3843994-0.390625-0.9163208-0.6000061-1.4638672-0.5761719
	h-2.5439453V502.5371094z"/>
<path class="st3" d="M883.7353516,498.8164062V501.3125c0.9599609-1.7597656,2.2399292-2.6396484,3.8398438-2.6396484v4.1757812
	h-1.0078125c-0.7681885-0.0586853-1.5292969,0.1820679-2.1240234,0.671875
	c-0.5430908,0.6568909-0.7983398,1.5050354-0.7080078,2.3525391v6.3359375h-4.1044922v-13.3925781H883.7353516z"/>
<path class="st3" d="M890.875,510.4804688c-1.3651733-1.2931519-2.1047363-3.1133118-2.0283203-4.9921875
	c-0.0814819-1.8665466,0.6548462-3.6758728,2.0166016-4.9550781c2.861145-2.4804688,7.1105347-2.4804688,9.9716797,0
	c1.3546143,1.2831421,2.0857544,3.0910034,2.0039062,4.9550781c0.0778198,1.8719482-0.6469727,3.6881104-1.9921875,4.9921875
	c-1.3374023,1.2683411-3.1254272,1.9509277-4.9677734,1.8964844
	C894.0264282,512.4274292,892.2286987,511.7460632,890.875,510.4804688z M897.8466797,508.0087891
	c0.5856934-0.6946106,0.878418-1.5896606,0.8164062-2.4960938c0.0637817-0.907135-0.2387085-1.802002-0.8398438-2.484375
	c-0.5166016-0.5487976-1.2385254-0.8573914-1.9921875-0.8515625c-0.7505493-0.0073853-1.4694824,0.3017273-1.9804688,0.8515625
	c-1.1131592,1.4766235-1.1032104,3.5148315,0.0244141,4.9804688c0.5181885,0.5550232,1.2446289,0.8683167,2.0039062,0.8642578
	C896.62854,508.8810425,897.3453979,508.5661926,897.8466797,508.0087891z"/>
<path class="st3" d="M909.5830078,498.8164062v1.96875c0.8479004-1.4098816,2.4143677-2.225708,4.0556641-2.1123047
	c0.9281616-0.0160522,1.84375,0.2159119,2.6523438,0.671875c0.77771,0.4501648,1.4072876,1.1173706,1.8115234,1.9199219
	c0.4851074-0.7727966,1.147644-1.4186401,1.9326172-1.8837891c2.1222534-1.1855469,4.7678833-0.8604126,6.539978,0.8037109
	c1.0137329,1.1561584,1.5309448,2.6652832,1.4394531,4.2001953v7.8242188h-4.0800781v-7.2724609
	c0.046814-0.7321777-0.1990356-1.4530029-0.6835938-2.0039062c-1.0788574-0.9440002-2.6896973-0.9440002-3.7685547,0
	c-0.4845581,0.5509033-0.7304077,1.2717285-0.6835938,2.0039062v7.2724609h-4.0800781v-7.2724609
	c0.0463867-0.7321167-0.1994629-1.4527588-0.6835938-2.0039062c-1.0788574-0.9440002-2.6896973-0.9440002-3.7685547,0
	c-0.4845581,0.5509033-0.7304077,1.2717285-0.6835938,2.0039062v7.2724609h-4.1044922v-13.3925781H909.5830078z"/>
<path class="st3" d="M937.1826172,512.3770142c-1.791748,0.0636597-3.5296631-0.6184082-4.7998047-1.8837891
	c-1.2820435-1.3421631-1.9585571-3.1507874-1.8720703-5.0048828c-0.0913086-1.8414001,0.5814819-3.6388245,1.859375-4.9677734
	c1.2833252-1.2491455,3.0229492-1.9170532,4.8125-1.8476562c1.8082886-0.0598755,3.5673218,0.5955811,4.8955078,1.8242188
	c1.3432007,1.3315735,2.0511475,3.1751099,1.9443359,5.0634766c0.0021362,0.4338074-0.0298462,0.8671265-0.0957031,1.2958984
	h-9.2167358c0.1567993,1.1291809,1.1046753,1.980957,2.2441406,2.0166016
	c0.3942871,0.0187988,0.7886963-0.0341492,1.1640625-0.15625c0.2034302-0.073822,0.3939209-0.1792908,0.5644531-0.3125
	c0.1702271-0.1583557,0.3267212-0.3308411,0.4677734-0.515625h4.4404297
	c-0.3668213,1.3189697-1.1817627,2.4688721-2.3046875,3.2520142
	C940.0853271,511.9802551,938.6473389,512.4134521,937.1826172,512.3770142z M938.9345703,502.7647095
	c-0.4804077-0.3917236-1.0843506-0.6000977-1.7041016-0.5878906c-0.6061401-0.0177307-1.1969604,0.1919861-1.65625,0.5878906
	c-0.4495239,0.3943481-0.7467041,0.9337158-0.8398438,1.5244141H939.75c-0.050354-0.5987549-0.3453369-1.150238-0.8154297-1.5244751
	V502.7647095z"/>
<path class="st3" d="M952.3505859,508.7285156h1.4638672v3.4804688h-2.0878906
	c-1.2438354,0.078186-2.4767456-0.2734985-3.4921875-0.9960938c-0.914978-0.8898926-1.3707886-2.1506348-1.2363281-3.4199219
	v-5.5683594H945.75v-3.4082031h1.2480469v-3.2636719h4.1044922v3.2636719h2.687439v3.4082031h-2.6875v5.5683899
	C951.1025391,508.4169922,951.5185547,508.7288513,952.3505859,508.7285156z"/>
<path class="st3" d="M960.7265625,494.4492188v6.3359375c0.8479004-1.4098816,2.4143677-2.225708,4.0556641-2.1123047
	c1.40802-0.0533447,2.7698364,0.5071411,3.7324219,1.5361328c0.9987183,1.1545105,1.5105591,2.6514893,1.4277344,4.1757812
	v7.8242188h-4.0800781v-7.2724609c0.0463867-0.7321167-0.1994629-1.4527588-0.6835938-2.0039062
	c-1.0788574-0.9440308-2.6896973-0.9440308-3.7685547,0c-0.4845581,0.5509033-0.7304077,1.2717285-0.6835938,2.0039062v7.2724609
	h-4.1044922v-17.7597656H960.7265625z"/>
<path class="st3" d="M979.1103516,512.3770142c-1.791748,0.0637207-3.5296631-0.6184082-4.7998047-1.8837891
	c-1.2820435-1.3421631-1.9585571-3.1507874-1.8720703-5.0048828c-0.0912476-1.8414001,0.5814819-3.6388245,1.859375-4.9677734
	c1.2833252-1.2491455,3.0229492-1.9170532,4.8125-1.8476562c1.8082886-0.0598755,3.5673218,0.5955811,4.8955078,1.8242188
	c1.3432007,1.3315735,2.0511475,3.1751099,1.9443359,5.0634766c0.0021362,0.4338074-0.0298462,0.8671265-0.0957031,1.2958984
	h-9.2167969c0.1567993,1.1291809,1.1046753,1.980957,2.2441406,2.0166016
	c0.3942871,0.0187988,0.7886963-0.0341492,1.1640625-0.15625c0.2034302-0.073822,0.3939209-0.1792908,0.5644531-0.3125
	c0.1702271-0.1583557,0.3267212-0.3308411,0.4677734-0.515625h4.4404297
	c-0.3668213,1.3189697-1.1817627,2.4688721-2.3046875,3.2520142
	C982.0130615,511.9802246,980.5750732,512.4134521,979.1103516,512.3770142z M980.8623047,502.7647095
	c-0.4804077-0.3917542-1.0843506-0.6000977-1.7041016-0.5878906c-0.6061401-0.0177307-1.1969604,0.1919861-1.65625,0.5878906
	c-0.4495239,0.3943481-0.7467041,0.9337158-0.8398438,1.5244141h5.015625
	c-0.050354-0.5987549-0.3453369-1.1502686-0.8154297-1.5244751V502.7647095z"/>
<path class="st3" d="M997.6865234,498.8164062h4.1034546v13.3925781h-4.1035156v-1.9677734
	c-0.848938,1.4091797-2.4154053,2.2244263-4.0566406,2.1113281c-1.4077759,0.0535278-2.7694092-0.5069885-3.7314453-1.5361328
	c-0.9996338-1.1540527-1.5118408-2.6512756-1.4287109-4.1757812v-7.8242188h4.0800781v7.2724609
	c-0.0466919,0.7323303,0.199585,1.4532166,0.6845703,2.0039062c1.0784302,0.9440308,2.6891479,0.9440308,3.7675781,0
	c0.4849854-0.5506897,0.7312622-1.2715759,0.6845703-2.0039062L997.6865234,498.8164062z"/>
<path class="st3" d="M1004.4775391,502.8486328c-0.0037842-1.1774292,0.5592041-2.28479,1.5126953-2.9755859
	c1.1867676-0.8557739,2.6307983-1.2793274,4.0917969-1.2001953c1.4788208-0.0702209,2.9403687,0.3424683,4.1640625,1.1757812
	c1.0359497,0.7468262,1.6586304,1.9388733,1.6796875,3.2158203h-4.2001953
	c-0.0002441-0.3739929-0.1782227-0.725647-0.4794922-0.9472656c-0.3782349-0.1923218-0.8011475-0.2796631-1.2246094-0.2529297
	c-1.0712891,0-1.6071167,0.328125-1.6074219,0.984375c0,0.5917969,0.6559448,0.9996643,1.9677734,1.2236328
	c1.2443848,0.2004395,2.4608154,0.5469055,3.6240234,1.0322266c1.2275391,0.492981,2.0144043,1.7024231,1.9677734,3.0244141
	c0.012085,1.2250977-0.5917358,2.3744202-1.6074219,3.0595703c-1.1868286,0.8271484-2.611145,1.2443848-4.0566406,1.1884766
	c-1.4421387,0.0534058-2.8660278-0.3361206-4.0800781-1.1162109c-1.0906982-0.7480164-1.7521973-1.9774475-1.7753906-3.2998047
	h4.2001953c0.1113281,0.8154297,0.6871948,1.2232971,1.7275391,1.2236328
	c0.421814,0.0173035,0.8381348-0.1003723,1.1884766-0.3359375c0.2932739-0.1893311,0.4696045-0.5151978,0.4677734-0.8642578
	c0-0.3515625-0.2600708-0.6315002-0.7802734-0.8398438c-0.6103516-0.23349-1.2409668-0.4100342-1.8837891-0.5273438
	c-0.7363281-0.1445312-1.4762573-0.3245544-2.2197266-0.5400085c-0.7205811-0.2020874-1.3748779-0.5912476-1.8964844-1.1279297
	C1004.7255859,504.3825989,1004.4442749,503.6253357,1004.4775391,502.8486328z"/>
<path class="st3" d="M472.3242188,682.2216797h-4.1044922v-16.8486328h4.1044922v7.3925781l5.5673828-7.3925781h5.3760071
	l-6.9355469,8.4248047l6.9355469,8.4238281h-5.2792969l-5.6640625-7.4404297L472.3242188,682.2216797z"/>
<path class="st3" d="M494.5957031,668.8291016h4.1035156v13.3925781h-4.1035156v-1.9677734
	c-0.8489685,1.4091797-2.4154053,2.2244263-4.0566406,2.1113281c-1.4077759,0.0535278-2.7693787-0.506958-3.7314453-1.5361328
	c-0.9996033-1.1540527-1.5118713-2.6512451-1.4287109-4.1757812v-7.8242188h4.0801086v7.2724609
	c-0.0466919,0.7323608,0.1995544,1.453186,0.6845703,2.0039062c1.0784607,0.9440308,2.6891174,0.9440308,3.7675781,0
	c0.4850159-0.5507202,0.7312622-1.2715454,0.6845703-2.0039062L494.5957031,668.8291016z"/>
<path class="st3" d="M506.4033203,670.5810547c0.9000549-1.2585449,2.3785095-1.9727173,3.9238281-1.8955078
	c1.6569824-0.0205688,3.2399292,0.6853027,4.3319702,1.9316406c2.3671875,2.857605,2.3671875,6.9949341,0,9.8525391
	c-1.0838623,1.2352905-2.6525879,1.9363403-4.2958984,1.9199219c-1.6000061,0.0429077-3.1044312-0.7595825-3.9599915-2.1123047
	v1.9443359h-4.1044922v-17.7597656h4.1044922L506.4033203,670.5810547z M511.3710938,677.9853516
	c0.6243591-0.6514282,0.9464111-1.5351562,0.8876953-2.4355469c0.0571289-0.9039917-0.2644653-1.7909546-0.8876953-2.4482422
	c-1.0985413-1.1298218-2.9049988-1.1552124-4.0348511-0.0567017c-0.0152283,0.0148315-0.030304,0.0298462-0.0452271,0.0449829
	c-0.6243591,0.6514282-0.9464417,1.5351562-0.8876953,2.4355469c-0.0569763,0.9039307,0.2646179,1.7908936,0.8876953,2.4482422
	c1.0985413,1.1298218,2.9049988,1.1552124,4.0348511,0.0567017
	C511.341095,678.0155029,511.3561707,678.0004883,511.3710938,677.9853516z"/>
<path class="st3" d="M524.7392578,682.3896484c-1.791748,0.0636597-3.5296631-0.6184082-4.7998047-1.8837891
	c-1.2820435-1.3421631-1.9585571-3.1508179-1.8720703-5.0048828c-0.0912476-1.8414307,0.5814819-3.638855,1.859375-4.9677734
	c1.2833252-1.2491455,3.0229492-1.9170532,4.8125-1.8476562c1.8082886-0.0598755,3.5673218,0.5955811,4.8955078,1.8242188
	c1.3432007,1.331604,2.0511475,3.1751099,1.9443359,5.0634766c0.0021362,0.4338379-0.0298462,0.8671265-0.0957031,1.2958984
	h-9.2167969c0.1567993,1.1292114,1.1046753,1.980957,2.2441406,2.0166016
	c0.3942871,0.0187988,0.7886963-0.0341187,1.1640625-0.15625c0.2034302-0.0738525,0.3939209-0.1792603,0.5644531-0.3125
	c0.1702271-0.1583252,0.3267212-0.3308105,0.4677734-0.515625h4.4404297
	c-0.3668213,1.3189087-1.1817627,2.468811-2.3046875,3.2519531
	C527.6419678,681.9928589,526.2039795,682.4260864,524.7392578,682.3896484z M526.491272,672.7773438
	c-0.4804077-0.3917236-1.0843506-0.6000977-1.7041016-0.5878906c-0.6061401-0.0177612-1.1969604,0.1919556-1.65625,0.5878906
	c-0.4495239,0.3943481-0.7467041,0.9337158-0.8398438,1.5244141h5.015625
	c-0.050354-0.5987549-0.3453979-1.1502075-0.8154907-1.5244141H526.491272z"/>
<path class="st3" d="M538.3232422,668.8291016v2.4960938c0.9599609-1.7597656,2.2399292-2.6396484,3.8398438-2.6396484v4.1757812
	h-1.0078125c-0.7681885-0.0586548-1.5292969,0.1820679-2.1240234,0.671875
	c-0.5430908,0.6568604-0.7983398,1.5050049-0.7080078,2.3525391v6.3359375H534.21875v-13.3925781H538.3232422z"/>
<path class="st3" d="M548.4990234,668.8291016v1.96875c0.8479614-1.4098511,2.4143677-2.225708,4.0556641-2.1123047
	c1.40802-0.0533447,2.7698364,0.5071411,3.7324219,1.5361328c0.9987183,1.15448,1.5105591,2.6514893,1.4277344,4.1757812v7.8242188
	h-4.0800781v-7.2724609c0.0463867-0.7321167-0.1994629-1.4527588-0.6835938-2.0039062
	c-1.0788574-0.9440308-2.6896973-0.9440308-3.7685547,0c-0.4845581,0.5509033-0.7304077,1.2717285-0.6835938,2.0039062v7.2724609
	h-4.1044922v-13.3925781H548.4990234z"/>
<path class="st3" d="M566.8828125,682.3896484c-1.791748,0.0637207-3.5296631-0.6184082-4.7998047-1.8837891
	c-1.2820435-1.3421631-1.9585571-3.1508179-1.8720703-5.0048828c-0.0912476-1.8414307,0.5814819-3.638855,1.859375-4.9677734
	c1.2833252-1.2491455,3.0229492-1.9170532,4.8125-1.8476562c1.8082886-0.0598755,3.5673218,0.5955811,4.8955078,1.8242188
	c1.3432007,1.331604,2.0511475,3.1751099,1.9443359,5.0634766c0.0021362,0.4338379-0.0298462,0.8671265-0.0957031,1.2958984
	h-9.2167969c0.1567993,1.1292114,1.1046753,1.980957,2.2441406,2.0166016
	c0.3942871,0.0187988,0.7886963-0.0341187,1.1640625-0.15625c0.2034302-0.0738525,0.3939209-0.1792603,0.5644531-0.3125
	c0.1702271-0.1583252,0.3267212-0.3308105,0.4677734-0.515625h4.4404297
	c-0.3668213,1.3189087-1.1817627,2.468811-2.3046875,3.2519531
	C569.7855225,681.9928589,568.3475342,682.4260864,566.8828125,682.3896484z M568.6348267,672.7773438
	c-0.4804077-0.3917236-1.0843506-0.6000977-1.7041016-0.5878906c-0.6061401-0.0177612-1.1969604,0.1919556-1.65625,0.5878906
	c-0.4495239,0.3943481-0.7467041,0.9337158-0.8398438,1.5244141h5.015625
	c-0.050354-0.5987549-0.3453979-1.1502075-0.8154907-1.5244141H568.6348267z"/>
<path class="st3" d="M582.0507812,678.7412109h1.4638672v3.4804688h-2.0878906
	c-1.2438354,0.078186-2.4767456-0.2734985-3.4921875-0.9960938c-0.914978-0.8898926-1.3707886-2.1506348-1.2363281-3.4199219
	v-5.5683594h-1.2479858v-3.4082031h1.2479858v-3.2636719h4.1044922v3.2636719h2.6875v3.4082031h-2.6875v5.5683594
	C580.8027344,678.4296875,581.21875,678.7415161,582.0507812,678.7412109z"/>
<path class="st3" d="M592.0107422,682.3896484c-1.791748,0.0637207-3.5296631-0.6184082-4.7998047-1.8837891
	c-1.2820435-1.3421631-1.9585571-3.1508179-1.8720703-5.0048828c-0.0912476-1.8414307,0.5814819-3.638855,1.859375-4.9677734
	c1.2833252-1.2491455,3.0229492-1.9170532,4.8125-1.8476562c1.8082886-0.0598755,3.5673218,0.5955811,4.8955078,1.8242188
	c1.3432007,1.331604,2.0511475,3.1751099,1.9443359,5.0634766c0.0021362,0.4338379-0.0298462,0.8671265-0.0957031,1.2958984
	h-9.2167969c0.1567993,1.1292114,1.1046753,1.980957,2.2441406,2.0166016
	c0.3942871,0.0187988,0.7886963-0.0341187,1.1640625-0.15625c0.2034302-0.0738525,0.3939209-0.1792603,0.5644531-0.3125
	c0.1702271-0.1583252,0.3267212-0.3308105,0.4677734-0.515625h4.4404907
	c-0.3668213,1.3189087-1.1817627,2.468811-2.3046875,3.2519531
	C594.9134521,681.9928589,593.4755249,682.4260864,592.0107422,682.3896484z M593.7627563,672.7773438
	c-0.4804077-0.3917236-1.0843506-0.6000977-1.7041016-0.5878906c-0.6061401-0.0177612-1.1969604,0.1919556-1.65625,0.5878906
	c-0.4495239,0.3943481-0.7467041,0.9337158-0.8398438,1.5244141h5.015625
	c-0.050354-0.5987549-0.3453979-1.1502075-0.8154907-1.5244141H593.7627563z"/>
<path class="st3" d="M600.578125,672.8613281c-0.0037842-1.1774292,0.5592041-2.28479,1.5126953-2.9755859
	c1.1867676-0.8557739,2.6307983-1.2793579,4.0917969-1.2001953c1.4788208-0.0702515,2.9403687,0.3424683,4.1640625,1.1757812
	c1.0359497,0.7468262,1.6586304,1.9389038,1.6796875,3.2158203h-4.2001953
	c-0.0002441-0.3740234-0.1782227-0.725647-0.4794922-0.9472656c-0.3782349-0.1923218-0.8011475-0.2796631-1.2246094-0.2529297
	c-1.0712891,0-1.6071167,0.328125-1.6074219,0.984375c0,0.5917969,0.6559448,0.9996948,1.9677734,1.2236328
	c1.2443848,0.2004395,2.4608154,0.546875,3.6240234,1.0322266c1.227478,0.492981,2.0144043,1.7024536,1.9677734,3.0244141
	c0.012085,1.2250977-0.5917358,2.3743896-1.6074219,3.0595703c-1.1868286,0.8271484-2.611145,1.2443848-4.0566406,1.1884766
	c-1.4421387,0.0534058-2.8660278-0.3361206-4.0800781-1.1162109c-1.0906982-0.7479858-1.7521973-1.977478-1.7753906-3.2998047
	h4.2001953c0.1113281,0.8154297,0.6871948,1.2233276,1.7275391,1.2236328
	c0.421814,0.017334,0.8381348-0.1003418,1.1884766-0.3359375c0.2932739-0.1893311,0.4696045-0.5151978,0.4677734-0.8642578
	c0-0.3515625-0.2600708-0.6315308-0.7802734-0.8398438c-0.6103516-0.2334595-1.2409668-0.4100342-1.8837891-0.5273438
	c-0.7363281-0.1445312-1.4762573-0.3245239-2.2197266-0.539978c-0.7205811-0.2020874-1.3748779-0.5912476-1.8964844-1.1279297
	C600.8261719,674.3953247,600.5448608,673.6380005,600.578125,672.8613281z"/>
<path class="st2" d="M344.7153015,206.4896088c-2.7580872-0.0080719-4.9919128-2.2419281-5-5V106
	c0.0080872-2.7580719,2.2419128-4.9919281,5-5H533.715332c3.3137207,0,6,2.6862946,6,6v94.4896088
	c-0.0080566,2.7580719-2.2419434,4.9919281-5,5H344.7153015z"/>
<path class="st2" d="M594.715271,206.4896088c-2.7580566-0.0080719-4.9919434-2.2419281-5-5V106
	c0.0080566-2.7580719,2.2419434-4.9919281,5-5h189c3.3137207,0,6,2.6862946,6,6v94.4896088
	c-0.0080566,2.7580719-2.2419434,4.9919281-5,5H594.715271z"/>
<path class="st2" d="M844.715271,206.4896088c-2.7580566-0.0080719-4.9919434-2.2419281-5-5V106
	c0.0080566-2.7580719,2.2419434-4.9919281,5-5h189.000061c3.3137207,0,6,2.6862946,6,6v94.4896088
	c-0.0080566,2.7580719-2.2419434,4.9919281-5,5H844.715271z"/>
<path class="st3" d="M397.1035156,145.3808594c2.4258118-0.0942688,4.7958069,0.7430725,6.6239929,2.340332
	c3.35672,3.2183838,3.4688721,8.5485535,0.2504883,11.9052734c-0.0817261,0.0852356-0.1652527,0.1687622-0.2504883,0.2504883
	c-1.8247986,1.604248-4.196106,2.4462585-6.6239929,2.3520508h-5.9277344v-16.8481445H397.1035156z M395.2802734,159.1088562
	h1.8232422c1.3818665,0.0741425,2.7287292-0.4505463,3.6962891-1.4399414c1.7916565-2.2644653,1.7916565-5.4635315,0-7.7279968
	c-0.9675598-0.9893951-2.3144226-1.5140839-3.6962891-1.4399414h-1.8232422V159.1088562z"/>
<path class="st3" d="M409.9804688,160.5010071c-1.3652039-1.2931519-2.1047363-3.113327-2.0283203-4.9921875
	c-0.0814819-1.8666992,0.6548767-3.6761627,2.0166016-4.9555664c2.8611145-2.4804688,7.1105652-2.4804688,9.9716797,0
	c1.3546448,1.2833405,2.0857544,3.0913391,2.0039062,4.9555664c0.0777893,1.8719482-0.6469727,3.6881104-1.9921875,4.9921875
	c-1.3375854,1.2680054-3.1254883,1.9503784-4.9677734,1.8959961
	C413.132019,162.447403,411.3343201,161.7662506,409.9804688,160.5010071z M416.9521484,158.0288391
	c0.5857544-0.6943665,0.8785095-1.5893097,0.8164062-2.4956055c0.0637817-0.9071503-0.2387085-1.802002-0.8398438-2.484375
	c-0.5165405-0.5489197-1.2384644-0.8576965-1.9921875-0.8520508c-0.7506104-0.0072021-1.4695435,0.3021088-1.9804688,0.8520508
	c-1.1131897,1.4764404-1.1032104,3.5145416,0.0244141,4.9799957c0.518158,0.5550079,1.2446289,0.8683319,2.0039062,0.8642578
	c0.7496338,0.0079651,1.4664612-0.3068848,1.9677734-0.8643036V158.0288391z"/>
<path class="st3" d="M428.6884766,148.8369141v1.968277c0.8480835-1.4097137,2.4143982-2.2254944,4.0556641-2.1123047
	c0.9282227-0.0161133,1.8439026,0.2160034,2.6523438,0.6723633c0.777832,0.4500275,1.4074097,1.1172791,1.8115234,1.9199371
	c0.4850769-0.7729492,1.147644-1.4189453,1.9326172-1.8842773c2.122345-1.1856842,4.768158-0.8603363,6.5400085,0.8041992
	c1.0136414,1.1560059,1.5308228,2.6649475,1.4394531,4.199707v7.8241882h-4.0800781v-7.2720032
	c0.046936-0.732193-0.1989746-1.4530334-0.6835938-2.0039062c-1.0788269-0.9440002-2.6897278-0.9440002-3.7685547,0
	c-0.4846191,0.5508728-0.7305298,1.2717133-0.6835938,2.0039062v7.2720032h-4.0800781v-7.2720032
	c0.0464478-0.732132-0.1993713-1.4528046-0.6835938-2.0039062c-1.0788269-0.9440002-2.6897278-0.9440002-3.7685547,0
	c-0.4846191,0.5508728-0.7305298,1.2717133-0.6835938,2.0039062v7.2720032h-4.1044312v-13.3920898H428.6884766z"/>
<path class="st3" d="M451.3916016,160.4770508c-2.367157-2.8574219-2.367157-6.9945831,0-9.852005
	c1.0917664-1.2468414,2.6748657-1.9529266,4.3320007-1.9321289c1.5454102-0.0770569,3.0238342,0.6373291,3.9238281,1.8959961
	v-1.7519989h4.1045837v13.3920898h-4.1044922v-1.9438477c-0.8733521,1.3453064-2.3797913,2.1439514-3.9833984,2.1118164
	C454.0282288,162.4101105,452.4679871,161.7089844,451.3916016,160.4770508z M458.7597656,157.980957
	c0.6230774-0.6571808,0.9446716-1.5439453,0.8876953-2.4477539c0.0587158-0.9005432-0.2633362-1.7843781-0.8876953-2.4360046
	c-1.1059265-1.1235199-2.9132385-1.1377716-4.0367737-0.0318451c-0.0145874,0.0143585-0.0290222,0.0288849-0.0433044,0.0435638
	c-0.6231689,0.6573181-0.9447632,1.544281-0.8876953,2.4482422c-0.0586243,0.900528,0.2634277,1.7843323,0.8876953,2.4360046
	c1.1056213,1.1233826,2.9125671,1.1377869,4.0359802,0.0321655
	C458.7305298,158.0106964,458.7452393,157.9959106,458.7597656,157.980957z"/>
<path class="st3" d="M471.0957031,147.3251953c-0.9477539,0.9756317-2.5069885,0.9982452-3.482605,0.0504913
	c-0.975647-0.9477692-0.9982605-2.5069885-0.0505066-3.4826202c0.9477539-0.975647,2.5069885-0.9982452,3.4826355-0.0504913
	c0.4773254,0.4636993,0.7467041,1.1008301,0.7467651,1.7663116
	C471.8084717,146.2528839,471.5562134,146.8747101,471.0957031,147.3251953z M467.3515625,162.2289886v-13.3920746h4.1044922
	v13.3920898L467.3515625,162.2289886z"/>
<path class="st3" d="M479.1601562,148.8369141v1.968277c0.8480835-1.4097137,2.4143982-2.2254944,4.0556641-2.1123047
	c1.4079895-0.0531311,2.7697449,0.5073242,3.7324219,1.5361328c0.9986572,1.1545563,1.510498,2.6515045,1.4277344,4.1757965
	v7.8241882h-4.0800781v-7.2720032c0.0464478-0.732132-0.1993713-1.4528046-0.6835938-2.0039062
	c-1.0788269-0.9440002-2.6897278-0.9440002-3.7685547,0c-0.4846191,0.5508728-0.7305298,1.2717133-0.6835938,2.0039062v7.2720032
	h-4.1044922v-13.3920898H479.1601562z"/>
<path class="st3" d="M658.8037109,155.6772461v6.5517578h-4.1044922v-16.8481445h6.6484375
	c1.6578369-0.1013336,3.2908936,0.4402771,4.5595703,1.512207c1.0488892,0.9205933,1.6446533,2.2524719,1.6318359,3.647995
	c-0.0126343,1.0179443-0.321106,2.0102386-0.8876953,2.8560028c-0.6882324,0.9958801-1.7243042,1.6980438-2.9042969,1.9682617
	l4.1279297,6.863678h-4.7998047l-3.7919922-6.5517578H658.8037109z M658.8037109,148.5009766v4.0561523h2.5439453
	c1.0359497,0.0768433,1.9379883-0.7006378,2.0148315-1.7365723c0.0065918-0.088974,0.006897-0.1783142,0.0007935-0.267334
	c0.0206909-0.54599-0.1779785-1.0775299-0.5517578-1.4760742c-0.3842773-0.3908234-0.9163208-0.600235-1.4638672-0.5761719
	H658.8037109z"/>
<path class="st3" d="M671.7998047,160.5010071c-1.3651733-1.2931519-2.1047363-3.113327-2.0283203-4.9921875
	c-0.0814819-1.8666992,0.6548462-3.6761627,2.0166016-4.9555664c2.861145-2.4804688,7.1105347-2.4804688,9.9716797,0
	c1.3546753,1.2833405,2.0857544,3.0913391,2.0039062,4.9555664c0.0778198,1.8719482-0.6469727,3.6881104-1.9921875,4.9921875
	c-1.3375854,1.2680054-3.1254883,1.9503784-4.9677734,1.8959961
	C674.951355,162.447403,673.1536865,161.7662506,671.7998047,160.5010071z M678.7714844,158.0288391
	c0.5857544-0.6943665,0.87854-1.5892944,0.8164062-2.4956055c0.0637817-0.9071503-0.2387085-1.802002-0.8398438-2.484375
	c-0.5165405-0.5489197-1.2384644-0.8576965-1.9921875-0.8520508c-0.7506104-0.0072021-1.4695435,0.3020935-1.9804688,0.8520508
	c-1.1131592,1.4764404-1.1032104,3.5145416,0.0244141,4.9799957c0.5181885,0.5550079,1.2446289,0.8683167,2.0039062,0.8642578
	c0.7496338,0.0079803,1.4664917-0.3068848,1.9677734-0.8643036V158.0288391z"/>
<path class="st3" d="M695.5,148.8369141h4.1035156v13.3920898H695.5v-1.9677734
	c-0.8487549,1.4094543-2.4152832,2.2249603-4.0566406,2.1118164c-1.4077759,0.0535431-2.7694092-0.5069885-3.7314453-1.5361328
	c-0.9995117-1.1540985-1.5117798-2.6512756-1.4287109-4.1757812v-7.8242188h4.0800781v7.2720032
	c-0.0466919,0.7323303,0.199585,1.4532166,0.6845703,2.0039062c1.0784302,0.9440155,2.6891479,0.9440155,3.7675781,0
	c0.4849854-0.5506897,0.7312622-1.2715759,0.6845703-2.0039062V148.8369141z"/>
<path class="st3" d="M708.8916016,158.7489929h1.4638672v3.4799957h-2.0878906
	c-1.2438354,0.0781708-2.4767456-0.2734985-3.4921875-0.9960938c-0.9151001-0.8898468-1.3708496-2.1506195-1.2363281-3.4199219
	v-5.5678711h-1.2479858v-3.4082031h1.2479858v-3.2636719h4.1044922v3.2636719h2.6875v3.4082031h-2.6875v5.5679016
	C707.6435547,158.4369965,708.0595703,158.7489929,708.8916016,158.7489929z"/>
<path class="st3" d="M718.8515625,162.3970032c-1.791748,0.0636902-3.5296631-0.6184082-4.7998047-1.8837891
	c-1.2819824-1.3420258-1.9584961-3.1504669-1.8720703-5.0043945c-0.0913696-1.8414154,0.5814209-3.6388855,1.859375-4.9677734
	c1.2831421-1.2494965,3.0228271-1.9175873,4.8125-1.8481445c1.8082886-0.0598602,3.5673218,0.5955963,4.8955078,1.8242188
	c1.3432617,1.3317719,2.0511475,3.1754761,1.9443359,5.0639954c0.0021362,0.4338074-0.0298462,0.8671112-0.0957031,1.2958984
	h-9.2167969c0.1566162,1.1292114,1.1046753,1.9809265,2.2441406,2.0161133
	c0.3942871,0.0187988,0.7886963-0.0341492,1.1640625-0.15625c0.2033691-0.0736847,0.3938599-0.1789703,0.5644531-0.3119965
	c0.170105-0.1584625,0.3265991-0.3309479,0.4677734-0.515625h4.4404297
	c-0.3668213,1.3189545-1.1817627,2.4688721-2.3046875,3.2519989
	C721.7542114,162.0005798,720.3162231,162.433609,718.8515625,162.3970032z M720.6035767,152.7851868
	c-0.4802246-0.3920898-1.0842285-0.6006317-1.7041016-0.5883789c-0.6062012-0.017807-1.1971436,0.1921082-1.65625,0.5883789
	c-0.449585,0.3940735-0.7468262,0.9333344-0.8398438,1.5239258h5.015625
	c-0.0502319-0.5986481-0.3453369-1.1500244-0.8154907-1.5239563L720.6035767,152.7851868z"/>
<path class="st3" d="M909.5595703,159.9369965c-3.34375-3.4415131-3.34375-8.9183502,0-12.3598633
	c1.6304932-1.6076813,3.8425903-2.4864807,6.1318359-2.4360046c1.7773438-0.0283051,3.5203247,0.4911499,4.9921875,1.487793
	c1.4544678,0.9907379,2.5291748,2.4462585,3.0478516,4.1279297h-4.8964233
	c-0.5552368-1.1809082-1.7678833-1.9104004-3.0712891-1.8476562c-1.2474365-0.0651855-2.4612427,0.416748-3.3242188,1.3198242
	c-1.6159058,2.0745239-1.6159058,4.9816437,0,7.0561676c0.8629761,0.9030762,2.0767822,1.3850098,3.3242188,1.3198242
	c1.3035889,0.0627594,2.5162354-0.6669769,3.0712891-1.8481445h4.8964844
	c-0.5184326,1.6817932-1.5932007,3.1374054-3.0478516,4.1279297c-1.4716187,0.9972229-3.2147217,1.5168762-4.9921875,1.4882812
	C913.4022217,162.4235535,911.1900635,161.5447235,909.5595703,159.9369965z"/>
<path class="st3" d="M932.0595703,162.3970032c-1.791748,0.0636902-3.5296631-0.6184082-4.7998047-1.8837891
	c-1.2819824-1.3420258-1.9584961-3.1504669-1.8720703-5.0043945c-0.0913696-1.8414154,0.5814209-3.6388855,1.859375-4.9677734
	c1.2831421-1.2494965,3.0228271-1.9176025,4.8125-1.8481445c1.8082886-0.0598602,3.5673218,0.5955963,4.8955078,1.8242188
	c1.3432617,1.3317719,2.0511475,3.1754761,1.9443359,5.0639954c0.0021362,0.4338074-0.0298462,0.8671112-0.0957031,1.2958984
	h-9.2167969c0.1566162,1.1292114,1.1046753,1.9809265,2.2441406,2.0161133
	c0.3942871,0.0187988,0.7886963-0.0341492,1.1640625-0.15625c0.2033691-0.0736847,0.3938599-0.1789703,0.5644531-0.3119965
	c0.170105-0.1584625,0.3265991-0.3309479,0.4677734-0.515625h4.4404297
	c-0.3668213,1.3189545-1.1817627,2.4688721-2.3046875,3.2519989
	C934.9622192,162.0005798,933.524231,162.433609,932.0595703,162.3970032z M933.8115234,152.7851868
	c-0.4802246-0.3920898-1.0842285-0.6006317-1.7041016-0.5883789c-0.6062012-0.017807-1.1971436,0.1921082-1.65625,0.5883789
	c-0.449585,0.3940735-0.7468262,0.9333344-0.8398438,1.5239258h5.015686
	c-0.0502319-0.5986481-0.3452759-1.1500244-0.8154907-1.5239563V152.7851868z"/>
<path class="st3" d="M945.6435547,148.8369141v2.4960938c0.9599609-1.7597809,2.2399292-2.6398163,3.8398438-2.6401367v4.1762695
	h-1.0078125c-0.7682495-0.0589142-1.5294189,0.1818695-2.1240234,0.671875
	c-0.5430298,0.656723-0.7982788,1.5046539-0.7080078,2.352005v6.3359833h-4.1044922v-13.3920898H945.6435547z"/>
<path class="st3" d="M957.4033203,158.7489929h1.4638672v3.4799957h-2.0878906
	c-1.2438354,0.0781708-2.4767456-0.2734985-3.4921875-0.9960938c-0.9151001-0.8898468-1.3708496-2.1506195-1.2363281-3.4199219
	v-5.5678711h-1.2480469v-3.4082031h1.2480469v-3.2636719h4.1044922v3.2636719h2.6875v3.4082031h-2.6875v5.5679016
	C956.1552734,158.4369965,956.5712891,158.7489929,957.4033203,158.7489929z"/>
<path class="st3" d="M960.7626953,152.8691406c-0.0037842-1.1775818,0.5591431-2.28508,1.5126953-2.9760742
	c1.1867676-0.8557739,2.6307983-1.2793274,4.0917969-1.2001953c1.4788818-0.0703125,2.9405518,0.3425598,4.1640625,1.1762695
	c1.0360718,0.7467651,1.6586914,1.938858,1.6796875,3.2158203h-4.2001953
	c-0.0002441-0.3741455-0.1782227-0.7259064-0.4794922-0.9477539c-0.3782959-0.1921234-0.8012085-0.2792969-1.2246094-0.2524414
	c-1.0712891,0-1.6071167,0.328125-1.6074219,0.984375c0,0.5917969,0.6559448,0.9996796,1.9677734,1.2236328
	c1.2443848,0.2004242,2.4608154,0.5468903,3.6240234,1.0322266c1.227356,0.4929352,2.0142212,1.7021179,1.9677734,3.0239258
	c0.012085,1.2252197-0.5917358,2.374649-1.6074219,3.0599976c-1.1868896,0.8269653-2.611145,1.2440796-4.0566406,1.1880035
	c-1.4421387,0.0534363-2.8660278-0.3361053-4.0800781-1.1162109c-1.0908203-0.7479248-1.7523193-1.977417-1.7753906-3.2998047
	h4.2001953c0.1113281,0.815918,0.6871948,1.2239685,1.7275391,1.2241211
	c0.4217529,0.0170746,0.8380737-0.1005859,1.1884766-0.3359375c0.2930908-0.1894989,0.4694214-0.5152588,0.4677734-0.8642578
	c0-0.3515625-0.2600708-0.6315002-0.7802734-0.8398438c-0.6102905-0.2336578-1.2409058-0.4103546-1.8837891-0.527832
	c-0.7363281-0.1440582-1.4762573-0.3240509-2.2197266-0.5399933c-0.7207031-0.201889-1.375-0.5910645-1.8964844-1.1279297
	C961.0108032,154.4027557,960.7295532,153.6456604,960.7626953,152.8691406z"/>
<path class="st3" d="M1148.7373047,336.4267578c-3.34375-3.4414978-3.34375-8.9183655,0-12.3598633
	c1.6304932-1.607666,3.8426514-2.4864807,6.1318359-2.4360046c1.7773438-0.0282898,3.5202637,0.4911499,4.9921875,1.487793
	c1.4544678,0.9907532,2.5291748,2.4462585,3.0478516,4.1279297h-4.8964844
	c-0.5552979-1.1809082-1.7678223-1.9104004-3.0712891-1.8476562c-1.2474365-0.0651855-2.4613037,0.416748-3.3242188,1.3198242
	c-1.6158447,2.0745239-1.6158447,4.9816284,0,7.0561523c0.8393555,0.8935547,2.0272217,1.3756714,3.2519531,1.3198242
	c0.8563232,0.0377502,1.699585-0.2207336,2.3876953-0.7319336c0.6203613-0.4943848,1.0560303-1.1835327,1.2363281-1.9560547
	h-4.7519531v-3.1201172h9.1679688v3.1201172c-0.3746338,1.6585999-1.2553711,3.15979-2.5205078,4.2958984
	c-0.7043457,0.6712952-1.53125,1.2009277-2.4355469,1.5600586c-0.9781494,0.4021301-2.0263672,0.6061096-3.0839844,0.6000977
	C1152.579834,338.913269,1150.3677979,338.0344543,1148.7373047,336.4267578z"/>
<path class="st3" d="M1169.2929688,323.8149414c-0.9477539,0.975647-2.506958,0.99823-3.482666,0.0504761
	c-0.9755859-0.9477539-0.9981689-2.506958-0.050415-3.482605s2.506958-0.99823,3.4825439-0.0504761
	c0.477417,0.4636841,0.7467041,1.1008301,0.7468262,1.7662964
	C1170.0057373,322.7426453,1169.753418,323.3644409,1169.2929688,323.8149414z M1165.5488281,338.71875v-13.3920898h4.1044922
	V338.71875H1165.5488281z"/>
<path class="st3" d="M1178.9414062,335.2387695h1.4638672v3.480011h-2.0878906
	c-1.2438965,0.0781555-2.4768066-0.2734985-3.4921875-0.9960938c-0.9150391-0.8898621-1.3708496-2.1506348-1.2363281-3.4199219
	v-5.5678711h-1.2480469v-3.4082031h1.2480469v-3.2637024h4.1044922v3.2636719h2.6875v3.4082031h-2.6875v5.5678711
	C1177.6933594,334.9267578,1178.109375,335.2387695,1178.9414062,335.2387695z"/>
<path class="st3" d="M1193.8212891,321.8706055h4.1035156V338.71875h-4.1035156v-6.9838867h-6.5039062v6.9838867h-4.1044922
	v-16.8481445h4.1044922v6.7441406h6.5039062V321.8706055z"/>
<path class="st3" d="M1210.6210938,325.3266602h4.1035156V338.71875h-4.1035156v-1.9677429
	c-0.8487549,1.4094543-2.4152832,2.2249451-4.0566406,2.1118164c-1.4077148,0.0535583-2.7694092-0.5069885-3.7314453-1.5361328
	c-0.9995117-1.1541138-1.5117188-2.6512756-1.4287109-4.1757812v-7.8242188h4.0800781v7.2720032
	c-0.0467529,0.7323303,0.199585,1.4532166,0.6845703,2.0039062c1.0784912,0.9440308,2.6890869,0.9440308,3.7675781,0
	c0.4849854-0.5506897,0.7313232-1.2715759,0.6845703-2.0039062V325.3266602z"/>
<path class="st3" d="M1222.4287109,327.0786133c0.9000244-1.258667,2.378418-1.973053,3.9238281-1.8959961
	c1.6571045-0.0205994,3.2401123,0.6854248,4.3320312,1.9321289c2.3671875,2.8574219,2.3671875,6.9945679,0,9.8519897
	c-1.0838623,1.23526-2.6525879,1.9363708-4.2958984,1.9199219c-1.5998535,0.0430908-3.1043701-0.7592468-3.9599609-2.1118164
	v1.9438477h-4.1044922v-17.7596741h4.1044922V327.0786133z M1227.3964844,334.4829102
	c0.6242676-0.6516724,0.9462891-1.5354614,0.8876953-2.4360046c0.0570068-0.9039612-0.2645264-1.7909241-0.8876953-2.4482422
	c-1.0994873-1.1298523-2.9066162-1.1545105-4.036499-0.0550537c-0.0146484,0.0142822-0.0291748,0.028717-0.0435791,0.043335
	c-0.6243896,0.6516418-0.9464111,1.5354614-0.8876953,2.4360046c-0.0570068,0.9038086,0.2646484,1.7905884,0.8876953,2.4477539
	c1.098877,1.1299744,2.9056396,1.1552124,4.0356445,0.0563354
	C1227.3670654,334.5125122,1227.3818359,334.4977722,1227.3964844,334.4829102z"/>
<path class="st3" d="M1146.2128906,145.3808594h4.1044922v13.7279968h5.1113281v3.1201477h-9.2158203V145.3808594z"/>
<path class="st3" d="M1163.3974609,162.3970032c-1.791748,0.0636902-3.5296631-0.6184082-4.7998047-1.8837891
	c-1.2819824-1.3420258-1.9584961-3.1504669-1.8720703-5.0043945c-0.0913086-1.8414154,0.5814209-3.6388855,1.859375-4.9677734
	c1.2830811-1.2494965,3.0228271-1.9175873,4.8125-1.8481445c1.8083496-0.0598602,3.5673828,0.5955963,4.8955078,1.8242188
	c1.3432617,1.3317719,2.0511475,3.1754761,1.9443359,5.0639954c0.0020752,0.4338074-0.0299072,0.8671112-0.0957031,1.2958984
	h-9.2167969c0.1566162,1.1292114,1.1046143,1.9809265,2.2441406,2.0161133
	c0.3942871,0.0187988,0.7886963-0.0341492,1.1640625-0.15625c0.2033691-0.0736847,0.3939209-0.1789703,0.5644531-0.3119965
	c0.1700439-0.1584625,0.3265381-0.3309479,0.4677734-0.515625h4.4404297
	c-0.3668213,1.3189545-1.1817627,2.4688721-2.3046875,3.2519989
	C1166.3000488,162.0005798,1164.8621826,162.433609,1163.3974609,162.3970032z M1165.1494141,152.7851868
	c-0.4802246-0.3920898-1.0842285-0.600647-1.7041016-0.5883789c-0.6062012-0.017807-1.1971436,0.1921082-1.65625,0.5883789
	c-0.449585,0.3940735-0.7468262,0.9333344-0.8398438,1.5239258h5.015625
	c-0.050293-0.5986328-0.3452148-1.1500092-0.8154297-1.5239563V152.7851868z"/>
<path class="st3" d="M1178.5654297,158.7489929h1.4638672v3.4799957h-2.0878906
	c-1.2438965,0.0781708-2.4768066-0.2734985-3.4921875-0.9960938c-0.9150391-0.8898468-1.3708496-2.1506195-1.2363281-3.4199219
	v-5.5678711h-1.2480469v-3.4082031h1.2480469v-3.2636719h4.1044922v3.2636719h2.6875v3.4082031h-2.6875v5.5679016
	C1177.3173828,158.4369965,1177.7333984,158.7489929,1178.5654297,158.7489929z"/>
<path class="st3" d="M1181.9970703,142.0688477h3.1435547c0.3201904,0.9594727,0.4824219,1.9645844,0.4804688,2.9760742
	c0.0371094,0.9163361-0.2662354,1.8139801-0.8515625,2.5200043c-0.645752,0.6886444-1.5671387,1.0499878-2.5087891,0.9838867
	v-1.5600586c0.8320312,0,1.2480469-0.5279999,1.2480469-1.5839996v-0.3837585h-1.5117188V142.0688477z"/>
<path class="st3" d="M1187.46875,152.8691406c-0.0037842-1.1775818,0.5592041-2.28508,1.5126953-2.9760742
	c1.1867676-0.8557739,2.6308594-1.2793274,4.0917969-1.2001953c1.4788818-0.0703125,2.9405518,0.3425598,4.1640625,1.1762695
	c1.0360107,0.7467499,1.6586914,1.938858,1.6796875,3.2158203h-4.2001953
	c-0.0002441-0.3741455-0.1782227-0.7259216-0.4794922-0.9477539c-0.3782959-0.1921234-0.8011475-0.2792969-1.2246094-0.2524414
	c-1.0712891,0-1.6070557,0.328125-1.6074219,0.984375c0,0.5917969,0.6558838,0.9996796,1.9677734,1.2236328
	c1.2443848,0.2004242,2.4608154,0.5468903,3.6240234,1.0322266c1.2272949,0.4929199,2.0141602,1.7021027,1.9677734,3.0239258
	c0.012085,1.2252197-0.5917969,2.374649-1.6074219,3.0599976c-1.1868896,0.8269653-2.6112061,1.2440796-4.0566406,1.1880035
	c-1.4421387,0.0534363-2.8659668-0.3361053-4.0800781-1.1162109c-1.0908203-0.7479401-1.7523193-1.977417-1.7753906-3.2998047
	h4.2001953c0.1113281,0.815918,0.6871338,1.2239685,1.7275391,1.2241211
	c0.4217529,0.0170746,0.8380127-0.1005859,1.1884766-0.3359375c0.2930908-0.1894989,0.4693604-0.5152588,0.4677734-0.8642578
	c0-0.3515625-0.2601318-0.6315002-0.7802734-0.8398438c-0.6103516-0.2336731-1.2409668-0.4103699-1.8837891-0.527832
	c-0.7363281-0.1440582-1.4761963-0.3240509-2.2197266-0.5399933c-0.7207031-0.2019043-1.375-0.5910645-1.8964844-1.1279297
	C1187.7169189,154.4027557,1187.4355469,153.6456604,1187.46875,152.8691406z"/>
<path class="st3" d="M1219.0996094,145.3329926v3.1201172h-6.0957031v3.6239929h5.3759766v3.1196289h-5.3759766v3.9121094h6.0957031
	v3.120163h-10.2001953v-16.8960114H1219.0996094z"/>
<path class="st3" d="M1226.7314453,148.8369141v1.968277c0.8480225-1.4097137,2.4144287-2.2254944,4.0556641-2.1123047
	c1.407959-0.0531311,2.7697754,0.5073242,3.7324219,1.5361328c0.9986572,1.1545563,1.510498,2.6515045,1.4277344,4.1757965
	v7.8241882h-4.0800781v-7.2720032c0.0465088-0.732132-0.1993408-1.4528046-0.6835938-2.0039062
	c-1.0788574-0.9440002-2.6896973-0.9440002-3.7685547,0c-0.4846191,0.5508728-0.7304688,1.2717133-0.6835938,2.0039062v7.2720032
	h-4.1044922v-13.3920898H1226.7314453z"/>
<path class="st3" d="M1240.3027344,160.5249023c-2.479126-2.861618-2.479126-7.1100616,0-9.9716797
	c1.2796631-1.2561798,3.0206299-1.929184,4.8125-1.8603516c1.4771729-0.0458527,2.9307861,0.3785095,4.1513672,1.2119141
	c1.1551514,0.8373871,1.9591064,2.0729675,2.2568359,3.4682617h-4.4404297
	c-0.3140869-0.7555695-1.0662842-1.2348175-1.8837891-1.2001953c-0.7648926-0.051712-1.5015869,0.2984772-1.9443359,0.9243164
	c-0.8476562,1.5134125-0.8476562,3.3586578,0,4.8720703c0.4158936,0.6121368,1.1213379,0.9624786,1.8603516,0.9238281
	c0.416626,0.0224152,0.831543-0.0689087,1.2001953-0.2641602c0.3374023-0.2351379,0.6030273-0.5591125,0.7675781-0.9360046
	h4.4404297c-0.3280029,1.3786774-1.1364746,2.5954437-2.2802734,3.4321289
	c-1.2001953,0.8632812-2.6500244,1.3100281-4.1279297,1.2720032
	C1243.321167,162.4656219,1241.5788574,161.7878418,1240.3027344,160.5249023z"/>
<path class="st3" d="M1257.9306641,148.8369141v2.4960938c0.9599609-1.7597809,2.2398682-2.6398163,3.8398438-2.6401367v4.1762695
	h-1.0078125c-0.7681885-0.0589142-1.5294189,0.1818695-2.1240234,0.671875
	c-0.5429688,0.656723-0.7982178,1.5046539-0.7080078,2.352005v6.3359833h-4.1044922v-13.3920898H1257.9306641z"/>
<path class="st3" d="M1267.5058594,161.9648438l-5.2080078-13.1279297h4.65625l2.9755859,8.7602539l3.2646484-8.7602539h4.2958984
	l-8.5439453,19.7758789h-4.2958984L1267.5058594,161.9648438z"/>
<path class="st3" d="M1283.4902344,150.5888672c0.9000244-1.258667,2.378418-1.973053,3.9238281-1.8959961
	c1.6571045-0.0206146,3.2401123,0.6854401,4.3320312,1.9321289c2.3671875,2.8574219,2.3671875,6.9945831,0,9.852005
	c-1.0838623,1.2352753-2.6525879,1.9363708-4.2958984,1.9199219c-1.5998535,0.0430756-3.1043701-0.7592316-3.9599609-2.1118164
	v8.3276367h-4.1044922v-19.7758331h4.1044922V150.5888672z M1288.4580078,157.9931641
	c0.6242676-0.6516876,0.9462891-1.5354767,0.8876953-2.4360046c0.0570068-0.9039612-0.2645264-1.7909088-0.8876953-2.4482422
	c-1.0994873-1.1298523-2.9066162-1.1544952-4.036499-0.0550385c-0.0146484,0.0142822-0.0291748,0.0287323-0.0435791,0.0433197
	c-0.6243896,0.6516266-0.9464111,1.5354614-0.8876953,2.4360046c-0.0570068,0.9038086,0.2646484,1.7905731,0.8876953,2.4477539
	c1.098877,1.1299744,2.9057617,1.1551971,4.0356445,0.0563202
	C1288.4285889,158.0227356,1288.4433594,158.0080261,1288.4580078,157.9931641z"/>
<path class="st3" d="M1301.8261719,158.7489929h1.4638672v3.4799957h-2.0878906
	c-1.2438965,0.0781708-2.4768066-0.2734985-3.4921875-0.9960938c-0.9150391-0.8898468-1.3708496-2.1506195-1.2363281-3.4199219
	v-5.5678711h-1.2480469v-3.4082031h1.2480469v-3.2636719h4.1044922v3.2636719h2.6875v3.4082031h-2.6875v5.5679016
	C1300.578125,158.4369965,1300.9941406,158.7489929,1301.8261719,158.7489929z"/>
<path class="st4" d="M1039.8221436,345.0258484c-8.7210693,0.0002747-15.7912598-7.069397-15.7915039-15.7905273
	s7.069458-15.7911987,15.7905273-15.7914734c8.7211914-0.0002747,15.7912598,7.069397,15.7915039,15.7905273
	c0,0.0001221,0,0.0002747,0,0.0003967C1055.6116943,337.9553223,1048.5427246,345.0245667,1039.8221436,345.0258484z"/>
<path class="st4" d="M1038.8221436,171.5358429c-8.7210693,0.0002594-15.7911987-7.069397-15.7915039-15.7905273
	c-0.0002441-8.7211304,7.069458-15.791214,15.7905273-15.7914734c8.7211914-0.0002594,15.7912598,7.069397,15.7915039,15.7905273
	c0,0.0001373,0,0.0002899,0,0.0004272C1054.6116943,164.465332,1047.5427246,171.5345612,1038.8221436,171.5358429z"/>
<path class="st4" d="M678.2089844,554.1098633c0-8.7211304,7.0698242-15.7910156,15.7909546-15.7910767
	c8.7211304,0,15.7910156,7.0698853,15.7910767,15.7909546c0,8.7211304-7.0698853,15.7910767-15.7909546,15.7910767
	c-0.000061,0-0.000061,0-0.000061,0C685.2792969,569.8998413,678.2099609,562.8305664,678.2089844,554.1098633z"/>
<path class="st4" d="M183.6374512,382.8752441c-0.000061-8.7211304,7.0697632-15.7910461,15.7908936-15.7911072
	s15.7910461,7.0697632,15.7911072,15.7908936s-7.0697632,15.7910461-15.7908936,15.7911072c-0.0000305,0-0.0000763,0-0.0001068,0
	C190.7076874,398.6653442,183.6382904,391.5960083,183.6374512,382.8752441z"/>
<line class="st5" x1="1039.427124" y1="329.2348022" x2="1125.8253174" y2="329.2348022"/>
<path class="st3" d="M1039.8218994,337.1303406c-4.3605957,0.0001526-7.8956299-3.534668-7.895752-7.8952637
	c-0.0002441-4.3605957,3.534668-7.8956604,7.8952637-7.8957825c4.3605957-0.0001526,7.8956299,3.534668,7.895752,7.8952637
	c0,0.000061,0,0.0001526,0,0.0002441C1047.7166748,333.5950623,1044.1821289,337.1296997,1039.8218994,337.1303406z"/>
<polygon class="st3" points="1124.0749512,335.2179871 1134.4370117,329.2349854 1124.0749512,323.2510071 "/>
<line class="st5" x1="1038.427124" y1="155.7447968" x2="1124.8253174" y2="155.7447968"/>
<path class="st3" d="M1038.8218994,163.6403198c-4.3605957,0.0001373-7.8956299-3.5346832-7.895752-7.8952637
	s3.534668-7.8956299,7.8952637-7.8957825c4.3605957-0.0001373,7.8956299,3.5346985,7.895752,7.8952637
	c0,0.0000916,0,0.0001678,0,0.0002594C1046.7166748,160.105072,1043.1821289,163.639679,1038.8218994,163.6403198z"/>
<polygon class="st3" points="1123.0749512,161.7279968 1133.4370117,155.7449951 1123.0749512,149.7610016 "/>
<path class="st4" d="M932.6025391,554.1098633c-0.000061-8.7211304,7.0697632-15.7910767,15.7908936-15.7911377
	c8.7211304,0,15.7910767,7.0698242,15.7911377,15.7908936c0,8.7211304-7.0698242,15.7910767-15.7908936,15.7911377
	c-0.000061,0-0.000061,0-0.0001221,0C939.6728516,569.8998413,932.6035767,562.8305664,932.6025391,554.1098633z"/>
<line class="st5" x1="948.3935547" y1="553.7150269" x2="948.3935547" y2="651.8580933"/>
<path class="st3" d="M940.4980469,554.1098022c-0.000061-4.3605957,3.5348511-7.8955688,7.8954468-7.8955688
	c4.3605957-0.000061,7.8955688,3.5348511,7.8955688,7.8954468c0.000061,4.3605347-3.5348511,7.8955078-7.8954468,7.8955688
	h-0.000061C944.0332031,562.0047607,940.4985352,558.4701538,940.4980469,554.1098022z"/>
<polygon class="st3" points="942.4099731,650.1069946 948.3939819,660.4699707 954.3770142,650.1069946 "/>
<line class="st5" x1="694" y1="553.7150269" x2="694" y2="651.8580933"/>
<path class="st3" d="M686.1044922,554.1098022c-0.000061-4.3605957,3.5348511-7.8955688,7.8954468-7.8955688
	c4.3605957-0.000061,7.8955688,3.5348511,7.8955688,7.8954468c0.000061,4.3605347-3.5348511,7.8955078-7.8954468,7.8955688H694
	C689.6396484,562.0047607,686.1050415,558.4701538,686.1044922,554.1098022z"/>
<polygon class="st3" points="688.0170288,650.1069946 694,660.4699707 699.9840088,650.1069946 "/>
<line class="st5" x1="199.4284668" y1="382.4804077" x2="199.4284668" y2="651.8580933"/>
<path class="st3" d="M191.5330048,382.8751831c-0.0000305-4.3605652,3.5348816-7.8955383,7.8954468-7.8955688
	s7.8955383,3.5348816,7.8955688,7.8954468c0.0000458,4.3605652-3.5348663,7.8955383-7.8954468,7.8955688
	c-0.0000153,0-0.0000458,0-0.000061,0C195.0681305,390.7702332,191.533432,387.2355652,191.5330048,382.8751831z"/>
<polygon class="st3" points="193.4450073,650.1069946 199.4279938,660.4699707 205.4120026,650.1069946 "/>
<g>
	<path class="st2" d="M354.6162415,381.9796143c-2.7580566-0.0080872-4.9919434-2.2419128-5-5v-95.489624
		c0.0080566-2.7580872,2.2419434-4.9919128,5-5h188.9999695c3.3137207,0,6,2.6862793,6,6v94.4895935
		c-0.0080566,2.7580872-2.2419434,4.9919128-5,5L354.6162415,381.9796143z"/>
	<path class="st3" d="M385.6324158,338.71875l-0.9355469-2.8320007h-6.0488281l-0.9355469,2.8320007h-4.3681641
		l5.8564453-16.8959961h4.9921875l5.8319702,16.8959961H385.6324158z M379.6802673,332.7666016h3.984375l-1.9921875-6
		L379.6802673,332.7666016z"/>
	<path class="st3" d="M401.1372986,325.3266602h4.1035156V338.71875h-4.1035156v-1.9677429
		c-0.8487549,1.4094543-2.4152832,2.2249451-4.0566406,2.1118164c-1.4077759,0.0535583-2.7694092-0.5069885-3.7314453-1.5361328
		c-0.9995117-1.1541138-1.5117798-2.6512756-1.4287109-4.1757812v-7.8242188h4.0800781v7.2720032
		c-0.0466919,0.7323303,0.199585,1.4532166,0.6845703,2.0039062c1.0784302,0.9440002,2.6891479,0.9440002,3.7675781,0
		c0.4849854-0.5506897,0.7312622-1.2715759,0.6845703-2.0039062V325.3266602z"/>
	<path class="st3" d="M414.5289001,335.2387695h1.4638672v3.480011h-2.0878906
		c-1.2438354,0.0781555-2.4767456-0.2734985-3.4921875-0.9960938c-0.9151001-0.8898621-1.3708496-2.1506348-1.2363281-3.4199219
		v-5.5678711h-1.2480469v-3.4082031h1.2480469v-3.2637024h4.1044922v3.2636719h2.6875v3.4082031h-2.6875v5.5678711
		C413.2808533,334.9267578,413.6968689,335.2387695,414.5289001,335.2387695z"/>
	<path class="st3" d="M419.8687439,336.9907227c-1.3651733-1.2931519-2.1047363-3.1133118-2.0283203-4.9921875
		c-0.0814819-1.8666992,0.6548462-3.676178,2.0166016-4.9555664c2.861145-2.4804688,7.1105347-2.4804688,9.9716797,0
		c1.3546753,1.2833252,2.0857544,3.0913391,2.0039062,4.9555664c0.0778198,1.8719482-0.6469727,3.6881104-1.9921875,4.9921875
		c-1.3375854,1.2680054-3.1254883,1.9503784-4.9677734,1.8959961
		C423.0202942,338.9371033,421.2226257,338.2559509,419.8687439,336.9907227z M426.8404236,334.5185547
		c0.5857544-0.6943665,0.87854-1.5892944,0.8164062-2.4956055c0.0637817-0.907135-0.2387085-1.802002-0.8398438-2.484375
		c-0.5165405-0.5489197-1.2384644-0.8576965-1.9921875-0.8520508c-0.7506104-0.0072021-1.4695435,0.3020935-1.9804688,0.8520508
		c-1.1132202,1.4764404-1.1032104,3.5145569,0.0244141,4.980011c0.5181885,0.5550232,1.2446289,0.8683167,2.0039062,0.8642578
		C425.6222839,335.3908386,426.3391418,335.0759583,426.8404236,334.5185547z"/>
	<path class="st3" d="M433.5601501,329.3588867c-0.0037842-1.1775818,0.5591431-2.2850647,1.5126953-2.9760742
		c1.1867676-0.8557739,2.6307983-1.2793274,4.0917969-1.2001953c1.4788818-0.0703125,2.9405518,0.3425598,4.1640625,1.1762695
		c1.0360718,0.7467651,1.6587524,1.9388428,1.6796875,3.2158203h-4.2001953
		c-0.0002441-0.3741455-0.1782227-0.7259216-0.4794922-0.9477539c-0.3782959-0.1921082-0.8012085-0.2792969-1.2246094-0.2524414
		c-1.0712891,0-1.6071167,0.328125-1.6074219,0.984375c0,0.5917969,0.6559448,0.9996643,1.9677734,1.2236328
		c1.2443848,0.2004395,2.4608154,0.5469055,3.6240234,1.0322266c1.227356,0.4929199,2.0142212,1.7021179,1.9677734,3.0239258
		c0.012085,1.2252502-0.5917358,2.3746948-1.6074219,3.0600586c-1.1868896,0.8269653-2.611145,1.2440796-4.0566406,1.1879883
		c-1.4421387,0.0534363-2.8659668-0.3361206-4.0800781-1.1162109c-1.0908203-0.7479248-1.7523193-1.977417-1.7753906-3.2998047
		h4.2001953c0.1113281,0.815918,0.6871948,1.2239685,1.7275391,1.2241211
		c0.4217529,0.0170898,0.8380737-0.1005859,1.1884766-0.3359375c0.2930908-0.1894836,0.4694214-0.5152588,0.4677734-0.8642578
		c0-0.3515625-0.2600708-0.6315002-0.7802734-0.8398438c-0.6102905-0.2336731-1.2409058-0.4103699-1.8837891-0.527832
		c-0.7363281-0.144043-1.4762573-0.3240662-2.2197266-0.5400085c-0.7207031-0.2019043-1.375061-0.5910645-1.8964844-1.1279297
		C433.8082581,330.8925171,433.5270081,330.1354065,433.5601501,329.3588867z"/>
	<path class="st3" d="M448.6685486,337.0146484c-2.479187-2.8616028-2.479187-7.1100769,0-9.9716797
		c1.2796631-1.2561951,3.0206299-1.9291992,4.8125-1.8603516c1.4772339-0.0458374,2.9308472,0.3785095,4.1513672,1.2119141
		c1.1550903,0.8374023,1.9591064,2.0729675,2.2568359,3.4682617h-4.4404297
		c-0.3140869-0.7555542-1.0662842-1.2348022-1.8837891-1.2001953c-0.7648926-0.0517273-1.5015259,0.2984924-1.9443359,0.9243164
		c-0.8476562,1.5133972-0.8476562,3.3586731,0,4.8720703c0.4158325,0.6121521,1.1213379,0.9624939,1.8603516,0.9238281
		c0.416626,0.0223999,0.8314819-0.0689087,1.2001953-0.2641602c0.3374023-0.2351379,0.6030273-0.5591125,0.7675781-0.9360046
		h4.4404297c-0.328064,1.3786926-1.1364746,2.5954285-2.2802734,3.4321289
		c-1.2001953,0.8632812-2.6499634,1.3100281-4.1279297,1.2720032
		C451.6869812,338.9553833,449.9446106,338.2775879,448.6685486,337.0146484z"/>
	<path class="st3" d="M462.9839783,336.9667969c-2.3671265-2.8574219-2.3671265-6.9945679,0-9.8519897
		c1.0917358-1.2468262,2.6748657-1.9529114,4.3319702-1.9321289c1.5454102-0.0770569,3.0238647,0.6373291,3.9238281,1.8959961
		v-1.7520142h4.1044922V338.71875h-4.1044922v-1.9438477c-0.8733521,1.3453064-2.3797607,2.1439514-3.9833984,2.1118164
		C465.6205139,338.8998108,464.0603333,338.1987,462.9839783,336.9667969z M470.3521423,334.4707031
		c0.6230469-0.6571655,0.9446411-1.5439453,0.8876953-2.4477539c0.0587158-0.9005432-0.2633667-1.7843628-0.8876953-2.4360046
		c-1.105896-1.1235046-2.913269-1.1377869-4.0367432-0.0318604c-0.0145874,0.0143738-0.0290527,0.0289001-0.043335,0.0435791
		c-0.6231689,0.6573181-0.9447632,1.544281-0.8876953,2.4482422c-0.0586548,0.9005432,0.2634277,1.7843323,0.8876953,2.4360046
		c1.1055908,1.1233826,2.9125977,1.1377869,4.0359497,0.032196
		C470.3229065,334.5004578,470.337616,334.4856567,470.3521423,334.4707031z"/>
	<path class="st3" d="M478.9440002,338.71875v-17.7597351h4.1044922v17.7597656L478.9440002,338.71875z"/>
	<path class="st3" d="M490.3921814,323.8149414c-0.9477539,0.975647-2.506958,0.99823-3.482605,0.0504761
		s-0.99823-2.506958-0.0504761-3.482605s2.506958-0.99823,3.482605-0.0504761
		c0.477356,0.4636841,0.7467041,1.1008301,0.7467651,1.7662964
		C491.10495,322.7426453,490.8526917,323.3644409,490.3921814,323.8149414z M486.6480408,338.71875v-13.3920898h4.1044922V338.71875
		H486.6480408z"/>
	<path class="st3" d="M498.4566345,325.3266602v1.9682617c0.8480835-1.4096985,2.4144287-2.2254944,4.0556641-2.1123047
		c1.407959-0.0531311,2.7697144,0.5073242,3.7324219,1.5361328c0.9986572,1.154541,1.510498,2.6514893,1.4277344,4.1757812
		v7.8242188h-4.0800781v-7.2720032c0.0464478-0.7321472-0.1994019-1.4527893-0.6835938-2.0039062
		c-1.0788574-0.9440308-2.6896973-0.9440308-3.7685547,0c-0.4846191,0.5508728-0.7305298,1.271698-0.6835938,2.0039062v7.2720032
		h-4.1044922v-13.3920898H498.4566345z"/>
	<path class="st3" d="M511.9440002,336.9667969c-2.3671265-2.8574219-2.3671265-6.9945679,0-9.8519897
		c1.0917053-1.2468262,2.6748352-1.9529114,4.3319397-1.9321289c1.5454102-0.0770569,3.0238647,0.6373291,3.9238281,1.8959961
		v-1.7520142h4.1044922v13.320343c0.0594482,1.692749-0.4850464,3.3514709-1.5361328,4.6796875
		c-0.5570679,0.671814-1.28125,1.1850891-2.0996094,1.4882812c-2.6337891,0.9021301-5.5270996,0.6402283-7.9560547-0.7202148
		c-1.2325745-0.888855-1.9855042-2.2972412-2.0399475-3.815918h4.0312195
		c0.3847656,1.0078125,1.3450928,1.5117188,2.8808594,1.5117188c0.7018433,0.0200195,1.380127-0.2539978,1.8710938-0.7558594
		c0.552002-0.6672668,0.8193359-1.5249634,0.7441406-2.3876953v-1.8721008
		c-0.8733521,1.3453064-2.3797607,2.1439514-3.9833984,2.1118164
		C514.5805664,338.8998413,513.0203247,338.1987305,511.9440002,336.9667969z M519.3121338,334.4707031
		c0.6230469-0.6571655,0.9446411-1.5439453,0.8876953-2.4477539c0.0587158-0.9005432-0.2633667-1.7843628-0.8876953-2.4360046
		c-1.105896-1.1235046-2.913269-1.1377869-4.0367432-0.0318604c-0.0145874,0.0143738-0.0290527,0.0289001-0.043335,0.0435791
		c-0.6231689,0.6573181-0.9447632,1.544281-0.8876953,2.4482422c-0.0586548,0.9005432,0.2634277,1.7843323,0.8876953,2.4360046
		c1.1055908,1.1233826,2.9125977,1.1377869,4.0359497,0.032196
		C519.2828979,334.5004578,519.2976074,334.4856567,519.3121338,334.4707031z"/>
</g>
<g>
	<path class="st3" d="M736.2333984,325.362793v-3.1201172h13.2958984v3.1201172h-4.6083984v13.7280273h-4.1035156V325.362793
		H736.2333984z"/>
	<path class="st3" d="M757.6650391,339.2587891c-1.9521484,0-3.5527344-0.6279297-4.7998047-1.8837891
		c-1.2480469-1.2558594-1.8720703-2.9238281-1.8720703-5.0043945c0-2.0795898,0.6191406-3.7353516,1.859375-4.9677734
		c1.2402344-1.2319336,2.84375-1.8481445,4.8125-1.8481445c1.9677734,0,3.5996094,0.6083984,4.8955078,1.8242188
		s1.9443359,2.9038086,1.9443359,5.0639648c0,0.4643555-0.0322266,0.8959961-0.0957031,1.2958984h-9.2167969
		c0.0800781,0.5922852,0.3447266,1.0761719,0.7919922,1.4521484c0.4482422,0.3759766,0.9326172,0.5639648,1.4521484,0.5639648
		s0.9082031-0.0517578,1.1640625-0.15625c0.2558594-0.1035156,0.4443359-0.2075195,0.5644531-0.3120117
		c0.1201172-0.1035156,0.2753906-0.2758789,0.4677734-0.515625h4.4404297
		c-0.3847656,1.34375-1.1523438,2.4277344-2.3046875,3.2519531
		C760.6171875,338.847168,759.2490234,339.2587891,757.6650391,339.2587891z M759.4169922,329.6469727
		c-0.4804688-0.3920898-1.0488281-0.5883789-1.7041016-0.5883789c-0.65625,0-1.2080078,0.1962891-1.65625,0.5883789
		s-0.7285156,0.8999023-0.8398438,1.5239258h5.015625C760.1689453,330.546875,759.8964844,330.0390625,759.4169922,329.6469727z"/>
	<path class="st3" d="M771.2490234,339.0908203h-4.1044922v-17.7597656h4.1044922v9.9599609l4.1513672-5.5922852h5.5205078
		l-5.7363281,6.840332l5.7363281,6.5517578h-5.4482422l-4.2236328-5.3520508V339.0908203z"/>
	<path class="st3" d="M788.5048828,335.6108398h1.4638672v3.4799805h-2.0878906
		c-1.5039062,0-2.6679688-0.3320312-3.4921875-0.9960938c-0.8242188-0.6635742-1.2363281-1.8037109-1.2363281-3.4199219v-5.5678711
		h-1.2480469v-3.4082031h1.2480469v-3.2636719h4.1044922v3.2636719h2.6875v3.4082031h-2.6875v5.5678711
		C787.2568359,335.2988281,787.6728516,335.6108398,788.5048828,335.6108398z"/>
	<path class="st3" d="M793.8447266,337.362793c-1.3525391-1.2636719-2.0283203-2.9277344-2.0283203-4.9921875
		c0-2.0639648,0.671875-3.7158203,2.0166016-4.9555664c1.34375-1.2397461,3.0078125-1.8603516,4.9912109-1.8603516
		c1.984375,0,3.6445312,0.6206055,4.9804688,1.8603516s2.0039062,2.8916016,2.0039062,4.9555664
		c0,2.0644531-0.6640625,3.7285156-1.9921875,4.9921875c-1.328125,1.2641602-2.984375,1.8959961-4.9677734,1.8959961
		C796.8642578,339.2587891,795.1962891,338.6269531,793.8447266,337.362793z M800.8164062,334.890625
		c0.5439453-0.5756836,0.8164062-1.4077148,0.8164062-2.4956055s-0.2802734-1.9160156-0.8398438-2.484375
		c-0.5605469-0.5673828-1.2246094-0.8520508-1.9921875-0.8520508c-0.7685547,0-1.4277344,0.284668-1.9804688,0.8520508
		c-0.5517578,0.5683594-0.828125,1.3964844-0.828125,2.484375s0.2841797,1.9199219,0.8525391,2.4956055
		c0.5673828,0.5761719,1.2353516,0.8642578,2.0039062,0.8642578
		C799.6162109,335.7548828,800.2724609,335.4667969,800.8164062,334.890625z"/>
	<path class="st3" d="M812.5527344,325.6987305v1.9682617c0.8476562-1.4077148,2.1992188-2.1123047,4.0556641-2.1123047
		c1.5361328,0,2.7802734,0.512207,3.7324219,1.5361328c0.9511719,1.0239258,1.4277344,2.4160156,1.4277344,4.1757812v7.8242188
		h-4.0800781v-7.2719727c0-0.8642578-0.2285156-1.5317383-0.6835938-2.0039062
		c-0.4560547-0.4716797-1.0849609-0.7080078-1.8847656-0.7080078s-1.4277344,0.2363281-1.8837891,0.7080078
		c-0.4560547,0.472168-0.6835938,1.1396484-0.6835938,2.0039062v7.2719727h-4.1044922v-13.3920898H812.5527344z"/>
	<path class="st3" d="M832.4482422,322.2426758h7.3203125c1.7119141,0,3.0751953,0.4165039,4.0917969,1.2480469
		c1.015625,0.8320312,1.5244141,1.8881836,1.5244141,3.1679688c0,1.9042969-1.1123047,3.1918945-3.3359375,3.8642578
		c1.1357422,0.1601562,2.0400391,0.6323242,2.7119141,1.4160156c0.671875,0.7841797,1.0078125,1.7036133,1.0078125,2.7597656
		c0,1.3442383-0.4921875,2.4121094-1.4765625,3.2041016c-0.9833984,0.7919922-2.3554688,1.1879883-4.1152344,1.1879883h-7.7285156
		V322.2426758z M836.5527344,325.362793v3.6479492h2.6875c0.5917969,0,1.0683594-0.1518555,1.4277344-0.4560547
		c0.3603516-0.3037109,0.5400391-0.7558594,0.5400391-1.355957s-0.1796875-1.0561523-0.5400391-1.3676758
		c-0.359375-0.3120117-0.8359375-0.4682617-1.4277344-0.4682617H836.5527344z M836.5527344,335.9707031h3.0957031
		c0.5595703,0,1.0234375-0.1679688,1.3916016-0.5039062s0.5527344-0.7998047,0.5527344-1.3920898
		c0-0.5917969-0.1767578-1.0639648-0.5283203-1.4160156c-0.3525391-0.3515625-0.8085938-0.527832-1.3681641-0.527832h-3.1435547
		V335.9707031z"/>
	<path class="st3" d="M857.7207031,325.6987305h4.1035156v13.3920898h-4.1035156v-1.9677734
		c-0.8486328,1.4077148-2.2001953,2.1118164-4.0566406,2.1118164c-1.5361328,0-2.7802734-0.5117188-3.7314453-1.5361328
		c-0.9521484-1.0234375-1.4287109-2.4155273-1.4287109-4.1757812v-7.8242188h4.0800781v7.2719727
		c0,0.8642578,0.2285156,1.5322266,0.6845703,2.0039062c0.4560547,0.472168,1.0830078,0.7080078,1.8837891,0.7080078
		c0.7998047,0,1.4277344-0.2358398,1.8837891-0.7080078c0.4560547-0.4716797,0.6845703-1.1396484,0.6845703-2.0039062V325.6987305z"
		/>
	<path class="st3" d="M869.1679688,324.1870117c-0.4638672,0.4638672-1.0322266,0.6958008-1.7041016,0.6958008
		s-1.2402344-0.2319336-1.7041016-0.6958008s-0.6953125-1.0361328-0.6953125-1.7163086
		c0-0.6796875,0.2314453-1.2514648,0.6953125-1.7158203c0.4638672-0.4638672,1.0322266-0.6962891,1.7041016-0.6962891
		s1.2402344,0.2324219,1.7041016,0.6962891c0.4638672,0.4643555,0.6962891,1.0361328,0.6962891,1.7158203
		C869.8642578,323.1508789,869.6318359,323.7231445,869.1679688,324.1870117z M865.4238281,339.0908203v-13.3920898h4.1044922
		v13.3920898H865.4238281z"/>
	<path class="st3" d="M873.1279297,339.0908203v-17.7597656h4.1044922v17.7597656H873.1279297z"/>
	<path class="st3" d="M881.6240234,337.3388672c-1.1835938-1.2797852-1.7753906-2.9199219-1.7753906-4.9199219
		s0.5917969-3.644043,1.7753906-4.9321289c1.1835938-1.2875977,2.6279297-1.9321289,4.3320312-1.9321289
		s3.0117188,0.6323242,3.9238281,1.8959961v-6.1196289h4.1044922v17.7597656h-4.1044922v-1.9438477
		c-0.9921875,1.4082031-2.3193359,2.1118164-3.9833984,2.1118164S882.8076172,338.6191406,881.6240234,337.3388672z
		 M888.9921875,334.8427734c0.5917969-0.5761719,0.8876953-1.3920898,0.8876953-2.4477539
		c0-1.0561523-0.2958984-1.8681641-0.8876953-2.4360352s-1.2714844-0.8520508-2.0400391-0.8520508
		c-0.7675781,0-1.4482422,0.2880859-2.0400391,0.8637695c-0.5917969,0.5761719-0.8876953,1.3920898-0.8876953,2.4482422
		c0,1.0556641,0.2958984,1.8681641,0.8876953,2.4360352s1.2724609,0.8520508,2.0400391,0.8520508
		C887.7207031,335.7070312,888.4003906,335.4189453,888.9921875,334.8427734z"/>
</g>
</svg>
