<svg id="Layer_1" data-name="Layer 1" xmlns="http://www.w3.org/2000/svg" viewBox="0 0 194.25619 159.08912"><defs><style>.cls-1{fill:#72c2cf;}</style></defs><path class="cls-1" d="M161.87813,89.21742c-7.18164,3.50976-19.46485,8.373-32.375,8.373s-25.19336-4.86328-32.376-8.373c-7.18164,3.50976-19.46484,8.373-32.374,8.373-12.91114,0-25.19532-4.86425-32.37891-8.373C25.19258,92.72712,12.90987,97.59022,0,97.59046v40.938a20.62124,20.62124,0,0,0,20.56079,20.56067H173.69551a20.621,20.621,0,0,0,20.56055-20.56067v-40.938C181.34541,97.59022,169.06148,92.72615,161.87813,89.21742Z"/><path class="cls-1" d="M26.09883,65.37562l6.28516-3.835,6.293,3.85156c3.72363,2.27149,15.72656,8.21,26.07617,8.21,12.43359,0,25.9375-8.127,26.07031-8.209l6.30371-3.89453,6.30273,3.89355c3.72364,2.27149,15.72559,8.21,26.07325,8.21s22.34863-5.93847,26.09961-8.22656l6.28515-3.835,6.293,3.85156c3.72339,2.27143,15.72583,8.20972,26.0752,8.21V20.56068A20.621,20.621,0,0,0,173.69551,0H20.56074A20.62124,20.62124,0,0,0,0,20.56068v53.0415C10.34737,73.60182,22.34785,67.66365,26.09883,65.37562Z"/></svg>