<?xml version="1.0" encoding="utf-8"?>
<!-- Generator: Adobe Illustrator 23.0.2, SVG Export Plug-In . SVG Version: 6.00 Build 0)  -->
<svg version="1.1" id="Layer_1" xmlns="http://www.w3.org/2000/svg" xmlns:xlink="http://www.w3.org/1999/xlink" x="0px" y="0px"
	 viewBox="0 0 20.5 20" style="enable-background:new 0 0 20.5 20;" xml:space="preserve">
<style type="text/css">
	.st0{fill:#FFFFFF;}
</style>
<path id="Octicons-mark-github" class="st0" d="M10.3,0C4.6,0,0,4.6,0,10.3c0,4.4,2.8,8.3,7,9.7c0.5,0.1,0.7-0.2,0.7-0.5
	c0-0.2,0-1.1,0-1.9c-2.6,0.5-3.2-0.6-3.4-1.2c-0.2-0.6-0.6-1.1-1-1.5c-0.4-0.2-0.9-0.7,0-0.7c0.7,0.1,1.3,0.5,1.6,1
	c0.6,1.1,1.9,1.4,3,0.8c0,0,0,0,0,0c0-0.5,0.3-1,0.7-1.4c-2.3-0.3-4.7-1.1-4.7-5.1c0-1,0.4-2,1.1-2.8C4.5,6.1,4.5,5.1,4.9,4.2
	c0,0,0.9-0.3,2.8,1.1c1.7-0.5,3.4-0.5,5.1,0c2-1.3,2.8-1.1,2.8-1.1C16,5.1,16.1,6.1,15.8,7c0.7,0.7,1.1,1.7,1.1,2.8
	c0,3.9-2.4,4.8-4.7,5.1c0.5,0.5,0.7,1.2,0.7,1.9c0,1.4,0,2.5,0,2.8c0,0.3,0.2,0.6,0.7,0.5c5.4-1.8,8.3-7.6,6.5-13
	C18.6,2.8,14.7,0,10.3,0z"/>
</svg>
