<svg id="Layer_1" data-name="Layer 1" xmlns="http://www.w3.org/2000/svg" viewBox="0 0 332.381 111.36238"><defs><style>.cls-1{fill:#384745;}.cls-2{fill:#fd824e;}</style></defs><path class="cls-1" d="M164.20636,29.97714h12.49637V44.12021c0,1.57118-.2241,3.8902-.37513,5.61119h.29962a43.04625,43.04625,0,0,1,3.14236-4.71354l12.34779-15.04072h13.46832L189.1236,49.80692l17.361,30.67946H192.11737l-11.673-21.17686-3.74161,4.565v16.6119H164.20636Z"/><path class="cls-1" d="M218.68374,64.62353c-1.34708,4.86335,1.42015,7.93142,5.61119,7.93142,4.71476,0,7.10929-3.7416,7.10929-9.05439,0-5.6867-2.844-7.85713-6.65986-7.85713a9.09157,9.09157,0,0,0-6.21165,2.39453l-5.38708-5.83651,15.64-12.94581H210.22737v-9.2785H241.282v9.80223l-11.97265,9.87774c7.6318-.74784,14.8909,4.26533,14.8909,13.99326,0,10.55128-8.60618,17.73487-19.45586,17.73487-10.25166,0-18.85662-6.36146-16.61312-15.266Z"/><path class="cls-1" d="M249.20637,54.98769c0-17.869,8.60434-25.00107,20.22309-25.00107,11.69257,0,19.99966,7.13205,19.99966,25.00107,0,19.854-8.60235,26.39755-19.99966,26.39755C257.81071,81.38524,249.20637,74.25319,249.20637,54.98769Zm34.63681,0c0-16.03165-6.47171-20.95725-14.56135-20.95725-8.01383,0-14.48553,4.9256-14.48553,20.95725,0,17.42613,6.4717,22.27991,14.48553,22.27991C277.37147,77.2676,283.84318,72.41382,283.84318,54.98769Z"/><path class="cls-1" d="M303.11467,65.35559a8.23858,8.23858,0,0,0-.44289,2.86678c0,5.36849,4.48471,8.67816,12.50053,8.67816,8.89761,0,11.69257-4.26527,11.69257-8.53053,0-5.147-3.89619-7.79438-11.03023-10.14646-6.83879-2.28026-16.83762-4.4867-16.83762-14.92842,0-8.01582,6.24827-13.3085,16.69-13.3085,10.51752,0,16.25109,5.14705,16.25109,13.52994,0,.808-.07182,1.61793-.14763,2.4259l-5.51412.58852a18.52611,18.52611,0,0,0,.21945-2.795c0-6.9106-4.18945-9.70557-11.02824-9.70557-8.01582,0-10.95642,4.19145-10.95642,8.60235,0,6.47171,5.73556,8.31108,11.98583,10.36989,7.57294,2.49971,15.884,5.14705,15.884,14.63317,0,7.42531-5.80938,13.74939-17.42813,13.74939-9.77939,0-17.20868-4.48471-17.20868-12.7938a10.69061,10.69061,0,0,1,.29525-2.57352Z"/><path class="cls-2" d="M121.58706,0H14.39238A14.43483,14.43483,0,0,0,0,14.39247V96.96991a14.43484,14.43484,0,0,0,14.39238,14.39247H121.58706a14.43484,14.43484,0,0,0,14.39238-14.39247V14.39247A14.43483,14.43483,0,0,0,121.58706,0ZM35.09673,97.22869a13.19537,13.19537,0,1,1,0-26.39073,13.06606,13.06606,0,0,1,6.28564,1.62575l-9.72343,5.651a6.84568,6.84568,0,0,0-2.48008,9.358,6.84443,6.84443,0,0,0,9.358,2.47982l9.74224-5.66191A13.20377,13.20377,0,0,1,35.09673,97.22869ZM61.30435,72.6191,36.75444,86.886a3.29891,3.29891,0,1,1-3.31474-5.70471L57.98926,66.91443a3.299,3.299,0,0,1,3.31509,5.70467Zm-.15826-45.58292-.04272,11.24174a13.19254,13.19254,0,1,1,13.691.05541L74.83677,27.087a6.84539,6.84539,0,1,0-13.69068-.0508ZM71.183,55.46577a3.29891,3.29891,0,0,1-3.29834,3.28659h-.013a3.2992,3.2992,0,0,1-3.28638-3.31107l.10767-28.392a3.29913,3.29913,0,0,1,3.29834-3.28659h.013a3.29919,3.29919,0,0,1,3.28637,3.31107Zm2.09453,12.62709a3.29779,3.29779,0,0,1,4.50625-1.2074l24.74849,14.28878a3.29877,3.29877,0,1,1-3.29869,5.71369L74.48472,72.59915A3.29858,3.29858,0,0,1,73.27749,68.09286Zm27.60557,29.1337A13.20364,13.20364,0,0,1,87.70234,84.32565l9.75728,5.63319a6.84539,6.84539,0,0,0,6.84585-11.85629l-9.73882-5.62294a13.0642,13.0642,0,0,1,6.31641-1.64383,13.19539,13.19539,0,1,1,0,26.39078Z"/></svg>