<?xml version="1.0" encoding="utf-8"?>
<!-- Generator: Adobe Illustrator 23.0.6, SVG Export Plug-In . SVG Version: 6.00 Build 0)  -->
<svg version="1.1" id="Layer_1" xmlns="http://www.w3.org/2000/svg" xmlns:xlink="http://www.w3.org/1999/xlink" x="0px" y="0px"
	 viewBox="0 0 332.381012 111.362381" style="enable-background:new 0 0 332.381012 111.362381;" xml:space="preserve">
<style type="text/css">
	.st0{fill:#FFFFFF;stroke:#000000;stroke-miterlimit:10;}
	.st1{fill:#FFFFFF;}
	.st2{fill:#FD824E;}
</style>
<rect x="9" y="10.8338251" class="st0" width="117" height="89.1661758"/>
<path class="st1" d="M164.2063599,29.9771404h12.4963684v14.1430683c0,1.5711784-0.2241058,3.8902016-0.3751373,5.6111908h0.2996216
	c0.9428253-1.6384735,1.9925537-3.2130623,3.1423645-4.7135391l12.3477936-15.04072h13.4683228l-16.4620972,19.8297787
	l17.3609924,30.6794624h-14.367218l-11.6730042-21.1768608l-3.7416077,4.5649986v16.6119003h-12.4963989V29.9771404z"/>
<path class="st1" d="M218.6837463,64.6235275c-1.3470764,4.8633499,1.4201508,7.9314194,5.6111908,7.9314194
	c4.7147675,0,7.1092834-3.7416,7.1092834-9.05439c0-5.6866989-2.8439941-7.857132-6.6598663-7.857132
	c-2.2988281-0.0158615-4.5183105,0.8397255-6.2116547,2.3945312l-5.387085-5.8365097l15.6399994-12.9458084h-18.5582428v-9.2784996
	h31.0546265v9.8022308l-11.9726562,9.877739c7.6318054-0.7478409,14.8908997,4.2653313,14.8908997,13.9932594
	c0,10.5512772-8.6061859,17.7348709-19.4558563,17.7348709c-10.2516632,0-18.8566284-6.3614578-16.6131134-15.2659988
	L218.6837463,64.6235275z"/>
<path class="st1" d="M249.2063751,54.98769c0-17.8689995,8.6043549-25.00107,20.2230988-25.00107
	c11.6925659,0,19.9996643,7.1320515,19.9996643,25.00107c0,19.8540001-8.602356,26.3975487-19.9996643,26.3975487
	C257.8106995,81.3852386,249.2063751,74.2531891,249.2063751,54.98769z M283.8432007,54.98769
	c0-16.0316505-6.4717102-20.9572487-14.5613403-20.9572487c-8.0138245,0-14.4855347,4.9255981-14.4855347,20.9572525
	c0,17.4261322,6.4717102,22.2799072,14.4855347,22.2799072c8.0895996,0,14.5613098-4.8537827,14.5613098-22.279911H283.8432007z"/>
<path class="st1" d="M303.1146851,65.3555908c-0.31604,0.921875-0.4659729,1.8925171-0.4429016,2.8667831
	c0,5.3684921,4.4847107,8.6781616,12.5005188,8.6781616c8.8976135,0,11.6925659-4.2652664,11.6925659-8.5305328
	c0-5.1469994-3.8961792-7.7943802-11.0302429-10.1464615c-6.8387756-2.2802582-16.837616-4.486702-16.837616-14.928421
	c0-8.0158195,6.2482605-13.3085003,16.6900024-13.3085003c10.5175171,0,16.2510986,5.1470509,16.2510986,13.5299397
	c0,0.8079987-0.0718079,1.6179314-0.147644,2.4258995l-5.5141296,0.5885201
	c0.1436462-0.9247856,0.2170105-1.8591309,0.2194519-2.795002c0-6.9105988-4.1894531-9.7055702-11.0282288-9.7055702
	c-8.0158081,0-10.9564209,4.1914482-10.9564209,8.6023521c0,6.4717102,5.7355652,8.3110809,11.9858398,10.3698883
	c7.572937,2.4997101,15.8840027,5.147049,15.8840027,14.6331711c0,7.4253082-5.8093872,13.7493896-17.4281311,13.7493896
	c-9.7793884,0-17.2086792-4.4847107-17.2086792-12.7938004c-0.0062561-0.8666382,0.0928955-1.7308197,0.2952576-2.5735168
	L303.1146851,65.3555908z"/>
<path class="st2" d="M121.587059,0H14.3923798C6.4533291,0.0233131,0.0232629,6.4534192,0,14.3924704v82.5774384
	c0.0232684,7.9390488,6.453331,14.3691559,14.3923798,14.3924713H121.587059
	c7.9390488-0.0233231,14.3691025-6.4534225,14.3923721-14.3924713V14.3924704
	C135.9561615,6.4534225,129.5261078,0.0233171,121.587059,0z M35.0967293,97.2286911
	c-7.2875996,0.0055542-13.1998692-5.8977051-13.2054253-13.1853027
	c-0.0055561-7.2876053,5.8977051-13.1998749,13.1853065-13.2054291c0.0067062-0.0000076,0.0134125-0.0000076,0.0201187,0
	c2.1986237,0.0044403,4.3605804,0.5636215,6.2856407,1.6257477l-9.7234306,5.651001
	c-3.2689323,1.8993378-4.3792858,6.0889969-2.4800797,9.3580017c1.8985519,3.2687073,6.0874443,4.3794403,9.3561554,2.4808884
	c0.0006142-0.000351,0.0012283-0.0007095,0.0018425-0.0010681l9.7422409-5.661911
	C48.134594,91.4705734,42.2781334,97.2185059,35.0967293,97.2286911z M61.3043518,72.6191025L36.7544403,86.8860016
	c-1.5753136,0.9153366-3.5943871,0.3803253-4.5097237-1.1949844c-0.9153423-1.5753174-0.3803291-3.5943909,1.1949844-4.5097275
	l24.5495605-14.266861c1.578598-0.9097595,3.5958138-0.3675613,4.5055733,1.2110367
	C63.3999634,69.696022,62.868351,71.7026749,61.3043518,72.6191025z M61.1460915,27.0361824l-0.0427208,11.2417412
	c-6.213028-3.8058739-8.1644096-11.9277954-4.3585396-18.1408215c3.8058739-6.213026,11.9277992-8.1644096,18.1408195-4.3585377
	c6.213028,3.805872,8.1644135,11.9277935,4.3585434,18.1408195c-1.1071548,1.807415-2.6335068,3.3214569-4.4498215,4.4139481
	l0.0423965-11.2463322c0.016983-3.7805672-3.0339966-6.8590908-6.8145676-6.8760777
	c-3.7805634-0.0169868-6.8590889,3.0339985-6.8760757,6.8145638c-0.0000153,0.0035706-0.0000267,0.007143-0.0000381,0.0107136
	L61.1460915,27.0361824z M71.1829987,55.4657707c-0.0067825,1.8169022-1.4814224,3.2862892-3.2983398,3.2865906h-0.0130005
	c-1.8217316-0.0070686-3.2929459-1.4893379-3.286377-3.3110695l0.1076736-28.3920002
	c0.0069046-1.8168526,1.4814758-3.2861691,3.2983398-3.2865906h0.0130005
	c1.8217316,0.0070667,3.2929459,1.4893379,3.2863693,3.3110695L71.1829987,55.4657707z M73.2775269,68.092865
	c0.9101944-1.5775757,2.9269333-2.1185989,4.504509-1.2084045c0.0005798,0.0003357,0.0011597,0.0006714,0.0017395,0.0010071
	l24.7484894,14.2887802c1.5777893,0.9109116,2.1184082,2.9283981,1.2074966,4.5061874
	c-0.9109039,1.5777969-2.9283981,2.1184158-4.5061874,1.2075043l0,0L74.4847183,72.5991516
	c-1.5777054-0.9108505-2.1182938-2.9282227-1.2074432-4.5059204c0.0000687-0.0001297,0.000145-0.0002518,0.0002136-0.0003738
	L73.2775269,68.092865z M100.8830948,97.2265625c-7.1666641-0.0105362-13.016449-5.7361221-13.1807556-12.9009094
	l9.7572784,5.633194c3.2756653,1.8875885,7.4613113,0.7623291,9.3488998-2.5133362
	c1.8852692-3.2716446,0.7653198-7.4520111-2.5030518-9.3429565l-9.7388229-5.6229401
	c1.9324799-1.0735321,4.1057739-1.639122,6.3164139-1.6438293c7.2876129-0.0030899,13.1978912,5.9021912,13.2009735,13.1898041
	c0.0030899,7.2876053-5.9021835,13.1978836-13.1897964,13.2009735c-0.0037231,0-0.0074539,0-0.0111771,0H100.8830948z"/>
</svg>
